<svg xmlns="http://www.w3.org/2000/svg" xmlns:xlink="http://www.w3.org/1999/xlink" width="37" height="18" viewBox="0 0 37 18"><defs><clipPath id="a"><rect width="37" height="18" transform="translate(-0.445 0.084)" fill="#fff"/></clipPath></defs><g transform="translate(0.445 -0.084)" clip-path="url(#a)"><g transform="translate(4.515 0.015)"><path d="M27.308,15.254,18.722,6.668a.572.572,0,0,0-.977.4V8.217a.572.572,0,0,0,.168.4L23.8,14.514H.572A.572.572,0,0,0,0,15.086v1.145a.572.572,0,0,0,.572.572H23.8L17.912,22.7a.572.572,0,0,0-.168.4v1.145a.572.572,0,0,0,.977.4l8.586-8.586A.572.572,0,0,0,27.308,15.254Z" transform="translate(0 -6.5)" fill="#fff"/></g></g></svg>