<svg xmlns="http://www.w3.org/2000/svg" xmlns:xlink="http://www.w3.org/1999/xlink" width="35" height="18" viewBox="0 0 35 18"><defs><clipPath id="a"><rect width="35" height="18" transform="translate(0.314 -0.291)" fill="#fff"/></clipPath></defs><g transform="translate(-0.314 0.291)" clip-path="url(#a)"><g transform="translate(4.329 -0.067)"><path d="M.162,14.971,8.471,6.662a.554.554,0,0,1,.946.392V8.162a.554.554,0,0,1-.162.392l-5.7,5.7H26.033a.554.554,0,0,1,.554.554v1.108a.554.554,0,0,1-.554.554H3.553l5.7,5.7a.553.553,0,0,1,.162.392v1.108a.554.554,0,0,1-.946.392L.162,15.754A.554.554,0,0,1,.162,14.971Z" transform="translate(0 -6.5)" fill="#f7c73f"/></g></g></svg>