<svg xmlns="http://www.w3.org/2000/svg" width="112" height="112" viewBox="0 0 112 112">
  <g id="cake-square-icon" transform="translate(-431 -3043)">
    <g id="Rectangle_25" data-name="Rectangle 25" transform="translate(431 3043)" fill="rgba(0,0,0,0.46)" stroke="#fff" stroke-width="1">
      <rect width="112" height="112" stroke="none"/>
      <rect x="0.5" y="0.5" width="111" height="111" fill="none"/>
    </g>
    <g id="Layer0_12_1_STROKES" data-name="Layer0 12 1 STROKES" transform="translate(456.454 3067.402)">
      <path id="Path_139" data-name="Path 139" d="M34.474,14.514q9.455-1.567,18.99-2.656a22.051,22.051,0,0,1,4.25-.173c1.076.093,1.826.179,1.992,1.288.226,1.447.518,2.882.664,4.342.173,1.58.1,3.154.206,4.734.206,3.127.412,6.268.452,9.4,0,2.1-.053,3.479-1.474,5.1-3.519,3.984-8.419,7-12.715,10.093C41.492,50.542,36.161,54.592,30.484,58a32.3,32.3,0,0,1-6.726,3.273,9.074,9.074,0,0,1-6.334-.332,29.008,29.008,0,0,1-8.632-5.518c-2.6-2.2-5.385-4.648-6.527-7.921-.983-2.849-.75-6.321-.73-9.3a13.2,13.2,0,0,0-.578-2.536A24.634,24.634,0,0,1,.737,30.4c.066-1.328.239-2.656.378-3.984.166-1.534.053-3.453,1.023-4.728,1.215-1.594,3.22-2.1,5.086-2.477,5.458-1.1,10.962-1.992,16.454-2.908a.286.286,0,0,0,.3-.133,5.882,5.882,0,0,1,4.4-4.024.279.279,0,0,0,.193-.239,20.265,20.265,0,0,1,1.8-5.823,36.022,36.022,0,0,1,1.866-3.42A5.02,5.02,0,0,1,32.9,1.553q.166-.664.77-.325.9-.033.173.458a14.379,14.379,0,0,1-1.487,1.992A21.088,21.088,0,0,0,31.028,6.1,31.559,31.559,0,0,0,29.1,11.519a.352.352,0,0,0,.345.452,6.5,6.5,0,0,1,5.511,3.659,4.542,4.542,0,0,1-2.344,5.637,7.37,7.37,0,0,1-6.1.272c-2.277-.983-2.915-3.147-2.51-5.478a.34.34,0,0,0-.664-.126c-.412,2.364.193,4.8,2.45,5.976a8.034,8.034,0,0,0,7.815-.432,5.093,5.093,0,0,0,1.945-6.009c-.916-2.4-3.745-3.984-6.2-4.09l.345.452A23.26,23.26,0,0,1,35.005,1.4a.292.292,0,0,0,.033-.305c-.319-.71-1.115-1.454-1.992-.9a4.382,4.382,0,0,0-.936,1.368c-.538.863-1.069,1.733-1.554,2.656A24.966,24.966,0,0,0,28.4,9.368c-.193.664-.179,1.8-.664,2.3s-1.647.7-2.231,1.116a5.637,5.637,0,0,0-1.281,1.228c-.438.6-.544,1.447-1.242,1.826a12.533,12.533,0,0,1-3.034.518l-3.273.5c-2.756.478-5.511.956-8.26,1.474a17.45,17.45,0,0,0-4.694,1.288C.624,21.187.757,23.922.4,27s-.744,6.686.153,9.747.066,6.481.757,9.621c.764,3.493,3.2,5.976,5.763,8.326,3.061,2.789,6.441,5.5,10.391,6.879a9.535,9.535,0,0,0,6.242.365,34.565,34.565,0,0,0,8.353-4.157c6.859-4.3,13.393-9.229,19.92-14.037a51.742,51.742,0,0,0,7.895-6.507c1.613-1.746,1.866-3.081,1.846-5.418-.033-4.263-.378-8.526-.518-12.782a36.758,36.758,0,0,0-.784-6.394,1.594,1.594,0,0,0-1.036-1.262,8.956,8.956,0,0,0-3.937-.332c-2.443.133-4.887.511-7.3.817-4.588.584-9.163,1.235-13.725,1.992a.319.319,0,0,0,.1.624Z" transform="translate(0 0)" fill="#fff" stroke="#fff" stroke-width="1"/>
      <path id="Path_140" data-name="Path 140" d="M.133.255A5.5,5.5,0,0,0,.08,2.393a.359.359,0,0,0,.445.279,2.955,2.955,0,0,0,1.368-.591c.305-.259-.1-.777-.4-.525a2.6,2.6,0,0,1-1.228.518l.445.279A5.066,5.066,0,0,1,.771.361C.857-.011.226-.163.107.235Z" transform="translate(28.943 11.344)" fill="#fff" stroke="#fff" stroke-width="1"/>
      <path id="Path_141" data-name="Path 141" d="M.038.249a9.521,9.521,0,0,0,.04,2.058A.359.359,0,0,0,.443,2.6a7.965,7.965,0,0,0,1.075-.073c.419-.06.293-.664-.1-.624a7.967,7.967,0,0,1-1.076.073l.365.292A8.752,8.752,0,0,1,.675.369C.715-.01.084-.169.011.243Z" transform="translate(27.87 11.496)" fill="#fff" stroke="#fff" stroke-width="1"/>
      <path id="Path_142" data-name="Path 142" d="M.36.624l1.328.04c.425,0,.286-.618-.1-.624L.26,0C-.164,0-.025.618.36.624Z" transform="translate(26.657 13.445)" fill="#fff" stroke="#fff" stroke-width="1"/>
      <path id="Path_143" data-name="Path 143" d="M.086,17.377a1.912,1.912,0,0,0,1.481.146c1.062-.239,1.912-1.069,2.815.405.305.5.339,1.122.664,1.613a2.8,2.8,0,0,0,1.945,1.1,7.158,7.158,0,0,1,4.024,1.992c4.19,3.639,9.628,5.777,14.648,2.45,4.648-3.094,9.249-6.315,13.838-9.508,2.344-1.633,4.688-3.32,6.972-5.006C48.3,9.19,50,7.584,51.917,6.342a2.729,2.729,0,0,1,.518-.325c.717-.2.936.212,1.414.664a3.074,3.074,0,0,0,.764.664A1.64,1.64,0,0,0,56.465,7.2c1.388-1.155.325-3.26,1.773-4.376.452-.352.936-.385,1.328-.883a3.2,3.2,0,0,0,.6-1.574A.34.34,0,0,0,59.5.24c-.319,1.833-1.713,1.494-2.463,2.722a2.656,2.656,0,0,0-.292,1.109c-.033.272,0,.551-.053.823-.159,1.328-.093,1.328-1.408,1.255-1.414-.053-.857-.066-1.494-.664a1.288,1.288,0,0,0-.558-.332A1.6,1.6,0,0,0,52,5.426a38.722,38.722,0,0,0-5.06,3.858c-1.879,1.441-3.8,2.829-5.737,4.2-4.595,3.254-9.249,6.421-13.9,9.6-2.1,1.434-4.17,3.041-6.839,3.114-3.114.08-6.388-1.673-8.632-3.678A11.766,11.766,0,0,0,9.1,20.425c-1.454-.664-3.068-.133-3.811-1.919-.3-.71-.518-1.813-1.328-2.131-1.1-.418-2.517,1.135-3.439.531-.345-.226-.73.232-.378.465Z" transform="translate(0.936 20.183)" fill="#fff" stroke="#fff" stroke-width="1"/>
      <path id="Path_144" data-name="Path 144" d="M.02,10.671c.066,2.3,1.713,3.891,3.24,5.438,1.992,1.992,4.077,3.984,6.222,5.843,3.366,2.935,8.32,6.593,13.087,5.524a14.489,14.489,0,0,0,4.794-2.536l4.973-3.38c4.847-3.32,9.714-6.58,14.448-10.046,2.477-1.813,4.927-3.672,7.3-5.6C55.862,4.476,58.737,2.75,59.5.459c.12-.365-.471-.664-.6-.279C58.173,2.371,55.4,4,53.691,5.386s-3.6,2.835-5.438,4.21C44,12.809,39.6,15.79,35.205,18.785q-4.489,3.068-8.984,6.122c-1.932,1.328-3.9,2.357-6.321,2.072a16.67,16.67,0,0,1-7.091-3.187,59,59,0,0,1-6.832-5.87C3.945,15.99.744,13.652.664,10.618A.332.332,0,1,0,0,10.651Z" transform="translate(0.823 12.654)" fill="#fff" stroke="#fff" stroke-width="1"/>
      <path id="Path_145" data-name="Path 145" d="M.12,14.082A68.59,68.59,0,0,0,12.769,24.845a11.28,11.28,0,0,0,12.284.385c7.357-3.937,14-9.083,20.736-13.95q7.39-5.312,14.767-10.7c.325-.239-.086-.757-.4-.525Q49.534,7.787,38.83,15.483c-2.922,2.1-5.836,4.2-8.878,6.122-4.475,2.829-9.15,6.129-14.608,3.924-2.928-1.189-5.5-3.453-7.921-5.445A76.645,76.645,0,0,1,.591,13.743c-.279-.292-.8,0-.5.339Z" transform="translate(0.863 26.912)" fill="#fff" stroke="#fff" stroke-width="1"/>
      <path id="Path_146" data-name="Path 146" d="M.089,15.247A59.1,59.1,0,0,0,12.5,25.306,13.366,13.366,0,0,0,19.332,27.3a13.125,13.125,0,0,0,6.182-1.992c7.3-3.791,13.944-8.632,20.537-13.592C50.9,8.1,55.7,4.358,60.492.586c.319-.246-.093-.764-.4-.525-6.912,5.418-13.831,10.85-20.942,16-2.742,1.992-5.544,3.864-8.439,5.617-4.489,2.709-9.429,6.2-14.88,4.455-3.081-.983-5.763-3.094-8.293-5.046a63.982,63.982,0,0,1-6.945-6.2c-.279-.292-.8,0-.5.339Z" transform="translate(1.039 29.525)" fill="#fff" stroke="#fff" stroke-width="1"/>
    </g>
  </g>
</svg>
