<svg xmlns="http://www.w3.org/2000/svg" xmlns:xlink="http://www.w3.org/1999/xlink" width="98" height="99" viewBox="0 0 98 99">
  <defs>
    <clipPath id="clip-path">
      <rect id="Rectangle_24" data-name="Rectangle 24" width="47.413" height="41.157" transform="translate(0 0)" fill="none" stroke="#fff" stroke-width="1"/>
    </clipPath>
  </defs>
  <g id="cake-icon" transform="translate(-417.071 -2303.946)">
    <g id="Ellipse_7" data-name="Ellipse 7" transform="translate(417.071 2303.946)" fill="none" stroke="#ff9faf" stroke-width="4">
      <ellipse cx="49" cy="49.5" rx="49" ry="49.5" stroke="none"/>
      <ellipse cx="49" cy="49.5" rx="47" ry="47.5" fill="none"/>
    </g>
    <ellipse id="Ellipse_8" data-name="Ellipse 8" cx="41" cy="40.5" rx="41" ry="40.5" transform="translate(425.071 2312.946)" fill="#ff9faf"/>
    <g id="Mask_Group_11" data-name="Mask Group 11" transform="translate(442.072 2332.946)" clip-path="url(#clip-path)">
      <g id="Layer_2" data-name="Layer 2" transform="translate(3.113 0)">
        <g id="OBJECTS" transform="translate(0)">
          <g id="Layer0_13_1_STROKES" data-name="Layer0 13 1 STROKES">
            <path id="Path_226" data-name="Path 226" d="M36.082,35.137c-.766,2.265-3.3,3.343-5.392,4.011a28.83,28.83,0,0,1-7.063,1.159c-4.551.259-9.419.113-13.749-1.456-1.8-.636-3.958-1.585-4.7-3.451a48.135,48.135,0,0,1-1.79-6.8C2.464,24.828,1.677,21.053.949,17.279c-.108-.577-.286-1.17-.34-1.752S1,14.448.992,13.839c0-1.138-.426-2.432.1-3.418.372-.7.69-1.456,1.078-2.157C3.348,6.14,5.225,5.1,7.025,3.649c.539-.426.776-.863,1.44-1.078.41-.129.836-.14,1.251-.27,1.057-.324,2.054-.712,3.116-.933C20.839-.422,31.121.155,37.295,6.22a11.225,11.225,0,0,1,2.054,2.761,3.834,3.834,0,0,0,.4.7c.286.34.21-.032.582.474.48.652.135.776.059,1.553-.043.458.075.922.038,1.391-.027.361-.183.739-.178,1.078,0,.588.264,1.143.237,1.758-.032.749-.162,1.515-.259,2.259a78.822,78.822,0,0,1-4.152,16.925c-.119.324.372.539.5.216A79.464,79.464,0,0,0,40.767,18.3a11.688,11.688,0,0,0,.28-3.612,10.007,10.007,0,0,1-.081-2.448c0-.712.377-1.515.065-2.205-.259-.577-.868-.82-1.208-1.337C34.577.635,24.117-.87,15.216.4c-2.34.334-4.54,1.078-6.821,1.618A3.27,3.27,0,0,0,6.6,3.18C5.7,4.015,4.594,4.6,3.7,5.466a18.207,18.207,0,0,0-3.2,4.75c-.469.89-.189,1.618-.113,2.572A3.445,3.445,0,0,1,.3,14.179c-.092.286-.275.464-.3.782a6.141,6.141,0,0,0,.253,1.51q.307,1.618.609,3.2.59,3.106,1.321,6.179c.6,2.556,1.229,5.111,1.9,7.651.539,2.06,1.078,3.44,2.917,4.6,4.534,2.815,10.606,2.976,15.771,2.782a29.552,29.552,0,0,0,8.487-1.37c2.157-.723,4.551-1.893,5.316-4.162C36.686,35.018,36.195,34.808,36.082,35.137Z" fill="none" stroke="#fff" stroke-width="2.344"/>
            <path id="Path_227" data-name="Path 227" d="M.248,1.5C-.83,4.5,1.812,6.576,4.157,7.736c3,1.483,7.009,1.31,10.282,1.272a28.948,28.948,0,0,0,6.589-.793A14.154,14.154,0,0,0,26.366,6.1c2.313-1.812-.469-3.968-2.275-4.691A20.262,20.262,0,0,0,18.16.149a17.423,17.423,0,0,0-5.079.075c-1.121.253-2.922.949-3.3,2.157s1.014,2.3,1.919,2.809a5.074,5.074,0,0,0,4.313.221,1.138,1.138,0,0,0,.6-1.682,1.957,1.957,0,0,0-1.256-.539c-.5-.1-1.078,0-1.132-.539s.96-.474,1.429-.5a21.325,21.325,0,0,1,6.028.593c.658.162,2.469.642,2.2,1.618-.194.722-1.655,1.041-2.265,1.2a36.54,36.54,0,0,1-7.689,1.105,21.486,21.486,0,0,1-7.4-.647C4.373,5.352.7,3.023,3.138.532,3.381.284,2.96-.05,2.718.192.475,2.484,2.847,4.964,5.074,6.032c2.96,1.413,6.621,1.386,9.818,1.154a40.272,40.272,0,0,0,6.249-.927,6.065,6.065,0,0,0,2.976-1.235c1.375-1.461-1.3-2.54-2.356-2.8a24.182,24.182,0,0,0-5.2-.593c-.771,0-2.61-.151-3.149.6-.421.588.216,1.078.733,1.289A3.817,3.817,0,0,0,14.9,3.7a2.281,2.281,0,0,1,.857.178l.259.081-.065.949c-.507.572-2.518.383-3.106.221-1.423-.4-3.5-1.968-1.725-3.462A5.58,5.58,0,0,1,14.138.624a25.385,25.385,0,0,1,5.9.28c1.973.3,4.427.787,5.9,2.243,1.855,1.828-.318,2.955-1.99,3.6A32.341,32.341,0,0,1,9.463,8.334,13.916,13.916,0,0,1,4.147,7.126C2.173,6.086-.2,4.344.739,1.735c.113-.324-.377-.539-.5-.216Z" transform="translate(6.4 1.801)" fill="none" stroke="#fff" stroke-width="2.344"/>
            <path id="Path_228" data-name="Path 228" d="M.023.8A5.719,5.719,0,0,0,3.258,3.794,43.08,43.08,0,0,0,8.908,6,33.325,33.325,0,0,0,19.762,7.159a39.052,39.052,0,0,0,11.5-1.52c2.7-.9,7.009-2.216,7.974-5.262.1-.324-.388-.539-.5-.216C38.2,1.848,36.779,2.646,35.28,3.4a31.876,31.876,0,0,1-4.508,1.844A38.474,38.474,0,0,1,20.22,6.619,35.042,35.042,0,0,1,9.674,5.687a41.566,41.566,0,0,1-5.02-1.833C2.967,3.126,1.279,2.414.524.618.389.3-.112.484.023.807Z" transform="translate(0.921 9.188)" fill="none" stroke="#fff" stroke-width="2.344"/>
            <path id="Path_229" data-name="Path 229" d="M6.436.176A2.755,2.755,0,0,1,5.6,1.61c-.372.291-1.256.48-1.472.825A3.494,3.494,0,0,0,3.891,3.7c-.259,1.866-.582,3.726-.906,5.586C2.128,14.206,1.25,19.128.009,23.965c-.086.334.448.415.539.081,1.246-4.853,2.119-9.759,2.976-14.676.318-1.817.631-3.634.906-5.483.113-.814.092-1.035.814-1.45a3.025,3.025,0,0,0,1.7-2.06c.108-.324-.383-.539-.5-.216Z" transform="translate(33.84 13.879)" fill="none" stroke="#fff" stroke-width="2.344"/>
            <path id="Path_230" data-name="Path 230" d="M9.318.021A31.92,31.92,0,0,1,2.665,2.178a.258.258,0,0,0-.237.226A111.913,111.913,0,0,1,.006,23.588c-.07.34.458.421.539.081A109.539,109.539,0,0,0,2.632,9.419q.14-1.79.226-3.58c.043-.949-.28-2.82.6-3.289A18.288,18.288,0,0,1,6.32,1.762,28.576,28.576,0,0,0,9.534.528c.313-.146.124-.647-.194-.5Z" transform="translate(28.737 16.234)" fill="none" stroke="#fff" stroke-width="2.344"/>
            <path id="Path_231" data-name="Path 231" d="M.057,1C2.564,3.7,6.743,4.715,10.194,5.578a39.542,39.542,0,0,0,10.39.879A44.031,44.031,0,0,0,31.906,5.141,31.272,31.272,0,0,0,37.05,3.076,8.594,8.594,0,0,0,40.474.445c.2-.28-.216-.62-.421-.34a9.15,9.15,0,0,1-3.887,2.8,31.327,31.327,0,0,1-4.454,1.742,42.308,42.308,0,0,1-10.67,1.272,42.206,42.206,0,0,1-9.991-.679A41.585,41.585,0,0,1,5.611,3.62,12.532,12.532,0,0,1,.5.7C.273.45-.169.757.068,1.011Z" transform="translate(0.396 11.545)" fill="none" stroke="#fff" stroke-width="2.344"/>
            <path id="Path_232" data-name="Path 232" d="M6.276,21.309c.383-7.009.89-14.051.917-21.071A.275.275,0,0,0,6.9,0C4.68.152,2.459.174.237.12A.271.271,0,0,0,0,.416C.1,7.426.485,14.435.9,21.39c0,.345.539.291.539-.054C1.192,17.174,1,13.011.825,8.844.739,6.838.658,4.832.6,2.826.6,2.379.329,1.209.55.815Q.437.427.744.67H3.305q.83,0,1.731-.032A10.617,10.617,0,0,1,6.654.5c.226.189-.032,1.774-.043,2.1-.054,1.941-.14,3.882-.232,5.823q-.3,6.4-.642,12.8c0,.34.539.431.539.081Z" transform="translate(18.068 19.284)" fill="none" stroke="#fff" stroke-width="2.344"/>
            <path id="Path_233" data-name="Path 233" d="M6.669.005A50,50,0,0,1,.231.863c-.345,0-.286.539.059.539A50,50,0,0,0,6.728.545C7.068.475,7.009-.059,6.669.005Z" transform="translate(24.733 18.417)" fill="none" stroke="#fff" stroke-width="2.344"/>
            <path id="Path_234" data-name="Path 234" d="M9.674,23.081A173.4,173.4,0,0,1,7.135,1.924a.275.275,0,0,0-.226-.237A36.125,36.125,0,0,1,.373.021.27.27,0,0,0,0,.3C1.161,7.537,2.471,14.827,4.255,21.938c.086.334.588.146.5-.189C2.978,14.686,1.684,7.44.557.242L.185.517q1.367.5,2.771.884c.539.146,1.078.28,1.655.4a6.016,6.016,0,0,1,1.731.334c.679.539.464,2.642.539,3.451q.129,1.677.3,3.348c.469,4.761,1.148,9.495,2.006,14.2.059.34.6.286.539-.054Z" transform="translate(4.824 17.097)" fill="none" stroke="#fff" stroke-width="2.344"/>
            <path id="Path_235" data-name="Path 235" d="M4.718,3.354A21.874,21.874,0,0,1,2.3,2.319a7.4,7.4,0,0,1-1.019-.577A2.189,2.189,0,0,1,.545.227c-.07-.334-.6-.286-.539.054A3.877,3.877,0,0,0,.475,1.764a2.809,2.809,0,0,0,.83.62A19.2,19.2,0,0,0,4.5,3.851c.324.119.539-.372.216-.491Z" transform="translate(0.48 13.763)" fill="none" stroke="#fff" stroke-width="2.344"/>
            <path id="Path_236" data-name="Path 236" d="M6.961.618A56.614,56.614,0,0,1,.313,0,.273.273,0,1,0,.232.542a56.613,56.613,0,0,0,6.675.615c.345,0,.426-.539.081-.539Z" transform="translate(11.414 18.764)" fill="none" stroke="#fff" stroke-width="2.344"/>
          </g>
        </g>
      </g>
    </g>
  </g>
</svg>
