<svg xmlns="http://www.w3.org/2000/svg" width="98" height="99" viewBox="0 0 98 99">
  <g id="cake2-icon" transform="translate(-417.071 -2303.946)">
    <g id="Ellipse_7" data-name="Ellipse 7" transform="translate(417.071 2303.946)" fill="none" stroke="#ff9faf" stroke-width="4">
      <ellipse cx="49" cy="49.5" rx="49" ry="49.5" stroke="none"/>
      <ellipse cx="49" cy="49.5" rx="47" ry="47.5" fill="none"/>
    </g>
    <ellipse id="Ellipse_8" data-name="Ellipse 8" cx="41" cy="40.5" rx="41" ry="40.5" transform="translate(425.071 2312.946)" fill="#ff9faf"/>
    <g id="Layer0_12_1_STROKES" data-name="Layer0 12 1 STROKES" transform="translate(441.781 2326.793)">
      <path id="Path_139" data-name="Path 139" d="M28.279,11.905q7.756-1.285,15.577-2.179a18.088,18.088,0,0,1,3.486-.142c.882.076,1.5.147,1.634,1.057.185,1.187.425,2.364.545,3.562.142,1.3.082,2.587.169,3.883.169,2.565.338,5.142.37,7.712,0,1.721-.044,2.854-1.209,4.183-2.887,3.268-6.906,5.741-10.43,8.279-4.385,3.2-8.758,6.52-13.415,9.314a26.493,26.493,0,0,1-5.517,2.685,7.443,7.443,0,0,1-5.2-.272,23.8,23.8,0,0,1-7.081-4.526c-2.13-1.8-4.417-3.813-5.354-6.5-.806-2.337-.615-5.185-.6-7.625a10.829,10.829,0,0,0-.474-2.081A20.207,20.207,0,0,1,.6,24.934c.054-1.089.2-2.179.31-3.268.136-1.258.044-2.832.839-3.878,1-1.307,2.642-1.721,4.172-2.032,4.477-.9,8.992-1.634,13.5-2.386a.234.234,0,0,0,.245-.109,4.825,4.825,0,0,1,3.611-3.3.229.229,0,0,0,.158-.2,16.623,16.623,0,0,1,1.476-4.777,29.548,29.548,0,0,1,1.531-2.805,4.118,4.118,0,0,1,.545-.91q.136-.545.632-.267.735-.027.142.376a11.8,11.8,0,0,1-1.22,1.634A17.3,17.3,0,0,0,25.452,5a25.888,25.888,0,0,0-1.585,4.444.289.289,0,0,0,.283.37,5.331,5.331,0,0,1,4.521,3,3.725,3.725,0,0,1-1.923,4.624,6.046,6.046,0,0,1-5.005.223c-1.868-.806-2.391-2.582-2.059-4.493a.279.279,0,0,0-.545-.1c-.338,1.939.158,3.938,2.01,4.9a6.59,6.59,0,0,0,6.411-.354,4.178,4.178,0,0,0,1.6-4.929,5.89,5.89,0,0,0-5.082-3.355l.283.37a19.08,19.08,0,0,1,4.357-8.557A.24.24,0,0,0,28.742.9C28.48.315,27.827-.3,27.108.157a3.6,3.6,0,0,0-.768,1.122c-.441.708-.877,1.422-1.275,2.179A20.48,20.48,0,0,0,23.3,7.684c-.158.545-.147,1.476-.545,1.89s-1.351.572-1.83.915A4.624,4.624,0,0,0,19.869,11.5c-.359.5-.447,1.187-1.019,1.5a10.281,10.281,0,0,1-2.489.425l-2.685.414c-2.26.392-4.521.784-6.776,1.209A14.314,14.314,0,0,0,3.05,16.1C.512,17.379.621,19.623.327,22.151s-.61,5.485.125,8,.054,5.316.621,7.892C1.7,40.9,3.7,42.94,5.8,44.868a25.678,25.678,0,0,0,8.524,5.643,7.821,7.821,0,0,0,5.12.3A28.354,28.354,0,0,0,26.3,47.4c5.626-3.529,10.986-7.571,16.34-11.514a42.443,42.443,0,0,0,6.476-5.338A5.425,5.425,0,0,0,50.626,26.1c-.027-3.5-.31-6.993-.425-10.485a30.152,30.152,0,0,0-.643-5.245,1.307,1.307,0,0,0-.85-1.035,7.346,7.346,0,0,0-3.23-.272c-2,.109-4.009.419-5.991.67-3.764.479-7.516,1.013-11.258,1.634a.261.261,0,0,0,.082.512Z" transform="translate(0 0)" fill="#fff" stroke="#fff" stroke-width="1"/>
      <path id="Path_140" data-name="Path 140" d="M.109.209A4.515,4.515,0,0,0,.066,1.963a.294.294,0,0,0,.365.229,2.424,2.424,0,0,0,1.122-.485c.251-.212-.082-.637-.327-.43A2.13,2.13,0,0,1,.218,1.7l.365.229A4.156,4.156,0,0,1,.632.3C.7-.009.185-.134.087.193Z" transform="translate(23.741 9.305)" fill="#fff" stroke="#fff" stroke-width="1"/>
      <path id="Path_141" data-name="Path 141" d="M.031.2A7.81,7.81,0,0,0,.064,1.893a.294.294,0,0,0,.3.24,6.533,6.533,0,0,0,.882-.06c.344-.049.24-.545-.081-.512a6.536,6.536,0,0,1-.882.06l.3.24A7.179,7.179,0,0,1,.554.3C.586-.008.069-.139.009.2Z" transform="translate(22.861 9.43)" fill="#fff" stroke="#fff" stroke-width="1"/>
      <path id="Path_142" data-name="Path 142" d="M.3.512,1.385.545c.349,0,.234-.507-.082-.512L.214,0C-.135,0-.021.507.3.512Z" transform="translate(21.867 11.029)" fill="#fff" stroke="#fff" stroke-width="1"/>
      <path id="Path_143" data-name="Path 143" d="M.071,14.254a1.569,1.569,0,0,0,1.215.12c.871-.2,1.569-.877,2.309.332.251.408.278.92.545,1.324a2.293,2.293,0,0,0,1.6.9,5.871,5.871,0,0,1,3.3,1.634c3.437,2.985,7.9,4.739,12.015,2.01,3.813-2.538,7.587-5.18,11.351-7.8,1.923-1.34,3.845-2.723,5.719-4.107,1.5-1.127,2.892-2.446,4.466-3.464a2.238,2.238,0,0,1,.425-.267c.588-.163.768.174,1.16.545a2.522,2.522,0,0,0,.626.545,1.345,1.345,0,0,0,1.52-.12c1.138-.948.267-2.674,1.454-3.589.37-.289.768-.316,1.089-.724A2.625,2.625,0,0,0,49.352.3a.279.279,0,0,0-.545-.1C48.546,1.7,47.4,1.422,46.786,2.43a2.179,2.179,0,0,0-.24.91c-.027.223,0,.452-.044.675C46.373,5.1,46.427,5.1,45.349,5.044c-1.16-.044-.7-.054-1.225-.545a1.057,1.057,0,0,0-.458-.272,1.313,1.313,0,0,0-1.008.223,31.763,31.763,0,0,0-4.15,3.164C36.966,8.8,35.387,9.935,33.8,11.057c-3.769,2.669-7.587,5.267-11.4,7.876-1.721,1.176-3.42,2.495-5.61,2.554A11,11,0,0,1,9.711,18.47a9.651,9.651,0,0,0-2.249-1.716c-1.193-.545-2.516-.109-3.126-1.574-.245-.583-.425-1.487-1.089-1.748-.9-.343-2.064.931-2.821.436-.283-.185-.6.191-.31.381Z" transform="translate(0.768 16.556)" fill="#fff" stroke="#fff" stroke-width="1"/>
      <path id="Path_144" data-name="Path 144" d="M.017,8.753c.054,1.885,1.405,3.192,2.658,4.461,1.634,1.634,3.344,3.268,5.1,4.793,2.761,2.407,6.825,5.409,10.735,4.532a11.885,11.885,0,0,0,3.932-2.081l4.08-2.772c3.976-2.723,7.968-5.4,11.852-8.241,2.032-1.487,4.041-3.012,5.991-4.6,1.454-1.176,3.813-2.593,4.439-4.472.1-.3-.387-.545-.49-.229-.6,1.8-2.87,3.132-4.276,4.27S41.09,6.744,39.581,7.871c-3.491,2.636-7.1,5.082-10.7,7.538q-3.682,2.516-7.369,5.022a7.443,7.443,0,0,1-5.185,1.7,13.674,13.674,0,0,1-5.817-2.614A48.4,48.4,0,0,1,4.9,14.7C3.236,13.116.61,11.2.545,8.71A.273.273,0,1,0,0,8.737Z" transform="translate(0.675 10.38)" fill="#fff" stroke="#fff" stroke-width="1"/>
      <path id="Path_145" data-name="Path 145" d="M.1,11.551A56.264,56.264,0,0,0,10.474,20.38,9.253,9.253,0,0,0,20.55,20.7c6.035-3.23,11.482-7.451,17.01-11.443Q43.622,4.9,49.674.478c.267-.2-.071-.621-.327-.43Q40.632,6.388,31.852,12.7c-2.4,1.721-4.788,3.448-7.282,5.022-3.671,2.32-7.505,5.027-11.983,3.219-2.4-.975-4.51-2.832-6.5-4.466a62.871,62.871,0,0,1-5.6-5.2c-.229-.24-.654,0-.414.278Z" transform="translate(0.708 22.075)" fill="#fff" stroke="#fff" stroke-width="1"/>
      <path id="Path_146" data-name="Path 146" d="M.073,12.507a48.475,48.475,0,0,0,10.18,8.252,10.964,10.964,0,0,0,5.6,1.634,10.767,10.767,0,0,0,5.071-1.634A121.558,121.558,0,0,0,37.775,9.609C41.751,6.641,45.689,3.574,49.621.481c.261-.2-.076-.626-.327-.43-5.67,4.444-11.345,8.9-17.179,13.126-2.249,1.634-4.548,3.17-6.923,4.608-3.682,2.222-7.734,5.087-12.206,3.655-2.527-.806-4.728-2.538-6.8-4.139a52.484,52.484,0,0,1-5.7-5.087c-.229-.24-.659,0-.414.278Z" transform="translate(0.853 24.219)" fill="#fff" stroke="#fff" stroke-width="1"/>
    </g>
  </g>
</svg>
