<svg xmlns="http://www.w3.org/2000/svg" width="98" height="99" viewBox="0 0 98 99">
  <g id="choco-icon" transform="translate(-417.071 -2303.946)">
    <g id="Ellipse_7" data-name="Ellipse 7" transform="translate(417.071 2303.946)" fill="none" stroke="#ff9faf" stroke-width="4">
      <ellipse cx="49" cy="49.5" rx="49" ry="49.5" stroke="none"/>
      <ellipse cx="49" cy="49.5" rx="47" ry="47.5" fill="none"/>
    </g>
    <ellipse id="Ellipse_8" data-name="Ellipse 8" cx="41" cy="40.5" rx="41" ry="40.5" transform="translate(425.071 2312.946)" fill="#ff9faf"/>
    <g id="Layer0_3_1_STROKES" data-name="Layer0 3 1 STROKES" transform="translate(435.071 2333.946)">
      <path id="Path_47" data-name="Path 47" d="M32.73,20.205l.12.078a.19.19,0,0,0,.306-.163l.012-1.83c0-.776,0-.795-.663-1.3-2.195-1.621-4.417-3.211-6.627-4.812a.194.194,0,0,0-.268.023l-1.163,1.753a.194.194,0,0,0,.031.268q2.565,1.8,5.2,3.556A5.63,5.63,0,0,1,31.5,19.243l.776,1.21a.2.2,0,0,0,.268.047l.423-.271c.206-.136-.027-.446-.229-.314-.3.194-.078.388-.3.124a8.368,8.368,0,0,1-.508-.776A4.079,4.079,0,0,0,30.508,17.9c-1.939-1.3-3.878-2.617-5.778-3.975l.031.268,1.163-1.753-.268.023c2.063,1.493,4.134,2.982,6.2,4.49.24.178.853.481.962.71a2.827,2.827,0,0,1,0,.83v1.66l.306-.163-.12-.078C32.761,19.782,32.52,20.073,32.73,20.205Z" transform="translate(-14.946 -7.441)" fill="#fdfdfd" stroke="#fff" stroke-width="1"/>
      <path id="Path_48" data-name="Path 48" d="M10.932,5.055c1.764-1.082,3.49-2.249,5.219-3.37L17.59.758a1.819,1.819,0,0,1,.442-.287c.24-.047.035-.085.349.182a57.513,57.513,0,0,0,5.041,3.49A6.809,6.809,0,0,1,25.535,5.83l.776,1.21a.2.2,0,0,0,.268.047c.473-.306.609,0,1.047.318l1.163.814q1.508,1.059,3.036,2.09a9.538,9.538,0,0,1,2.447,1.807c.314.427.582.9.872,1.342a.2.2,0,0,0,.268.047c.469-.3.6,0,1.047.318s1.012.717,1.52,1.07q1.764,1.229,3.552,2.427a6.464,6.464,0,0,1,1.939,1.691,7.34,7.34,0,0,0,1.09,1.524c-.206-.159.233-.178-.058-.155-.112,0-.318.2-.415.264l-1.5.958-3.94,2.493-2.621,1.671a.19.19,0,0,0,0,.3c1.9,1.357,3.839,2.676,5.782,3.978a3.827,3.827,0,0,1,1.373,1.315,12.192,12.192,0,0,1,1.031,1.613.749.749,0,0,1,.089.136c0-.14-.237.035-.345.074a6.4,6.4,0,0,0-1.121.776Q41.325,34.986,39.8,36q-1.609,1.074-3.23,2.133a7.1,7.1,0,0,1-.752.489c-.326.159-.306.136-.62,0A10.016,10.016,0,0,1,33.79,37.58Q22.883,29.573,11.928,21.666,6.1,17.463.315,13.2l.031.268,1.264-1.9C2.292,10.534,3.6,9.975,4.627,9.312L7.9,7.2l.919-.6c.434-.283.279-.167.729.174.2.151.434-.14.237-.291S9.4,6.195,9.2,6.055a.2.2,0,0,0-.233,0C7.318,7.149,5.643,8.2,3.975,9.277a8.319,8.319,0,0,0-2.664,2.055l-1.264,1.9a.194.194,0,0,0,.031.268C9.1,20.177,18.249,26.684,27.3,33.323c2.683,1.97,5.429,3.854,8.073,5.871a.2.2,0,0,0,.233,0q4.541-2.943,9-6.01a.19.19,0,0,0,.039-.264,15.864,15.864,0,0,0-1.656-2.548,12.107,12.107,0,0,0-1.85-1.237l-1.7-1.163q-1.6-1.093-3.176-2.214v.3L44.838,20.6a.19.19,0,0,0,.039-.264,10.214,10.214,0,0,0-2.35-2.815c-2.253-1.5-4.49-3.028-6.681-4.622a.2.2,0,0,0-.233,0c-.33.217-.089.388-.333.07a10.368,10.368,0,0,1-.57-.876A5.353,5.353,0,0,0,32.941,10.6c-1.993-1.338-3.975-2.714-5.921-4.11a.2.2,0,0,0-.233,0c-.33.217-.089.388-.333.07a10.369,10.369,0,0,1-.57-.876,5.443,5.443,0,0,0-1.764-1.516C22.107,2.833,20.145,1.472,18.2.06a.2.2,0,0,0-.233,0c-2.4,1.582-4.812,3.18-7.267,4.684-.209.128.023.438.229.314Z" transform="translate(-0.007 -0.022)" fill="#fdfdfd" stroke="#fff" stroke-width="1"/>
      <path id="Path_49" data-name="Path 49" d="M19.95,22.7c-1.19.807-2.439,1.644-3.6,2.462-.213.151-.613.341-.88.52-.473.31-.628.527-1.132.291a15.341,15.341,0,0,1-2.09-1.508l-.1.333h.019a.19.19,0,0,0,.1-.333q-1.309-.954-2.637-1.881l-.1.333h.023a.19.19,0,0,0,.1-.333l-.237-.174v.3l3.005-1.939A14.538,14.538,0,0,1,14.4,19.5c.388-.163.427-.027.822.256q.756.535,1.516,1.062,1.6,1.105,3.215,2.179c.206.136.442-.155.237-.291-1.826-1.221-3.645-2.458-5.429-3.742a.2.2,0,0,0-.233,0L9.182,22.393a.19.19,0,0,0,0,.3l.237.174.1-.333H9.492a.19.19,0,0,0-.1.333c.888.617,1.764,1.245,2.637,1.881l.1-.333h-.023a.19.19,0,0,0-.1.333c.849.6,1.7,1.214,2.528,1.838a.2.2,0,0,0,.233,0c1.83-1.218,3.556-2.354,5.405-3.591C20.38,22.874,20.151,22.564,19.95,22.7Z" transform="translate(-5.578 -11.595)" fill="#fdfdfd" stroke="#fff" stroke-width="1"/>
      <path id="Path_50" data-name="Path 50" d="M11.772,36.665v-2a4.728,4.728,0,0,0-.027-1.7c-.171-.357-.966-.729-1.3-.973-.713-.52-1.427-1.031-2.144-1.551-1.256-.923-2.524-1.85-3.792-2.773-.2-.143-.438.147-.237.291,1.163.853,2.35,1.714,3.525,2.563l1.939,1.4a6.684,6.684,0,0,1,1.551,1.163c.124.174.116.256.116.578v3.048c0,.24.388.213.388-.035Z" transform="translate(-2.569 -16.925)" fill="#fdfdfd" stroke="#fff" stroke-width="1"/>
      <path id="Path_51" data-name="Path 51" d="M30.241,28.543c-2.424,1.71-4.886,3.315-7.368,4.913-.206.132.027.442.229.314,2.478-1.6,4.94-3.222,7.368-4.909.2-.14-.031-.45-.229-.314Z" transform="translate(-13.958 -17.466)" fill="#fdfdfd" stroke="#fff" stroke-width="1"/>
      <path id="Path_52" data-name="Path 52" d="M31.981,53.218v-2a4.728,4.728,0,0,0-.027-1.7c-.167-.364-.942-.729-1.287-.973-.713-.52-1.427-1.031-2.144-1.551-1.276-.919-2.54-1.85-3.816-2.769a.194.194,0,0,0-.268.023l-1.621,2.443c-.132.2.167.446.3.244L24.741,44.5l-.268.023c1.163.853,2.35,1.71,3.525,2.563l1.939,1.4a6.684,6.684,0,0,1,1.551,1.163c.124.174.116.256.116.578v3.048c0,.24.388.213.388-.035Z" transform="translate(-13.953 -27.057)" fill="#fdfdfd" stroke="#fff" stroke-width="1"/>
      <path id="Path_53" data-name="Path 53" d="M43.15,7.2c-1.206.8-2.431,1.644-3.595,2.458-.213.151-.613.341-.88.52-.473.31-.628.527-1.132.291a15.341,15.341,0,0,1-2.09-1.508l-.1.333h.023a.19.19,0,0,0,.1-.333Q34.165,8,32.839,7.076l-.1.333h.023a.19.19,0,0,0,.1-.333L32.626,6.9v.3l3.005-1.939a14.537,14.537,0,0,1,1.978-1.272c.388-.163.427-.027.822.256q.737.539,1.512,1.066,1.6,1.105,3.215,2.179c.206.136.442-.155.237-.291-1.826-1.221-3.645-2.458-5.429-3.742a.2.2,0,0,0-.233,0L32.382,6.893a.19.19,0,0,0,0,.3l.237.174.1-.333h-.023a.19.19,0,0,0-.1.333q1.33.923,2.637,1.881l.1-.333H35.29a.19.19,0,0,0-.1.333c.872.6,1.714,1.21,2.548,1.834a.2.2,0,0,0,.233,0c1.83-1.214,3.556-2.358,5.405-3.591C43.58,7.37,43.351,7.06,43.15,7.2Z" transform="translate(-19.782 -2.105)" fill="#fdfdfd" stroke="#fff" stroke-width="1"/>
      <path id="Path_54" data-name="Path 54" d="M53.421,13.037c-2.416,1.687-4.874,3.312-7.368,4.909-.206.132.027.442.229.314,2.478-1.6,4.936-3.222,7.368-4.909C53.852,13.211,53.619,12.9,53.421,13.037Z" transform="translate(-28.15 -7.97)" fill="#fdfdfd" stroke="#fff" stroke-width="1"/>
      <path id="Path_55" data-name="Path 55" d="M65.892,23.78c-1.206.807-2.435,1.644-3.6,2.458-.213.151-.613.341-.88.52-.473.31-.628.527-1.132.291a15.34,15.34,0,0,1-2.09-1.508l-.1.333h.047a.19.19,0,0,0,.1-.333c-.872-.632-1.768-1.26-2.652-1.881l-.1.333h.023a.19.19,0,0,0,.1-.333l-.24-.155v.3l3.005-1.939A14.537,14.537,0,0,1,60.347,20.6c.388-.163.427-.027.822.256q.756.535,1.516,1.062,1.6,1.105,3.215,2.179c.206.136.442-.155.237-.291-1.826-1.221-3.645-2.458-5.429-3.742a.2.2,0,0,0-.233,0l-5.343,3.416a.19.19,0,0,0,0,.3l.237.174.1-.333h-.043a.19.19,0,0,0-.1.333c.888.617,1.764,1.245,2.637,1.881l.1-.333h-.023a.19.19,0,0,0-.1.333c.849.6,1.7,1.21,2.528,1.838a.2.2,0,0,0,.233,0c1.83-1.218,3.556-2.354,5.405-3.591C66.334,23.959,66.1,23.648,65.892,23.78Z" transform="translate(-33.711 -12.269)" fill="#fdfdfd" stroke="#fff" stroke-width="1"/>
      <path id="Path_56" data-name="Path 56" d="M55.474,36.757l.12.074a.19.19,0,0,0,.306-.163V34.826c0-.776,0-.795-.663-1.3-2.187-1.625-4.4-3.211-6.619-4.808a.194.194,0,0,0-.268.023L47.187,30.5a.194.194,0,0,0,.031.268c1.706,1.214,3.432,2.4,5.169,3.564a5.63,5.63,0,0,1,1.819,1.462L54.981,37a.2.2,0,0,0,.268.047l.434-.279c.206-.136-.027-.446-.229-.314-.3.194-.078.388-.3.124a8.357,8.357,0,0,1-.508-.776,4.079,4.079,0,0,0-1.423-1.349c-1.939-1.3-3.878-2.617-5.778-3.975l.031.268,1.163-1.753-.268.023c2.067,1.493,4.134,2.982,6.2,4.49.24.178.857.481.962.71a2.827,2.827,0,0,1,0,.83v1.66l.306-.163-.12-.074C55.5,36.334,55.264,36.621,55.474,36.757Z" transform="translate(-28.868 -17.567)" fill="#fdfdfd" stroke="#fff" stroke-width="1"/>
      <path id="Path_57" data-name="Path 57" d="M50.439,22.059c2.327-1.415,4.56-2.939,6.832-4.413.206-.132-.027-.442-.229-.314-2.272,1.474-4.525,3-6.832,4.413-.209.128.023.438.229.314Z" transform="translate(-30.693 -10.601)" fill="#fdfdfd" stroke="#fff" stroke-width="1"/>
      <path id="Path_58" data-name="Path 58" d="M46.062,32.617l.465.357a.187.187,0,1,0,.237-.291l-.465-.357C46.1,32.179,45.865,32.469,46.062,32.617Z" transform="translate(-28.158 -19.775)" fill="#fdfdfd" stroke="#fff" stroke-width="1"/>
      <path id="Path_59" data-name="Path 59" d="M42.7,39.256c-1.21.8-2.435,1.644-3.6,2.458-.213.151-.613.341-.88.52-.473.31-.628.527-1.132.291a12.926,12.926,0,0,1-2.071-1.5l-.1.333h.023a.19.19,0,0,0,.1-.333q-1.311-.954-2.637-1.881l-.1.333h0a.19.19,0,0,0,.1-.333l-.237-.174v.3l3.005-1.939a14.537,14.537,0,0,1,1.978-1.272c.388-.163.427-.027.822.256q.756.535,1.516,1.062,1.6,1.105,3.215,2.179c.206.136.442-.155.237-.291-1.826-1.221-3.645-2.458-5.429-3.742a.2.2,0,0,0-.233,0l-5.34,3.432a.19.19,0,0,0,0,.3l.237.174.1-.333h-.023a.19.19,0,0,0-.1.333q1.318.907,2.637,1.881l.1-.333h-.023a.19.19,0,0,0-.1.333c.849.6,1.7,1.21,2.532,1.838a.2.2,0,0,0,.233,0l5.405-3.587C43.134,39.434,42.9,39.124,42.7,39.256Z" transform="translate(-19.507 -21.734)" fill="#fdfdfd" stroke="#fff" stroke-width="1"/>
      <path id="Path_60" data-name="Path 60" d="M52.971,45.107c-2.416,1.687-4.874,3.312-7.368,4.909-.206.132.027.442.229.314,2.478-1.6,4.936-3.222,7.368-4.909.2-.14-.031-.45-.229-.314Z" transform="translate(-27.874 -27.604)" fill="#fdfdfd" stroke="#fff" stroke-width="1"/>
      <path id="Path_61" data-name="Path 61" d="M65.454,55.807c-1.206.8-2.435,1.644-3.6,2.458-.213.147-.613.341-.88.52-.473.31-.628.527-1.132.291a15.341,15.341,0,0,1-2.09-1.508l-.1.333h.023a.19.19,0,0,0,.1-.333q-1.309-.954-2.637-1.881l-.1.333h.023a.19.19,0,0,0,.1-.333l-.244-.182v.3l3.005-1.939A14.537,14.537,0,0,1,59.9,52.6c.388-.163.427-.027.822.256q.756.535,1.516,1.062,1.6,1.105,3.215,2.179c.206.136.442-.155.237-.291-1.826-1.221-3.645-2.458-5.429-3.742a.2.2,0,0,0-.233,0l-5.343,3.443a.19.19,0,0,0,0,.3l.237.174.1-.333h-.023a.19.19,0,0,0-.1.333c.888.617,1.764,1.245,2.637,1.881l.1-.333h-.023a.19.19,0,0,0-.1.333c.853.6,1.7,1.21,2.532,1.838a.2.2,0,0,0,.233,0l5.405-3.591C65.884,55.982,65.651,55.672,65.454,55.807Z" transform="translate(-33.435 -31.86)" fill="#fdfdfd" stroke="#fff" stroke-width="1"/>
      <path id="Path_62" data-name="Path 62" d="M68.812,40.016l.465.357a.194.194,0,0,0,.268-.023l.907-1.38a8.027,8.027,0,0,1,2.489-1.811q2.276-1.462,4.548-2.931c.206-.132-.027-.442-.229-.314q-2.416,1.551-4.843,3.1a8,8,0,0,0-2.191,1.57c-.357.477-.659,1.008-.985,1.5l.268-.023-.461-.322c-.2-.151-.434.14-.237.291Z" transform="translate(-42.087 -20.752)" fill="#fdfdfd" stroke="#fff" stroke-width="1"/>
      <path id="Path_63" data-name="Path 63" d="M45.846,56.537l1.07-1.613a5.219,5.219,0,0,1,.477-.717,8.085,8.085,0,0,1,1.4-.977c1.811-1.163,3.641-2.327,5.456-3.513.206-.132-.027-.442-.229-.314-1.939,1.245-3.878,2.455-5.774,3.719A4.746,4.746,0,0,0,46.6,54.672l-1.07,1.613c-.132.2.167.446.3.244Z" transform="translate(-27.857 -30.236)" fill="#fdfdfd" stroke="#fff" stroke-width="1"/>
      <path id="Path_64" data-name="Path 64" d="M27.239,37.559c2.327-1.415,4.56-2.935,6.832-4.413.206-.132-.027-.442-.229-.314-2.272,1.474-4.525,3-6.832,4.413C26.8,37.373,27.033,37.683,27.239,37.559Z" transform="translate(-16.489 -20.091)" fill="#fdfdfd" stroke="#fff" stroke-width="1"/>
      <path id="Path_65" data-name="Path 65" d="M57.245,69.795v-2a4.728,4.728,0,0,0-.027-1.7c-.171-.357-.966-.729-1.3-.973-.713-.52-1.427-1.031-2.144-1.551-1.276-.919-2.54-1.85-3.816-2.773-.2-.143-.438.147-.237.291,1.163.849,2.35,1.714,3.529,2.563l1.939,1.4a6.684,6.684,0,0,1,1.551,1.163c.124.174.116.256.116.578v3.048c0,.24.388.213.388-.035Z" transform="translate(-30.395 -37.208)" fill="#fdfdfd" stroke="#fff" stroke-width="1"/>
      <path id="Path_66" data-name="Path 66" d="M77.463,86.342v-2a4.729,4.729,0,0,0-.027-1.7c-.171-.357-.966-.729-1.3-.973-.713-.52-1.427-1.031-2.144-1.551-1.276-.919-2.548-1.838-3.816-2.773a.194.194,0,0,0-.268.023l-1.621,2.443c-.132.2.167.446.3.244l1.621-2.443-.268.023c1.163.861,2.35,1.714,3.525,2.563l1.939,1.4a6.684,6.684,0,0,1,1.551,1.163c.124.174.116.256.116.578v3.048c0,.24.388.213.388-.035Z" transform="translate(-41.791 -47.334)" fill="#fdfdfd" stroke="#fff" stroke-width="1"/>
      <path id="Path_67" data-name="Path 67" d="M76.214,29.6c-2.412,1.687-4.874,3.315-7.34,4.913-.206.132.027.442.229.314,2.478-1.6,4.94-3.218,7.368-4.909.2-.14-.031-.45-.229-.314Z" transform="translate(-42.121 -18.115)" fill="#fdfdfd" stroke="#fff" stroke-width="1"/>
      <path id="Path_68" data-name="Path 68" d="M88.654,40.31c-1.206.8-2.435,1.644-3.6,2.458-.213.151-.613.341-.88.52-.473.31-.628.527-1.132.291a15.34,15.34,0,0,1-2.09-1.508l-.1.333h.023a.19.19,0,0,0,.1-.333q-1.311-.954-2.637-1.881l-.1.333h.031a.19.19,0,0,0,.1-.333l-.237-.174v.3l3.005-1.939a14.537,14.537,0,0,1,1.978-1.272c.388-.163.427-.027.822.256q.756.535,1.516,1.062,1.6,1.105,3.215,2.179c.206.136.442-.155.237-.291-1.826-1.221-3.645-2.458-5.429-3.742a.2.2,0,0,0-.233,0l-5.359,3.436a.19.19,0,0,0,0,.3l.237.174.1-.333h-.023a.19.19,0,0,0-.1.333q1.33.923,2.637,1.881l.1-.333h-.023a.19.19,0,0,0-.1.333c.849.6,1.7,1.21,2.528,1.838a.2.2,0,0,0,.233,0l5.405-3.591C89.084,40.488,88.855,40.178,88.654,40.31Z" transform="translate(-47.639 -22.377)" fill="#fdfdfd" stroke="#fff" stroke-width="1"/>
      <path id="Path_69" data-name="Path 69" d="M70.015,47.326c1.706,1.214,3.432,2.4,5.169,3.564A5.63,5.63,0,0,1,77,52.352l.776,1.21a.2.2,0,0,0,.268.047l.318-.206a.19.19,0,0,0,.306-.163V51.39c0-.776,0-.8-.663-1.3-2.195-1.621-4.417-3.215-6.627-4.812-.2-.143-.438.147-.237.291,2.082,1.516,4.153,2.99,6.189,4.494.24.178.853.481.962.71a2.838,2.838,0,0,1,0,.834v1.667l.306-.163-.1-.085a.2.2,0,0,0-.233,0c-.295.2-.078.388-.3.124a8.4,8.4,0,0,1-.508-.776,4.083,4.083,0,0,0-1.423-1.349c-1.939-1.3-3.878-2.617-5.778-3.975-.2-.143-.438.147-.237.291Z" transform="translate(-42.824 -27.706)" fill="#fdfdfd" stroke="#fff" stroke-width="1"/>
      <path id="Path_70" data-name="Path 70" d="M98.931,46.167c-2.416,1.687-4.874,3.312-7.368,4.909-.206.132.027.442.229.314,2.478-1.594,4.94-3.218,7.368-4.909C99.362,46.341,99.129,46.031,98.931,46.167Z" transform="translate(-56.013 -28.253)" fill="#fdfdfd" stroke="#fff" stroke-width="1"/>
      <path id="Path_71" data-name="Path 71" d="M119.083,47.26c-.508-1.09-1.02-2.179-1.551-3.265l-.155.252,2.447-.45-.213-.221a21.84,21.84,0,0,1-.872,3.672c-.066.229.287.388.353.159a22.362,22.362,0,0,0,.892-3.757.2.2,0,0,0-.213-.221l-2.424.454a.186.186,0,0,0-.155.252c.516,1.086,1.028,2.175,1.551,3.265C118.831,47.609,119.187,47.489,119.083,47.26Z" transform="translate(-71.743 -26.597)" fill="#fdfdfd" stroke="#fff" stroke-width="1"/>
      <path id="Path_72" data-name="Path 72" d="M126.66,43.189a35.818,35.818,0,0,0-2.327,3.1.2.2,0,0,0,.221.3,32.241,32.241,0,0,0,3.676-1.082.19.19,0,0,0,.085-.287l-1.342-2.012a.19.19,0,0,0-.306.217l1.342,2.012.085-.287a32.24,32.24,0,0,1-3.676,1.082l.221.3a35.808,35.808,0,0,1,2.327-3.1C127.121,43.251,126.819,43.006,126.66,43.189Z" transform="translate(-76.102 -26.411)" fill="#fdfdfd" stroke="#fff" stroke-width="1"/>
      <path id="Path_73" data-name="Path 73" d="M111.506,59.08a18.74,18.74,0,0,1,1.865-2.4,4.6,4.6,0,0,1,.849-.458q.919-.512,1.846-1.012l2.714-1.462,1.551-.838c.489-.264.593-.221,1.024.143l1.3,1.074q1.225,1.008,2.462,2a15.71,15.71,0,0,1,2.567,2.094,11.833,11.833,0,0,1,.807,1.477,6.921,6.921,0,0,1,.388.69c.143.357.171.206-.213.326a7.727,7.727,0,0,0-1.307.748l-1.454.826q-1.675.946-3.358,1.881l-1.621.9c-.163.089-1.016.679-1.047.675-.147,0-.469-.388-.578-.481l-2.633-2.183-5.157-4.273a.187.187,0,0,0-.237.291l8.391,6.98a.2.2,0,0,0,.233,0c3.16-1.737,6.309-3.49,9.43-5.3a.186.186,0,0,0,.066-.221,9.527,9.527,0,0,0-1.784-2.931c-2.206-1.78-4.436-3.533-6.592-5.367a.19.19,0,0,0-.19-.035c-2.032,1.043-4.029,2.171-6.037,3.257A5.949,5.949,0,0,0,112.6,57.1l-1.357,1.741C111.071,59.029,111.37,59.273,111.506,59.08Z" transform="translate(-68.079 -31.98)" fill="#fdfdfd" stroke="#fff" stroke-width="1"/>
      <path id="Path_74" data-name="Path 74" d="M131.716,59.75l-3.676,2.032a.186.186,0,0,0-.078.175c0-.1-1.008.434-1.082.477-.465.256-.562.388-1.012.1a19,19,0,0,1-1.966-1.652l-.1.333h.023c.178,0,.209-.237.1-.333q-1.229-1.043-2.466-2.075l-.1.333h.023c.174,0,.213-.237.1-.333l-.237-.194v.3l3.153-1.706a12.594,12.594,0,0,1,2.071-1.121c.143-.043.178-.116.31-.085s.368.322.492.423q.71.593,1.427,1.163,1.5,1.233,3.021,2.439a.187.187,0,1,0,.237-.291c-1.718-1.369-3.424-2.753-5.1-4.172a.2.2,0,0,0-.233,0l-5.6,3.028a.19.19,0,0,0,0,.3l.237.194.1-.333h-.023c-.174,0-.213.237-.1.333q1.237,1.031,2.466,2.075l.1-.333h-.023c-.174,0-.213.237-.1.333.8.663,1.594,1.33,2.377,2.012a.2.2,0,0,0,.233,0l1.989-1.082a.186.186,0,0,0,.078-.174c0,.023,1.791-.876,1.9-.938l1.7-.942C132.158,59.944,131.926,59.634,131.716,59.75Z" transform="translate(-74.051 -34.008)" fill="#fdfdfd" stroke="#fff" stroke-width="1"/>
      <path id="Path_75" data-name="Path 75" d="M140.876,66.679q-2.04,1.2-4.11,2.327l-2.152,1.19c-.388.209-1.291.5-1.5.88a5.62,5.62,0,0,0-.151,1.737l-.159,1.9c-.019.24.361.31.388.062l.143-1.714.1-1.225a1.615,1.615,0,0,1,.054-.644,5.675,5.675,0,0,1,.776-.365l.88-.485,2.164-1.194q1.919-1.059,3.8-2.168c.209-.124-.019-.434-.229-.314Z" transform="translate(-81.307 -40.808)" fill="#fdfdfd" stroke="#fff" stroke-width="1"/>
      <path id="Path_76" data-name="Path 76" d="M123.169,68.639c-2.249-1.939-4.572-3.812-6.79-5.8-.186-.167-.423.128-.237.291,2.23,1.985,4.556,3.847,6.79,5.8C123.123,69.093,123.355,68.8,123.169,68.639Z" transform="translate(-71.068 -38.452)" fill="#fdfdfd" stroke="#fff" stroke-width="1"/>
      <path id="Path_77" data-name="Path 77" d="M98.481,78.237c-2.427,1.667-4.874,3.312-7.368,4.909-.206.132.027.442.229.314,2.478-1.6,4.925-3.238,7.368-4.909.2-.14-.031-.45-.229-.314Z" transform="translate(-55.737 -47.888)" fill="#fdfdfd" stroke="#fff" stroke-width="1"/>
      <path id="Path_78" data-name="Path 78" d="M88.18,72.349l-.194.128.264.279h0c.155-.155-.1-.388-.264-.279-1.14.776-2.327,1.613-3.416,2.365-.221.155-.6.314-.872.489-.469.31-.628.523-1.132.291a14.817,14.817,0,0,1-2.09-1.512l-.1.333h0a.19.19,0,0,0,.1-.333q-1.287-.954-2.606-1.892l-.19.318H77.7a.186.186,0,0,0,.19-.318l-.248-.186v.3l3.005-1.939a14.738,14.738,0,0,1,1.974-1.272c.388-.163.43-.027.826.256q.776.535,1.52,1.066,1.594,1.105,3.211,2.187c.206.136.442-.151.237-.291-1.826-1.225-3.641-2.47-5.429-3.75a.2.2,0,0,0-.233,0q-2.668,1.726-5.343,3.439a.19.19,0,0,0,0,.3l.248.186.19-.318h-.023a.186.186,0,0,0-.19.318q1.318.935,2.629,1.881l.1-.333h0a.19.19,0,0,0-.1.333q1.272.911,2.528,1.838a.2.2,0,0,0,.233,0,11.409,11.409,0,0,0,1.71-1.128c.213-.206.268-.171.469-.318.977-.71,2.028-1.338,3.032-2.012l-.264-.279h0c-.159.155.1.388.264.279l.194-.128C88.614,72.527,88.381,72.217,88.18,72.349Z" transform="translate(-47.351 -41.98)" fill="#fdfdfd" stroke="#fff" stroke-width="1"/>
      <path id="Path_79" data-name="Path 79" d="M91.569,65.767a4.122,4.122,0,0,1,.465.345c.178.174.411-.12.237-.291a4.122,4.122,0,0,0-.465-.345C91.6,65.329,91.367,65.619,91.569,65.767Z" transform="translate(-56.018 -40.071)" fill="#fdfdfd" stroke="#fff" stroke-width="1"/>
      <path id="Path_80" data-name="Path 80" d="M75.721,61.667c-2.412,1.691-4.874,3.311-7.368,4.909-.206.132.027.442.229.314,2.478-1.6,4.94-3.218,7.368-4.909C76.152,61.841,75.919,61.531,75.721,61.667Z" transform="translate(-41.803 -37.743)" fill="#fdfdfd" stroke="#fff" stroke-width="1"/>
      <path id="Path_81" data-name="Path 81" d="M72.749,70.689c2.327-1.415,4.56-2.939,6.832-4.413.206-.132-.027-.442-.229-.314-2.272,1.474-4.525,3-6.832,4.413C72.311,70.5,72.543,70.813,72.749,70.689Z" transform="translate(-44.352 -40.375)" fill="#fdfdfd" stroke="#fff" stroke-width="1"/>
    </g>
  </g>
</svg>
