<svg xmlns="http://www.w3.org/2000/svg" xmlns:xlink="http://www.w3.org/1999/xlink" width="98" height="99" viewBox="0 0 98 99">
  <defs>
    <clipPath id="clip-path">
      <rect id="Rectangle_22" data-name="Rectangle 22" width="55.859" height="52.612" transform="translate(0 0)" fill="none" stroke="#fff" stroke-width="1"/>
    </clipPath>
  </defs>
  <g id="cup-icon" transform="translate(-417.071 -2303.946)">
    <g id="Ellipse_7" data-name="Ellipse 7" transform="translate(417.071 2303.946)" fill="none" stroke="#ff9faf" stroke-width="4">
      <ellipse cx="49" cy="49.5" rx="49" ry="49.5" stroke="none"/>
      <ellipse cx="49" cy="49.5" rx="47" ry="47.5" fill="none"/>
    </g>
    <ellipse id="Ellipse_8" data-name="Ellipse 8" cx="41" cy="40.5" rx="41" ry="40.5" transform="translate(425.071 2312.946)" fill="#ff9faf"/>
    <g id="Mask_Group_10" data-name="Mask Group 10" transform="translate(438.191 2326.946)" clip-path="url(#clip-path)">
      <g id="Layer_2" data-name="Layer 2" transform="translate(0 9.165)">
        <g id="OBJECTS" transform="translate(0 0)">
          <g id="Layer0_5_1_STROKES" data-name="Layer0 5 1 STROKES">
            <path id="Path_210" data-name="Path 210" d="M.068.167a.993.993,0,0,1-.056.29C-.083.719.4,1.015.5.7a1.428,1.428,0,0,0,.089-.4C.592.027.1-.151.079.178Z" transform="translate(45.713 5.26)" fill="none" stroke="#fff" stroke-width="1.718"/>
            <path id="Path_211" data-name="Path 211" d="M.231.483A20.135,20.135,0,0,1,4,1.565c.625.268,1.674.7,1.707,1.5,0,.273.558.452.513.128C6.073.957,1.821.349.253.008-.1-.07-.065.416.253.483Z" transform="translate(40.077 2.371)" fill="none" stroke="#fff" stroke-width="1.718"/>
            <path id="Path_212" data-name="Path 212" d="M.306.485A68.814,68.814,0,0,1,13.964,1.679c.357.073.318-.413,0-.474A69.479,69.479,0,0,0,.195.006C-.157.006.022.5.306.5Z" transform="translate(26.344 1.175)" fill="none" stroke="#fff" stroke-width="1.718"/>
            <path id="Path_213" data-name="Path 213" d="M.376,1.69A69.6,69.6,0,0,1,14.107.5c.351,0,.173-.491-.112-.491A70.237,70.237,0,0,0,.142,1.216C-.176,1.283.1,1.774.376,1.69Z" transform="translate(12.544 1.164)" fill="none" stroke="#fff" stroke-width="1.718"/>
            <path id="Path_214" data-name="Path 214" d="M.513,3.19c.05-.781.932-1.227,1.557-1.518A18.545,18.545,0,0,1,6.059.484c.318-.067.033-.558-.234-.474C4.363.322.134.908,0,3.061c0,.279.491.457.513.128Z" transform="translate(6.866 2.376)" fill="none" stroke="#fff" stroke-width="1.718"/>
            <path id="Path_215" data-name="Path 215" d="M.56.494A.625.625,0,0,1,.516.3C.516.031-.042-.153,0,.176A1.5,1.5,0,0,0,.1.617C.209.9.661.84.56.5Z" transform="translate(6.858 5.256)" fill="none" stroke="#fff" stroke-width="1.718"/>
            <path id="Path_216" data-name="Path 216" d="M1.539,1.205C1.155.988.647.7.507.246A.335.335,0,0,0,.2,0a.2.2,0,0,0-.2.24A2.656,2.656,0,0,0,1.389,1.629c.318.179.435-.268.151-.424Z" transform="translate(6.939 5.566)" fill="none" stroke="#fff" stroke-width="1.718"/>
            <path id="Path_217" data-name="Path 217" d="M.465,3.072C3.36,1.6,6.953,1.231,10.15.879A86.862,86.862,0,0,1,21.409.539,62.326,62.326,0,0,1,31.815,1.6c1.584.318,3.007.9,4.541,1.345.8.229,1.384-.379,1.746-1.116.123-.251-.357-.53-.491-.245-.508,1.066-1.088.921-1.981.558a17.92,17.92,0,0,0-1.774-.558,40.389,40.389,0,0,0-4.631-.9A75.457,75.457,0,0,0,18.96,0,81.183,81.183,0,0,0,8.627.572C5.776.924,2.68,1.331.1,2.642c-.273.139.095.558.346.43Z" transform="translate(8.108 4.129)" fill="none" stroke="#fff" stroke-width="1.718"/>
            <path id="Path_218" data-name="Path 218" d="M36.47.06c-2.6,1.367-5.9,1.674-8.765,2.115a62.371,62.371,0,0,1-8.531.653A65.232,65.232,0,0,1,9,2.269C6.119,1.851,2.933,1.382.316.037-.007-.13-.125.311.166.461A27.711,27.711,0,0,0,8.713,2.693a65.159,65.159,0,0,0,10.573.625,62.974,62.974,0,0,0,8.408-.625c2.99-.441,6.4-.77,9.111-2.2.268-.139-.095-.558-.346-.43Z" transform="translate(8.162 6.745)" fill="none" stroke="#fff" stroke-width="1.718"/>
            <path id="Path_219" data-name="Path 219" d="M47.979,5.884c-.2,1.35-.379,2.695-.63,4.034-.033.184.218.346.374.3,2.2-.558,4.72-1.027,6.427.971a6.328,6.328,0,0,1,.67,6.371c-1.891,4.106-8.073,5.462-12.124,4.8-.073,0-.179,0-.229.061a17.4,17.4,0,0,1-1.116,1.6.285.285,0,0,0,.206.413c1.423.206,13.736,2.126,10.6,5.183-1.64,1.6-4.636,2.053-6.773,2.5a71.086,71.086,0,0,1-8.229,1.194,122.014,122.014,0,0,1-18.557.2,82.236,82.236,0,0,1-8.614-.96,28.823,28.823,0,0,1-7.571-2.02c-.742-.346-1.925-.965-1.858-1.914,0-.859,1.021-1.417,1.674-1.763,2.879-1.473,6.377-1.947,9.535-2.41.184,0,.151-.251.073-.357A35.194,35.194,0,0,1,6.213,11.519q-.407-1.674-.681-3.4c-.145-.915-.524-2.081-.061-2.935.776-1.423,2.9-2.087,4.3-2.55A48.408,48.408,0,0,1,22.466.606,76.993,76.993,0,0,1,36.5,1.1a40.6,40.6,0,0,1,6.79,1.451c1.473.469,4.564,1.361,4.67,3.348,0,.273.558.457.513.128C48.3,2.971,43.12,1.973,40.9,1.454A64.53,64.53,0,0,0,25.467.025,56.536,56.536,0,0,0,10.448,1.878,11.625,11.625,0,0,0,5.583,4.165C4.305,5.387,4.813,6.8,5.07,8.355a37.281,37.281,0,0,0,6.4,15.951l.078-.329c-1.6.218-13.173,1.478-11.354,5.3C.919,30.8,3.262,31.42,4.707,31.849a54.85,54.85,0,0,0,9.58,1.769,116.334,116.334,0,0,0,22.512.223,70.3,70.3,0,0,0,9.607-1.412c1.975-.446,5.138-.976,6.461-2.745,2.879-3.855-9.875-5.518-11.281-5.719l.206.413c.558-.736.781-1.4,1.718-1.412.681,0,1.35.039,2.036,0a16.487,16.487,0,0,0,4.4-.865c2.449-.87,4.921-2.505,5.657-5.144.6-2.131.19-4.91-1.529-6.433-1.947-1.724-4.324-1.378-6.611-.77l.374.3c.251-1.339.441-2.684.63-4.034C48.509,5.739,47.979,5.566,47.979,5.884Z" transform="translate(0 0)" fill="none" stroke="#fff" stroke-width="1.718"/>
            <path id="Path_220" data-name="Path 220" d="M2.947,5.837C2.222,5.591.922,5.2.654,4.369.336,3.387,1.72,2.835,2.423,2.545c.2-.084.151-.279,0-.407A18.623,18.623,0,0,1,.665.118C.47-.139.063.062.28.352A19.667,19.667,0,0,0,2.138,2.478V2.071C1.251,2.444-.267,3.092.04,4.3S1.9,5.976,2.875,6.3c.34.123.3-.374,0-.474Z" transform="translate(11.166 23.965)" fill="none" stroke="#fff" stroke-width="1.718"/>
            <path id="Path_221" data-name="Path 221" d="M.113,2.487a13.621,13.621,0,0,0,6.511,2.89,31.8,31.8,0,0,0,8.369.731,32.867,32.867,0,0,0,8.1-1.434A11.034,11.034,0,0,0,28.583.417c.179-.234-.257-.558-.435-.351a10.832,10.832,0,0,1-5.808,4.29,32.175,32.175,0,0,1-7.465,1.25,31.11,31.11,0,0,1-7.454-.558C4.844,4.54,2.4,3.932.392,2.125c-.262-.234-.558.112-.279.34Z" transform="translate(13.22 23.95)" fill="none" stroke="#fff" stroke-width="1.718"/>
            <path id="Path_222" data-name="Path 222" d="M1.82.158Q1,.1.191,0C-.155-.037.023.46.3.493q.815.095,1.629.156C2.277.649,2.1.181,1.82.158Z" transform="translate(19.547 30.955)" fill="none" stroke="#fff" stroke-width="1.718"/>
            <path id="Path_223" data-name="Path 223" d="M16.14.451c.865.368,2.271,1.021,1.545,2.12a4.044,4.044,0,0,1-1.808,1.06,23.17,23.17,0,0,1-4.67,1.116,58.816,58.816,0,0,1-11.013.5c-.351,0-.173.48.112.491,4.815.167,9.886.1,14.562-1.227,1.082-.307,3.113-.792,3.537-2.048S17.211.418,16.3.027c-.335-.139-.452.3-.151.424Z" transform="translate(23.577 26.031)" fill="none" stroke="#fff" stroke-width="1.718"/>
            <path id="Path_224" data-name="Path 224" d="M4.919.125c-.212,1-.435,2-.72,2.985a.312.312,0,0,0,.363.363,6.585,6.585,0,0,1,3.08-.558c2.232.441,2.689,3.18,1.406,4.793C7.413,9.766,4.071,9.833,1.7,9.939a.2.2,0,0,0-.19.123c-.452.9-.948,1.774-1.478,2.633-.151.245.285.6.435.351.329-.558.653-1.071.954-1.618.363-.653.4-.937,1.172-1.027A33.477,33.477,0,0,0,5.94,10c1.6-.351,3.348-1.116,4.045-2.706A3.684,3.684,0,0,0,9.014,3c-1.5-1.077-3.1-.485-4.675,0l.363.363c.285-.982.508-1.981.72-2.985.056-.273-.43-.558-.491-.245Z" transform="translate(42.419 9.736)" fill="none" stroke="#fff" stroke-width="1.718"/>
            <path id="Path_225" data-name="Path 225" d="M2.711.108A39.115,39.115,0,0,1,.022,7.082c-.128.245.351.524.491.245A39.116,39.116,0,0,0,3.2.381c.078-.268-.407-.558-.491-.245Z" transform="translate(43.907 12.711)" fill="none" stroke="#fff" stroke-width="1.718"/>
          </g>
        </g>
      </g>
    </g>
  </g>
</svg>
