<svg xmlns="http://www.w3.org/2000/svg" width="112" height="112" viewBox="0 0 112 112">
  <g id="donuat-square-icon" transform="translate(-459 -3043)">
    <g id="Rectangle_25" data-name="Rectangle 25" transform="translate(459 3043)" fill="rgba(0,0,0,0.46)" stroke="#fff" stroke-width="1">
      <rect width="112" height="112" stroke="none"/>
      <rect x="0.5" y="0.5" width="111" height="111" fill="none"/>
    </g>
    <g id="Layer0_1_1_STROKES" data-name="Layer0 1 1 STROKES" transform="translate(205.263 3024.79)">
      <path id="Path_237" data-name="Path 237" d="M297.174,61.414c-.217,1.316-1.548.681-2.322.286-.418-.217-1.679-.72-1.262-1.362s1.308-.116,1.749.046,1.726.511,1.78,1.114c0,.348.774.627.7.193-.1-1.037-1.339-1.548-2.183-1.834s-2.392-.9-2.794.279,1.184,1.811,1.958,2.19c1.029.511,2.732,1.084,3.011-.557C297.91,61.414,297.236,61.027,297.174,61.414Z" transform="translate(-2.554 -0.566)" fill="none" stroke="#fff" stroke-width="0.882"/>
      <path id="Path_238" data-name="Path 238" d="M305.157,58.8q.867.387.286.658-.217.139-.449.263c-.441.248-.913.464-1.37.666s-2.322,1.153-2.748.6.859-1.037,1.1-1.169a7.151,7.151,0,0,1,3.181-1.022c.48,0,.2-.673-.17-.658a7,7,0,0,0-2.608.65,5.06,5.06,0,0,0-2.113,1.3c-.519.851.426,1.641,1.231,1.664a4.938,4.938,0,0,0,1.927-.488,8.816,8.816,0,0,0,2.686-1.362c.859-.82-.294-1.71-1.13-1.772C304.507,58.1,304.794,58.776,305.157,58.8Z" transform="translate(-3.456 -0.405)" fill="none" stroke="#fff" stroke-width="0.882"/>
      <path id="Path_239" data-name="Path 239" d="M312.933,61.414c-.217,1.316-1.548.681-2.322.286-.418-.217-1.68-.72-1.262-1.362s1.308-.116,1.749.046,1.718.511,1.78,1.114c0,.348.774.627.7.193-.1-1.037-1.339-1.548-2.183-1.834s-2.392-.9-2.8.279,1.184,1.811,1.958,2.19c1.029.511,2.74,1.091,3.011-.557C313.668,61.414,313,61.027,312.933,61.414Z" transform="translate(-4.49 -0.566)" fill="none" stroke="#fff" stroke-width="0.882"/>
      <path id="Path_240" data-name="Path 240" d="M319.9,61.455a13.62,13.62,0,0,1-2.144,1.9,3.1,3.1,0,0,1-.7.379c-.348.116-.875-.054-.836-.511s1.13-1.1,1.548-1.354a6.192,6.192,0,0,1,1.37-.774c.488-.163.735-.054.774.48,0,.356.72.635.7.193a1.257,1.257,0,0,0-1.695-1.354,7.183,7.183,0,0,0-2.175,1.238c-.387.286-.967.666-1.122,1.153a1.354,1.354,0,0,0,1.5,1.633c1.339-.163,2.57-1.625,3.444-2.523C320.766,61.679,320.17,61.184,319.9,61.455Z" transform="translate(-5.357 -0.677)" fill="none" stroke="#fff" stroke-width="0.882"/>
      <path id="Path_241" data-name="Path 241" d="M290.029,60.428c-.093.65-1.292,1.3-1.8,1.618a2.81,2.81,0,0,1-1.06.48.72.72,0,0,1-.774-.944c.271-.642,1.153-1.053,1.726-1.347s1.888-.983,1.935.193c0,.356.72.635.7.193a1.416,1.416,0,0,0-1.842-1.509c-1.06.224-3.1,1.145-3.3,2.384a1.494,1.494,0,0,0,1.9,1.664A5.511,5.511,0,0,0,289.6,62c.464-.356,1.037-.774,1.13-1.385C290.787,60.266,290.1,59.987,290.029,60.428Z" transform="translate(-1.67 -0.517)" fill="none" stroke="#fff" stroke-width="0.882"/>
      <path id="Path_242" data-name="Path 242" d="M281.169,64.224a4.248,4.248,0,0,1,1.37.116c.542.209.859.96.217,1.308a4.551,4.551,0,0,1-1.8.217c-.681,0-1.718.255-1.819-.619-.124-1.091,1.323-1.006,2.036-1.014.48,0,.2-.666-.17-.658-1.161,0-2.686,0-2.562,1.548s1.633,1.424,2.825,1.37c.96-.039,2.469,0,2.562-1.246.116-1.548-1.68-1.687-2.833-1.7C280.519,63.535,280.8,64.224,281.169,64.224Z" transform="translate(-0.79 -1.07)" fill="none" stroke="#fff" stroke-width="0.882"/>
      <path id="Path_243" data-name="Path 243" d="M291.712,70.793c-.178,2.26-2.957-.712-3.367-1.161a7.36,7.36,0,0,1-1.471-1.718c-.093-.271.07-.875.48-.944.619-.1,1.486.82,1.9,1.184a22.447,22.447,0,0,1,1.672,1.548c.24.255.728.689.774,1.06s.774.627.7.193a2.809,2.809,0,0,0-.875-1.463,17.722,17.722,0,0,0-2.918-2.631c-.464-.325-1.161-.774-1.765-.58a1.409,1.409,0,0,0-.689,1.548c.139.472.7.921,1.006,1.285a19.058,19.058,0,0,0,2.012,2.113c.991.851,3.1,1.765,3.22-.286C292.448,70.63,291.751,70.344,291.712,70.793Z" transform="translate(-1.736 -1.401)" fill="none" stroke="#fff" stroke-width="0.882"/>
      <path id="Path_244" data-name="Path 244" d="M313.246,55.918a105.105,105.105,0,0,0-22.383-.666,43.466,43.466,0,0,0-9.93,2.059c-2.1.728-4.458,1.726-5.789,3.607a13.113,13.113,0,0,0-1.447,3.22c-.209.6-.65,1.548-.371,2.221s1.114.882,1.788,1.045c2.484.58,4.048,1.238,5.263,3.653a37.379,37.379,0,0,1,2.268,5.8A4.017,4.017,0,0,0,284.4,79.3c2.012,1.262,4.574.952,6.679.139,1.935-.774,3.7-1.966,5.789-2.268,2.539-.371,3.661,1.842,5.224,3.374a6.881,6.881,0,0,0,6.6,1.873c1.726-.488,3.1-1.664,4.69-2.438a3.4,3.4,0,0,1,2.57-.464,7.2,7.2,0,0,1,2.229,1.943c1.811,1.966,3.684,4.5,6.664,4.466s4.566-3.1,6.145-5.162a12.654,12.654,0,0,1,1.246-1.455c.967-.921,1.548-.689,2.817,0,.859.457,1.618,1.238,2.686,1.207a2.531,2.531,0,0,0,2.012-1.455c.65-1.006.882-2.376,2.221-2.546,1.122-.147,2.059.658,3.1.991,2.128.7,3.4-2.554,3.212-4.226-.712-6.362-6.849-10.232-12.259-12.383-7.213-2.848-15.069-4.032-22.731-4.953-.472-.054-.186.611.17.658a103.808,103.808,0,0,1,19.62,3.87c5.325,1.718,11.493,4.458,13.776,9.976.735,1.772,1.169,3.715-.054,5.418a1.624,1.624,0,0,1-2.244.774c-.6-.193-1.145-.488-1.757-.65-2.508-.689-2.639,1.61-3.97,3.181-1.61,1.9-3.1-.774-4.644-1.176a2.237,2.237,0,0,0-1.927.4c-2.322,1.594-3.1,4.721-5.5,6.254-5.882,3.761-7.546-7.322-12.77-5.619-3.421,1.114-5.921,4.35-9.806,2.4-2.322-1.153-3.32-4.249-5.983-4.822-2.422-.519-4.876,1.184-6.966,2.082a8.2,8.2,0,0,1-4.961.774c-2.693-.549-2.941-2.817-3.777-5.046s-1.8-4.961-3.916-6.4a6.462,6.462,0,0,0-2.322-.952c-.96-.2-2.121-.116-2.167-1.262a5.318,5.318,0,0,1,.557-1.695c1.2-3.142,3.057-4.644,6.192-5.843a41.128,41.128,0,0,1,9.674-2.159c7.623-.867,15.386-.286,22.979.6C313.888,56.63,313.6,55.957,313.246,55.918Z" transform="translate(-0.151 -0.009)" fill="none" stroke="#fff" stroke-width="0.882"/>
      <path id="Path_245" data-name="Path 245" d="M320.023,76.415c-.093,1.238-2.028.836-2.9.774-.588,0-2.09.108-2.082-.774s1.548-.967,2.206-.975,2.693-.108,2.779.967c0,.356.735.635.7.193-.108-1.432-1.68-1.734-2.871-1.8s-3.351-.186-3.514,1.331,1.238,1.548,2.322,1.672c1.3.116,3.924.689,4.063-1.207C320.75,76.253,320.054,75.974,320.023,76.415Z" transform="translate(-5.202 -2.449)" fill="none" stroke="#fff" stroke-width="0.882"/>
      <path id="Path_246" data-name="Path 246" d="M299.063,73.977h3.251a13.159,13.159,0,0,1,2.012,0,1.336,1.336,0,0,1,.464,0,.952.952,0,0,1,.07,1.548,4.187,4.187,0,0,1-1.316.039h-4.3a2.647,2.647,0,0,1-.6,0h-.24q-.936,0,.642-1.548c.48,0,.2-.673-.17-.658-2.066.085-2.322,2.5-.248,2.879a18.8,18.8,0,0,0,3.2,0,24.823,24.823,0,0,0,3.142,0c1.935-.255,1.378-2.523-.286-2.833-1.811-.341-3.955,0-5.8-.046C298.413,73.312,298.692,73.97,299.063,73.977Z" transform="translate(-3.096 -2.264)" fill="none" stroke="#fff" stroke-width="0.882"/>
      <path id="Path_247" data-name="Path 247" d="M291.96,64.356c1.641,1.919,4.837,2.577,7.136,3.181a108.631,108.631,0,0,0,15.943,2.8,105.342,105.342,0,0,0,16.253.673c2.1-.1,5.418,0,7.043-1.656.263-.271-.333-.774-.6-.488-1.695,1.78-5.905,1.486-8.065,1.548a112.823,112.823,0,0,1-14.055-.642,116.584,116.584,0,0,1-14.705-2.4c-2.554-.6-6.625-1.169-8.444-3.3-.286-.333-.836-.085-.5.3Z" transform="translate(-2.44 -1.117)" fill="none" stroke="#fff" stroke-width="0.882"/>
      <path id="Path_248" data-name="Path 248" d="M273.167,67.7C272.03,72.54,270.931,78,274.576,81.959c4.644,5.015,12.05,7.654,18.4,9.589a78.835,78.835,0,0,0,24.852,3.243c7.236-.17,15.216-.681,22.019-3.359,1.8-.712,3.8-1.695,4.876-3.4a17.877,17.877,0,0,0,1.7-4.86,32.727,32.727,0,0,0,1.045-5.735c0-.356-.666-.642-.7-.193a29,29,0,0,1-2.407,9.86,7.748,7.748,0,0,1-3.87,3.258c-5.812,2.732-12.94,3.227-19.248,3.622a81.977,81.977,0,0,1-23.172-1.71c-7.02-1.587-14.465-4.071-20.347-8.32-2.082-1.5-4.21-3.491-4.8-6.091a14.2,14.2,0,0,1,.108-4.5,41.534,41.534,0,0,1,.813-5.294c.085-.356-.58-.774-.673-.348Z" transform="translate(-0.009 -1.561)" fill="none" stroke="#fff" stroke-width="0.882"/>
      <path id="Path_249" data-name="Path 249" d="M329.553,65.276c-.093,1.006-1.85.642-2.546.534-.542-.085-2.972-.774-1.757-1.447a4.09,4.09,0,0,1,2.322.046c.457.085,1.9.263,1.966.867,0,.348.774.627.7.193-.124-1.145-1.548-1.471-2.492-1.656s-3.142-.735-3.529.55,1.656,1.873,2.539,2.043c1.1.209,3.328.689,3.475-.929C330.288,65.082,329.591,64.835,329.553,65.276Z" transform="translate(-6.412 -1.069)" fill="none" stroke="#fff" stroke-width="0.882"/>
      <path id="Path_250" data-name="Path 250" d="M338.069,63.431c-.116.472-1.107,1.006-1.478,1.262a4.318,4.318,0,0,1-1.091.588c-.372.116-1.053,0-.875-.526s.983-.851,1.4-1.076,2-1.262,2.043-.163c0,.356.72.635.7.193a1.262,1.262,0,0,0-1.687-1.316,7.879,7.879,0,0,0-2.206,1.084c-.348.224-.828.542-.944.975-.263,1,.774,1.679,1.656,1.548a4.984,4.984,0,0,0,1.981-1.068c.348-.263,1.053-.666,1.169-1.138S338.162,63.044,338.069,63.431Z" transform="translate(-7.607 -0.92)" fill="none" stroke="#fff" stroke-width="0.882"/>
      <path id="Path_251" data-name="Path 251" d="M328,60.761c-.077.983-1.649.658-2.322.526-.542-.1-1.85-.457-1.316-1.215.348-.5,1.277-.286,1.757-.193s1.819.255,1.873.882c0,.348.774.627.7.193-.108-1.138-1.486-1.486-2.415-1.679s-2.484-.464-2.7.774,1.169,1.687,2.09,1.865c1.06.209,2.91.534,3.026-.96C328.726,60.6,328.03,60.312,328,60.761Z" transform="translate(-6.337 -0.525)" fill="none" stroke="#fff" stroke-width="0.882"/>
      <path id="Path_252" data-name="Path 252" d="M327.583,75.7a9.132,9.132,0,0,1-2.322,2.539c-.5.325-2.585.936-2-.348.317-.689,1.308-1.285,1.873-1.726a8.32,8.32,0,0,1,1.385-.944c.72-.348.983-.193,1.014.619,0,.356.712.635.7.193,0-1.1-.619-2-1.827-1.548a8.931,8.931,0,0,0-2.539,1.726,4.489,4.489,0,0,0-1.323,1.378c-.472,1.076.6,1.9,1.594,1.827,1.8-.116,3.1-1.881,4.04-3.22C328.4,75.84,327.8,75.361,327.583,75.7Z" transform="translate(-6.199 -2.401)" fill="none" stroke="#fff" stroke-width="0.882"/>
      <path id="Path_253" data-name="Path 253" d="M334.568,79.684c-.193,1.834-2.392.341-3-.341-.24-.279-.844-.828-.929-1.176a1.416,1.416,0,0,1,.333-.642c.364-.24,1,.1,1.323.263.611.3,2.2,1.06,2.275,1.888,0,.348.774.627.7.193-.116-1.323-1.989-2.322-3.034-2.763-.89-.4-2.531-.457-2.244,1.045.07.371.457.7.681.983A6.7,6.7,0,0,0,332,80.474c1.091.774,3.1,1.269,3.282-.6C335.3,79.522,334.615,79.235,334.568,79.684Z" transform="translate(-7.125 -2.708)" fill="none" stroke="#fff" stroke-width="0.882"/>
      <path id="Path_254" data-name="Path 254" d="M352.132,70.624a1.083,1.083,0,0,1-1.641.774,4.125,4.125,0,0,1-1.285-.96c-.433-.441-1.145-.936-.859-1.548.379-.844,1.548-.039,2.028.279s1.656.875,1.718,1.478c0,.348.774.627.7.193-.124-1.169-1.765-1.989-2.655-2.484s-2.26-.921-2.539.441a1,1,0,0,0,.263,1.029,8.676,8.676,0,0,0,1.9,1.85c1.115.735,2.833.851,3.026-.828C352.875,70.461,352.178,70.183,352.132,70.624Z" transform="translate(-9.287 -1.603)" fill="none" stroke="#fff" stroke-width="0.882"/>
      <path id="Path_255" data-name="Path 255" d="M346.316,73.317c-.17.774-1.656,1.548-2.26,1.989-.41.286-2.848,2.028-2.91.619,0-.774,1.246-1.393,1.772-1.757s3.313-2.531,3.39-.774c0,.356.72.635.7.193a1.461,1.461,0,0,0-2.229-1.424,14.287,14.287,0,0,0-3.165,2.012c-.4.31-1.022.7-1.153,1.223-.348,1.323,1.068,1.958,2.113,1.6a10.835,10.835,0,0,0,3-1.873c.441-.348,1.3-.867,1.424-1.471C347.066,73.31,346.4,72.923,346.316,73.317Z" transform="translate(-8.408 -2.107)" fill="none" stroke="#fff" stroke-width="0.882"/>
    </g>
  </g>
</svg>
