<svg xmlns="http://www.w3.org/2000/svg" width="1919.837" height="775.404" viewBox="0 0 1919.837 775.404">
  <g id="doodle-2" transform="translate(13.202 -61.506)">
    <path id="Path_454" data-name="Path 454" d="M220.446,165.986l-1.21.421a6.839,6.839,0,0,0-4.892,6.418,6.944,6.944,0,0,0,4.892,6.418l1.21.421a7.1,7.1,0,1,0,0-13.678Z" transform="translate(321.224 248.301)" fill="#9d8167"/>
    <path id="Path_455" data-name="Path 455" d="M167.713,120.956a10.232,10.232,0,1,0,10.232,10.232,10.337,10.337,0,0,0-10.232-10.232Z" transform="translate(235.996 181.2)" fill="#9d8167"/>
    <path id="Path_456" data-name="Path 456" d="M73.936,161.955a9.5,9.5,0,1,0,9.5,9.5,9.6,9.6,0,0,0-9.5-9.5Z" transform="translate(96.541 242.653)" fill="#9d8167"/>
    <path id="Path_457" data-name="Path 457" d="M95.6,95.788a2.627,2.627,0,1,0,2.627,2.627A2.627,2.627,0,0,0,95.6,95.788Z" transform="translate(1713.465 204.108)" fill="#9d8167"/>
    <path id="Path_461" data-name="Path 461" d="M534.755,98.482a6.786,6.786,0,1,0,6.786,6.786,6.865,6.865,0,0,0-6.786-6.786Z" transform="translate(791.308 147.516)" fill="#9d8167"/>
    <path id="Path_462" data-name="Path 462" d="M370.98,122.65c-10,0-10.022,15.545,0,15.545S381.08,122.65,370.98,122.65Z" transform="translate(544.751 163.74)" fill="#9d8167"/>
    <path id="Path_463" data-name="Path 463" d="M422.7,110.166c-9.522,0-9.548,14.809,0,14.809S432.224,110.166,422.7,110.166Z" transform="translate(622.809 165.029)" fill="#9d8167"/>
    <path id="Path_464" data-name="Path 464" d="M423.251,127.082a3.709,3.709,0,1,0,3.4,3.7A3.709,3.709,0,0,0,423.251,127.082Z" transform="translate(629.257 190.383)" fill="#9d8167"/>
    <path id="Path_465" data-name="Path 465" d="M493.313,156.134c-10.521,0-10.521,16.518,0,16.518S503.966,156.134,493.313,156.134Z" transform="translate(727.536 233.928)" fill="#9d8167"/>
    <path id="Path_466" data-name="Path 466" d="M584.21,121.577c-6.655,0-6.681,10.364,0,10.364S590.891,121.577,584.21,121.577Z" transform="translate(868.109 182.131)" fill="#9d8167"/>
    <path id="Path_467" data-name="Path 467" d="M599.378,156.376c-7.628,0-7.628,11.837,0,11.837S607.006,156.376,599.378,156.376Z" transform="translate(889.766 234.291)" fill="#9d8167"/>
    <path id="Path_468" data-name="Path 468" d="M559.281,201.049c-10.521,0-10.521,16.519,0,16.519S569.933,201.049,559.281,201.049Z" transform="translate(826.412 301.249)" fill="#9d8167"/>
    <path id="Path_469" data-name="Path 469" d="M686.741,100.171a5.971,5.971,0,0,0-9,0,7.465,7.465,0,1,0,9,0Z" transform="translate(1011.199 146.984)" fill="#9d8167"/>
    <path id="Path_477" data-name="Path 477" d="M81.98,115.114c-7.128,0-7.155,11.1,0,11.1S89.134,115.114,81.98,115.114Z" transform="translate(114.801 172.444)" fill="#9d8167"/>
    <path id="Path_478" data-name="Path 478" d="M13.236,150.345c-15.782,0-15.782,24.41,0,24.41S28.966,150.345,13.236,150.345Z" transform="translate(2.051 225.25)" fill="#9d8167"/>
    <path id="Path_479" data-name="Path 479" d="M142.926,211.628c-11.573,0-11.6,17.991,0,17.991S154.525,211.628,142.926,211.628Z" transform="translate(201.154 317.106)" fill="#9d8167"/>
    <path id="Path_481" data-name="Path 481" d="M298.1,164.344c-7.891,0-7.891,12.336,0,12.336S306.046,164.344,298.1,164.344Z" transform="translate(437.897 246.234)" fill="#9d8167"/>
    <path id="Path_482" data-name="Path 482" d="M675.547,179c-11.574,0-11.6,17.992,0,17.992S687.147,179,675.547,179Z" transform="translate(999.483 268.196)" fill="#9d8167"/>
    <path id="Path_483" data-name="Path 483" d="M730.555,161.65c-9.837,0-9.864,15.282,0,15.282S740.418,161.65,730.555,161.65Z" transform="translate(1083.883 242.195)" fill="#9d8167"/>
    <path id="Path_484" data-name="Path 484" d="M725.983,131.366c-9.048,0-9.048,14.046,0,14.046S735.031,131.366,725.983,131.366Z" transform="translate(1077.933 196.804)" fill="#9d8167"/>
    <path id="Path_485" data-name="Path 485" d="M768.713,131.146c-.342-1.42-.71-2.841-.947-4.287a3.367,3.367,0,0,0-4.892-2c-1.447.763-3,1.394-4.5,2.078a7.005,7.005,0,1,0,7.812,11.6,7.128,7.128,0,0,0,2.525-7.391Z" transform="translate(1131.421 186.398)" fill="#9d8167"/>
    <path id="Path_506" data-name="Path 506" d="M147.326,93.762c-23.456.151-43.811-24.383-67-7.907a1.191,1.191,0,0,0-.3.322A36.549,36.549,0,0,0,72.7,78.988a1.23,1.23,0,0,0-1.892.738,1.286,1.286,0,0,0-.984,1.419c.662,13.487,2.856,26.729-.794,40.027-3.386,12.371-10.877,20.714-20.562,28.6l-.359-.208c-5.429-9.818-11.35-19.181-24.024-17.025-9.818,1.513-16.5,10.858-17.933,20.316-1.759,11.539,3.935,20.922,12.92,27.5,9.572,7.018,15.682,17.025,28.9,12.825,2.913,9,9.042,16.911,17.441,19.144,15.133,3.991,37.606-7.567,40.273-23.7,2.554-15.4-11.35-23.305-23.759-17.5C91.2,157.416,96.44,137.384,94.265,121.3A82.022,82.022,0,0,0,84.05,91.984c11.1,4.937,19.465,14.433,32.366,15.833A40.33,40.33,0,0,0,148.574,96.9a1.892,1.892,0,0,0-1.249-3.14ZM31.84,187.1c-2.043-1.7-3.386-4.181-5.429-5.94-6.7-5.675-13.242-7.567-16.211-17.025-3.783-12.069,2.819-28.053,16.684-29.169,11.634-.946,14.49,8.021,19.389,16.174a1.116,1.116,0,0,0,1.078.568,15.549,15.549,0,0,0,6.034,4.237c3.046,1.267,7.3,1.532,9.458,3.954-5.675-.246-11.18,2.762-14.622,10.366a31.5,31.5,0,0,0-1.192,19.654C41.639,189.9,36.967,191.352,31.84,187.1Zm66.87-11.35c5.353,6.564,3.348,14.982-1.457,20.922-6.961,8.607-21.13,15.3-32.158,11.974s-18.065-18.33-17.29-29.321c.662-9.212,8.077-17.365,17.271-16.344h.284a14.8,14.8,0,0,1,1.608.284c5.675,1.381,8.437,5.675,11.861,9.893a1.078,1.078,0,0,0,1.551,1.286c5.051-2.932,14.017-3.973,18.33,1.305Zm-7.567-51.075C92.714,140.6,86,156.83,79.491,171.036A23.494,23.494,0,0,0,67.233,160.8c.284-2.951-2.554-5.2-5.24-6.167-3.783-1.362-7.68-2.005-11.35-3.689,24.591-12.788,25.235-42.411,22.586-66.775,8.588,12.5,16.325,24.648,17.9,40.425Zm17.025-22.7C98.71,98.189,91.39,90.849,81.685,87.6l1.154-.511a.757.757,0,0,0,.624.322,66.454,66.454,0,0,1,20.808,3.083c5.675,1.892,11.142,4.748,17.025,5.675a.555.555,0,0,0,.435-1.021c-8.985-5.94-22.7-10.518-34.05-9.931,11.842-3.783,22.189-1.1,34.239,4.559,6.81,3.2,13.412,6.318,20.808,7.4a35.941,35.941,0,0,1-34.636,4.616Z" transform="translate(8.695 170.439)" fill="#734b26"/>
    <path id="Path_507" data-name="Path 507" d="M53.249,148.559c-2.867-.447-5.445.132-8.18-1.263-1.236-.631-2.315,1.21-1.078,1.868,2.63,1.473,6.918,2.63,9.5.289a.526.526,0,0,0-.237-.894Z" transform="translate(65.068 220.487)" fill="#734b26"/>
    <path id="Path_508" data-name="Path 508" d="M56.677,145.374A11.862,11.862,0,0,0,53,145.032a7.129,7.129,0,0,1-3.945-1.263c-1.42-.921-3.209,1.315-1.841,2.367,2.63,2.025,7.759,3.946,9.943.395a.815.815,0,0,0-.473-1.157Z" transform="translate(69.978 215.07)" fill="#734b26"/>
    <path id="Path_509" data-name="Path 509" d="M30.159,137.613c-.921-.6-2.052-.842-3.025-1.42a11.943,11.943,0,0,1-2.63-2c-1.42-1.447-4.182.526-2.893,2.236a12.178,12.178,0,0,0,7.339,5.261C31.4,142.058,31.763,138.717,30.159,137.613Z" transform="translate(31.843 200.29)" fill="#734b26"/>
    <path id="Path_510" data-name="Path 510" d="M30.887,134.2a41.866,41.866,0,0,1-4.34-2.236c-2.394-1.631-4.656,2.262-2.262,3.893,1.657,1.131,6.813,4.393,8.233,1.447C33.254,135.836,32.1,134.7,30.887,134.2Z" transform="translate(34.824 197.122)" fill="#734b26"/>
    <path id="Path_511" data-name="Path 511" d="M189.164,66.176c-11.444,1.43-23.9,5.107-31.885,13.375,1-14.3-17.538-23.817-28.681-28.266a1.23,1.23,0,0,0-1.559,1.187c-.243,10.585.358,25.448,8.4,33.244a31.084,31.084,0,0,0-11.816-.858c-8.826,1.216-15.735,7.381-21.1,14.019a1.216,1.216,0,0,0,.243,1.888c12.874,7.252,29.94,11.444,42.37,1.774a22.544,22.544,0,0,0,1.717,15.063c4.291,9.055,13.4,13.675,21.672,18.439a1.273,1.273,0,0,0,1.845-.744c3.476-9.112,4.835-18.382-.257-27.179a40.54,40.54,0,0,0-12.045-13.046c15.435.629,28.609-12.745,32.228-27.351C190.48,67.02,189.965,66.076,189.164,66.176ZM162.371,78.349c-.186.587-.372,1.173-.587,1.745-.644,1.645-1.43,3.219-2.189,4.849a.286.286,0,0,0,0,.229,39.766,39.766,0,0,0-6.022,3.719,32.315,32.315,0,0,1,8.8-10.543Zm-32.9-23.989c13.046,6.079,23.8,12.574,25.233,28.252a28.839,28.839,0,0,0-4.392,8.8h0c-1.43-2.718-2.861-5.407-4.291-8.1v-.072a52.791,52.791,0,0,0,1.244-7.825,31.026,31.026,0,0,0,.4-7.825c0-.257-.4-.2-.472,0a36.761,36.761,0,0,0-1.03,7.224c-.257,2.489-.658,4.978-.758,7.481-1.96-3.648-3.934-7.281-5.894-10.914h0c.629-3.333,1.531-7.281.944-10.671,0-.286-.5-.272-.572,0a70.3,70.3,0,0,0-1.1,9.412c-1.073-2-2.146-3.991-3.176-6.008-.086-.157-.329,0-.243.143,1.931,3.919,3.691,8.2,5.593,12.445-2.589-1.1-6.509-2.3-9.269-1.43-2.146-6.408-2.432-13.8-2.246-20.913Zm2.761,21.958c1.116.129,2.317,0,3.433.1a35.759,35.759,0,0,1,5.722,1.03h0a65.43,65.43,0,0,0,7.868,13.7c-2.446-1.216-5.021-2.417-7.667-3.447A22.53,22.53,0,0,1,132.2,76.318ZM122.218,87.49c7.939-1.874,16.694,1.273,24.1,4.678a100.949,100.949,0,0,0-14.705,1.287,29.868,29.868,0,0,0-12.374-5.021,22.644,22.644,0,0,1,2.947-.973ZM145.992,98.9c-12.388,10.314-27.594,7.553-40.754.5a39.367,39.367,0,0,1,11.572-9.827c2.088.4,4.206.6,6.265,1.2a38.622,38.622,0,0,1,7.238,2.975,36.95,36.95,0,0,0-11.286,3.905.315.315,0,0,0,.243.572c3.161-.529,6.223-1.43,9.341-2.174-2.861,2.031-5.522,4.864-6.151,8.068a.257.257,0,0,0,.458.2A45.772,45.772,0,0,1,127.11,98.5a18.338,18.338,0,0,1,4.105-3.033c1.03-.215,2.074-.429,3.118-.572s2.06-.272,3.1-.4a16.55,16.55,0,0,0-4.291,6.995c0,.272.286.529.5.3A32.5,32.5,0,0,0,136.079,98a42.018,42.018,0,0,1,2.732-3.648c3.29-.343,6.594-.615,9.885-1.03l.558.257a29.5,29.5,0,0,0-2.832,5.035,1.2,1.2,0,0,0-.429.286Zm22.373,34.331c-6.923-3.462-14.834-7.581-18.782-14.3a23.932,23.932,0,0,1-2.861-14.848c.086-.758,2.117-9.885,3.333-10.2q1.008,3.347,2.26,6.709a10.213,10.213,0,0,0-2.732,4.034,25.9,25.9,0,0,0-2.117,8.583.352.352,0,0,0,.687.1c1.559-3.819,2-8.325,4.52-11.7.973,2.546,2.031,5.092,3.19,7.581-1.845,4.077-3.419,9.584-2.575,13.861a.215.215,0,0,0,.415,0c.687-2.389.672-4.949,1.23-7.381a48.364,48.364,0,0,1,1.5-5.164,101.962,101.962,0,0,0,8.282,14.4.243.243,0,0,0,.415-.243c-.873-1.817-1.731-3.619-2.589-5.421h.1a16.094,16.094,0,0,1,4.105,2.046c1.159.8,2.16,1.788,3.347,2.561a.243.243,0,0,0,.129,0,61.508,61.508,0,0,1-1.874,9.284Zm1.988-10.013c-1.43-2.6-4.649-4.134-7.353-4.935a.515.515,0,0,0-.672.443c-2.017-4.291-4.005-8.454-5.922-12.717a29.125,29.125,0,0,1,8.254,3.118,34.334,34.334,0,0,1,4.291,3.1,24.232,24.232,0,0,1,1.388,10.9Zm-2.861-14.3a28.38,28.38,0,0,0-11.329-4.291.644.644,0,0,0-.286,0c-1.559-3.49-3.1-6.995-4.577-10.557,6.566,2.3,12.8,8.769,16.121,14.848ZM152.415,92.081l-.3-.114c.157-.372.329-.73.5-1.087,2.861-3.19,8.583-5.607,12.273-7.739a47.2,47.2,0,0,1,6.866,0c2.146.186,4.291.787,6.423.873C171.612,89.936,162.629,92.654,152.415,92.081ZM178.822,83.5c-3.4-1.845-8.225-1.788-12.259-1.43,4.291-2.732,8.926-5.264,13.089-8.282a.334.334,0,1,0-.343-.572c-6.294,3.276-12.3,7.4-18.339,11.129l-.472.272a16.565,16.565,0,0,0,3.319-7.41c6.709-4.721,15.049-7.152,23.674-8.454A32.457,32.457,0,0,1,178.822,83.5Z" transform="translate(212.049 197.973)" fill="#734b26"/>
    <path id="Path_515" data-name="Path 515" d="M326.6,123.862c-1.226-4.977-5.908-6.735-10.545-7.06,3.53-9.068-5.228-16.157-13.824-14.651,4.431-5.671,2.954-15.478-3.426-19.288-2.658-1.6-2.747-1.019-3.5-4.283a14.445,14.445,0,0,0-2.511-6.262,9.039,9.039,0,0,0-9.585-3.338,15.478,15.478,0,0,0-6.2-14.237,15.876,15.876,0,0,0-8.522-3.1c-2.954-.177-7.266,2.452-9.659,1.935s-5.125-5.361-7.576-6.72a13.114,13.114,0,0,0-7.5-1.787,12.583,12.583,0,0,0-9.157,5.908c-4.268-6.321-10.914-5.258-15.891-1.344a.74.74,0,0,0-.162-.177,14.577,14.577,0,0,0-14.887,1.61c-3.707,2.954-7.975,8.743-7.621,13.853a12.746,12.746,0,0,0-10.722,6.454c-2.954,4.962-.62,10.338-4.711,14.075-6.705,6.188-9.482,17.117-1.226,23.217-5.908,4.534-11.077,12.8-6.07,19.835.93,1.3,4.18,3.072,4.431,4.106-.074-.34-1.728,4.637-1.669,4.357a10.855,10.855,0,0,0,.31,5.45c1.152,3.6,3.663,5.464,6.912,7.119.694.354,2.023.207,2.6.65,1.625,1.27,1.787,2.762,3.1,4.431,5.258,6.424,13.957,3.914,19.923,0-2.2,4.431-2.777,10.855-.546,15.182,2.023,3.929,6.129,4.652,10.146,4.9,1.388,8.566,10,15.67,18.757,12.834,3.9,12.554,15.788,20.558,27.633,12.672,3.279-2.186,1.477-1.477,5.258-.871a22.729,22.729,0,0,0,9.245-.162c3.958-.916,8.123-2.954,8.167-6.986a12.568,12.568,0,0,0,16.246-6.69c1.713-3.707,1.093-4.312,4.431-6.6a13.41,13.41,0,0,0,5.627-6.661c1.477-4.032.576-7.488.118-11.535s-1.359-1.477,1.639-3.766a22.909,22.909,0,0,0,3.412-2.954c4.564-5.066,6.631-12.583,2.112-18C325.408,134.3,327.653,128.057,326.6,123.862ZM260.144,164.7a12.376,12.376,0,0,0,4.091-6.587c1-4.431-.724-9.91-4.829-11.815a14.37,14.37,0,0,0,5.538-11.9,12.923,12.923,0,0,0-11.3-10.53,11.446,11.446,0,0,0,1.935-11.5c-1.876-3.707-7.148-6.1-11.52-6.2,2.112-3.353,3.618-7.606,1.477-11.239s-7.384-4.578-11.3-3.84a20.9,20.9,0,0,0,.62-10.338c5.745-1.108,11.077-2.954,17.058-3.22a52.858,52.858,0,0,1,18.018,2.466c14.178,4.564,23.113,14.488,27.278,28.7a50.718,50.718,0,0,1,1.861,17.723c-1.61-5.583-5.908-10.648-10.338-14.149-.709-.561-1.477-1.093-2.23-1.61-.222-3.308-1.787-7.709-4.431-9.334a.546.546,0,0,0-.783.606,43.331,43.331,0,0,0,2.26,4.888c.31.8.561,1.61.8,2.422-6.587-4.047-13.927-7.384-15.094-15.965-.089-.679-1.241-.517-1.2.162a17.5,17.5,0,0,0,4.9,10.84,21.445,21.445,0,0,1-4.9-.96,27.6,27.6,0,0,0-5.332-1.831.579.579,0,0,0-.487.857c2.215,3.663,8.507,4.431,12.347,3.988a1.077,1.077,0,0,0,.3-.089c.65.576,1.329,1.152,2.038,1.684,4.268,3.234,9.1,5.435,12.849,9.349a36.3,36.3,0,0,1,5.907,8.979,29.183,29.183,0,0,0-9.807-3.308c-8.492-1.314-16.94.487-23.423-6.6-.561-.606-1.344.162-1.063.812,2.082,4.7,6.277,6.646,11.21,7.473,3.574.591,7.207.428,10.811.738a14.018,14.018,0,0,0-1.167,1.241,10.869,10.869,0,0,0-2.732,5.125.414.414,0,0,0,.694.4c1.314-1.211,2.378-2.658,3.781-3.781,1.019-.827,2.289-1.477,3.264-2.407a36.184,36.184,0,0,1,11.283,5.036,37.069,37.069,0,0,1-9.171,19.421c-7.148,7.488-18.358,13.587-29.2,14.326Zm-6.129-.162a1.477,1.477,0,0,0-1.625.871c-6.321,1.846-13.218-.251-19.3-2.127a71.259,71.259,0,0,1-13.912-5.908,46.58,46.58,0,0,1-4.9-9.112.694.694,0,0,0,.281-.65c-.665-6.6.458-12.686,4.135-17.516h.118a19.273,19.273,0,0,1,8.655,1.477.856.856,0,0,0,.089.31c2.053,4.15,4.313,9.1,7.857,12.229,2.319,2.038,6.1,4.032,9.157,2.7.4-.177.31-.753,0-.96a43.213,43.213,0,0,0-4.3-1.757,13.292,13.292,0,0,1-5.007-4.3c-1.728-2.363-3.279-4.829-4.977-7.222,5.716,2.1,11.5,4.209,15.685.8.384-.31,0-.857-.369-.886-2.777-.222-5.332.251-8.123-.369a57.457,57.457,0,0,1-6.912-2.3,20.1,20.1,0,0,0-10.84-.975,22.153,22.153,0,0,1,4.888-4.047c5.908-3.663,14.1-3.426,19.347-8.182.561-.517,0-1.625-.768-1.329-3.5,1.477-7.266,2.363-10.929,3.53l.5-.724c.517-.724,1.373-1.477,1.477-2.407a.473.473,0,0,0-.591-.458c-.945.133-1.654,1.285-2.23,1.964a16.5,16.5,0,0,0-1.6,2.452,24.517,24.517,0,0,0-11.121,7.178,28.061,28.061,0,0,0-6.218,15.419,37.424,37.424,0,0,1,.561-18.609c2.644-9.275,11.638-17.25,12.214-26.85a.561.561,0,0,0-1.034-.281c-3.175,6.041-6.823,11.919-9.644,18.092.177-3.8-.325-7.768-2.289-10.442-.281-.369-1-.31-.975.266.207,2.732,1.477,5.243,1.743,8a33.157,33.157,0,0,1,.1,4.756,14.547,14.547,0,0,0-4.549-3.087,22.151,22.151,0,0,1-2.6-1.477,11.684,11.684,0,0,0-2.245-1.477.428.428,0,0,0-.546.414c.222,1.728,2.068,2.644,3.485,3.323a18.948,18.948,0,0,1,5.908,3.338.517.517,0,0,0,.369.162,46.047,46.047,0,0,0-2.895,11.165,38.768,38.768,0,0,0,5.745,25.86,87.138,87.138,0,0,1-9.245-6.779,33.659,33.659,0,0,1-6.882-14.887c-1.566-8.655.207-17.383,3.308-25.491a68.972,68.972,0,0,1,12.14-20.411c2.3-2.658,5.612-6.38,8.861-7.946,10.235-4.962,10.6,5.73,8.536,11.608a.62.62,0,0,0,.192.738.738.738,0,0,0,.591.709c3.308.724,7.946,0,10.013,3.293s-.118,7.074-1.477,10.161a.827.827,0,0,0,0,1.4c3.131,2.348,7.68,1.477,10.575,4.608a7.045,7.045,0,0,1,1.049,7.384c-.62,1.713-1.994,2.954-2.393,4.667a.812.812,0,0,0,.325,1.152c4.431,2.57,11.121,3.766,11.136,10.427,0,4.549-4.047,6.38-5.775,9.777a1.093,1.093,0,0,0,0,1.876c7.178,5.509,5.243,13.573-2.009,16.94ZM245.952,47.861c5.081.827,8.418,5.125,11.091,9.083a1.477,1.477,0,0,0,1.994.517c11.106-7.281,20.676.99,21.784,12.273a1.241,1.241,0,0,0,.694.975,1.122,1.122,0,0,0,1.329.812c7.384-1.049,9.718,5.479,9.526,11.4a1.58,1.58,0,0,0,1.137,1.477,9.762,9.762,0,0,1,8.153,9.688c0,3.072-1.477,5.2-2.954,7.384a42.239,42.239,0,0,0-16.733-20.13c.62-.812,1.255-1.61,1.935-2.363s1.61-1.477,1.551-2.393a.606.606,0,0,0-.591-.591c-1.093,0-1.8,1.226-2.422,2.009s-1.226,1.669-1.8,2.525a43.549,43.549,0,0,0-5.14-2.5,53.025,53.025,0,0,0-5.243-1.8c2.717-3.323,3.4-9.674,1.757-12.938a.5.5,0,0,0-.871,0c-1.034,2.23-.65,4.756-1.122,7.133a17.577,17.577,0,0,1-2.215,5.154,60.139,60.139,0,0,0-10.338-1.566c2.156-3.279,3.929-7.975,1.61-10.855-.3-.369-.827,0-.857.354-.192,2.215.222,4.15-.532,6.336a26.29,26.29,0,0,1-2.053,4.076,42.712,42.712,0,0,0-15.788,2.23,16.245,16.245,0,0,0,1.4-5.7c.251-4.342.074-8.123,1.2-12.406a.517.517,0,0,0-.871-.5c-5.08,4.948-1.049,13.4-3.692,19.392a26.58,26.58,0,0,0-3.648,2.023,6.085,6.085,0,0,0-5.583-3.855c-4.135-.222-8.315,2.525-12.007,6.159-.34-4.564-.842-9.2,1.477-13.381,2.836-5.021,8-6.129,13.292-6.144a1.093,1.093,0,0,0,.842-1.772c2.393-6.114,4.829-13.617,13.705-12.17Zm-12.583,4.431a.9.9,0,0,0,.31.162,26.334,26.334,0,0,0-2.747,6.941c-4.9-1.108-10.338,1.344-13.484,5.14-4.165,5.036-4.194,12.421-2.481,18.476a79.9,79.9,0,0,0-8.256,11.077,63.771,63.771,0,0,0-4.637,8.965,16.246,16.246,0,0,1-5.051-11.726,11.918,11.918,0,0,1,1.4-6.779c1.122-1.713,2.821-2.363,4.3-3.6a.635.635,0,0,0,.133-.768c-2.673-7.384,1.7-15.079,10.043-14.68a1.226,1.226,0,0,0,1.2-1.2c.916-9.526,9.555-19.805,19.3-12.066Zm-44.307,96.869a1.167,1.167,0,0,0-1.137-1.137c-7.606-.207-13.573-8.861-7.384-15.788a1.034,1.034,0,0,0-.458-1.713c-12.406-2.511-3.116-15.685.5-20.868v-.074a.628.628,0,0,0,.665-1.019c-6.749-8.034-7.311-18.9,3.545-23.512a.783.783,0,0,0,.4-.694c-1.063-8.61,3.323-15.581,12.081-17.117a.945.945,0,0,0,.812-.886,1.019,1.019,0,0,0,.192-.325c1.477-4.756,2.954-9.068,6.9-12.494,3.633-3.161,7.724-1.831,11.815-2.407a17.324,17.324,0,0,0-4.475,7.517c-.945,3.53,0,3.574-3.323,4.652a13.9,13.9,0,0,0-6.351,3.589c-3.545,3.9-3.515,8.6-.99,12.819-4.874-.709-7.695,5.834-7.65,9.88,0,5.538,2.26,12.243,7.089,15.389q-.4,1-.768,2.038c-2.954-2.068-8.861-3.559-11.7-1.344a.458.458,0,0,0,.089.709c1.58.871,3.53.709,5.287.975s3.766,1.122,5.686,1.477a67.937,67.937,0,0,0-2.85,12.48,6.439,6.439,0,0,0-3.057-.369,4.327,4.327,0,0,0-2.954.93.591.591,0,0,0,.118.93,5.553,5.553,0,0,0,3.131.4,9.717,9.717,0,0,0,2.658-.266,49.358,49.358,0,0,0,0,9.585,15.064,15.064,0,0,0-3.072,1.211c-.812.443-2.156,1.108-2.319,2.1a.679.679,0,0,0,.458.812c.945.281,2.009-.458,2.836-.886s1.566-.871,2.333-1.329a28.253,28.253,0,0,0,9.555,18.225c-5.686,3.013-16.453,7.148-17.619-3.545Zm134.574-20.573c-.414,2.644-2.466,4.564-4.268,6.351a.99.99,0,0,0-.635,1.477c5.11,6.868-.074,17.368-8.123,18.949a1.477,1.477,0,0,0-.857,2.112c3.293,7.252,4.061,17.929-6.321,19.7a1.477,1.477,0,0,0-1.049,1.388c-.133,8.861-7.665,12.288-15.271,11.343a1.167,1.167,0,0,0-2.053.31c-2.407,7.591-11.52,8.64-17.87,5.272a.812.812,0,0,0-1.093.281c-4.564,8.019-14.488,6.631-20.337,1.078-3.072-2.954-4.844-6.823-6.794-10.5v-.074a.871.871,0,0,0-.93-1.108c-8.861.443-15.33-2.954-17.014-12.17a1.359,1.359,0,0,0-1.314-.99c-11.948.207-9.688-8.994-8.64-16.246l.3.177a.591.591,0,0,0,.207,0,68.5,68.5,0,0,0,14.09,7.532c2.806,1.167,5.789,2.378,8.861,3.382a50.451,50.451,0,0,1-1.063,5.08,18,18,0,0,0-1.093,5.125.576.576,0,0,0,.975.4c2.215-2.452,2.555-6.735,2.791-10.1a36.345,36.345,0,0,0,12.554,1.787.831.831,0,0,0,0,.207c.221,2.88.384,5.775.458,8.655,0,2.274-.31,4.726,1,6.69a.62.62,0,0,0,1.049,0c1.477-2.1.93-4.844.709-7.266a69.072,69.072,0,0,0-1.27-8.344.806.806,0,0,0,0-.133,20.129,20.129,0,0,0,5.1-1.477,39.639,39.639,0,0,0,11-.871c1.063,3.574,1.787,7.311,2.6,10.944a.414.414,0,0,0,.8,0,17.221,17.221,0,0,0-1.477-11.416,52.341,52.341,0,0,0,23.379-13.292A37.764,37.764,0,0,0,301.2,136.49c2.082,1.92,5.494,3.5,7.946,1.7a.487.487,0,0,0,0-.842,14.652,14.652,0,0,0-3.737-1.167,18.194,18.194,0,0,1-3.737-1.477,53.61,53.61,0,0,0,0-24.841c-.31-1.3-.679-2.555-1.078-3.81a14.414,14.414,0,0,1,7.133-.487c5.671,1.477,7.754,6.321,5.184,11.727a1.374,1.374,0,0,0,1.167,2.038c4.608-.059,10.929.738,9.6,9.2Z" transform="translate(336.649 191.046)" fill="#734b26"/>
    <path id="Path_516" data-name="Path 516" d="M253.722,131.215c-.447-1.894-3.682-1.526-3.446.473a28.225,28.225,0,0,0,3.63,11.573c1.6,2.63,4.314,6.681,7.891,6.681a.947.947,0,0,0,.947-.947c-.368-2.893-3.025-5.261-4.55-7.575A32.959,32.959,0,0,1,253.722,131.215Z" transform="translate(375.065 194.719)" fill="#734b26"/>
    <path id="Path_517" data-name="Path 517" d="M270.12,131.057a49.983,49.983,0,0,1-7.128-7.891,1.816,1.816,0,1,0-3.13,1.841,37.406,37.406,0,0,0,7,9.443c2.341,2.209,5.681,5.261,9.153,5.1a1.184,1.184,0,0,0,1-1.762C275.722,135,272.329,133.109,270.12,131.057Z" transform="translate(389.074 183.172)" fill="#734b26"/>
    <path id="Path_524" data-name="Path 524" d="M295.794,57.23a1.315,1.315,0,1,0,1.315,1.315A1.315,1.315,0,0,0,295.794,57.23Z" transform="translate(441.337 85.685)" fill="#734b26"/>
    <path id="Path_525" data-name="Path 525" d="M376.471,105.262c-11.478-17.246-35.1-14.3-48.369-2.384C312.7,116.7,301.615,138.9,300.026,159.385h0c-9.8,13.582-19.851,31.27-38.26,32.506-4.841.324-15.628,2.825-12.611,10.124,2.325,5.607,10.536,3.855,15.51,1.972-.883,4.944-1.295,10.845,1.781,14.892,3.355,4.415,9.094,3.914,12.331-.294,3.532-4.606,1.957-10.08,2.649-15.363s5.651-8.667,9.109-12.287c4.415-4.635,8.947-9.227,13.406-13.832,10.919,1.472,22.662-1.972,32.462-6.578,9.329-4.415,19.277-8.491,27.562-14.715C378.487,144.964,387.464,121.861,376.471,105.262Zm-86.82,83.288c-3.62,3.5-9.359,7.358-10.683,12.537-1.4,5.4,1.854,13.876-3.914,17.511-9.256,5.886-8.623-11.949-7.858-16.187.132-.75-.6-1.678-1.472-1.295a22.072,22.072,0,0,1-8.447,2.31c-5.415.147-8.505-4.076-3.09-7.358s12.7-1.942,18.453-4.753c11.537-5.636,20.94-19.306,28.121-29.857h0a14.162,14.162,0,0,1,1.354,2.531,16.186,16.186,0,0,1,.574,4.076,2.944,2.944,0,0,0,.515,1.383c.927,1.295,1.942,1.81,2.207,3.355C300.2,178.073,295.008,183.385,289.651,188.55Zm64.747-31.2c-14.892,8.682-31.255,16.658-48.56,17.791l.662-.677a1.045,1.045,0,0,0,1.089-1,5.562,5.562,0,0,0-.824-3.385c-.339-.515-.839-.839-1.163-1.31a5,5,0,0,1-.839-2.6,9.285,9.285,0,0,0-2.943-5.724,83.877,83.877,0,0,1,19.925-47.413c6.21-7.107,13.965-13.567,23.412-15.628,10.963-2.4,25.237,2.413,29.916,13.244,8.123,18.674-4.841,37.509-20.616,46.692Z" transform="translate(409.17 176.289)" fill="#734b26"/>
    <path id="Path_526" data-name="Path 526" d="M304.4,115.2c-1.92.132-2.92,1.526-3.84,3.051a3.682,3.682,0,1,0,6.918,1.789C307.712,117.887,307.212,114.994,304.4,115.2Z" transform="translate(449.778 172.564)" fill="#734b26"/>
    <path id="Path_527" data-name="Path 527" d="M315.018,112.129a4.892,4.892,0,1,0-4.656,5.1A4.971,4.971,0,0,0,315.018,112.129Z" transform="translate(457.464 160.961)" fill="#734b26"/>
    <path id="Path_528" data-name="Path 528" d="M307.6,116.058a4.446,4.446,0,0,0-.237,3.025,2.893,2.893,0,0,0,5.55-.237,4.445,4.445,0,0,0-.5-2.972,2.814,2.814,0,0,0-4.813.184Z" transform="translate(460.409 171.684)" fill="#734b26"/>
    <path id="Path_529" data-name="Path 529" d="M274.911,245.412c-4.228-4.165-14.765-9.165-19.166-3.265a.836.836,0,0,0-.158.221,3.262,3.262,0,0,0-.268.379,23.189,23.189,0,0,0-9.922-7.777,110.075,110.075,0,0,0-6.389-20.507c0-2.871,0-5.994-.189-9.118,10.916,11.042,28.394,17.62,42.876,19.387a1.4,1.4,0,0,0,1.215-2.114c-9.26-13.2-28.016-28.394-45.21-25.24a26.817,26.817,0,0,0-3.5-8.85,1.12,1.12,0,0,0-2.066.552A66.965,66.965,0,0,0,233.5,200.47c-19.718,3.581-36.834,19.829-47.324,35.966-.457.694.315,1.814,1.152,1.483,16.421-6.31,38.648-15.443,47.135-32.433a57.626,57.626,0,0,1,1.041,10.6c-.126,10.08-2.6,19.04-4.732,28.694-8.108.663-14.434,6.594-17.6,13.882-2.7,6.215-5.49,19.561,4.228,21.154,15.175,2.477,29.53-26.328,15.428-35.335h0a61.615,61.615,0,0,0,5.679-21.154c1.735,5.537,3.786,11.042,5.19,16.642,2.413,9.654,2.761,19.356,4.054,29.152a.641.641,0,0,0,0,.079c-8.234,3.155-9.607,13.945-8.439,21.88.994,6.736,5.158,19.639,13.756,19.8,17.541.3,14.2-43.98-3.77-42.907,1.1-8.55-.552-17.462-2.319-25.807l-.663-3.155.205.11a38.363,38.363,0,0,1,4.4,2.934c1.341,1.057,2.445,2.366,3.77,3.423-1.577,7.887,2.019,17.052,7,22.921s16.3,11.831,21.233,2.587C287.231,262.764,280.669,251.012,274.911,245.412Zm-52.34,30.35c-14.923,4.512-9.212-15-5.852-20.255a20.617,20.617,0,0,1,14.607-9.212C239.891,253.835,232.935,272.623,222.571,275.762Zm38.38,14.5c.489,5.505-.631,24.719-13.109,15.159-9.465-7.288-9.339-29.341,1.577-34.61,8.566.426,10.948,13.014,11.516,19.434Zm17.463-68.509c-8.266-.584-16.28-5.316-23.315-9.244a66.4,66.4,0,0,1-16.847-13.314C255.54,199.145,267.134,209.824,278.413,221.75Zm-65.165.394a150.9,150.9,0,0,1-23.394,12.3,84,84,0,0,1,20.255-20.034c7.083-5.016,14.576-8.187,22.29-11.815-5.789,7.383-11.153,14.1-19.135,19.576Zm61.521,50.337c-6.625.789-13.046-7.556-15.428-12.62s-2.35-9.686-2.287-14.8a15.191,15.191,0,0,1,6.231-1.925c4.228,0,7.982,3.328,10.585,6.31,3.676,4.07,13.645,21.548.915,23.063Z" transform="translate(-252.326 567.178) rotate(-20)" fill="#734b26"/>
    <path id="Path_530" data-name="Path 530" d="M214.619,242.324a4.445,4.445,0,0,0-3.13,1.131,1.762,1.762,0,0,0,0,2.473,3.262,3.262,0,0,0,4.577,0,2.078,2.078,0,0,0-1.447-3.6Z" transform="translate(316.188 363.11)" fill="#734b26"/>
    <path id="Path_531" data-name="Path 531" d="M215.844,240.323a6.883,6.883,0,0,1-1.42,0,2,2,0,1,0,1.92,2.63,7.309,7.309,0,0,1,.395-1.447.815.815,0,0,0-.894-1.184Z" transform="translate(318.383 360.087)" fill="#734b26"/>
    <path id="Path_532" data-name="Path 532" d="M236.3,262.548c-.71-1.236-2.341-.368-3.183,0-1.736,1,0,3.761,1.552,2.63C235.613,264.784,236.981,263.81,236.3,262.548Z" transform="translate(348.274 392.468)" fill="#734b26"/>
    <path id="Path_533" data-name="Path 533" d="M233.369,258.3a.868.868,0,1,0,.868.868A.868.868,0,0,0,233.369,258.3Z" transform="translate(348.44 387.062)" fill="#734b26"/>
    <path id="Path_534" data-name="Path 534" d="M245.557,241.878c-.579,0-.973.526-1.526.605-1.683.263-1.42,2.63,0,3.156a2.946,2.946,0,0,0,3.577-1.1,1.841,1.841,0,0,0-2.052-2.657Z" transform="translate(363.976 362.372)" fill="#734b26"/>
    <path id="Path_535" data-name="Path 535" d="M243.569,239.953a1.526,1.526,0,0,0-1.447-1.1,5.262,5.262,0,0,0-1.736.421,2.131,2.131,0,0,0-1.447,2.63,2.078,2.078,0,0,0,2.63,1.447A2.788,2.788,0,0,0,243.569,239.953Z" transform="translate(357.967 357.905)" fill="#734b26"/>
    <path id="Path_536" data-name="Path 536" d="M225.815,156.263c-15.554,5.618-36.241,13.082-45.8,28.166,2.551-9.7,4.475-19.4,1.424-29.637a.8.8,0,0,0-1.565.219,161.564,161.564,0,0,1-3.865,30.232,55.722,55.722,0,0,0-5.962-22.611c-5.665-11.2-14.912-16.994-23.879-25.224a1.346,1.346,0,0,0-2.253.939c-.563,20.264,3.02,54.611,29.606,55.769q-.955,2.895-2.081,5.727c-15.022,1.111-36.46,15.648-29.183,32.626,4.554,10.594,17.948,13.567,20.874,25.037,3.239,12.847-4.209,25.835-2.488,38.9a1.33,1.33,0,0,0,2.6.344c1.408-3.834,2.723-7.652,4.022-11.486,2.488-6.087,4.46-12.362,6.885-18.465a55.35,55.35,0,0,1,4.225-9.389c3.286-5.164,7.746-6.7,13.082-8.919,8.027-3.349,14.38-8.559,17.447-17.056,6.635-18.449-15.554-33.768-32.548-32.861.36-1.674.767-3.349,1.2-5.023,9.076,3.552,21.046-.516,28.855-5.461a33.957,33.957,0,0,0,10.281-9.733c4.084-6.259,4.522-15.085,10.234-20.233a1.142,1.142,0,0,0-1.111-1.862Zm-79.3-15.053c7.433,6.447,15.272,11.611,20.577,20.342a52.42,52.42,0,0,1,7.214,29.731,1.565,1.565,0,0,0-.532-.125C150.2,190.329,146.34,160.113,146.512,141.21Zm55.206,71.871c12.08,12.393,3.13,28.338-10.656,34.05-6.791,2.8-12.08,4.569-15.366,11.626a233.671,233.671,0,0,0-9.264,23.785c-1.127,2.566-2.222,5.164-3.317,7.824.782-14.193,8.309-30.185-1.956-42.124-7.824-9-23.613-14.834-16.243-29.966,4.945-10.156,16.227-14.427,26.6-16.79a.955.955,0,0,0,1.314,0,1.064,1.064,0,0,0,.642.344C184.114,203.16,193.769,204.929,201.718,213.081Zm-27.681-14.255.391-.845a3.777,3.777,0,0,1-.172.814Zm37.555-17.213c-8.466,8.653-21.328,14.224-33.08,9.968,5.148-8.074,10.422-14.631,18.778-19.967,8.09-5.179,17.1-8.7,26.085-12.018C219.1,166.92,217.96,175.072,211.592,181.613Z" transform="translate(210.98 205.33)" fill="#734b26"/>
    <path id="Path_537" data-name="Path 537" d="M151.6,190.433a6.339,6.339,0,0,0-5.077,5.682,12.626,12.626,0,0,0,2.63,10.39A1,1,0,0,0,151,206c.263-2.63-.21-5.261,0-7.891a36.829,36.829,0,0,1,1.868-6.05C152.81,191.274,152.284,190.328,151.6,190.433Z" transform="translate(219.23 285.325)" fill="#734b26"/>
    <path id="Path_538" data-name="Path 538" d="M151.425,191.636a21.043,21.043,0,0,0,0,15.624c.316.631,1.236.289,1.263-.342a58.894,58.894,0,0,1,1.368-14.546C154.687,190.662,152.03,189.952,151.425,191.636Z" transform="translate(224.665 285.701)" fill="#734b26"/>
    <path id="Path_539" data-name="Path 539" d="M178.2,210.905c3.156-1.263,8.628-5.076,5.971-9.1a.973.973,0,0,0-1.315-.342c-2.63,1.578-3.209,4.919-5.892,6.523C175.466,208.854,176.44,211.616,178.2,210.905Z" transform="translate(264.094 301.677)" fill="#734b26"/>
    <path id="Path_540" data-name="Path 540" d="M182.6,210.559c1.841-1.789,5.261-5.261,4.1-8.049a1.289,1.289,0,0,0-1.868-.763,6.049,6.049,0,0,0-2.394,3.051,17.362,17.362,0,0,1-2.315,3.314,1.739,1.739,0,1,0,2.473,2.446Z" transform="translate(269.189 302.05)" fill="#734b26"/>
    <path id="Path_541" data-name="Path 541" d="M198.288,112.065c-6.076-6.023-16.834-6.628-24.936-7.444-7.155-.736-14.651-1.789-21.332.579a1.315,1.315,0,0,0-1.289.289h0c-8.233-.921-8.128,9.338-3.735,13.625a17.256,17.256,0,0,0,3.13,2.367c-4.787,8.706-7.891,18.412-12.783,27.2s-10.364,17.913-15.151,27.171a449.78,449.78,0,0,0-26.3,59.235,465.883,465.883,0,0,0-16.913,66.732c-3.419,17.939-6.418,38.008-4.919,56.237s17.781,29.328,34.563,33.405c14.309,6.97,35.457,7.365,48.451,1.578,17.781-7.891,22.91-38.219,26.987-55.027,10.521-43.3,20.464-87.038,14.888-131.754-1.657-13.152-3.919-26.3-4.945-39.718s.552-26.093,1.5-39.613a15.309,15.309,0,0,0,5.682-2.63C207.626,119.377,203.838,113.88,198.288,112.065Zm-20.832.421a6.584,6.584,0,0,0,.737-.579c.263-.237.5-.5.736-.736a4.472,4.472,0,0,0,.921-1.5l5.971,1.815-.737.5-3.156,2.209a1.789,1.789,0,0,0-.763,1.894q-3.656-.184-7.312-.579c1.184-1.052,2.446-2.025,3.6-3.025Zm9.627,2.63a5.024,5.024,0,0,0,2.63-2.63c1.578.447,3.1.842,4.629,1.184l.631.289a12.073,12.073,0,0,1-3.419,1.92,19.306,19.306,0,0,1-6.129.289Zm-11.074-6.628a12.071,12.071,0,0,0-1.341,1.1c-1.21,1.157-2.367,2.394-3.5,3.63a1.657,1.657,0,0,0-.342,1.868l-1.631-.184c-.658,0-2.841-.342-5.445-.763a17.071,17.071,0,0,0,5.866-5.419,1.657,1.657,0,0,0,0-1.657c2.157.473,4.261.921,6.365,1.5Zm-9.417-1.92a73.913,73.913,0,0,0-5.734,6.023,1.342,1.342,0,0,0-.395.921c-5.05-1.052-10.048-2.788-8.417-5.261a24.435,24.435,0,0,1,5.839-1.578H157.6l-.684.316h0l-.5.21a12.519,12.519,0,0,0-2.315,2.025,1.236,1.236,0,0,0,.868,2.1,5.787,5.787,0,0,0,3.5-.868,4.182,4.182,0,0,0,1.894-3.183,1.078,1.078,0,0,0-.684-.973,35.538,35.538,0,0,1,6.918.342Zm-1.841,270.583c-11.573,21.043-41.244,11.863-60.261,6.234-13.152-5.05-24.62-11.942-24.883-29.118a283.026,283.026,0,0,1,4.629-50.634c15.1,9.469,28.934,16.966,46.925,21.516a133.49,133.49,0,0,0,50.739,2.893c-4.235,16.834-8.838,34.01-17.15,49.161Zm31.564-123.179a425.875,425.875,0,0,1-12.389,65.758l-1.1,4.445c-17.544-.894-34.194-.5-51.423-4.787a194.8,194.8,0,0,1-46.61-19.359c.21-1.263.421-2.63.658-3.788a412.725,412.725,0,0,1,21.963-77.99c10.127,9.785,29.881,12.7,42.953,15.1,13.757,2.63,32.879,4.366,46.531.237a178.376,178.376,0,0,1-.526,20.438Zm.473-24.068h-.342c-6.865-.736-14.388,1.263-21.411,1.236a190.854,190.854,0,0,1-23.683-1.474c-15.535-2-28.924-7.6-43-13.755,5.1-12.836,10.784-25.488,17.2-37.982,8.891-17.334,23.673-35.562,26.593-55.237,6.681,3.1,15.624,3.919,21.963,4.472a84.751,84.751,0,0,0,18.6.368c-5.655,34.115,2.762,68.126,4.13,102.425Zm-.684-107.16c-5.813,2.236-13.993,1.552-20.069,1.184a71.178,71.178,0,0,1-22.174-4.472c-3.235-1.315-8.812-6.655-7.312-9.706a1.131,1.131,0,0,0,1.657.316h0c.842,4.735,13.152,6.813,16.229,7.391,4.919.921,30.749,6.181,33.668-1.368,2.709,2.131,3.209,4.6-1.973,6.681Z" transform="translate(110.361 155.397)" fill="#734b26"/>
    <path id="Path_542" data-name="Path 542" d="M108.833,165.521A139.538,139.538,0,0,1,97.18,175.7a47.634,47.634,0,0,0-4.84-8.785c.289-1.5.579-3,.842-4.524s-2.288-2.63-2.63-.763c-.237,1-.526,1.973-.789,2.972a1.762,1.762,0,0,0-1.341,2.025,5.637,5.637,0,0,0,.421,1.394c-1.946,7.181-4.1,14.309-5.813,21.516a.868.868,0,0,0,.237.868.947.947,0,0,0,.631.263.868.868,0,0,0,.763-.447,78.753,78.753,0,0,0,6.26-16.729,57.706,57.706,0,0,0,3.682,6.6,2.131,2.131,0,0,0,3.288.421c2.841-2.288,5.6-4.682,8.312-7.128-2.367,7.891-4.34,17.123-2.63,24.62a2,2,0,0,0,3.814,0c1.289-4.787.579-10.521,1.368-15.414a132.518,132.518,0,0,1,3.577-15.1,2.025,2.025,0,0,0-3.5-1.973Z" transform="translate(124.352 240.691)" fill="#734b26"/>
    <path id="Path_543" data-name="Path 543" d="M101.223,165.784a49.4,49.4,0,0,0-4.051,14.2c-.5,4.235-1.973,10.39-.368,14.467a1.868,1.868,0,0,0,3.393.447c2.262-3.761,1.736-9.68,2.025-13.914a119.733,119.733,0,0,1,1.447-14.151C103.906,165.494,101.854,164.311,101.223,165.784Z" transform="translate(143.956 247.372)" fill="#734b26"/>
    <path id="Path_544" data-name="Path 544" d="M105.01,192.69c.237-1.315.368-3.183.473-3.709q1.789-10.048,3.551-20.069c.368-2.052-2.63-2.946-3.156-.868-1.552,7.891-3.419,16.019-4.629,24.068-.342,2.236-.395,3.577,2.025,4.235,1.894.5,7.707.921,9.022-.763a1.868,1.868,0,0,0,0-2.63C110.954,191.506,107.061,191.979,105.01,192.69Zm-1.473.237h0s-.053.053.105,0Z" transform="translate(151.453 250.005)" fill="#734b26"/>
    <path id="Path_545" data-name="Path 545" d="M126.421,171.047h0c-2.367,4.1-4.761,8.18-7.365,12.152-1.447,2.209-2.63,4.814-4.366,7.076.184-2.63.21-5.129.421-7.391a52.237,52.237,0,0,0,0-14.861c-.342-1.71-2.63-1.341-3.1,0a52.212,52.212,0,0,0-2.262,14.362c-.368,4.472-1.71,10.153-.658,14.52a2.21,2.21,0,0,0,4,.526h0a1.917,1.917,0,0,0,.184-.421,15.782,15.782,0,0,1,4.261-6.813h0c1.21,1.71,2.341,3.472,3.472,5.261a18.6,18.6,0,0,0,4.6,5.971,2.814,2.814,0,0,0,4.077-3.13,14.415,14.415,0,0,0-4.34-6.181,60.2,60.2,0,0,0-4.892-4.156,1.84,1.84,0,0,0-.552-.289,21.88,21.88,0,0,0,2.288-2.63c3.025-3.682,5.787-7.5,8.443-11.442C132.655,170.732,128.131,168.286,126.421,171.047Z" transform="translate(162.868 250.026)" fill="#734b26"/>
    <path id="Path_546" data-name="Path 546" d="M102.708,132.055h-.184a5.024,5.024,0,0,0-4.182,1.841,5.261,5.261,0,0,0-1.683,4.971A1.894,1.894,0,0,0,99,140.183a6.182,6.182,0,0,0,2-1.21c.263-.263.631-1.052.973-1.21l.158-.237.316-.5a6.839,6.839,0,0,0,1.315-3.367,1.315,1.315,0,0,0-1.052-1.6Z" transform="translate(144.68 197.825)" fill="#734b26"/>
    <path id="Path_547" data-name="Path 547" d="M98.7,134.345h0v0Z" transform="translate(147.896 201.269)" fill="#734b26"/>
    <path id="Path_548" data-name="Path 548" d="M95.424,140.048a24.331,24.331,0,0,0-.71,4.919.894.894,0,0,0,1.526.631,23.859,23.859,0,0,0,2.63-4.051C100.553,139.074,95.9,137.312,95.424,140.048Z" transform="translate(141.916 207.745)" fill="#734b26"/>
    <path id="Path_549" data-name="Path 549" d="M112.909,210.626a7.287,7.287,0,0,0-1.263,1.736l-.132.21-.289.316c-.447.473-.789,1-1.184,1.5.184-.263-.631.579-.894.815a6.662,6.662,0,0,0-.631.579h0l-1.447,1.1c-.736.526-1.341,1.21-2.1,1.71a1.5,1.5,0,0,0,1.131,2.63,8.891,8.891,0,0,0,3.446-.631,10.522,10.522,0,0,0,2.946-2.21,9.522,9.522,0,0,0,2.788-6.891,1.368,1.368,0,0,0-2.367-.868Z" transform="translate(156.495 314.951)" fill="#734b26"/>
    <path id="Path_550" data-name="Path 550" d="M111.734,205.712a3.183,3.183,0,1,0,2.894,3.17,3.183,3.183,0,0,0-2.894-3.17Z" transform="translate(163.089 308.239)" fill="#734b26"/>
    <path id="Path_551" data-name="Path 551" d="M119.642,159.749c0,1.157,0,2.814,1.026,3.6a.6.6,0,0,0,.631,0c1.052-.789.947-2.446,1.026-3.6C122.4,157.96,119.536,157.96,119.642,159.749Z" transform="translate(179.275 237.336)" fill="#734b26"/>
    <path id="Path_552" data-name="Path 552" d="M114.891,262.162c20.6-30.591,15.2-89.879-25.909-99.953C55.024,154.055,6.863,181.595.734,217A49.976,49.976,0,0,0,28.905,270.71c-5.787,6.471-15.23,15.072-13.152,24.146,1.71,7.654,6,4.814,10.521,2.262s7.47-3.472,10.968-1.21a1.789,1.789,0,0,0-.815,1.867C40.4,324.474,50.5,350.62,60.1,375.687a547.325,547.325,0,0,0,33.458,72.1,2.052,2.052,0,0,0,2.63,1,1.815,1.815,0,0,0,2.788-1.341c4.945-55.237,13.152-110.08,11.232-165.58h.237c5.576-.658,16.282-3.919,14.625-11.626C124.2,266.4,119.336,263.293,114.891,262.162Zm-12.178,73.386a45.539,45.539,0,0,0-4.445-2.63c2.446-4.708,5.261-10.521,4.5-13.152a.6.6,0,0,0-.894-.368c-2.052,1.078-3.077,6.208-3.945,8.312-.579,1.368-1.157,2.63-1.736,4.077a59.769,59.769,0,0,1-5.813-3.077,148.124,148.124,0,0,1-13.152-9.653l-1.368-1c2.473-6.155,5.1-12.31,7.391-18.57l1.789,1.263c4.682,3.419,10.521,9.18,16.413,10.337.473,0,1-.421.684-.894a31.989,31.989,0,0,0-7.076-5.576c-2.814-2.183-5.629-4.366-8.47-6.523-.763-.579-1.526-1.078-2.288-1.631.947-2.762,1.789-5.524,2.63-8.338a1,1,0,0,0-1.815-.763c-1.236,2.341-2.341,4.761-3.393,7.233a70.58,70.58,0,0,0-11.389-5.971h0c3.946-3.63,8.233-4.682,14.888-2.841,4,1.1,7.891,3.6,12.257,2.92s3.84-2.63,6.129-4.945c1.131-1.1,0-.973,1.157-1.683-.815,18.018-1.394,35.773-2.052,53.475Zm-3.13,64.128a24.377,24.377,0,0,0-4.708-2.788c.921-2.025,1.841-4.051,2.814-6.076a43.531,43.531,0,0,0,2.814-5.76C100.24,389.838,99.924,394.757,99.582,399.676ZM101.5,365.3a55.234,55.234,0,0,0-8.575-3.919,43.3,43.3,0,0,1-6.155-3.735c2.92-6.26,5.813-12.547,8.575-18.886.316-.736.894-1.841,1.552-3.1a38.925,38.925,0,0,0,5.655,2.052q-.421,13.862-1.052,27.592ZM69.675,290.964c3.656,2.183,7.233,4.393,10.732,6.76-2.473,6.208-4.524,12.678-6.6,19.017a129.07,129.07,0,0,0-16.229-10.127,25.99,25.99,0,0,0,1.736-6.6c4.524-2.183,8.864-5.445,10.39-9.048ZM49.159,326.6a80.515,80.515,0,0,0,5.129-11.889c.815-2.262,2.025-4.813,3.051-7.391a132.128,132.128,0,0,1,15.782,11.232c-.579,1.789-1.184,3.577-1.789,5.261-1.894,5.445-4.419,11.258-6.681,17.15-.658-.552-1.368-1.052-2.025-1.6-4.524-3.788-8.917-7.891-13.152-11.758Zm5.471-21.464c-1.341-.684-2.63-1.368-4.077-2.025-.237,0-.447.237-.21.368,1.394.71,2.63,1.5,4.1,2.262-.815,2.63-1.447,5.5-2.288,7.891-1.289,3.656-2.63,7.233-3.63,10.942-2.63-8.759-5.261-17.439-8.312-25.961a13.678,13.678,0,0,0,8.969,4.287,18.149,18.149,0,0,0,6.76-1.342,33.676,33.676,0,0,0-1.289,3.577ZM50.737,332.1a108.244,108.244,0,0,0,10.995,9.943l2.052,1.631a72.915,72.915,0,0,0-4.445,16.887.739.739,0,0,0,1.368.368,71.627,71.627,0,0,0,6.129-14.861A32.353,32.353,0,0,0,77.7,352.093a.395.395,0,0,0,.395-.658,36.822,36.822,0,0,0-7.1-5.5c-1.1-.842-2.183-1.736-3.288-2.63,1.789-6.05,3.367-12.231,5.261-17.7.658-1.841,1.368-3.656,2.1-5.5.973.815,1.946,1.578,2.92,2.42A89.429,89.429,0,0,0,95.005,334.68l-1.578,3.735c-2.63,6.1-5.261,12.152-8.128,18.176l-2.63-1.947c-.421-.289-.789.368-.395.684.894.658,1.815,1.315,2.63,1.946l-1.052,2.315c-.447,1,1,1.868,1.473.868l1-2.157c2.183,1.526,4.366,3.051,6.5,4.629,1.578,1.184,5.866,4.787,8.443,4.945q-.342,7.26-.737,14.546a.447.447,0,0,0-.6,0c-2.157,1.526-2.867,5.261-3.893,7.6s-1.894,4.209-2.92,6.26a56.259,56.259,0,0,1-11.495-5.524c-2.841-2.157-5.261-4.6-7.891-6.97.973-1.947,1.946-3.919,2.92-5.866A65.124,65.124,0,0,0,82.117,366.3c0-.447-.5-.868-.815-.473a65.257,65.257,0,0,0-6.155,11.232c-.921,1.815-1.894,3.63-2.841,5.471a49.352,49.352,0,0,0-6.576-5.366.789.789,0,0,0-.552,0c-.658-1.631-1.315-3.262-1.946-4.893C58.286,359.09,54.525,345.6,50.737,332.1ZM70.622,389.97h0c.631-1.21,1.236-2.42,1.841-3.656a71.516,71.516,0,0,0,8.338,6.05c3.262,2.025,6.681,3.761,10.1,5.524l1.1.6-.447.894c-3,5.5-6.023,11.126-8.628,16.86-4.235-8.733-8.417-17.439-12.31-26.277Zm-3.972-9.338q2.131,2.288,4.419,4.34l-1.42,2.63c-1.026-2.209-2.025-4.577-3.025-6.944Zm29.3,61.708c-3.972-8.075-7.891-16.071-11.968-24.094a130.858,130.858,0,0,0,9.075-17.413l.631-1.368a25.3,25.3,0,0,0,5.734,2.762q-1.368,20.017-3.472,40.113Zm21.411-168.157c-5.419,4.261-13.467,0-18.2,5.129-2.025,2.157-.289,3.051-2.288,3.63-3.63,1.052-8.549-2.63-12.073-3.156a18.65,18.65,0,0,0-16.571,5.261h-.316c-3.393.815-5.261,6.892-7.759,9.338-3.6,3.709-8.575,6.418-13.888,4.761-6.628-2.078-6.891-9.39-15.177-7.5a65.748,65.748,0,0,0-8.575,3.972c-2.841,1.078-2.972,1.657-2.63-3.761.658-8.207,9.522-12.81,12.231-20.254a2.078,2.078,0,0,0,.552-3.814c-17.176-10.206-30.38-25.2-27.619-46.557,2.341-18.2,14.546-31.169,29.276-41.112,29.933-20.175,74.07-19.28,84.171,21.753a71.256,71.256,0,0,1,0,29.8c-1.841,10.232-7.207,19.675-8.891,29.749a2.762,2.762,0,0,0,0,.579,2.631,2.631,0,0,0-1.078,1.394,1.815,1.815,0,0,0,0,.605,2.236,2.236,0,0,0,1.1,1.946c3.84,2.078,13.52,3.682,7.733,8.233Z" transform="translate(-0.019 240.873)" fill="#734b26"/>
    <path id="Path_553" data-name="Path 553" d="M9.173,179.549a13.152,13.152,0,0,0-3.5,7.891c-.237,2.473,0,6.444,2.446,7.891a.921.921,0,0,0,1.315-.526,5.576,5.576,0,0,0-.289-3.5,12.021,12.021,0,0,1-.263-3.472,26.146,26.146,0,0,1,1.841-7.233.937.937,0,0,0-1.552-1.052Z" transform="translate(8.35 268.407)" fill="#734b26"/>
    <path id="Path_554" data-name="Path 554" d="M43.335,201.489l-.447.447h0a7.608,7.608,0,0,0-1,.71h0l-.237.21h0a6.757,6.757,0,0,0-.894.631l-.316.263-.237.132c-.316.184-1.6,1.184-.736.579l-.658.473c-.184.158,0,.158,0,.132h0a1.42,1.42,0,0,0,.368,2.788h0a7.231,7.231,0,0,0,.842.289,3.524,3.524,0,0,0,1.526,0,5.971,5.971,0,0,0,2.762-1.526c1.078-1.052,2.446-3.945,1.052-5.261a1.394,1.394,0,0,0-2.025.132Z" transform="translate(56.57 301.151)" fill="#734b26"/>
    <path id="Path_555" data-name="Path 555" d="M39.489,201.67l-.184.132h0Z" transform="translate(58.865 302.18)" fill="#734b26"/>
    <path id="Path_556" data-name="Path 556" d="M46.145,193.08a.526.526,0,0,0-.947,0,16.545,16.545,0,0,0-1.315,5.76,39.246,39.246,0,0,1-2.209,5.866c-.631,1.841,2.288,2.63,2.92.815s.684-4.209,1.236-6.365a10.022,10.022,0,0,0,.316-6.076Z" transform="translate(62.282 288.86)" fill="#734b26"/>
    <path id="Path_560" data-name="Path 560" d="M403.216,92.062c2.74-2.957,6.934-8.324,3.76-9.829-1.69-.8-4.832,1.762-6.037,2.668a20.452,20.452,0,0,0-2.761,2.5c1.721-5.151,3.091-12.363-1.391-10.735-3.091,1.1-4.605,5.223-5.769,7.943a52.068,52.068,0,0,0-3.39,10.416,19.384,19.384,0,0,0-1.607-3.894,1.03,1.03,0,0,0-.155-.618c2.8-3.328,4.852-8.5,6.48-12.363,1.278-3.091,3.534-8.087,3.091-11.5-.762-5.811-6.779-.515-9.025,4.317-.67-4.245-2.473-9.952-6.326-8.087-2.874,1.381-2.122,6.923-.9,10.818-2.06-2.06-4.121-4.224-7.14-4.4-2.3-.134-3.286,1.566-3.091,3.812.34,3.812,4.306,6.707,6.635,9.386,2.8,3.225,4.708,7.851,8.809,9.6a1.226,1.226,0,0,0,.773.072,40.991,40.991,0,0,1,2.483,9.19c-5.357-7.521-13-15.959-22.439-17.648-2.4-.433-4.358.742-3.544,3.451.649,2.133,2.771,4.121,5.007,5.769-3.688-.474-7.871-.433-8.8,3.091-1.03,3.966,4.605,4.708,8.788,4.77-3.173,2.462-6.058,6.181-.824,7.521,6.758,1.669,15.825-2.215,22.161-4.461.886,7.274.793,14.753,2.493,21.821a.422.422,0,0,0,.814,0c.845-5.924-.711-12.085-1.628-17.926-.2-1.226-.34-2.483-.495-3.76a.887.887,0,0,0,.165,0c3.76.082,7.655-1.03,11.219-2.153,2.71-.814,6.037-1.494,8.1-3.585C413.519,93.33,407.636,92.052,403.216,92.062ZM372.587,76.433c-1.03-1.422-3.091-4.955-.556-5.275,2.339-.3,7.49,4.039,8.52,5.852a.814.814,0,0,0,1.463-.649c-.68-2.318-1.69-4.348-1.9-6.8-.082-1.03-.515-4.358.556-5.059,2.946-1.947,4.543,6.625,4.9,9.416a3.4,3.4,0,0,0,.093,1.03.391.391,0,0,0,.567.216l.082-.082a.5.5,0,0,0,.381-.361c1.957-1.916,2.854-5.512,4.78-7.572s2.061-.68,1.731,1.463a57.347,57.347,0,0,1-3.39,11.6c-1.267,3.276-3.534,6.254-4.873,9.447-2.483-1.947-4.121-4.389-6.264-6.748C376.708,80.719,374.369,78.813,372.587,76.433ZM364.86,105.94c-.7-2.246,4.245-4.7,5.635-5.285.948-.4.886-1.978-.309-1.916-1.7.082-11.992.433-10.3-2.6,1.432-2.514,8.839-1.205,10.952-.711a.938.938,0,0,0,.67-1.721c-1.937-1.339-7.5-4.255-7.871-6.944s5.048.268,6.284.886c6.769,3.39,11.662,9.169,16.649,14.64a102.693,102.693,0,0,1-14.547,4.039C370.66,106.6,365.468,107.887,364.86,105.94Zm39.562-7.655c-4.966,2.06-10.158,2.648-15.32,3.822h-.082c-.2-1.535-.412-3.091-.721-4.585,2.4-5.718,3.379-12.888,7.449-17.823,2.4-2.916,2.246-.556,1.947,1.988-.4,3.451-1.854,6.666-2.339,10.066a.527.527,0,0,0,0,.072v.062c-.227.6.649,1.03,1.03.577,1.69-1.741,2.864-3.791,4.791-5.368.525-.422,4.214-3.317,5.151-3.173-.577,0-1.308,2.308-1.731,3.091a25,25,0,0,1-4.471,5.512c-.752.721.1,1.751.968,1.587,1.226-.237,6.46-.824,7.212.639.5,1.1-2.782,3.08-3.884,3.534Z" transform="translate(587.816 183.476)" fill="#734b26"/>
    <path id="Path_561" data-name="Path 561" d="M825.725,296.93c-4.761-18.623,9.864-63.733-14.914-71.019,1.236-1.236,2.5-2.473,3.814-3.6,2.919-2.63,10.942-6.181,14.572-10.521a1.131,1.131,0,0,0,1.841-.552c6.839-17.676-.447-35.168-15.493-45.715-14.6-10.232-34.9-14.362-45.926-29.407a2.236,2.236,0,0,0-4.13,1.131c-.184,17.781,2.288,38.719,13.967,53.054,9.574,11.731,28.329,18.412,43.19,21.963-.816.5-1.6,1-2.394,1.526a76.283,76.283,0,0,0-10,7.891c-1.1,1.052-2.236,2.183-3.341,3.367a34.458,34.458,0,0,0-6.576,0,1.789,1.789,0,0,0-1.1.526c-10.995.158-20.148,7.891-26.3,17.2-3.946,6.023-6.313,13.152-10.732,18.781-5.734,7.444-14.23,11.652-21.779,16.939a57.131,57.131,0,0,0-15.256,78.331c18.123,27.014,55.237,32.643,82.119,15.6a61.813,61.813,0,0,0,25.251-34.194C836.746,322.786,829.434,311.4,825.725,296.93ZM784.666,187.481c-10-12.1-13.809-27.882-14.6-43.243a40.379,40.379,0,0,0,11.153,10.705,222.732,222.732,0,0,0,21.332,10.863c16.045,7.891,25.593,18.149,26.751,33.931a31.111,31.111,0,0,0-5.734-8.654c-3.919-4.393-12.1-12.7-18.7-11.258a1.183,1.183,0,0,0-.71,1.71c1.315,3.051,5.261,4.577,7.707,6.365a51.86,51.86,0,0,1,7.286,6.287,34.194,34.194,0,0,1,8.759,13.441c-.658.71-1.263,1.5-1.92,2.183C812.284,202.316,794.95,200,784.666,187.481Zm29.907,172.576c-21.6,20.648-55.474,22.805-77.753,1.947s-20.227-57.026,3.025-76.543c12.336-10.337,24.462-15.361,32.327-30.249,7.1-13.467,14.782-23.831,29.986-26.3l1.1.263a36.826,36.826,0,0,0-7.128,12.81c-.289,1.078,1.157,2.052,1.946,1.131,2.972-3.419,4.761-7.891,7.575-11.521.342-.447.737-.842,1.1-1.289,21.674,8.785,10.732,39.218,11.968,58.236.789,12.021,7.891,21.805,9.969,33.432,2.42,14.046-4.13,28.513-14.125,38.061Z" transform="translate(1072.831 202.344)" fill="#734b26"/>
    <path id="Path_562" data-name="Path 562" d="M734.324,202.453c-1.341-.5,1.052.473-.789-.289a12.536,12.536,0,0,0-1.394-.5h0c0-.158-.473-.316-.6-.421l-.552-.395a3.871,3.871,0,0,0-.71-.947.553.553,0,0,1,0,.342,2.631,2.631,0,0,0-.21-.552l-.132-.131c-.316-.316-.158-.289,0,0l-.447-1.184a2.288,2.288,0,0,0-4.393,1.21,10.521,10.521,0,0,0,3.288,5.839,9.182,9.182,0,0,0,3.525,2,4.235,4.235,0,0,0,4.182-1.052,1.947,1.947,0,0,0,.289-2.262,3.945,3.945,0,0,0-2.052-1.657Zm-3.393-1.631h0c-.631-.395-.132-.184-.132,0Z" transform="translate(1086.716 295.032)" fill="#734b26"/>
    <path id="Path_563" data-name="Path 563" d="M727.1,198.175l.211.21a1.13,1.13,0,0,0-.289-.473v.263Z" transform="translate(1089.656 296.548)" fill="#734b26"/>
    <path id="Path_564" data-name="Path 564" d="M727.62,204.948l-.184-.21-.552-.815c-.263-.447-.5-.894-.737-1.341-1-1.868-4.288-.579-3.5,1.473s2.236,5.734,4.866,6.471a2,2,0,0,0,2.446-2.446,10.866,10.866,0,0,0-2.341-3.13Z" transform="translate(1082.925 302.19)" fill="#734b26"/>
    <path id="Path_565" data-name="Path 565" d="M757.267,223.174a15.4,15.4,0,0,1-2.052.579h-.447a8.4,8.4,0,0,0-1.315,0,2.183,2.183,0,0,0,0,4.366,11.627,11.627,0,0,0,4.814-.368c1.6-.526,4.287-2.288,3.577-4.314S758.582,222.7,757.267,223.174Z" transform="translate(1126.006 333.151)" fill="#734b26"/>
    <path id="Path_566" data-name="Path 566" d="M761.246,218.733a2.159,2.159,0,0,0-.947,0l-.394.158a3.261,3.261,0,0,0-.947.394l-.447.289h0a11.078,11.078,0,0,0-1,.5H757.2a11.327,11.327,0,0,1-1.526.368c-2.315.474-1.315,3.867.973,3.5a8.84,8.84,0,0,0,3.551-1.21,4.05,4.05,0,0,0,1.5-1.71h0s.263-.6.289-.658a2,2,0,0,0,0-1.052,1,1,0,0,0-.736-.579Z" transform="translate(1130.629 327.676)" fill="#734b26"/>
    <path id="Path_567" data-name="Path 567" d="M761.854,212.354c-.447.263-.868.6-1.289.894a12.6,12.6,0,0,1-1.526.894l-.5.237-.894.342a2.131,2.131,0,0,0,1.131,4.1c2.367-.5,8.075-2.052,7.076-5.471C765.326,211.486,763.248,211.565,761.854,212.354Z" transform="translate(1133.361 317.405)" fill="#734b26"/>
    <path id="Path_568" data-name="Path 568" d="M98.037,52.442l3.935-6.474c5.687-9.465,15.958-22.688,14.994-34.337-.63-7.5-8.481-15.565-15.624-9.5-3.935,3.365-6.061,10.134-8.127,14.66q-3.837,8.412-7.458,16.9c-1.023,2.361-2.125,4.8-3.266,7.281-1.968-1.1-6-.846-7.871-1.22a95.539,95.539,0,0,0-9.839-1.456c-7.3-.748-14.62-1.417-21.94-2.086a1.338,1.338,0,0,0-1.063.315c-13.105-2.086-24.656,9.13-32.743,18.615C.379,65.291-5.662,77.589,8.289,86.621a38.046,38.046,0,0,0,3.935,2.145,1.594,1.594,0,0,0-1.082,1.417c-1.79,14.679.472,30.047,0,44.845-.413,12.574,0,24.518,13.026,30.224a64.305,64.305,0,0,0,40.24,3.936C77.2,166.1,83.1,156.377,85.6,144.039a217.786,217.786,0,0,0,4.841-48.7,1.558,1.558,0,0,0,0-.256,26.154,26.154,0,0,0,7.5-4.388c12.318-10.409,8.54-26.9.1-38.233ZM88.474,35.735q3.935-8.52,7.871-17.119c1.771-3.935,4.663-15.25,10.33-15.289,9.229,0,6.828,13.479,4.565,18.516a190.151,190.151,0,0,1-9.662,17.71C94.988,50.808,85.188,61.336,79.521,73a9.073,9.073,0,0,0-2.676,0,42.248,42.248,0,0,1-4.251.472C79.5,62.457,83.26,47.758,88.474,35.735ZM23.854,57.676c9.681-3.463,18.3.413,28.158-1,5.569-.807,10.291-1.968,15.742.433,2.538,1.141,3.935,2.361,6.493,2.381a75.785,75.785,0,0,0-4.132,14.128c-2.223-.138-3.935-.787-2.971-2.637A1.1,1.1,0,0,0,65.668,69.5a3.207,3.207,0,0,0-.256,5.234,9.682,9.682,0,0,0,6.238,1.732,57.1,57.1,0,0,1,6.1-.177,3.207,3.207,0,0,1,1.968.669,4.069,4.069,0,0,1,.59,1.161c.158.315.236.374.2.236a2.562,2.562,0,0,0,.433.63,1.318,1.318,0,0,0,1.574.2c2.106-1.141,1.023-3.739-.394-4.959l-.315-.236a61.123,61.123,0,0,0,8.3-9.386c3.7,6.08,3.936,14.187-3.168,18.083-5.51,3.03-13.4,2.243-19.481,2.164-12.338-.157-24.439-1.259-36.679-2.578-5.707-.61-13.44-1.259-16.45-7.064-2.834-5.451,1.417-11.669,4.408-16.116A30.42,30.42,0,0,1,34.715,46.6c7.005,1.594,16.49-.649,23.495.158S71.236,49.9,77.651,51.3c-.826,1.869-1.653,3.739-2.42,5.628h-.256c-3.778.531-7.3-3.444-11.1-4.073C58.918,52.028,53.9,54,49,54.291c-8.3.492-18.949-4.7-25.974,1.83a.925.925,0,0,0,.886,1.555Zm61.512,47.363a7.159,7.159,0,0,0-1.732.767l-.866.413-.256.1-.531.2a.695.695,0,0,0,.374,1.338,9.843,9.843,0,0,0,2.814-1c-.984,8.7-1.476,17.513-2.479,26.112-.275,2.3-.531,4.683-.866,7.084a1.239,1.239,0,0,0-1,0,102.441,102.441,0,0,1-42.9,5.234c-.61,0-.767,1-.138,1.082,8.461,1.279,16.863,2.814,25.443,1.968,4.408-.472,13.991-.866,18.083-4.506-1.614,8.815-4.88,17.06-14.286,20.366-11.354,3.935-25.266,2.794-36.482-.964-14.4-4.821-15.388-15.525-15.9-29.083-.394-10.154.472-20.6.374-30.874a99.152,99.152,0,0,0,29.2,8.068c6.73.767,21.94,3.07,27.863-.905a.61.61,0,0,0,0-1.043c-5.549-2.834-18.6.256-24.833,0A86.777,86.777,0,0,1,15,101.123a101.18,101.18,0,0,0-.787-10.882,1.967,1.967,0,0,0-.177-.551c11.55,5,26.21,5.726,38.076,6.651,10.468.826,23.613,2.912,34.691,0-.551,2.814-1,5.647-1.357,8.7ZM97.506,85.362c-8.658,10.783-27.548,8.146-39.768,7.477C40.7,91.894-13.592,89.061,8.545,60.194c4.27-5.569,8.6-12.043,14.64-15.742s12.3-4.6,18.89-5.116a1.692,1.692,0,0,0,.688.236c7.1.748,14.187,1.5,21.291,2.165,3.384.315,6.69.512,10.114.512a46.476,46.476,0,0,0,7.379.492c-.886,1.968-1.81,3.936-2.7,5.9-4.506-3.935-13.223-4.309-18.379-4.782-7.477-.708-19.815-3.07-27.155.118a27.547,27.547,0,0,0-13.341,8.54C14.31,58.738,6.36,69.659,11.949,78.1s20.72,8.4,29.752,8.7c12.731.413,25.581,1.338,38.273,1,14.679-.393,21.075-14.325,12.593-26.171l-.177-.2c1.259-1.968,2.479-3.778,3.66-5.687,5.805,8.658,8.816,20.524,1.535,29.595Z" transform="matrix(0.921, -0.391, 0.391, 0.921, 1732.183, 638.371)" fill="#734b26"/>
    <path id="Path_569" data-name="Path 569" d="M685.418,240.221c1.368-.21,2.63-.473,4.1-.631.763,0,3.341.316,3.288-1.026s-2.815,0-3.472,0c-1.368.342-2.63.579-4.13.868C684.681,239.563,684.918,240.4,685.418,240.221Z" transform="translate(1026.542 356.586)" fill="#734b26"/>
    <path id="Path_570" data-name="Path 570" d="M663.086,257.878a18.3,18.3,0,0,1-7.733-5.785c-.59-.787-1.968-.1-1.358.787a16.274,16.274,0,0,0,7.418,6.887,20.25,20.25,0,0,0,4.624,1.4c1.791.394,3.424,1.24,5.214,1.555a.3.3,0,1,0,.236-.551A45.1,45.1,0,0,0,663.086,257.878Z" transform="translate(1123.039 438.403)" fill="#734b26"/>
    <path id="Path_571" data-name="Path 571" d="M672.187,163.317c-2.206-6.7-8.183-9.837-15.038-8.346-15.526,3.4-28.521,17.77-37.431,30.075-7.619,2.506-17.419,8.459-20.05,16.541-10.025,5.176-16.291,13.6-20.614,23.81a27.83,27.83,0,0,0-4.073,2.644,29.5,29.5,0,0,0-10.94,18.973c-.789,5.739,0,14.962,5.526,17.97a1.366,1.366,0,0,0,.915.664c14.173,3.246,29.649-5.3,41-12.97,12.531-8.5,23.308-19.812,32.582-31.7,9.11-11.6,20.276-24,25.89-37.782C672.475,177.164,674.28,169.683,672.187,163.317Zm-4.5,19.912c-5.7,12.619-15.2,24.236-23.985,34.825-9.148,11-18.935,21.617-30.765,29.8-12.531,8.647-26.5,15.7-42.018,14.712a1.253,1.253,0,0,0-.952.313c-3.985-4.449-3.383-13.785-2.193-18.684a25.652,25.652,0,0,1,11.8-16.14c11.454-6.83,24.374-4.712,36.8-2.594.8.138,1.165-1.028.338-1.253-11.078-2.907-24.649-4.624-35.564.175,4.549-9.486,11.078-17.77,21.078-22.168a40.439,40.439,0,0,1,17.105-3.108,42.055,42.055,0,0,1,9.248,1.153c2.356.576,4.712,2.155,7.168,2.13.789,0,1.416-1.14.7-1.7-4.06-3.233-11.566-3.885-16.579-3.835a46.541,46.541,0,0,0-16.366,3.02,29.374,29.374,0,0,1,18.158-12.92,46.053,46.053,0,0,1,14.135-1.554c2.619.1,9.073,2.218,11.278.514a.576.576,0,0,0,.088-.689c-1.616-2.581-9.461-2.231-12.08-2.281a48.383,48.383,0,0,0-12.982,1.416c8.509-10.025,17.945-18.534,29.862-24.6,6.591-3.358,15.539-4.787,18.346,3.91,1.98,6.2-.037,13.822-2.632,19.562Z" transform="translate(975.132 201.638)" fill="#734b26"/>
    <path id="Path_572" data-name="Path 572" d="M597.215,233.629h0a2.049,2.049,0,0,0-.526.237c-.289.158.211,0-.368.184h-.842a1.368,1.368,0,0,0,0,2.63,4.051,4.051,0,0,0,3.367-1.078,1.394,1.394,0,0,0-1.631-1.973Z" transform="translate(891.009 349.999)" fill="#734b26"/>
    <path id="Path_573" data-name="Path 573" d="M603.234,231.808a1.552,1.552,0,0,0-1.368-.789h-.342a1.815,1.815,0,0,0-1.289.289c-.237.184-.526.316-.763.473l-.6.447-.316.211c-2.63,1.815-.131,6.129,2.63,4.314a6.128,6.128,0,0,0,2.393-2.841,1.788,1.788,0,0,0-.131-1.473,4.686,4.686,0,0,0-.21-.631Zm.237.763Z" transform="translate(895.432 346.139)" fill="#734b26"/>
    <path id="Path_574" data-name="Path 574" d="M588.71,205.454a2.424,2.424,0,1,0,2.736.5,2.631,2.631,0,0,0-2.736-.5Z" transform="translate(880.101 307.576)" fill="#734b26"/>
    <path id="Path_575" data-name="Path 575" d="M598.4,205.562a1.315,1.315,0,0,0-1.762,1.762,2.366,2.366,0,0,0,.816.815,1.315,1.315,0,0,0,1.789-1.789,2.371,2.371,0,0,0-.842-.789Z" transform="translate(894.03 307.81)" fill="#734b26"/>
    <path id="Path_576" data-name="Path 576" d="M614.718,186.573a2.183,2.183,0,0,0-3.709,0h0a2.262,2.262,0,1,0,3.893,0Z" transform="translate(915.301 278.006)" fill="#734b26"/>
    <path id="Path_577" data-name="Path 577" d="M619.1,182.754a2.63,2.63,0,1,0,2.63,2.63A2.63,2.63,0,0,0,619.1,182.754Z" transform="translate(923.963 273.829)" fill="#734b26"/>
    <path id="Path_578" data-name="Path 578" d="M600.534,200.622a2.627,2.627,0,0,0-.526-1.052,3.025,3.025,0,1,0-4.13,4.13,2.629,2.629,0,0,0,1.052.526,2.972,2.972,0,0,0,3.6-3.6Z" transform="translate(890.819 296.757)" fill="#734b26"/>
    <path id="Path_579" data-name="Path 579" d="M575.219,223.392a3.707,3.707,0,0,0-.395,1.184h0a1.973,1.973,0,0,0,2.394,2.394h0a3.71,3.71,0,0,0,1.184-.395,2.394,2.394,0,1,0-3.288-3.288Z" transform="translate(861.449 332.854)" fill="#734b26"/>
    <path id="Path_580" data-name="Path 580" d="M575.078,227.743A2.63,2.63,0,0,0,573.315,232l.21.237a2.209,2.209,0,0,0,3.1,0l.211-.237a2.63,2.63,0,0,0-1.762-4.261Z" transform="translate(858.408 341.26)" fill="#734b26"/>
    <path id="Path_581" data-name="Path 581" d="M636.434,165.807h-.316a2.92,2.92,0,1,0,2.92,2.92v-.316A2.63,2.63,0,0,0,636.434,165.807Z" transform="translate(949.033 248.427)" fill="#734b26"/>
    <path id="Path_582" data-name="Path 582" d="M639.545,162.5a2.446,2.446,0,1,0,2.193,2.433,2.446,2.446,0,0,0-2.193-2.433Z" transform="translate(955.259 243.473)" fill="#734b26"/>
    <path id="Path_583" data-name="Path 583" d="M650.513,183.47c-.737,0-1.578,1.131-1.973,1.6a14.858,14.858,0,0,1-1.946,2,28.935,28.935,0,0,0-3.84,4.5c-.342.395,0,1.078.6.763a14.73,14.73,0,0,0,4.814-3.682c.684-.973,3.288-3.551,2.788-4.814a.5.5,0,0,0-.447-.368Z" transform="translate(963.151 274.901)" fill="#734b26"/>
    <path id="Path_584" data-name="Path 584" d="M649.562,178.127c-1.762.631-1.973,2.63-2.42,4.13a1.92,1.92,0,0,0,3.683,1.026c.447-1.341,1.368-3.183.395-4.472a1.526,1.526,0,0,0-1.658-.684Z" transform="translate(969.888 266.829)" fill="#734b26"/>
    <path id="Path_585" data-name="Path 585" d="M606.387,341.494c-1.026-9.048-6-28.2-18.781-25.593a2.183,2.183,0,0,0-1.552,2.63,11.9,11.9,0,0,0-2.63.21c6.339-27.908,10.179-56.394,14.809-84.618a2.63,2.63,0,0,0-5-1.368,550.225,550.225,0,0,0-22.226,70.625,577.284,577.284,0,0,0-20.78-84.328,2.63,2.63,0,0,0-4.866,1.341c3.656,24.331,7.207,48.582,9.811,72.992-3.183-9.653-7.5-19.149-11.021-27.119-7.286-16.387-16.177-34.957-28.934-47.951-1.684-1.71-4.761.552-3.393,2.63a54.442,54.442,0,0,0,4.1,6.786c7.707,13.914,13.152,30.854,17.86,45.347a255.921,255.921,0,0,1,10.048,48.293,1.617,1.617,0,0,0,0,.263H542.5a2.078,2.078,0,0,1-1.763.684c-34.878,9.759-7.6,66.416-.6,87.879,10.653,32.774,19.806,68.047,35.141,99.006,1.473,3,6.076,1,5.471-2.078,8.47-26.3,12.678-54.527,16.86-81.54C601.968,398.7,609.491,368.455,606.387,341.494Zm-68.573-68.389c-4.024-12.757-10.521-24.909-15.782-37.272a50.212,50.212,0,0,1,3.63,5.445,254.392,254.392,0,0,1,13.783,26.3,230.173,230.173,0,0,1,10.521,27.829c2.315,7.6,2.63,16.492,6.313,23.489a1.578,1.578,0,0,0,1.71.842c.842.737,2.473.447,2.367-.973-1.657-22.858-3.446-45.636-6.023-68.389a578.371,578.371,0,0,1,13.862,66.311c.368,2.394,4.208,2.236,4.708,0a513.923,513.923,0,0,1,15.151-55c-3.367,18.912-6.6,37.877-8.706,56.947a1.681,1.681,0,0,0,0,.684c-4.1.789-8.1,1.815-9.18,1.946a169.442,169.442,0,0,1-23.252.289,1.467,1.467,0,0,0,0-.263,224.455,224.455,0,0,0-9.048-48.214ZM549.1,419.957q-4.656-14.73-9.259-29.486a18.176,18.176,0,0,0,3.682,0c1.631-.184,5.629-1.1,4.919-3.63-.579-2.052-3.84-.921-5.261-.631a8.022,8.022,0,0,0-1.315.21h-.973a18.63,18.63,0,0,1-2.393,0c-1.315-4.209-2.63-8.443-3.867-12.652a17.649,17.649,0,0,0,7.891,2.341c2,0,8.575-.316,8.5-3.446s-6.234-.815-7.681-.658h-4.024a24.69,24.69,0,0,1-4.919-.815,1.053,1.053,0,0,0-.526,0l-.316-1.052c-.842-2.867-1.657-5.787-2.367-8.68,5.577,2.63,14.02,1.394,17.518-2.867a1.21,1.21,0,0,0-.842-2.052c-3.946,0-6.628,1.1-10.153,1a15.969,15.969,0,0,1-4.866-1c.447.158-1.631-.684-2.052-.842l-.815-.237c-1.894-11.837-.342-23.015,12.021-30.643a1.392,1.392,0,0,0,.395-.342,77.121,77.121,0,0,0,26.8,1.894c2.814-.263,16.387-1.157,19.885-4.629,4.261,3.419,7.523,5.445,9.548,11.915a65.573,65.573,0,0,1,1.92,24.725c-1.236,16.729-3.787,33.274-6,49.4a16.164,16.164,0,0,1-.421,2.63,6.735,6.735,0,0,0-2.367.368c-.316,0-.631.263-.947.395s0,0-.263,0a12.7,12.7,0,0,1-3.946.579h-1.473l-2.315-.131a32.588,32.588,0,0,1-3.393-.526,1.578,1.578,0,0,0-1.21,2.867,15.15,15.15,0,0,0,8.417,2.788,17.069,17.069,0,0,0,6.787-1.236q-.815,5.261-1.683,10.521a5.051,5.051,0,0,0-1.789-.158h-.737l-1.6.237h-3.551l-1.341-.158a2.032,2.032,0,0,0-1.078,3.919,15.045,15.045,0,0,0,9.206.868Q589.9,436,588.9,441.262a.9.9,0,0,0-.579-.526,14.756,14.756,0,0,0-3.551-.526,1.486,1.486,0,0,0,0,2.972,14.752,14.752,0,0,0,3.551-.526.869.869,0,0,0,.368-.263c-3.551,18.781-7.418,37.482-10.311,56.289-8.312-26.592-20.806-52.133-29.223-78.726ZM541.812,386.5Z" transform="translate(766.601 326.226)" fill="#734b26"/>
    <path id="Path_586" data-name="Path 586" d="M547.324,284.837l.158-.316a2.867,2.867,0,0,0-3.893-3.893l-.316.158a2.972,2.972,0,1,0,4.051,4.051Z" transform="translate(811.986 419.998)" fill="#734b26"/>
    <path id="Path_587" data-name="Path 587" d="M650.039,187.267c-1.333-8.764-2.392-24.271-9.489-31.859-2.568-10.881-15.331-17.351-24.644-21.566a98.555,98.555,0,0,0-35.035-8.156c-8.979-.549-21.821-1.392-29.153,4.882-8.685,7.43-15.272,19.252-22.193,28.31-8.783,11.489-19.429,22.664-26.683,35.191a1.725,1.725,0,0,0,2.47,2.255c1.451,10.293,3.352,20.527,5.078,30.78s1.588,21.1,3.176,31.368c.333,2.157,3.235,1.294,3.47-.471,1.235-9.548-1.961-20.566-3.686-29.9-1.961-11.057-3.686-22.154-5.882-33.133,11.234-2.98,22.076-8.2,32.839-12.43,14.018-5.529,28.036-10.92,42.289-15.684a271.278,271.278,0,0,1,41.72-10.881c16.292-2.745,18,13.018,20.193,25.644a138.363,138.363,0,0,1,2.2,22.566c0,6.234-1.49,13.959-.882,20.488a2.2,2.2,0,0,0-.961,0c-42.622,7.842-84.3,17.508-125.16,32a.882.882,0,0,0,.47,1.686c41.818-10.9,83.322-21.566,125.807-29.643a1.964,1.964,0,0,0,.549-.216,1.745,1.745,0,0,0,3.058.118C654.725,217.126,651.882,199.266,650.039,187.267Zm-125.846-2.98a7.644,7.644,0,0,0-2.255-2.313c-.823-.667-1.961.51-1.176,1.176a9.8,9.8,0,0,0,2.51,1.666c-4.254,1.725-8.47,3.549-12.528,5.568,4.058-4.843,7.842-10.058,11.449-15.194,2.764.8,5.529,1.549,8.293,2.313a28.958,28.958,0,0,0,7.117,1.843c-4.47,1.647-8.96,3.313-13.39,5.1a.434.434,0,0,0-.02-.157Zm14.92-5.509a.608.608,0,0,0,0-.529c-1.1-2.078-5.627-3.215-7.725-3.921a46.362,46.362,0,0,0-7.43-1.588c1.039-1.431,2.1-2.843,3.156-4.235l6.313-8.195a1.352,1.352,0,0,0,.8.608c5.744,1.647,11.469,3.411,17.253,4.882,3.215.823,9.469,3.49,13.43,3.078q-7.077,2.666-14.116,5.431c-3.823,1.588-7.744,3.019-11.665,4.47Zm77.3-25.487c-8.352,1.961-16.488,4.078-24.683,6.489q-5.117,1.51-10.195,3.215c-4.058-4.313-11.548-7.038-16.9-9.077a82.655,82.655,0,0,0-20.213-4.744c-1.235-.157-1.49,1.961-.294,2.157a181.643,181.643,0,0,1,19.135,5.1,101.334,101.334,0,0,1,9.587,3.921c2.117.98,4.235,2.509,6.45,3.431q-6.234,2.117-12.43,4.431a1,1,0,0,0,0-1.059c-2.372-3.235-10.744-3.921-14.429-4.921-5.764-1.49-11.606-2.686-17.41-3.921q7.293-9.45,14.625-18.86c6.862-8.764,13.724-9.43,24.762-9.607A90.949,90.949,0,0,1,607.574,136a60.129,60.129,0,0,1,24.017,15.1c-5-.588-10.371,1.118-15.174,2.2Z" transform="translate(804.542 187.73)" fill="#734b26"/>
    <path id="Path_588" data-name="Path 588" d="M587.054,179.894c11.018-9.018,4.137-30.761-10.175-32.015a17.645,17.645,0,0,0-17.645,11.273C552.764,175.483,573.193,191.226,587.054,179.894Zm-14.175-27.781c9.8-1.961,17.449,8.783,15.684,17.645a11.881,11.881,0,0,1-6.254,8.175,13.861,13.861,0,1,1-9.332-25.918Z" transform="translate(852.294 207.161)" fill="#734b26"/>
    <path id="Path_589" data-name="Path 589" d="M554.464,175.41a6.411,6.411,0,0,0,2.941,7.96,10.019,10.019,0,0,0,9.8.314,7.843,7.843,0,0,0,3.548-4.882,8.783,8.783,0,0,0-.961-5.744h0a8.215,8.215,0,0,0-8.234-4.372,9.136,9.136,0,0,0-7.1,6.725Zm3.509.451a6.94,6.94,0,0,1,5.2-4.1c7-.274,4.921,11.959-3.156,9.077a3.707,3.707,0,0,1-2.137-1.608,3.92,3.92,0,0,1,.118-3.372Z" transform="translate(848.87 225.094)" fill="#734b26"/>
    <path id="Path_590" data-name="Path 590" d="M543.852,194.423c7.842-.647,13.841-6.921,15.684-14.312,3.156-12.449-10.508-23.526-22.37-17.351-6.45,3.372-9.1,11.391-8.764,18.351a14.312,14.312,0,0,0,15.449,13.312Zm-8-25.056c3.078-4.215,9.273-5.117,13.978-3.215,6.842,2.764,7.43,9.8,4.705,15.88-3.058,6.9-12.077,11.155-18.468,5.882-5.058-4.235-3.705-13.626-.216-18.507Z" transform="translate(826.741 218.511)" fill="#734b26"/>
    <path id="Path_591" data-name="Path 591" d="M522.981,177.483c-4.745,1.059-8.783,5.176-6,11.587,3.431,7.842,15.528,3.215,16.076-4.156C533.548,178.483,527.9,176.385,522.981,177.483Zm6.391,4.019a5.156,5.156,0,0,1,.725,4.137,6.411,6.411,0,0,1-7.7,4.45c-1.588-.529-1.863-1.764-1.961-3.1a7.47,7.47,0,0,1,3.921-7.274,4.1,4.1,0,0,1,5.019,1.784Z" transform="translate(816.126 232.49)" fill="#734b26"/>
    <path id="Path_592" data-name="Path 592" d="M519.042,163.288a6.038,6.038,0,0,0-4.352,6.431,5.881,5.881,0,0,0,8.352,4.137,5.45,5.45,0,0,0,2.607-7.666,5.333,5.333,0,0,0-6.607-2.9Zm2.529,8.94c-3.666,1.8-5.117-4.686-2.725-6.646a4.76,4.76,0,0,0,.882-.314h1.353c3.921,0,3.921,4.411,1.372,6.45a4.611,4.611,0,0,1-.882.51Z" transform="translate(814.908 220.238)" fill="#734b26"/>
    <path id="Path_593" data-name="Path 593" d="M526.216,149.094c-2.372-.667-4.705-1.412-7.038-2.176-1.647-.549-2.274,1.961-.706,2.568,2.294.882,4.607,1.745,6.94,2.529,1.96.627,4.686,1.961,6.587.98a.921.921,0,0,0,.333-1.255C531.235,149.937,528.078,149.643,526.216,149.094Z" transform="translate(817.42 206.298)" fill="#734b26"/>
    <path id="Path_594" data-name="Path 594" d="M528.874,133.212c-1.627-.2-1.961,2.647-.392,2.882a135.523,135.523,0,0,1,16.272,3.294c4.842,1.333,10.038,3.921,15.018,4.333a.882.882,0,0,0,.608-1.49C552.126,135.7,539.03,134.467,528.874,133.212Z" transform="translate(825.956 194.536)" fill="#734b26"/>
    <path id="Path_595" data-name="Path 595" d="M569.6,135.586a271.845,271.845,0,0,0-34.113-6.372c-1.608-.216-2.333,2.2-.686,2.49,10.626,1.8,21.134,3.921,31.6,6.489,4.705,1.157,9.509,2.078,14.155,3.451,3.764,1.118,7.215,3.764,10.881,4.646a.647.647,0,0,0,.725-.941C588.4,139.507,575.619,137.253,569.6,135.586Z" transform="translate(831.479 191.084)" fill="#734b26"/>
    <path id="Path_596" data-name="Path 596" d="M554.386,140.521a18.187,18.187,0,0,0-3.725-1.412,1.176,1.176,0,0,0-1.137,1.961,18.4,18.4,0,0,0,3.137,2.392,4.9,4.9,0,0,0,3.921,1.118,1.118,1.118,0,0,0,.745-1.333C557.052,141.854,555.582,141.129,554.386,140.521Z" transform="translate(844.693 199.598)" fill="#734b26"/>
    <path id="Path_597" data-name="Path 597" d="M669,101.639c-9.461-3.018-18.636.332-27.162,4.527a32.5,32.5,0,0,0,0-6.775.708.708,0,0,0,.181-.332h0a.769.769,0,0,0,.347-.241h0a1.057,1.057,0,0,0,.694.392c7.907.905,18.7-2.143,22.861-9.371,3.923-6.806,5.131-16.6,5.251-24.264a1.509,1.509,0,0,0-2.143-1.237c-6.956,3.471-14.29,7.183-19.617,13.038-4.753,5.236-6.775,11.619-8.254,18.274-1.373-6.036-4.527-11.483-9.914-14.335a1.207,1.207,0,0,0-1.645,1.645c2.2,4.15,6.036,6.881,7.545,11.483,1.373,3.969,1.373,8.179,1.811,12.328-12.072-15.678-36.125-17.655-45.768,1.781-4.768,9.627-4.044,20.884-2.656,31.206,1.343,9.989,3.622,19.949,8.405,28.882,5.463,10.216,12.223,8.179,22.258,8,10.865-.2,19.873,10.065,30.889,5.6,9.054-3.682,15.573-14.456,20.311-22.484,5.146-8.737,9.476-18.485,10.382-28.671C684.032,118.962,682.176,105.788,669,101.639ZM651.317,78.657c4.738-4.829,10.955-7.877,17.006-10.8a59.562,59.562,0,0,1-4.406,19.617c-3.833,8.873-12.238,8.013-20.1,9.567,2.445-3.154,4.934-6.232,7.545-9.2s6.866-6.036,8.646-9.642a.5.5,0,0,0-.679-.679c-3.833,1.9-7.032,6.443-9.839,9.582a90.688,90.688,0,0,0-6.549,8.254C644.617,89.22,646.79,83.365,651.317,78.657Zm4.376,96.575c-9.054,8.3-16.6,1.766-26.211-1.026-8.179-2.369-18.772,4.361-25.125-2.792-5.085-5.734-6.956-15.9-8.435-23.208a91.632,91.632,0,0,1-1.946-26.754c1.056-10.563,7.545-22.273,19.149-23.465,10.216-1.041,16.81,5.447,24.687,10.4-1.418,1.237.287,3.652,2.188,2.822,7.711-3.41,15.98-7.092,24.6-5.719,11.212,1.781,14.018,10.669,13.943,20.718-.06,17.4-9.642,36.94-22.816,49.072Z" transform="translate(883.527 184.677)" fill="#734b26"/>
    <path id="Path_598" data-name="Path 598" d="M636.717,140.251h-1.894l-.526-.158-1.1-.316h-.21c-.579-.237-1.1-.526-1.657-.789a1.71,1.71,0,0,0-1.71,2.92,17.388,17.388,0,0,0,6.155,2.446c1.789.316,5.787.395,6.286-2.025S638.085,140.251,636.717,140.251Z" transform="translate(942.7 208.041)" fill="#734b26"/>
    <path id="Path_599" data-name="Path 599" d="M644.7,136.3h-.658a5.418,5.418,0,0,0-.842,0,5.711,5.711,0,0,0-.895,0h-1.131a9.914,9.914,0,0,0-1.342.421,8.6,8.6,0,0,0-1.289,0h-.578l-.947-.158c.368,0,.552.263,0,0l-1.473-.658c-2.762-1.236-5.261,2.63-2.42,4.156a12.653,12.653,0,0,0,6.392,1.683c2.393,0,5.418-.947,5.892-3.683a1.736,1.736,0,0,0-.342-1.42A3.755,3.755,0,0,1,644.7,136.3Z" transform="translate(947.05 203.255)" fill="#734b26"/>
    <path id="Path_600" data-name="Path 600" d="M644.591,130.422l-5.918.5c-2.63.21-1.736,4.156.447,3.341l5.708-2.078C645.722,131.842,645.669,130.316,644.591,130.422Z" transform="translate(954.816 195.381)" fill="#734b26"/>
    <path id="Path_602" data-name="Path 602" d="M779.757,172.3a8.97,8.97,0,0,0-3.288-.658c-.868-13.494-.263-28.934-10.811-38.982-10-9.417-25.619-13.152-38.929-12.994-26.593.289-55.711,21.621-54.027,50.634a14.072,14.072,0,0,0-5.1,9.364,1.341,1.341,0,0,0-1.052,1.973,18.639,18.639,0,0,0,1.447,2.63,1.362,1.362,0,0,0-.131.237c-2.262,6.155-1.631,13.283,4.787,16.939,5.656,3.235,2.762-1.289,5.077,5.05,1.263,3.419,1.289,7.444,2.867,10.995,6.155,13.993,19.99,21.884,34.668,23.883,24.278,3.314,65.758-12.7,59.919-43.4a17.386,17.386,0,0,0,6.5-5.892A15.466,15.466,0,0,0,784.465,180a2.009,2.009,0,0,0-.21-.579,2.343,2.343,0,0,0,.605-1.052C785.622,175.453,781.913,173.112,779.757,172.3Zm-107.528,4.209c.526-1.052,0-.289.658-1.052s.973-1.263,1.5-1.841-.289.395,0,0a7.426,7.426,0,0,1,.789-.789,1.841,1.841,0,0,0,1.394-1.368c1.788-6.26,1.5-12.2,4.235-18.412a43.4,43.4,0,0,1,10.942-15.151A50.24,50.24,0,0,1,725.6,125.766c11.652,0,25.514,3.077,34.563,10.89,10.074,8.68,8.891,24.278,10.232,36.483a3.157,3.157,0,0,0,1.236,2.236,1.893,1.893,0,0,0,1.42,1.289,8.076,8.076,0,0,0,2.157.263h.71a12.21,12.21,0,0,1,2.288.631c-7.523,1.341-15.94,6.234-23.173,7.891a181.313,181.313,0,0,1-31.564,5.261c-14.362.921-42.085,2.63-53.238-8.969a28.92,28.92,0,0,1,1.973-5.234ZM778.047,187.29a18.447,18.447,0,0,0-1.262,2l-.552.894-.263.263c-.736.71-1.447,1.473-2.209,2.131H773.6c-.473.289-.973.5-1.473.789a16.839,16.839,0,0,0-2.236,1.552,2,2,0,0,0-.737,1.789s0,0,0,.158c-.658,10.521-1.236,18.412-9.259,26.3a52.921,52.921,0,0,1-27.276,12.915c-10.916,2.078-22.7,1.762-32.8-3.314-10.679-5.261-22.411-18.123-19.754-31.064a1.789,1.789,0,0,0-.789-1.973c-6.023-3.262-9.837-5.866-9.127-12.836a25.147,25.147,0,0,0,14.441,6.287,185.435,185.435,0,0,0,37.613,2.63,155.187,155.187,0,0,0,29.513-3.972c7.891-1.868,19.569-3.709,27.513-8.049v.263a1.911,1.911,0,0,1-.263.737,19.376,19.376,0,0,0-.947,2.5Z" transform="translate(998.777 179.257)" fill="#734b26"/>
    <path id="Path_603" data-name="Path 603" d="M751.44,151.275c-13.362,3.051-25.462,7.5-39.3,8.549-12.994.973-25.067-3-37.745-3.077-.842,0-.868,1.078-.184,1.368,14.625,6.129,32.879,6.6,49.845,3.288a14.178,14.178,0,0,0-.184,10.521,22.793,22.793,0,0,0,2.288,4.182,20.723,20.723,0,0,1,1.788,4.261,1.131,1.131,0,0,0,2.026.263c1.631-2.815-.816-5.655-2.157-8.023a14.15,14.15,0,0,1-.947-10.811,1.419,1.419,0,0,0,0-.894,102.587,102.587,0,0,0,24.988-8.838A.483.483,0,0,0,751.44,151.275Z" transform="translate(1009.786 226.634)" fill="#734b26"/>
    <path id="Path_604" data-name="Path 604" d="M671.135,143.107c12.967,6.655,26.645,6.655,40.954,6.839,11.6.158,27.645,2.63,37.377-4.945.579-.447,0-1.289-.684-1.157-23.884,5.5-53.711,6.865-77.043-2.236C670.925,141.266,670.32,142.686,671.135,143.107Z" transform="translate(1005.315 212.076)" fill="#734b26"/>
    <path id="Path_605" data-name="Path 605" d="M704.639,144.908a10.155,10.155,0,0,0,3.945-3.1.464.464,0,0,0-.421-.71,10.1,10.1,0,0,0-4.366,2.394C702.982,144.093,703.719,145.461,704.639,144.908Z" transform="translate(1054.324 211.38)" fill="#734b26"/>
    <path id="Path_606" data-name="Path 606" d="M679.359,167.132a.631.631,0,0,0,.789-.6c.21-3.525-3.525-7.26-3.551-11.311a17.123,17.123,0,0,1,4.524-11.337c4.445-5.261,10.968-9.443,10.916-16.992a1.078,1.078,0,0,0-2.078-.289c-2.631,8.627-9.785,12.31-13.73,19.912C673.756,151.324,672.309,164.738,679.359,167.132Z" transform="translate(1010.48 188.63)" fill="#734b26"/>
    <path id="Path_607" data-name="Path 607" d="M682.777,163.955a.421.421,0,0,0,.71-.289c.395-3.1-1.236-6.392-1.394-9.522a28.931,28.931,0,0,1,1.262-9.969c1.946-6.234,6.681-10.705,6.971-17.413a.842.842,0,0,0-1.684,0c-.578,7.47-6.97,12.915-8.391,20.333C679.279,152.171,678.831,159.852,682.777,163.955Z" transform="translate(1018.556 188.677)" fill="#734b26"/>
    <path id="Path_608" data-name="Path 608" d="M688.337,153.739a.631.631,0,0,0,1.026-.6,30.006,30.006,0,0,1-2.473-9.311,16.045,16.045,0,0,1,.684-4.945,11.939,11.939,0,0,0,1.21-4.024.71.71,0,0,0-1.078-.6c-2.841,1.92-3.472,6.444-3.341,9.574a14.415,14.415,0,0,0,3.972,9.916Z" transform="translate(1025.701 200.971)" fill="#734b26"/>
    <path id="Path_609" data-name="Path 609" d="M702.135,154.385a17.539,17.539,0,0,1,1.578,6.707c0,1.815-.947,3.682-.237,5.392a.789.789,0,0,0,1.315.342c5.261-4.077-.631-15.23-3.235-19.149-4.919-7.418-11.1-13.415-10.732-22.91a1.092,1.092,0,0,0-2.183,0c-.631,7.891,2.893,13.783,7.391,20.043a52.932,52.932,0,0,1,6.1,9.574Z" transform="translate(1032.024 185.332)" fill="#734b26"/>
    <path id="Path_610" data-name="Path 610" d="M707.141,153.314a.395.395,0,1,0,.684.395,12.547,12.547,0,0,0,.868-13.152c-1.341-3.262-4.813-10.232-8.654-10.942a.789.789,0,0,0-1,.763c.263,3.341,4.5,6.734,6.26,9.522a13.546,13.546,0,0,1,1.841,13.415Z" transform="translate(1047.72 194.136)" fill="#734b26"/>
    <path id="Path_611" data-name="Path 611" d="M686.446,174.523a16.655,16.655,0,0,1-2.92-6,124.181,124.181,0,0,0-3.235-12.389.921.921,0,0,0-1.762.473,116.44,116.44,0,0,0,3.393,13.836c1.157,3.156,4.182,9.232,8.338,8.917a.631.631,0,0,0,.552-.947C689.918,176.837,687.656,176,686.446,174.523Z" transform="translate(1016.965 233.083)" fill="#734b26"/>
    <path id="Path_612" data-name="Path 612" d="M692.494,170.857a34.2,34.2,0,0,1-6.1-13.152c-.184-.684-1.157-.395-1.052.289a32.512,32.512,0,0,0,4.6,13.152c.894,1.341,7.023,9.18,9.18,7.523C700.569,177.643,693.335,171.909,692.494,170.857Z" transform="translate(1027.173 235.697)" fill="#734b26"/>
    <path id="Path_613" data-name="Path 613" d="M703.785,153.546a.894.894,0,0,0-.947.395c-.842,1.289.447,3.077.842,4.287a21.687,21.687,0,0,1,.868,4.445,18.7,18.7,0,0,1-2.631,10.521.579.579,0,0,0,1,.579,20.28,20.28,0,0,0,4.208-10.705C707.231,160.78,706.81,153.915,703.785,153.546Z" transform="translate(1051.943 230.018)" fill="#734b26"/>
    <path id="Path_614" data-name="Path 614" d="M777.851,74.008a1.436,1.436,0,0,0-1.134-.718,1.349,1.349,0,0,0-1.234-.775c-5.081-.144-11.814,4.837-16.45,6.976-6.345,2.871-12.661,5.914-19.005,8.871q-18.474,8.613-36.3,18.388a.732.732,0,0,0-.115,1.134.99.99,0,0,0-.373,1.191c8.239,18.445,23.111,31.852,44.24,29.513,18.575-2.053,32.14-14.8,34.723-33.388C783.521,95.367,782.4,82.951,777.851,74.008ZM760.2,83.281l4.952-2.368c1.062,3.747,3.287,7.177,4.077,11.125a33.143,33.143,0,0,1-.086,12.474,24.5,24.5,0,0,1-.7,2.871c-3.23-3.244-8.613-5.182-12.489-7.608-4.306-2.742-8.426-5.9-12.919-8.483,5.77-2.67,11.483-5.325,17.168-8.024ZM742.4,93.458a84.1,84.1,0,0,0,12.029,8.9c3.89,2.483,8.613,6.129,13.307,6.948a24.23,24.23,0,0,1-13.551,13.565,27.676,27.676,0,0,1-15.79,1.435c1.708-4.163,1.565-10.163,2.125-14.512.689-5.412,1.206-10.881,1.88-16.335Zm-1.608-1.091.316-.144a.6.6,0,0,0-.1.273c-.818,5.742-1.823,11.354-2.627,17.053-.6,4.306-2.282,9.919-1.809,14.354-9.546-2.641-17.512-10.35-22.235-19.924,8.9-3.66,17.7-7.507,26.455-11.613Zm29.6,30.862c-10.78,12.259-32.369,15.962-46.279,7.062-8.4-5.383-13.321-14.785-19.522-22.264l-.086-.072q4.134-1.636,8.239-3.316c5.1,13.464,16.479,22.422,31.436,21.79,14.742-.632,27.962-9.373,29.139-25.02.5-6.617-1.32-15.976-5.3-21.862a40.417,40.417,0,0,0,7.106-3.316c.99,7.737,3.66,14.957,3.5,22.967-.172,8.541-2.483,17.484-8.24,24.029Z" transform="translate(1103.62 173.814)" fill="#734b26"/>
    <path id="Path_616" data-name="Path 616" d="M723.195,108.174c1.21-.658,1.71-2.315,2.183-3.5L726.9,100.7c.71-1.841-2.341-2.63-2.972-.815l-1.315,3.919a6.129,6.129,0,0,0-.526,3.946.763.763,0,0,0,1.1.421Z" transform="translate(1082.089 148.083)" fill="#734b26"/>
    <path id="Path_618" data-name="Path 618" d="M738.845,107.76a.842.842,0,0,0,1.525-.631,15.8,15.8,0,0,0-.92-3.393c-.552-1.42-2.894-.815-2.315.631a17.191,17.191,0,0,0,1.71,3.393Z" transform="translate(1104.684 154.178)" fill="#734b26"/>
    <path id="Path_625" data-name="Path 625" d="M710.713,24.947Z" transform="translate(1065.216 37.296)" fill="#734b26"/>
    <path id="Path_626" data-name="Path 626" d="M710.969,24.652C710.811,24.836,710.784,24.915,710.969,24.652Z" transform="translate(1065.408 36.854)" fill="#734b26"/>
    <path id="Path_635" data-name="Path 635" d="M561.619,127.847a7.716,7.716,0,0,0-7.058-6.581c.526-6.581-5.692-11.352-11.516-8.67a6.975,6.975,0,0,0-1.349-4.935h0c2.7-2.731,5.4-5.462,8.226-8.226,2.385-2.336,5.824-4.935,7.222-8.028,2.8-6.268-3.29-13.375-9.871-10.48A16.255,16.255,0,0,0,542.19,85.5q-5.824,6.482-11.516,13.161c-1.086,1.267-2.155,2.55-3.29,3.833a13.162,13.162,0,0,0-3.57-6.581,10.463,10.463,0,0,0-10.924-1.645,30.635,30.635,0,0,0-3.932-15.415c-2.073-3.8-4.524-8.226-9.131-9.131-9.69-1.925-14.05,8.686-14.379,16.9-4.705-3.29-10.529-4.014-15.284-.082a19.461,19.461,0,0,0-5.314,7.469c-2.994-3.29-9.493-4.524-12.668-2.287-5.215,3.6-6.136,11.253-5.215,17.225a16.452,16.452,0,0,0-11.121,1.168,17.127,17.127,0,0,0-5.38,4.936,1.036,1.036,0,0,0-1.037.806c-.115.411-.164.823-.263,1.234a1.053,1.053,0,0,0-1.546,1.135,16.457,16.457,0,0,0,.823,2.945v.181c-1.645,16.155,7.436,33.857,15.514,46.8,9.246,14.806,19.84,24.381,37.838,26.536,17.274,2.089,33.676-1.481,47.2-12.7,14.543-12.059,24.365-30.666,30.945-48.072a1.218,1.218,0,0,0,0-.592,6.745,6.745,0,0,0,1.678-5.478ZM546.105,86.718c4.606-4.59,10.562-.74,6.136,4.935-4.656,5.972-11.072,11.154-16.155,16.813S525,119.818,519.553,125.56a11.517,11.517,0,0,0-4.2,1.81,6.268,6.268,0,0,0-2.583-2.8c5.824-3.833,10.891-12.5,15.316-17.587,5.906-6.778,11.631-13.934,18.015-20.3ZM439.269,111.51a25.27,25.27,0,0,1,4.936-.313,35.563,35.563,0,0,1,3.784.609.691.691,0,0,0,.263,0q.288.014.576,0a.674.674,0,0,0,.576-1.02,3.455,3.455,0,0,0-.395-.543c.395-4.524.329-9.3,2.616-13.359,3.192-5.626,8.621-2.928,12.141.658a14.246,14.246,0,0,0,.2,7.124.79.79,0,0,0,1.53,0c1.333-4.672,1.481-9.312,4.491-13.408a10.3,10.3,0,0,1,6.054-4.376c3.438-.625,6.3,1.283,9.1,2.928a1.3,1.3,0,0,0,.543.181c.378.675,1.5.823,1.645-.115.773-3.488.773-7.255,2.089-10.545,2.106-5.561,8.143-9.871,13.49-5.281,6.581,5.709,6.581,14.165,6.844,22.045a1.432,1.432,0,0,0,.691,1.234,1.086,1.086,0,0,0,1.464.79c3.537-1.365,7.091-2.451,10.2.658a7.963,7.963,0,0,1,2.188,5.232,9.41,9.41,0,0,0,.132,1.974q-2.237,2.7-4.442,5.413c-2.912,3.586-7.535,8-9.164,12.372a11.812,11.812,0,0,0-4.162-.526c-4.426.247-7.469,3.29-9.065,7.222-.428,1.036,1.382,1.81,1.826.773a9.41,9.41,0,0,1,6.5-6.021c3.29-.79,7.5.395,8.061,4.1a.938.938,0,0,0,1.563.411,6.169,6.169,0,0,1,6.35-2.3c2.649.724,2.994,2.9,4.8,4.458a1.152,1.152,0,0,0,1.958-.806,5.116,5.116,0,0,0-3.981-5.429c4.935-4.935,9.427-10.332,14.3-15.234l1.184-1.2a30.894,30.894,0,0,1,.3,5.742.954.954,0,0,0,1.431.823c4.936-3.06,11.154.707,9.46,6.581a1.645,1.645,0,0,0,1.481,1.958c5.725,0,5.413,3.883,4.1,7.3-7.091,8.226-23.032,9.871-32.9,10.743a207.9,207.9,0,0,1-31.636,0c-20.12-1.234-47.2-3.932-60.278-20.992,0-1.464-.148-2.945-.263-4.442a12.668,12.668,0,0,1,7.436-5.413Zm91.948,63.684c-12.141,12.339-27.162,17.521-44.321,16.7-18.574-.888-31.143-9.2-40.866-24.825a105.884,105.884,0,0,1-11.269-24.546,63.473,63.473,0,0,1-2.418-15.086c4.294,4.59,10.694,7.584,16.369,9.739a147.653,147.653,0,0,0,42.067,8.44c13.721.971,28.33,1.645,41.886-.954,6.334-1.2,15.514-2.8,21.963-6.729-6.844,13.178-12.717,26.388-23.427,37.263Z" transform="translate(680.432 179.377)" fill="#734b26"/>
    <path id="Path_636" data-name="Path 636" d="M448.981,107.1a4.472,4.472,0,0,1,4.445-3.919c1.789-.184,3.788.447,5.261-.842a1.052,1.052,0,0,0,0-1.447c-1.736-2.183-6.576-1.078-8.654,0a6.05,6.05,0,0,0-3.262,6.55C447.008,108.674,448.981,108.438,448.981,107.1Z" transform="translate(669.444 149.239)" fill="#734b26"/>
    <path id="Path_638" data-name="Path 638" d="M467.207,104.548a7.023,7.023,0,0,0-5.261,4.55c-.552,1.42,1.815,2.42,2.473,1.052a3.183,3.183,0,0,1,3.525-1.973,5.05,5.05,0,0,1,2.841,1.973c1.867,1.973,3.393-.237,2.63-2.262A5.971,5.971,0,0,0,467.207,104.548Z" transform="translate(692.224 156.522)" fill="#734b26"/>
    <path id="Path_639" data-name="Path 639" d="M502.638,112.593a2.34,2.34,0,0,1,1.92-1.92,4.419,4.419,0,0,1,2.762,1.1c1.92,1.289,3.656-1.157,2.867-2.867a5.866,5.866,0,0,0-7.207-2.63,6.365,6.365,0,0,0-4.077,6.339,1.868,1.868,0,1,0,3.735-.026Z" transform="translate(747.723 158.63)" fill="#734b26"/>
    <path id="Path_640" data-name="Path 640" d="M448.212,121.016a32.7,32.7,0,0,1-4.656-1.683,9.837,9.837,0,0,1-3.6-3.393c-1.21-2.052-4.735-.71-3.945,1.657,1.525,4.629,6.918,9.732,12.2,7.681a2.236,2.236,0,0,0,0-4.261Z" transform="translate(653.299 172.17)" fill="#734b26"/>
    <path id="Path_641" data-name="Path 641" d="M446.738,124.378a36.068,36.068,0,0,1-6.839-3.025c-1.394-1.131-3.367.763-2,2,2.288,2.078,5.787,4.077,8.838,2.446a.842.842,0,0,0,0-1.42Z" transform="translate(655.615 181.276)" fill="#734b26"/>
    <path id="Path_642" data-name="Path 642" d="M492.733,140.777a17.1,17.1,0,0,0-5.261,1.5,23.252,23.252,0,0,1-6.076,1.131,1.894,1.894,0,0,0-.5,3.682,11.442,11.442,0,0,0,8.233,0c2.078-.842,4.656-2.63,4.787-5.261a1.131,1.131,0,0,0-1.184-1.052Z" transform="translate(718.832 210.908)" fill="#734b26"/>
    <path id="Path_643" data-name="Path 643" d="M483.5,142.668a7.023,7.023,0,0,0,5.787-2.63,1.973,1.973,0,0,0-1.683-2.946c-1.421.131-2.631.868-4.1,1a2.393,2.393,0,0,0-2.341,2.341,2.367,2.367,0,0,0,2.341,2.236Z" transform="translate(721.146 205.387)" fill="#734b26"/>
    <path id="Path_644" data-name="Path 644" d="M73.936,161.955a9.5,9.5,0,1,0,9.5,9.5,9.6,9.6,0,0,0-9.5-9.5Z" transform="translate(-43.459 462.653)" fill="#9d8167"/>
    <path id="Path_645" data-name="Path 645" d="M73.936,161.955a9.5,9.5,0,1,0,9.5,9.5,9.6,9.6,0,0,0-9.5-9.5Z" transform="translate(-53.459 392.653)" fill="#9d8167"/>
    <path id="Path_646" data-name="Path 646" d="M675.547,179c-11.574,0-11.6,17.992,0,17.992S687.147,179,675.547,179Z" transform="translate(1203.482 468.196)" fill="#9d8167"/>
    <path id="Path_647" data-name="Path 647" d="M675.547,179c-11.574,0-11.6,17.992,0,17.992S687.147,179,675.547,179Z" transform="translate(1108.482 395.196)" fill="#9d8167"/>
    <path id="Path_648" data-name="Path 648" d="M675.547,179c-11.574,0-11.6,17.992,0,17.992S687.147,179,675.547,179Z" transform="translate(1215.482 560.196)" fill="#9d8167"/>
  </g>
</svg>
