<svg xmlns="http://www.w3.org/2000/svg" xmlns:xlink="http://www.w3.org/1999/xlink" width="1920" height="799" viewBox="0 0 1920 799">
  <defs>
    <clipPath id="clip-path">
      <rect id="Rectangle_39" data-name="Rectangle 39" width="1920" height="799" transform="translate(0 2120)" fill="#fff"/>
    </clipPath>
  </defs>
  <g id="Mask_Group_17" data-name="Mask Group 17" transform="translate(0 -2120)" opacity="0.08" clip-path="url(#clip-path)">
    <g id="Layer_2" data-name="Layer 2" transform="translate(0.004 2176.454)">
      <g id="Layer_2-2" data-name="Layer 2" transform="translate(-0.004 0.001)">
        <path id="Path_649" data-name="Path 649" d="M545.972,672.533c-6.84,0-13.4,6.044-13.1,13.1s5.752,13.1,13.1,13.1c6.84,0,13.4-6.044,13.1-13.1S553.326,672.533,545.972,672.533Z" transform="translate(0.004 -3.546)" fill="#9d8167"/>
        <path id="Path_650" data-name="Path 650" d="M986.547,710.781c-11.02,0-11.081,17.125,0,17.125S997.588,710.781,986.547,710.781Z" transform="translate(0.004 -3.546)" fill="#9d8167"/>
        <path id="Path_651" data-name="Path 651" d="M1501.212,723.443c-9.338,0-9.358,14.516,0,14.516S1510.57,723.443,1501.212,723.443Z" transform="translate(0.004 -3.546)" fill="#9d8167"/>
        <path id="Path_652" data-name="Path 652" d="M1613.4,719.605c-8.532,0-8.552,13.266,0,13.266S1621.95,719.605,1613.4,719.605Z" transform="translate(0.004 -3.546)" fill="#9d8167"/>
        <path id="Path_653" data-name="Path 653" d="M1499.005,665.552c-6.85,0-6.86,10.647,0,10.647S1505.876,665.552,1499.005,665.552Z" transform="translate(0.004 -3.546)" fill="#9d8167"/>
        <path id="Path_654" data-name="Path 654" d="M1719.288,489.028c-16.631,0-16.661,25.848,0,25.848S1735.949,489.028,1719.288,489.028Z" transform="translate(0.004 -2.408)" fill="#9d8167"/>
        <path id="Path_655" data-name="Path 655" d="M1631.288,681.569c-7.656,0-7.666,11.9,0,11.9S1638.923,681.569,1631.288,681.569Z" transform="translate(0.004 -3.546)" fill="#9d8167"/>
        <path id="Path_656" data-name="Path 656" d="M1876.532,658.017c-7.213,0-7.223,11.212,0,11.212S1883.7,658.017,1876.532,658.017Z" transform="translate(0.004 -3.546)" fill="#9d8167"/>
        <path id="Path_657" data-name="Path 657" d="M1900.889,505.941c-14.828,0-14.848,23.048,0,23.048S1915.737,505.941,1900.889,505.941Z" transform="translate(0.004 -2.481)" fill="#9d8167"/>
        <path id="Path_658" data-name="Path 658" d="M1283.79,706.2a16.872,16.872,0,0,0-2.952-1.31c-2.468-1.007-6.044.161-7.746,2.015a7.968,7.968,0,0,0,0,11.262c1.823,1.823,5.208,3.082,7.746,2.015a16.859,16.859,0,0,0,2.952-1.31,7.474,7.474,0,0,0,0-12.672Z" transform="translate(0.004 -3.546)" fill="#9d8167"/>
        <path id="Path_659" data-name="Path 659" d="M144.783,185.449a6.316,6.316,0,1,0,6.316,6.316A6.386,6.386,0,0,0,144.783,185.449Z" transform="translate(0.004 -0.897)" fill="#9d8167"/>
        <path id="Path_660" data-name="Path 660" d="M53.388,263.527c-8.24,0-8.26,12.813,0,12.813S61.659,263.527,53.388,263.527Z" transform="translate(0.004 -1.275)" fill="#9d8167"/>
        <path id="Path_661" data-name="Path 661" d="M206.593,546.607c-7.928,0-7.938,12.32,0,12.32S214.561,546.607,206.593,546.607Z" transform="translate(0.004 -2.642)" fill="#9d8167"/>
        <path id="Path_662" data-name="Path 662" d="M49.792,524.173a8.3,8.3,0,0,0-6.618-3.516,8.7,8.7,0,0,0-5.963,2.669,8.6,8.6,0,0,0-2.468,5.963,18.907,18.907,0,0,0,.524,3.223,8.26,8.26,0,0,0,7.908,6.044c3.485-.161,7.1-2.418,7.908-6.044C51.757,529.472,51.777,526.752,49.792,524.173Z" transform="translate(0.004 -2.536)" fill="#9d8167"/>
        <path id="Path_663" data-name="Path 663" d="M323.272,698.23c-9.62,0-9.63,14.949,0,14.949S332.912,698.23,323.272,698.23Z" transform="translate(0.004 -3.546)" fill="#9d8167"/>
        <path id="Path_664" data-name="Path 664" d="M616.284,695.057l-1.813-.655c-5.127-1.843-10.446,2.911-10.446,7.958s5.329,9.8,10.446,7.958l1.813-.655c3.022-1.1,5.722-3.828,5.56-7.3a7.938,7.938,0,0,0-5.561-7.3Z" transform="translate(0.004 -3.546)" fill="#9d8167"/>
        <path id="Path_665" data-name="Path 665" d="M818.9,680.39a40.439,40.439,0,0,0-7.3-.584c-6.6-.232-12.914,5.963-12.612,12.612s5.55,12.864,12.612,12.612a34.848,34.848,0,0,0,7.3-.584,12.32,12.32,0,0,0,0-24.055Z" transform="translate(0.004 -3.546)" fill="#9d8167"/>
        <path id="Path_666" data-name="Path 666" d="M1771.427,87.013c-12.007,0-12.027,18.656,0,18.656S1783.455,87.013,1771.427,87.013Z" transform="translate(0.004 -0.001)" fill="#9d8167"/>
        <path id="Path_667" data-name="Path 667" d="M1766.743,153.406c-7.907,0-7.928,12.289,0,12.289S1774.671,153.406,1766.743,153.406Z" transform="translate(0.004 -0.742)" fill="#9d8167"/>
        <path id="Path_668" data-name="Path 668" d="M1896.457,237.155c-13.025,0-13.1,20.247,0,20.247S1909.5,237.155,1896.457,237.155Z" transform="translate(0.004 -1.159)" fill="#9d8167"/>
        <path id="Path_669" data-name="Path 669" d="M65.547,43.517C69.214,24.367,54.3-3.344,32.235.332,14.022,3.364-3.7,26.755.665,45.229a26.342,26.342,0,0,0,24.78,20.247c-1.471,4.4-4.291,10.537-1.41,14.526,2.418,3.364,3.908,1.1,5.641-1.108s2.911-3.244,5.037-2.861a.937.937,0,0,0,0,1.078c7.464,12.148,17.8,22.776,27.641,32.98a289.3,289.3,0,0,0,31.227,28.115,1.078,1.078,0,0,0,1.481-.06,1.007,1.007,0,0,0,1.078-1.229C87.134,109.1,79.68,80.687,67.29,54.094l.161-.081c2.579-1.471,7.092-5.288,4.694-8.683C70.946,43.637,67.934,43.134,65.547,43.517Zm9.3,38.2a24.073,24.073,0,0,0-2.68-.3c.212-2.8.373-6.225-.524-7.293a.322.322,0,0,0-.5,0c-.766.957-.2,3.657-.191,4.865v2.337a31.6,31.6,0,0,1-3.455-.272A78.312,78.312,0,0,1,59.1,79.035c-.292-.081-.584-.131-.876-.212-.071-3.506-.071-7.051-.262-10.557l1.138.242c3.022.685,7.051,2.256,10.073,1.632a.324.324,0,0,0,.151-.574c-1.35-.816-3.092-.856-4.6-1.249-1.823-.473-3.636-1.007-5.47-1.41-.494-.121-1.007-.212-1.451-.312-.121-1.541-.272-3.022-.514-4.573a.524.524,0,0,0-1.007,0c-.111,1.4-.151,2.81-.151,4.221a37.271,37.271,0,0,0-6.769-.484h0c1.169-2.579,3.022-4.029,6.648-4.462,2.176-.292,4.614.111,6.568-1.128,1.8-1.138,1.31-2.1,1.954-3.677.322-.776-.181-.484.212-1.007C68.1,64.227,71.52,72.971,74.845,81.714ZM86.63,113.546a12.894,12.894,0,0,0-2.871-.383c0-1.179.05-2.357.1-3.536a23.007,23.007,0,0,0,.171-3.445C84.908,108.63,85.764,111.088,86.63,113.546Zm-6.2-17.125a29.213,29.213,0,0,0-4.986-.111,22.886,22.886,0,0,1-3.777-.554c.121-3.657.222-7.3.252-10.96,0-.423.05-1.078.111-1.833a20.58,20.58,0,0,0,3.223-.141q2.619,6.83,5.178,13.609ZM49.54,66.887c2.226.3,4.422.635,6.618,1.058.091,3.536.423,7.051.735,10.617A68.226,68.226,0,0,0,46.9,77.01a13.73,13.73,0,0,0-.524-3.566C48.13,71.44,49.55,68.952,49.54,66.887ZM46.962,88.474a42.559,42.559,0,0,0,0-6.85c-.071-1.269,0-2.76-.06-4.231a69.847,69.847,0,0,1,10.073,2.166c.081,1.007.161,2.015.232,2.962.212,3.022.191,6.386.312,9.721-.433-.131-.886-.232-1.32-.363-3.022-.9-5.963-1.964-8.895-2.972ZM45.169,76.9c-.8,0-1.592-.111-2.4-.141a.111.111,0,1,0,0,.222c.826.05,1.642.161,2.458.252.171,1.481.433,3.022.514,4.271.131,2.015.212,4.029.5,6.044-3.022-3.737-6.135-7.4-9.419-10.9a7.233,7.233,0,0,0,5.248.222A9.59,9.59,0,0,0,45.1,74.855a17.789,17.789,0,0,0,.071,2.045Zm3.7,13.931a57.215,57.215,0,0,0,7.4,2.559l1.33.363a38.541,38.541,0,0,0,1.34,9.136c.121.383.705.252.745-.1a37.865,37.865,0,0,0-.111-8.5,17.125,17.125,0,0,0,6.527.675.212.212,0,0,0,0-.4c-1.36-.735-3.1-.826-4.593-1.2-.715-.181-1.42-.393-2.136-.584-.383-3.314-.9-6.638-1.068-9.721-.06-1.007-.091-2.065-.121-3.113.635.191,1.279.363,1.914.574a47.345,47.345,0,0,0,10.8,2.377v2.156c0,3.506-.091,7.051-.191,10.527l-1.692-.393c-.262-.06-.312.353-.05.413.574.141,1.158.252,1.733.383v1.35c0,.453.876.7.9.111V96.18c1.37.292,2.75.574,4.11.907,1.007.242,3.838,1.118,5.127.655q1.34,3.606,2.659,7.223a.232.232,0,0,0-.322.071c-.735,1.189-.312,3.143-.322,4.5s-.05,2.438-.121,3.647c-2.337,0-4.765.191-6.739-.3a52.48,52.48,0,0,1-5.288-1.753c.06-1.148.131-2.307.2-3.455a34.43,34.43,0,0,0,.252-6.789c0-.242-.423-.322-.494-.06a34.49,34.49,0,0,0-.665,6.739c-.071,1.078-.161,2.166-.252,3.244a26.089,26.089,0,0,0-4.261-1.179.423.423,0,0,0-.3.06c-.655-.655-1.32-1.31-1.964-2.015-5.087-5.3-9.711-11.091-14.344-16.843Zm21.647,24h0c.05-.715.091-1.44.141-2.156a37.806,37.806,0,0,0,5.339,1.148c2.015.3,4.029.433,6.044.594l.665.071v.534c-.322,3.294-.625,6.658-.7,9.983C78.088,121.7,74.26,118.321,70.513,114.835Zm-3.868-3.707c1.007.443,2.015.846,3.022,1.189,0,.544-.081,1.088-.121,1.632-.937-.937-1.914-1.874-2.881-2.821Zm27.037,23.924c-3.576-3.092-7.2-6.114-10.8-9.237a69.174,69.174,0,0,0,.8-10.375c0-.262,0-.534,0-.8a13.367,13.367,0,0,0,3.364.151Q90.569,124.838,93.682,135.053ZM69.234,48.845c-1.743,3.193-6.527,2.821-7.787,6.266-.534,1.471.484,1.541-.363,2.236-1.551,1.269-4.674.554-6.517,1.007a9.852,9.852,0,0,0-6.94,6.044l-.151.081c-1.481,1.108-1.169,4.462-1.823,6.155-1.007,2.549-2.841,4.9-5.762,5.188-3.657.373-5.3-3.143-8.945-.494-1.38,1.007-2.146,2.528-3.354,3.687s-1.1,1.42-2.015-1.31c-1.4-4.17,1.974-8.2,1.743-12.42a1.088,1.088,0,0,0-.524-2.015C16.258,61.86,6.729,57.307,3.626,46.347c-2.619-9.3.635-18.142,5.732-26.019C19.723,4.3,41.381-4.412,54.809,13.448A37.664,37.664,0,0,1,61.044,27.9c1.219,5.359.584,11.081,1.853,16.309a1.46,1.46,0,0,0,.121.282,1.39,1.39,0,0,0-.232.9,1.007,1.007,0,0,0,.081.312,1.189,1.189,0,0,0,.947.715C66.081,46.649,71.107,45.431,69.234,48.845Z" transform="translate(0.004 -0.001)" fill="#734b26"/>
        <path id="Path_670" data-name="Path 670" d="M6.8,36.919a6.961,6.961,0,0,0-.071,4.553c.393,1.249,1.31,3.143,2.8,3.264a.484.484,0,0,0,.524-.534c0-.705-.484-1.108-.866-1.642a6.356,6.356,0,0,1-.856-1.632,13.821,13.821,0,0,1-.614-3.9.494.494,0,0,0-.917-.111Z" transform="translate(0.004 -0.001)" fill="#734b26"/>
        <path id="Path_671" data-name="Path 671" d="M58.143,46.448a2.4,2.4,0,0,0-.131.312h0a4.029,4.029,0,0,0-.332.554h0a1.1,1.1,0,0,0-.071.151v-.081h0a3.566,3.566,0,0,0-.3.494l-.1.191-.091.121c-.111.151-.534.907-.242.433a2.686,2.686,0,0,0-.222.363c-.06.131,0,.1,0,.081h0a.785.785,0,0,0,.766,1.37h0a3.828,3.828,0,0,0,.463,0,1.863,1.863,0,0,0,.745-.322,3.163,3.163,0,0,0,1.007-1.32c.3-.735.373-2.418-.584-2.79C58.647,45.793,58.324,46.075,58.143,46.448Z" transform="translate(0.004 -0.001)" fill="#734b26"/>
        <path id="Path_672" data-name="Path 672" d="M57.68,47.344l-.06.1v-.071Z" transform="translate(0.004 -0.001)" fill="#734b26"/>
        <path id="Path_673" data-name="Path 673" d="M58.032,34.582a.282.282,0,0,0-.494.141,8.754,8.754,0,0,0,.554,3.022,20.742,20.742,0,0,1,.141,3.314c.081,1.007,1.662.806,1.582-.212-.091-1.179-.534-2.2-.715-3.354A5.288,5.288,0,0,0,58.032,34.582Z" transform="translate(0.004 -0.001)" fill="#734b26"/>
        <path id="Path_674" data-name="Path 674" d="M81.654,371.926c-.745,1.632,1.7,3.022,2.4,1.4a13.609,13.609,0,0,0,.806-8.6A15.523,15.523,0,0,1,91.8,367.3c1.692,1.158,2.6,1.8,2.579,4.029,0,1.561-.675,2.71-.725,4.231a.3.3,0,0,0,.514.212c2.075-1.9,2.186-5.853.886-8.421,6.044-1.531,12.088-3.375,18.293-4.432,9.721-1.672,16.4-2.4,22.06,7.293a.655.655,0,0,0,1.209-.332c-.544-18.656-34.2-7.847-43.073-4.442-2.639-2.347-7-3.092-10.285-3.193a1.189,1.189,0,0,0-1.138,1.5A11,11,0,0,1,81.654,371.926Z" transform="translate(0.004 -1.747)" fill="#734b26"/>
        <path id="Path_675" data-name="Path 675" d="M68.861,379.491c2.438,2.307,7.857,3.1,11.02,2.77,4.553-.484,9.167-3.385,13.216-5.319.846-.4.252-1.823-.645-1.521C86.671,377.345,81,380.377,74.8,378.6c-4.352-1.249-1.823-3.737.917-5.359,2.105-1.239,4.382-2.015,6.2-3.626a.846.846,0,0,0-.594-1.42C77.564,368.168,63.25,374.162,68.861,379.491Z" transform="translate(0.004 -1.784)" fill="#734b26"/>
        <path id="Path_676" data-name="Path 676" d="M121.585,375.079a3.022,3.022,0,0,1-1.864.554c-1.138,0-1.723,1.743-.6,2.246a2.77,2.77,0,0,0,2.408.252,4.281,4.281,0,0,0,1.672-1.39C123.851,375.734,122.521,374.364,121.585,375.079Z" transform="translate(0.004 -1.79)" fill="#734b26"/>
        <path id="Path_677" data-name="Path 677" d="M125.1,368.864A3.244,3.244,0,0,0,123.972,371c-.4,1.461,1.954,1.874,2.1.282a3.022,3.022,0,0,0-.272-2.236.514.514,0,0,0-.7-.181Z" transform="translate(0.004 -1.761)" fill="#734b26"/>
        <path id="Path_678" data-name="Path 678" d="M46.982,382.6a1.148,1.148,0,0,0-1.622,0,3.022,3.022,0,0,0,0,3.536,3.818,3.818,0,0,0,3.133,1.581c1.007.06,1.2-1.3.494-1.813C47.969,385.162,47.747,383.571,46.982,382.6Z" transform="translate(0.004 -1.831)" fill="#734b26"/>
        <path id="Path_679" data-name="Path 679" d="M48.493,379.068a1.118,1.118,0,1,0,1.012,1.113,1.118,1.118,0,0,0-1.012-1.113Z" transform="translate(0.004 -1.807)" fill="#734b26"/>
        <path id="Path_680" data-name="Path 680" d="M183.2,351.558a1.854,1.854,0,0,0-1.35-1.37c-.927-3.606-4.956-5.661-9.5-7.051-28.92-8.623-60.732-8.844-90.146-1.753-10.809,1.148-21.718,5.3-31.358,9.711-10.668,4.875-23.813,11.413-31.227,20.922-5.107,6.578-4.916,11.212-1.773,14.475,17.125,36.767,63.3,63.089,103.392,54.768C159.309,433.4,193.347,391.72,183.2,351.558ZM48.16,356.393c10.365-5.218,20.952-7.827,31.761-10.768,26.019-5.43,52.724-6.225,78.964-.836,6.628,1.36,21.154,2.468,14.8,13.236-1.7,2.881-5.822,5.238-9.912,7.162,4.946-9.62-9.751-16.752-17.84-17.759-20.57-2.579-43.406,3.123-62.323,10.809-.725.292-.433,1.491.332,1.209,14.3-5.208,80.324-23.6,77.715,6.7-2.1.937-4.029,1.753-5.581,2.478a217.584,217.584,0,0,1-41.9,15.06,234.231,234.231,0,0,1-42.308,6.155c-10.446.665-23.783,2.176-35.055.292,4.009-17.417,21.486-22.05,36.173-27.339.191-.071.171-.373,0-.363-14.818.4-36.727,10.295-38.047,27.309a38.934,38.934,0,0,1-5.52-1.551C5.691,379.41,39.074,360.966,48.16,356.393Zm70.352,80.586c-36.546,6.538-77.665-16.117-96.7-47.7,10.647,5.4,32.164,4.956,39.356,4.845,30.8-.494,61.135-8.512,89.773-19.391,8.522-3.234,22.04-7.474,28.205-15.593-.252,16.228-2.458,31.1-11.766,45.541A73.626,73.626,0,0,1,118.5,436.959Z" transform="translate(0.004 -1.865)" fill="#734b26"/>
        <path id="Path_681" data-name="Path 681" d="M156.63,408.25c-2.015.685-3.274,3.022-4.825,4.462a45.422,45.422,0,0,1-6.386,4.8c-.584.363-.212,1.37.484,1.148a21.527,21.527,0,0,0,7.132-3.707c1.773-1.41,4.583-3.395,4.745-5.832a.907.907,0,0,0-1.148-.876Z" transform="translate(0.004 -1.968)" fill="#734b26"/>
        <path id="Path_682" data-name="Path 682" d="M163.4,398.2c-1.511.635-1.864,2.8-2.9,4.029-1.269,1.461.856,3.6,2.136,2.136,1.108-1.269,3.274-4.331,1.551-5.9a.806.806,0,0,0-.786-.262Z" transform="translate(0.004 -1.91)" fill="#734b26"/>
        <path id="Path_683" data-name="Path 683" d="M402.8,677.267c-5.419-.836-11.081,2.951-14.163,7.172a13.266,13.266,0,0,0-2.3,5.661,22.242,22.242,0,0,0,2.921,17.014c6.477,9.338,21.909,10.315,26.714-1.169C420.137,695.983,414.637,679.1,402.8,677.267Zm10.476,27.1c-4.745,9.338-17.417,8.441-22.554,0a17.769,17.769,0,0,1-1.783-4.029c-.363-3.254-.907-6.427-.141-9.62a16.768,16.768,0,0,1,1.3-3.274,14.264,14.264,0,0,1,9.761-6.729c10.617-1.41,17.628,15.352,13.408,23.662Z" transform="translate(0.004 -3.546)" fill="#734b26"/>
        <path id="Path_684" data-name="Path 684" d="M410.245,700.234a.131.131,0,0,0,.222.091A4.956,4.956,0,0,0,412,697.071c.06-1.007,0-2.72-1.007-3.254a.524.524,0,0,0-.715.191c-.463.876,0,1.9,0,2.861A23.78,23.78,0,0,1,410.245,700.234Z" transform="translate(0.004 -3.546)" fill="#734b26"/>
        <path id="Path_685" data-name="Path 685" d="M407.354,687.139c-.554-.363-1.43-.776-2.015-.353a.383.383,0,0,0-.131.514,3.394,3.394,0,0,0,1.38.9,3.869,3.869,0,0,1,1.37,1.229c.433.645,1.471.06,1.007-.615a5.278,5.278,0,0,0-1.612-1.672Z" transform="translate(0.004 -3.546)" fill="#734b26"/>
        <path id="Path_686" data-name="Path 686" d="M421.376,673.832c-4.029-3.888-8.512-7.354-11.7-11.977-3.888-5.661-4.493-12.249-7.414-18.233-4.563-9.348-14.193-8.522-22.161-4.029a.565.565,0,0,0-.242.252c-6.719,3.717-9.509,11.453-9.489,18.837,0,3.022.645,6.145,0,9.187s-2.216,5.943-3.606,8.764a64.41,64.41,0,0,0-5.137,13.125c-3.364,13.639,1.209,38.279,18.887,38.974a28.033,28.033,0,0,0,6.255,1.8c11.826,1.954,23.692-3.123,33.544-9.217a1.531,1.531,0,0,0,.745-1.078c5.752-4.3,9.066-12.38,9.791-19.028C432.053,690.322,429.122,681.427,421.376,673.832ZM366.2,683.1c2.418-6.266,5.369-11.937,6.044-18.736.433-4.029,0-8.169,1.007-12.148a20.91,20.91,0,0,1,1.924-4.946c-2.78,8.21-.342,18.565-2.176,27.027-2.74,12.632-9.257,24.669-6.427,37.936a23.17,23.17,0,0,0,1.7,5.037c-6.386-9.288-6.386-22.957-2.065-34.169Zm58.687,27.742c-2.015,3.9-4.765,6.245-8.008,8.673-8.723,4.785-17.9,9.539-28.205,8.552-12.088-1.158-20.358-9.882-20.67-22.04-.292-11.423,5.319-22.161,7.233-33.242,1.723-9.963-3.364-25.516,6.205-32.5a.678.678,0,0,0,.081-.081c5.158-2.015,12.36-3.022,16.45,1.4,3.687,4.029,4.654,10.154,6.548,15.11,2.549,6.689,7.112,11.353,12.219,16.188,6.951,6.578,11.524,12.632,11.463,22.685a33.8,33.8,0,0,1-3.3,15.251Z" transform="translate(0.004 -3.546)" fill="#734b26"/>
        <path id="Path_687" data-name="Path 687" d="M282.2,651.933c-5.46-12.964-16.923-19.049-28.86-25.183a2.015,2.015,0,0,0-.4-.131c-3.465-4.221-5.963-9.217-9.318-13.549a45.139,45.139,0,0,0-15.724-13.1c-9.066-4.382-19.391-4.7-26.291,3.566-7.253,8.693-5.832,20.771-.322,29.948,8.824,14.7,26.372,19.6,33.816,35.408,4.936,10.486,10.134,22.252,22.161,26.12a21.083,21.083,0,0,0,24.972-10.033C287.834,674.91,286.5,662.157,282.2,651.933Zm-2.75,24.508c-4.966,20-25.264,15.785-34.612,2.156-4.795-6.991-7.212-15.362-12.41-22.111-4.936-6.417-12.33-9.983-18.323-15.291-9.711-8.593-21.214-29.3-4.714-38.158,12.823-6.88,28.6,7.867,34.7,17.125,2.4,3.657,4.3,6.658,6.971,9.187a1.923,1.923,0,0,0,.1.171c6.1,7.353,15.795,8.985,21.748,17.125,6.225,8.653,9.136,19.361,6.538,29.8Z" transform="translate(0.004 -3.546)" fill="#734b26"/>
        <path id="Path_688" data-name="Path 688" d="M208.225,614.017a2.166,2.166,0,0,0-2.347.1c-1.672,1.4-1.31,5.037-.655,6.85,1.007,2.821,3.586,6.044,6.9,5.9C218.953,626.558,212.637,615.921,208.225,614.017Z" transform="translate(0.004 -3.546)" fill="#734b26"/>
        <path id="Path_689" data-name="Path 689" d="M227.032,615.921A2.579,2.579,0,0,0,229.268,613a8.059,8.059,0,0,0-4.13-6.276c-1.571-.826-4.775-1.582-6.3-.282a2.488,2.488,0,0,0-.534,3.163,11.635,11.635,0,0,0,4.7,4.966C224.11,615.206,225.732,616.082,227.032,615.921Z" transform="translate(0.004 -3.546)" fill="#734b26"/>
        <path id="Path_690" data-name="Path 690" d="M235.423,633.146c.685-2.2-1.39-5.158-2.891-6.578s-5.762-3.677-8-2.77C218,626.468,232.965,641.064,235.423,633.146Z" transform="translate(0.004 -3.546)" fill="#734b26"/>
        <path id="Path_691" data-name="Path 691" d="M237.1,643.915c-1.511-1.38-3.848-3.2-6.044-2.81-4.785.846-2.015,7.162.131,9.207s7.545,5.631,9.167,1.259C241.306,648.992,238.868,645.516,237.1,643.915Z" transform="translate(0.004 -3.546)" fill="#734b26"/>
        <path id="Path_692" data-name="Path 692" d="M250.684,642.8a2.115,2.115,0,0,0,2.438-1.733c.383-2.015-.937-4.593-2.015-6.165-1.279-1.833-5.158-3.888-7.051-1.823C241.648,635.624,248.226,642.424,250.684,642.8Z" transform="translate(0.004 -3.546)" fill="#734b26"/>
        <path id="Path_693" data-name="Path 693" d="M255.861,652.235c-1.843-1.279-5.037-2.458-7.283-2.015-5.6,1.058,2.73,9.489,4.956,10.214,1.843.594,4.6,0,5.43-2.015C259.951,656.194,257.594,653.4,255.861,652.235Z" transform="translate(0.004 -3.546)" fill="#734b26"/>
        <path id="Path_694" data-name="Path 694" d="M265.935,656.405a4.029,4.029,0,0,0,3.838.423,3.022,3.022,0,0,0,1.41-2.105,5.731,5.731,0,0,0-.191-2.579,9.007,9.007,0,0,0-1.42-2.952,7.051,7.051,0,0,0-2.176-1.964c-3.022-1.682-7.243-.635-6.044,3.4A10.073,10.073,0,0,0,265.935,656.405Z" transform="translate(0.004 -3.546)" fill="#734b26"/>
        <path id="Path_695" data-name="Path 695" d="M246.01,667.456a4.926,4.926,0,0,0,.363,3.445,12.421,12.421,0,0,0,3.546,5.107,3.737,3.737,0,0,0,5.48-1.148c1.38-2.287,0-4.775-1.531-6.568S247.229,663.729,246.01,667.456Z" transform="translate(0.004 -3.546)" fill="#734b26"/>
        <path id="Path_696" data-name="Path 696" d="M270.236,664.736a4.513,4.513,0,0,0-6.528,4.634c.544,3.546,3.626,7.253,7.424,7.132a2.216,2.216,0,0,0,2.176-2.176c0-1.007.5-2.015.544-3.1a7.536,7.536,0,0,0-.433-2.851,6.517,6.517,0,0,0-3.183-3.637Z" transform="translate(0.004 -3.546)" fill="#734b26"/>
        <path id="Path_697" data-name="Path 697" d="M264.807,678.939l-.282-.161a2.758,2.758,0,0,0-3.344,4.321l.242.212a2.79,2.79,0,1,0,3.375-4.382Z" transform="translate(0.004 -3.546)" fill="#734b26"/>
        <path id="Path_698" data-name="Path 698" d="M198.212,681.881c1.269-14.012-5.984-24.76-13.659-35.76a2.017,2.017,0,0,0-.292-.3c-1.078-5.349-.937-10.929-1.853-16.339a45.139,45.139,0,0,0-7.726-18.958c-5.913-8.059-14.908-13.266-24.881-9.207-10.486,4.261-14.908,15.593-14.354,26.281.886,17.125,14.1,29.7,13.216,47.153-.564,11.574-1.511,24.408,7.273,33.464a21.084,21.084,0,0,0,26.755,2.911C192.4,704.838,197.2,692.931,198.212,681.881Zm-13.941,20.348c-13.78,15.311-29.716,2.075-31.57-14.354-.947-8.421.846-16.953-.564-25.344-1.35-7.988-6.185-14.606-9-22.111-4.543-12.148-4.966-35.831,13.77-35.891,14.546,0,21.557,20.378,22.574,31.469.4,4.352.675,7.9,1.833,11.383a1.921,1.921,0,0,0,0,.2c1.934,9.358,9.721,15.352,11.131,25.385,1.481,10.446-.987,21.265-8.18,29.253Z" transform="translate(0.004 -3.546)" fill="#734b26"/>
        <path id="Path_699" data-name="Path 699" d="M150.727,613.644a2.166,2.166,0,0,0-2.125-1.007c-2.136.453-3.526,3.838-3.8,5.742-.423,2.962.312,7.051,3.314,8.451C154.313,629.741,153.728,617.4,150.727,613.644Z" transform="translate(0.004 -3.546)" fill="#734b26"/>
        <path id="Path_700" data-name="Path 700" d="M166.431,624.161a2.579,2.579,0,0,0,3.344-1.531,8.059,8.059,0,0,0-.7-7.484c-1.007-1.471-3.475-3.646-5.43-3.2a2.488,2.488,0,0,0-1.964,2.538,11.635,11.635,0,0,0,1.823,6.6C164.195,622.166,165.2,623.7,166.431,624.161Z" transform="translate(0.004 -3.546)" fill="#734b26"/>
        <path id="Path_701" data-name="Path 701" d="M165.746,643.32c1.632-1.612,1.2-5.208.544-7.162s-3.354-5.953-5.762-6.2C153.5,629.228,159.853,649.153,165.746,643.32Z" transform="translate(0.004 -3.546)" fill="#734b26"/>
        <path id="Path_702" data-name="Path 702" d="M162.18,653.615c-.685-1.924-1.894-4.634-4.029-5.329-4.624-1.5-5.168,5.359-4.211,8.19s4.029,8.522,7.495,5.419C163.489,660.072,162.976,655.862,162.18,653.615Z" transform="translate(0.004 -3.546)" fill="#734b26"/>
        <path id="Path_703" data-name="Path 703" d="M174.681,659a2.105,2.105,0,0,0,2.962-.383c1.259-1.561,1.33-4.493,1.1-6.4-.272-2.226-2.72-5.853-5.389-4.926C170.067,648.448,172.686,657.524,174.681,659Z" transform="translate(0.004 -3.546)" fill="#734b26"/>
        <path id="Path_704" data-name="Path 704" d="M174.862,669.793c-1.007-2.015-3.264-4.523-5.47-5.208-5.44-1.692-2.015,9.66-.423,11.343,1.35,1.39,4.09,2.115,5.732.786C176.575,675.182,175.8,671.616,174.862,669.793Z" transform="translate(0.004 -3.546)" fill="#734b26"/>
        <path id="Path_705" data-name="Path 705" d="M181.762,678.184a4.03,4.03,0,0,0,3.183,2.176,3.022,3.022,0,0,0,2.226-1.2,5.732,5.732,0,0,0,1.007-2.367,9.006,9.006,0,0,0,.141-3.274,7.051,7.051,0,0,0-1.007-2.76c-1.843-2.891-6.044-3.959-6.92.171a10.073,10.073,0,0,0,1.37,7.253Z" transform="translate(0.004 -3.546)" fill="#734b26"/>
        <path id="Path_706" data-name="Path 706" d="M158.977,678.577a4.926,4.926,0,0,0-1.3,3.213,12.421,12.421,0,0,0,.725,6.165,3.737,3.737,0,0,0,5.369,1.561c2.3-1.37,2.246-4.221,1.743-6.517C164.97,680.531,161.8,675.867,158.977,678.577Z" transform="translate(0.004 -3.546)" fill="#734b26"/>
        <path id="Path_707" data-name="Path 707" d="M181.631,687.562a4.513,4.513,0,0,0-7.938,1.007c-1.189,3.385-.212,8.059,3.2,9.781a2.216,2.216,0,0,0,2.941-.9c.524-.886,1.41-1.571,1.944-2.478a7.536,7.536,0,0,0,1.007-2.72,6.507,6.507,0,0,0-1.158-4.694Z" transform="translate(0.004 -3.546)" fill="#734b26"/>
        <path id="Path_708" data-name="Path 708" d="M170.158,697.565l-.171-.272A2.773,2.773,0,0,0,165,699.58l.121.3a2.79,2.79,0,1,0,5.037-2.277Z" transform="translate(0.004 -3.546)" fill="#734b26"/>
        <path id="Path_709" data-name="Path 709" d="M102.959,250.825c.1-6.316-6.125-12.088-12.289-9.6a1.32,1.32,0,0,0-.272-.3c-11.494-8.9-13.992-28.87-20.408-41.472-4.281-8.411-10.224-17.789-18.555-22.866,2.921-3.395,4.966-7.575,3.2-12.088-3.506-9.066-15.936-5.933-24.76-1.33-1.592-3.485-6.044-7.313-9.691-4.231-1.763,1.471-1.793,3.828-1.007,5.842a7.313,7.313,0,0,0,2.015,3.344c-8.1,6.044-18.535,16.8-11.121,25.7,2.488,3.022,6.336,3.556,10.486,2.71,1.249,10.154,8.18,19.643,14.757,27.047,9.388,10.567,27.077,20.147,31.227,34.118a1.32,1.32,0,0,0,.191.363c-4.654,4.855-1.521,12.733,4.392,14.929-7.212,7.515.342,20.288,9.167,23.169a1.471,1.471,0,0,0,1.32-.141c9.388-1.531,18.767-6.971,26.09-13.236a48.916,48.916,0,0,0,12.833-13.82,1.471,1.471,0,0,0,.614-1.179C121.736,258.551,112.589,246.856,102.959,250.825ZM22.373,160.568c2.639-1.078,4.211,1.864,5.45,3.687l-1.189.715a.816.816,0,0,0-.917,0c-.826.5-1.753,1.118-2.75,1.813a11.322,11.322,0,0,1-1.32-2.77c-.443-1.169-.755-2.841.715-3.435ZM18.2,193.679c-11.212,0-6.517-11.957-3.113-16.419a53.388,53.388,0,0,1,10.164-9.539,38.9,38.9,0,0,1,11.766-5.037A28.488,28.488,0,0,1,44.6,162c6.407.353,8.462,5.722,5.661,11-4.634,8.744-13.8,9.791-20.288,16.047-3.546,2.448-7.223,4.634-11.786,4.644Zm28.961,36.757c-5.178-4.845-10.345-9.62-14.707-15.231a52.632,52.632,0,0,1-6.336-10.647c5.359-.514,10.476-3.707,15.039-6.336,5.51-3.173,11.554-7.152,15.614-12.088.544-.665-.322-1.582-.957-.957a71.984,71.984,0,0,1-30.472,17.638c-.947-2.206-1.823-4.493-2.7-6.85a40.122,40.122,0,0,0,12.571-6.85c4.886-2.236,9.247-5.943,13.1-9.419.473-.423.947-.866,1.41-1.33,5.188,4.664,9.791,9.167,13.5,15.382s6.205,12.662,8.824,19.25c4.14,10.4,7.051,23.3,16.782,29.988a1.35,1.35,0,0,0,.4.171,1.006,1.006,0,0,0,.081.131c-2.851,3.324-5.147,6.669-9.066,9.177-3.556,2.287-7.585,3.2-11.312,4.906a1.329,1.329,0,0,0,0-.393c-2.649-11.463-13.609-18.877-21.778-26.533Zm20.328,36.123a6.87,6.87,0,0,1,.614-7.051c4.493.816,10.345-3.183,13.861-5.671s7.746-6.386,9.348-10.7a6.85,6.85,0,0,1,7.051,1.9c1.874,2.015,2.226,4.654,2.639,7.233a.907.907,0,0,0,.292.544,59.161,59.161,0,0,1-12.491,11.937c-4.855,3.334-10.295,4.523-15.271,7.223a.947.947,0,0,0-.322-.322C71,270.327,68.649,269.037,67.491,266.559Zm29.082,19.633c-4.734,2.579-9.66,4.755-14.888,7a1.763,1.763,0,0,0-.484-.3,15.191,15.191,0,0,1-8.794-8.9c-1.481-3.969-.222-6.739,1.179-10.194h.06c5.893-.614,11.927-4.795,16.681-8.119a57.418,57.418,0,0,0,12.823-12.279c3.586,0,6.548-.131,9.61,2.619a15.191,15.191,0,0,1,5.037,11.433,1.763,1.763,0,0,0,.1.554c-6.789,6.92-13.075,13.045-21.345,18.192Z" transform="translate(0.004 -0.922)" fill="#734b26"/>
        <path id="Path_710" data-name="Path 710" d="M20.267,187.363c-1.068,0-2.216.735-3.294.312a2.069,2.069,0,0,1-1.007-2.9c.826-1.128-1.239-2.377-1.894-1.108a5.691,5.691,0,0,0-.917,3.425,4.362,4.362,0,0,0,1.954,3.294,4.906,4.906,0,0,0,3.657.614c1.158-.3,2.518-1.3,2.4-2.629a.937.937,0,0,0-.9-1.007Z" transform="translate(0.004 -0.88)" fill="#734b26"/>
        <path id="Path_711" data-name="Path 711" d="M38.712,213.725a25.323,25.323,0,0,1-3.123-3.606.736.736,0,0,0-1.269.745A17.619,17.619,0,0,0,37.14,215.3c.947,1.007,2.246,2.508,3.8,2.256a.635.635,0,0,0,.433-.755C41.149,215.5,39.6,214.561,38.712,213.725Z" transform="translate(0.004 -1.008)" fill="#734b26"/>
        <path id="Path_712" data-name="Path 712" d="M46.911,221.149c.111-1.481-2.478-1.108-1.954.262a2.438,2.438,0,0,0,1.612,1.612c.453.141.957-.443.655-.846a1.39,1.39,0,0,1-.312-1.027Z" transform="translate(0.004 -1.051)" fill="#734b26"/>
        <path id="Path_713" data-name="Path 713" d="M77.987,278.738a1.014,1.014,0,0,0-1.954-.544c-.846,2.8-.665,7.928,2.76,8.9a.6.6,0,0,0,.735-.735,24.982,24.982,0,0,0-1.38-3.455,7.384,7.384,0,0,1-.161-4.17Z" transform="translate(0.004 -1.336)" fill="#734b26"/>
        <path id="Path_714" data-name="Path 714" d="M1150.964,655.71c-4.12.181-8.159,1.33-12.31,1.007-4.644-.383-8.562-2.428-12.269-5.037-5.117-3.636-9.65-7.293-16.117-7.656-7.575-.423-15.664,1.8-23.048,3.234-8.452,1.642-17.125,3.3-25.274,6.266a12.574,12.574,0,0,0-3.868.9,16.259,16.259,0,0,0-9.62,13.448,20.62,20.62,0,0,0,1.753,10.073c1.793,4.13,7.7,8.9,7.525,13.408-4.724,10.516-6.044,24.871-5.52,36.264a1.007,1.007,0,0,0,.071.816.836.836,0,0,0,.816.665c15.049,10.678,36.073,12.864,53.852,11.7a1.289,1.289,0,0,0,.886-.423c14.818-6.215,29.8-12.148,44.413-18.938a1.42,1.42,0,0,0,2.015-1.289c-.211-10.285-1.007-20.459,5.46-28.981,3.667-4.835,7.132-9.328,8.059-15.523C1169.438,664.837,1162.155,655.217,1150.964,655.71Zm-72.528,79.952c-8.653-1.793-16.218-5.3-24.438-8.18.443-6.729.695-13.418,1.753-20.147.8-5.037,2.266-9.9,3.022-14.9a.705.705,0,0,0,.464-.5c1.35-5.51-3.929-8.985-6.225-13.488-5.158-10.073.3-26.594,14.1-22.071,8.059,2.639,11.081,10.2,17.054,15.311,4.029,3.435,9.247,4.966,14.455,5.248,8,.433,19.885-4.785,24.428,4.573,4.281,8.814-3.435,16.52-9.731,21.577-4.573,3.677-5.883,7.212-6.679,13-1.007,7.323-1.622,14.727-.342,22.04a110.2,110.2,0,0,1-27.842-2.468Zm81.382-49.923c-3.324,4.513-6.739,7.686-7.615,13.468-1.007,6.417-.705,13.246-.856,19.774-14.576,5.973-28.608,13.015-42.61,20.147a1.288,1.288,0,0,0,0-.484,74.015,74.015,0,0,1-.121-17.92c.473-4.755,1.007-8.522,3.022-11.907a.222.222,0,0,0,.282.081c6.044-3.022,12.753-5.278,18.555-8.723a.252.252,0,0,0-.191-.463c-6.376,1.934-12.481,5.641-18.394,8.693a18.644,18.644,0,0,1,4.18-4.462c4.886-3.858,9.681-8.593,10.627-15.06.755-5.127-1.148-10.94-5.812-13.6-7.051-4.029-16.49.4-24.045-.4a20.792,20.792,0,0,1-14.022-7.213c-3.072-3.526-5.45-7.283-9.287-10.073a21.688,21.688,0,0,0-7.162-3.606c13.176-2.518,26.191-6.457,39.588-7.545,13.629-1.108,20.519,12.4,33.685,12.9,7.837.3,16.651-3.888,22.292,3.808,5.268,7.061,2.76,16.006-2.1,22.584Z" transform="translate(0.004 -3.546)" fill="#734b26"/>
        <path id="Path_715" data-name="Path 715" d="M1152.132,690.755c-1.813-.121-3.7,1.007-5.319,1.723-2.146,1.007-4.191,2.1-6.376,3.022-.383.161-.111.836.292.685,2.216-.866,4.463-1.511,6.679-2.307,1.692-.6,3.767-1.118,5.037-2.488a.383.383,0,0,0-.312-.635Z" transform="translate(0.004 -3.546)" fill="#734b26"/>
        <path id="Path_716" data-name="Path 716" d="M1063.4,658.793c-2.549-2.075-6.407,2.871-7.837,4.684-2.186,2.77-3.213,7.807-.665,10.637a.675.675,0,0,0-.363.836,7.364,7.364,0,0,0,1.763,3.757.232.232,0,0,0,.373-.1,7.264,7.264,0,0,0-.665-4.029.736.736,0,0,0-.473-.473.383.383,0,0,0,.1-.363c-.957-3.244-1.6-5.883.222-9.066a11.443,11.443,0,0,1,7.323-5.087.484.484,0,0,0,.222-.8Z" transform="translate(0.004 -3.546)" fill="#734b26"/>
        <path id="Path_717" data-name="Path 717" d="M1056.829,679.2a.211.211,0,1,0,.212.211.211.211,0,0,0-.212-.211Z" transform="translate(0.004 -3.546)" fill="#734b26"/>
        <path id="Path_718" data-name="Path 718" d="M1057.695,681.7a2.759,2.759,0,0,0,1.138.927.211.211,0,0,0,.262-.2,2.74,2.74,0,0,0-.655-1.3.473.473,0,1,0-.745.574Z" transform="translate(0.004 -3.546)" fill="#734b26"/>
        <path id="Path_719" data-name="Path 719" d="M1061.362,688.328a.242.242,0,0,0,.373,0c.4-.907-.091-2.146-.453-3.022a5.4,5.4,0,0,0-2.015-2.579.081.081,0,0,0-.111.081c.393,1.007.907,1.954,1.269,2.962a8.923,8.923,0,0,0,.937,2.559Z" transform="translate(0.004 -3.546)" fill="#734b26"/>
        <path id="Path_720" data-name="Path 720" d="M1061.291,689.073a4.028,4.028,0,0,0,.292,1.1c.091.171.322.071.332-.091a4.121,4.121,0,0,0-.161-1.128C1061.724,688.64,1061.231,688.771,1061.291,689.073Z" transform="translate(0.004 -3.546)" fill="#734b26"/>
        <path id="Path_721" data-name="Path 721" d="M1061.1,693.153a.091.091,0,1,0-.091-.091A.091.091,0,0,0,1061.1,693.153Z" transform="translate(0.004 -3.546)" fill="#734b26"/>
        <path id="Path_722" data-name="Path 722" d="M1058.259,723.423a149.609,149.609,0,0,1,2.629-28.387c.05-.282-.363-.4-.433-.121a102.531,102.531,0,0,0-3.163,28.306,1.169,1.169,0,0,0-.564,2.156c2.841,1.712,6.467-.645,9.066,1.662a.556.556,0,1,0,.786-.786C1064.605,724.088,1061.049,724.108,1058.259,723.423Z" transform="translate(0.004 -3.546)" fill="#734b26"/>
        <path id="Path_723" data-name="Path 723" d="M1069.39,661.21a2.014,2.014,0,0,0-1.169-2.015,3.223,3.223,0,0,0-2.639-.151c-.876.343-.484,1.773.393,1.42a1.954,1.954,0,0,1,1.592,0,11.084,11.084,0,0,1,1.35.866.312.312,0,0,0,.473-.121Z" transform="translate(0.004 -3.546)" fill="#734b26"/>
        <path id="Path_724" data-name="Path 724" d="M1089.1,681.548c9.549,3.022,31.006-8.059,28.517,9.741,0,.181.191.383.353.2,5.53-6.336-2.891-11.735-8.8-11.907-7.172-.2-15.513,3.455-22.061-.766-6.1-3.939-10.6-11.353-15.11-16.9-.584-.725-1.591.3-1.007,1.007C1075.827,669.037,1081.226,679.02,1089.1,681.548Z" transform="translate(0.004 -3.546)" fill="#734b26"/>
        <path id="Path_725" data-name="Path 725" d="M1111.365,697.494a3.02,3.02,0,0,0-.786.8.242.242,0,0,0,.272.353,3.019,3.019,0,0,0,1.007-.534.394.394,0,1,0-.494-.614Z" transform="translate(0.004 -3.546)" fill="#734b26"/>
        <path id="Path_726" data-name="Path 726" d="M1109.069,699.3a46.61,46.61,0,0,0-7.122,27.027.5.5,0,0,0,1.007,0,68.278,68.278,0,0,1,7.3-26.362.681.681,0,0,0-1.189-.665Z" transform="translate(0.004 -3.546)" fill="#734b26"/>
        <path id="Path_727" data-name="Path 727" d="M1103.075,731.169a6.882,6.882,0,0,0-.524-2.176.383.383,0,0,0-.725,0,6.552,6.552,0,0,0-.3,2.176l.05,2.448a.939.939,0,0,0,.05.2c-6.266-.776-12.954-.836-18.988-2.579-4.795-1.38-9.066-3.959-14.1-4.231a.227.227,0,0,0-.061.443c5.8,1.874,11.232,4.483,17.215,5.752a150.66,150.66,0,0,0,16.762,2.307c.776.07.937-.776.564-1.269a.777.777,0,0,0,.282-.614Z" transform="translate(0.004 -3.546)" fill="#734b26"/>
        <path id="Path_728" data-name="Path 728" d="M1101.735,689.285a2.71,2.71,0,0,0,0,2.448,2.4,2.4,0,0,0,1.45,1.118,2.7,2.7,0,0,0,1.864-.242,3.022,3.022,0,0,0,1.007-.8,1.914,1.914,0,0,0,0-2.589,3.022,3.022,0,0,0-1.007-.8C1104.032,687.895,1102.279,688.005,1101.735,689.285Z" transform="translate(0.004 -3.546)" fill="#734b26"/>
        <path id="Path_729" data-name="Path 729" d="M1088.832,692.629a1.723,1.723,0,1,0-1.723-1.723A1.722,1.722,0,0,0,1088.832,692.629Z" transform="translate(0.004 -3.546)" fill="#734b26"/>
        <path id="Path_730" data-name="Path 730" d="M1092.438,702.108a1.576,1.576,0,1,0-1.576-1.576A1.576,1.576,0,0,0,1092.438,702.108Z" transform="translate(0.004 -3.546)" fill="#734b26"/>
        <path id="Path_731" data-name="Path 731" d="M1096.578,710.308a1.511,1.511,0,1,0,2.075.544A1.541,1.541,0,0,0,1096.578,710.308Z" transform="translate(0.004 -3.546)" fill="#734b26"/>
        <path id="Path_732" data-name="Path 732" d="M1755.129,696.608a25.869,25.869,0,0,0,6.3-16.651,18.042,18.042,0,0,0-2.73-10.013,11.845,11.845,0,0,0-8.613-5.4,14.677,14.677,0,0,0-6.81,1.35c-7.928,3.334-14.3,10.355-22.786,11.8-3.9.665-7.887.07-11.786-.625s-7.827-1.481-11.766-1.189-7.988,1.813-10.4,4.946-2.659,8.059.121,10.869c.876-.312.776-1.561.7-2.488-.343-3.9,2.931-7.384,6.648-8.6s7.756-.725,11.625-.171a17.679,17.679,0,0,0,34.4-1.128c-1.552.252-2.5,1.793-3.365,3.113-3.344,5.1-8.935,9.066-15.039,9.066s-12.259-4.644-12.672-10.728a31.277,31.277,0,0,0,20.439-2.186,62.088,62.088,0,0,0,10.073-6.517,23.009,23.009,0,0,1-.2,6.789,5.258,5.258,0,0,0,1.239-3.939,6.167,6.167,0,0,1-.121-2.6,3.737,3.737,0,0,1,2.307-1.914c2.639-1.118,5.6-2.015,8.361-1.179,4.432,1.259,6.769,6.457,6.336,11.081-1.531,16.45-20.016,27.349-34.833,29.605a34.763,34.763,0,0,1-34.41-15.654c-.322-.494-1.159,0-.876.564,6.527,12.088,18.414,18.192,32.043,18.827,6.83.312,12.874-1.43,18.978-4.432S1750.737,701.977,1755.129,696.608Z" transform="translate(0.004 -3.546)" fill="#734b26"/>
        <path id="Path_733" data-name="Path 733" d="M1815.921,674.306a25.869,25.869,0,0,0-8.774-15.513,18.041,18.041,0,0,0-9.428-4.331,11.857,11.857,0,0,0-9.67,3.143,14.677,14.677,0,0,0-3.334,6.044c-2.538,8.22-1.239,17.608-5.571,25.042-2.015,3.415-5.037,6.044-8.059,8.633s-6.155,5.037-8.462,8.26-3.737,7.283-2.881,11.141,4.472,7.212,8.411,6.88c.322-.876-.695-1.592-1.461-2.125-3.213-2.236-3.777-6.981-2.327-10.617s4.422-6.407,7.333-9.066a17.679,17.679,0,0,0,21.214-27.1c-.806,1.36-.222,3.022.232,4.573,1.763,5.832,1.189,12.652-2.7,17.356s-11.423,6.417-16.359,2.831a31.288,31.288,0,0,0,11.443-17.074,62.073,62.073,0,0,0,1.481-11.917,22.994,22.994,0,0,1,5.036,4.513,5.258,5.258,0,0,0-2.226-3.475,6.155,6.155,0,0,1-2.065-1.581,3.738,3.738,0,0,1,0-3.022c.836-2.74,2.085-5.55,4.463-7.162,3.818-2.589,9.3-1.007,12.541,2.226,11.625,11.735,8.119,32.9.342,45.723a34.763,34.763,0,0,1-34.088,16.339c-.584-.071-.705.917-.131,1.007,13.468,2.77,25.777-2.438,35-12.481,4.624-5.037,7.162-10.789,8.784-17.4S1817.221,681.125,1815.921,674.306Z" transform="translate(0.004 -3.546)" fill="#734b26"/>
        <path id="Path_734" data-name="Path 734" d="M1652.14,590.849c.1.353.242.685.353,1.007a1.148,1.148,0,0,0-1.36.635,18.042,18.042,0,0,0,.061,11.977c1.571,4.795,5.5,7.777,7.454,12.279a1.289,1.289,0,0,0,2.4-.594c-.463-8.26-.7-20.308-7.777-25.949C1652.8,589.841,1651.928,590.133,1652.14,590.849Zm5.651,20.076a26.438,26.438,0,0,1-3.576-5.419c-1.763-3.959-1.612-7.867-1.179-12.028a79.541,79.541,0,0,1,3.374,9.7C1656.995,605.727,1657.418,608.326,1657.791,610.925Z" transform="translate(0.004 -2.911)" fill="#734b26"/>
        <path id="Path_735" data-name="Path 735" d="M1524.531,737.153a18.826,18.826,0,0,0,5.963-5.641,1.37,1.37,0,0,0,.816,0v.091a.232.232,0,0,0,.463,0v-.393l.091-.06c.917-.917,1.843-1.813,2.77-2.72,0,3.566.191,7.152.211,10.738a39.285,39.285,0,0,0-2.74-3.677.806.806,0,0,0-1.35.343c-.816,3.707,1.793,7.424,4.483,9.711a1.944,1.944,0,0,0,3.294-1.31c.363-6.044.685-12.712-1.007-18.625q3.616-3.465,7.283-6.85c-.4,5.913,2.488,12.5,6.044,16.631,1.118,1.31,2.921.171,3.093-1.229.886-7.142.6-14.888-2.357-21.577q4.966-4.493,9.973-8.965a9.877,9.877,0,0,0,.081,1.289,22.808,22.808,0,0,0,5.037,10.607,1.3,1.3,0,0,0,2.166-.554,36.177,36.177,0,0,0,.1-9.066,31.453,31.453,0,0,0-1.38-7.686q2.417-2.186,4.825-4.392c-1.088,6.729,1.692,14.5,4.483,20.147.776,1.561,2.841.715,3.022-.745.876-7.636,3.767-18.847-.3-26.19q4.231-4.221,8.26-8.623a15.53,15.53,0,0,0,.957,3.767c.755,1.8,1.884,3.294,1.944,5.339a1.864,1.864,0,0,0,3.647.524c1.662-5.117,2.015-11.594-.322-16.631q1.219-1.41,2.418-2.831v.322h0a16.118,16.118,0,0,0,.917,8.764c2.085,5.168,6.044,9.187,9.69,13.246a1.531,1.531,0,0,0,2.609-1.007c-.091-9.58-2.528-19.492-8.159-27.369q4.16-5.1,8.22-10.275c0,4.372,5.5,8.834,7.192,12.189a1.078,1.078,0,0,0,2.015-.494,26.08,26.08,0,0,0-5.318-16.641l3.646-4.7v.181c.645,5.9,6.437,10.688,11.081,13.559a1.491,1.491,0,0,0,2.176-1.622c-2.015-6.044-3.445-13.8-8.512-18.132l-.1-.06q3.576-4.724,7.051-9.539c.3,5.4,6.467,8.935,11.081,11.282a1.541,1.541,0,0,0,1.874-2.387c-3.546-4.543-4.14-10.909-9.419-13.881,2.871-4.09,5.671-8.24,8.351-12.451,1.5,4.029,6.628,7.817,9.3,9.64a1.541,1.541,0,0,0,2.3-1.3c-.06-5.611-2.256-12.41-7.122-15.674a174.03,174.03,0,0,0,17.517-39.286.93.93,0,0,0-1.793-.494,160.16,160.16,0,0,1-16.52,36.264h-.1l-.766.272c-6.9-4.291-18.071-5.943-24.478,0a1.491,1.491,0,0,0,1.007,2.539c2.569-.111,5.037,1.682,7.6,2.246a28,28,0,0,0,6.447.685,23.6,23.6,0,0,0,7.434-1.2q-4.392,6.9-9.227,13.549a1.424,1.424,0,0,0-.171-.1c-6.1-2.337-14.1-2.387-19.8,1.078-1.189.715-.866,2.841.685,2.77,1.924-.091,4.029,1.007,5.923,1.36a25.894,25.894,0,0,0,2.811.433,22.772,22.772,0,0,0-5.419,5.822l-.755.252a1.655,1.655,0,0,0,.8,3.213,20.643,20.643,0,0,0,6.679-2.569q-2.569,3.294-5.188,6.558c-5.309-2.105-10.99-1.189-16.349,1.078-1.078.453-.353,2.115.725,1.864,3.606-.846,10.315-3.767,13.77-1.43a4.159,4.159,0,0,1,.393.322l-.856,1.007h0a8.481,8.481,0,0,1-4.2,1.189,24.285,24.285,0,0,1-8.059-1.33.443.443,0,0,0-.342.806c2.952,1.582,6.044,3.395,9.529,3.173l-5.389,6.608c-2.236-.332-4.674-1.249-6.669-1.2a8.391,8.391,0,0,0-6.89,3.2,1.33,1.33,0,0,0,.473,1.813c2.518,1.3,4.775,2.569,7.585,2.891q-3.677,4.473-7.434,8.864a22.584,22.584,0,0,0-10.073-2.528c-3.536-.081-8.169.413-10.98,2.73a1.461,1.461,0,0,0,.272,2.287,25.3,25.3,0,0,0,12.682,3.747,19.685,19.685,0,0,0,2.77-.191q-2.015,2.307-4.16,4.583a1.128,1.128,0,0,0-.514-.9,12.461,12.461,0,0,0-9.066-1.682c-2.438.433-6.608,1.793-7.3,4.462a.876.876,0,0,0,.876,1.1h.222c1.32-.171,3.092.705,4.432.876a17.958,17.958,0,0,0,4.261,0,14.021,14.021,0,0,0,4.452-1.068c-3.717,3.929-7.535,7.756-11.494,11.443a1.084,1.084,0,0,0-.181,0,.816.816,0,0,0-.473-.786c-4.392-2.115-8.653-4.331-13.629-4.714-4.16-.322-7.988.856-11.806,2.4a1.471,1.471,0,0,0,0,2.528c4.674,2.881,10.335,4.362,15.724,5.137a25.627,25.627,0,0,0,5.037.3c-1.924,1.672-3.929,3.314-5.974,4.966a1.711,1.711,0,0,0-.383-.2c-5.238-1.662-13.639-1.481-17.588,3.022a1.793,1.793,0,0,0,0,2.458c2.075,2.639,6.044,2.015,9.066,1.843h.121c-2.337,1.9-4.644,3.848-6.86,5.863-3.375-.373-6.668-1.491-10.144-1.118a19.028,19.028,0,0,0-10.366,4.865,1.39,1.39,0,0,0,.262,2.186,19.331,19.331,0,0,0,12.6,1.833,59.733,59.733,0,0,0-3.727,4.795,19.523,19.523,0,0,0-10.073,3.959c-2.1,1.591-5.581,4.684-4.12,7.716C1519.293,739.107,1522.547,738.372,1524.531,737.153Zm26.513-8.522a22.168,22.168,0,0,1-2.085-5.943,61.5,61.5,0,0,1-.544-7.223l.886-.806a46.836,46.836,0,0,1,1.743,13.972Zm14.868-22.292c.091,1.259.141,2.528.181,3.788a24.984,24.984,0,0,1-1.561-4.241,6.477,6.477,0,0,1,.121-4.422c.171-.393.342-.685.5-1.007.232,1.985.6,3.939.756,5.883Zm12.088-6.87c-.121,2.508-.373,5.037-.645,7.5-2.015-5.087-3.586-10.95-2.166-15.775l1.561-1.491a29.214,29.214,0,0,1,1.239,9.751Zm14.1-18.424c-.121-.181-.222-.373-.343-.544-.937-1.37-1.884-2.428-1.843-4.19a2.415,2.415,0,0,1,.051-.292l1.662-1.874a29.994,29.994,0,0,1,.433,6.89Zm14.213,4.362c-4.835-5.873-7.807-12.209-7.051-20.147l.423-.514a64.514,64.514,0,0,1,6.578,20.65Zm10.073-24.559c-.755-.886-1.471-1.813-2.216-2.7-1.581-1.894-4.029-4.17-3.868-6.689l1.007-1.229.574-.745a31.328,31.328,0,0,1,4.493,11.322Zm3.838-21.708c2.81,3.224,4.382,7.283,5.772,11.373-3.636-3.233-7.323-7.474-5.782-11.373Zm16.7-6.477a14.8,14.8,0,0,1-6.044-8.462l.353-.5c3.052,2.075,4.291,5.581,5.671,8.955Zm12.2-17.981a15.239,15.239,0,0,1-4.442-4.664,19.277,19.277,0,0,1-1.511-4.251c.393-.645.8-1.289,1.189-1.934,2.236,3.657,4.09,6.8,4.755,10.839Zm-26-14.314a20.046,20.046,0,0,1,9.439-2.015,31.294,31.294,0,0,1,7.948,1.783,19.593,19.593,0,0,1-6.759,1.743C1631.107,602.04,1626.161,601.939,1623.129,600.368Zm6.346,18.545c-.373.141-.745.312-1.2.494a12.865,12.865,0,0,1-4.906.826,25.557,25.557,0,0,1-6.044-.786,28.829,28.829,0,0,1,12.148-.5Zm-6.709,5.037a24.721,24.721,0,0,1,3.606-1.642l.554-.081a33.593,33.593,0,0,1-7.907,5.037,15.816,15.816,0,0,1,3.788-3.324Zm-18,27.2h.574l-.061.07h-.131a14.778,14.778,0,0,1-6.044,0,16.483,16.483,0,0,1,5.672-.04ZM1578.323,666.5a27.818,27.818,0,0,1,5.822-.917,29.638,29.638,0,0,1,7.737,1.007,8.936,8.936,0,0,1-.786.453,13.246,13.246,0,0,1-6.245,1.068,16.362,16.362,0,0,1-6.528-1.592Zm-7.394,11.03a19.7,19.7,0,0,1,4.331-1.833,15.563,15.563,0,0,1,6.457.262,36.563,36.563,0,0,1-4.221,1.471c-1.552.322-4.543.735-6.568.121Zm-12.874,12.148c-3.022-.614-5.853-1.541-8.744-2.428,5.681-1.662,12.833.755,18.344,2.629a17.375,17.375,0,0,1-2.176.433,23.766,23.766,0,0,1-7.424-.615Zm-6.769,13.438a26.982,26.982,0,0,1-4.422.312,16.283,16.283,0,0,1,3.083-1.1,22.606,22.606,0,0,1,6.155-.473l-.161.131C1554.308,702.168,1552.767,702.884,1551.286,703.115Zm-24.468,13.438c4.18-2.911,8.482-2.7,13.669-2.015-4.694,2.115-8.693,3.576-13.71,1.994Zm-4.624,16.611c.7-2.226,3.183-3.636,5.792-4.785-.5.494-1.007,1.058-1.551,1.7a24.835,24.835,0,0,1-2.347,2.246c-.484.4-2.5,2.629-1.934.816Z" transform="translate(0.004 -3.546)" fill="#734b26"/>
        <path id="Path_736" data-name="Path 736" d="M1434.375,668.544c-2.287-1.8-4.744-3.576-7.656-3.888,0-1.32,0-2.609-.07-3.848a1.083,1.083,0,0,0,0-.292c-.252-1.642-2.881-2.236-4.17-2.941-1.471-.806-2.891-2.015-4.442-2.73a1.007,1.007,0,0,0-1.572-.111h0a1.16,1.16,0,0,0-.3.413c-4.362,5.6-5.742,12.007-6.356,19.059,0,.393-.06.776-.091,1.168-8.794,4.926-15.573,12.481-18.041,22.494a29.047,29.047,0,0,0-.665,3.808c-3.818,1.582-6.316,4.916-8.058,8.693l-.141.332h-.121a15.11,15.11,0,0,0-9.59,4.875c-3.022,3.022-4.16,6.487-5.732,10.355a1.007,1.007,0,0,0,.484,1.189c3.092,1.843,5.893,4.029,8.885,6.044a1.109,1.109,0,0,0,.212.091,21.271,21.271,0,0,0,1.108,2.2,14.991,14.991,0,0,0,1.612,1.864,17.284,17.284,0,0,0,3.788,3.334,1.451,1.451,0,0,0,2.186-1.1.524.524,0,0,0,.373-.1c6.638-4.815,8.693-12.3,8.653-20.006,3.022-1.7,5.691-4.382,8.21-6.709,2.085-1.924,4.342-3.808,5.3-6.527,8.25-3.455,12.995-10.839,15.6-19.31a47.076,47.076,0,0,0,6.5-6.125c1.823-2.085,5.893-5.2,6.558-8.059C1437.337,670.619,1435.806,669.672,1434.375,668.544ZM1372.6,727.049c-1.31-.725-2.68-.755-2.347-2.5.131-.675,1.672-2.085,2.246-2.78,2.77-3.415,6.125-6.044,9.439-8.824a93.579,93.579,0,0,0-4.754,17.125,30.91,30.91,0,0,0-4.583-3.032Zm12.763,11.171h0a44.093,44.093,0,0,0-3.415-3.153c-.937-.886-1.934-1.682-2.881-2.539,3.777-9.368,3.858-20.781,11.776-27.621a52.488,52.488,0,0,0,.473,7.3c1.31,10.385-.937,16.933-5.953,26Zm15.694-28.205c-2.085,1.914-4.392,3.687-6.507,5.6a3.194,3.194,0,0,0-.071-.816c-1.581-15.5,2.76-27.571,15.06-37.14-.705,9.066-1.209,17.719-3.788,26.614-.393.574-.534,1.269-1.007,2.015a21.078,21.078,0,0,1-3.687,3.747Zm7.706-7.051c2.125-5.43,2.508-11.393,2.76-17.215.453-10.174,1.007-19.25,5.863-28.276a22.677,22.677,0,0,0,3.687,2.508,14.4,14.4,0,0,0,3.3,1.712c-1.491,16.43-2.488,30.754-15.6,41.3Zm23.793-28.054c-2.216,3.5-4.453,6.5-7.817,8.633a78.51,78.51,0,0,0,2.015-16.409c1.259.715,2.609,1.279,3.878,2.015.806.443,3.284,1.541,3.566,2.488S1432.955,674.275,1432.552,674.91Z" transform="translate(0.004 -3.546)" fill="#734b26"/>
        <path id="Path_737" data-name="Path 737" d="M1888.157,554.2c-8.341-2.488-14.344-9.469-22.826-11.635-5.873-1.5-12.481-1.158-17.729,1.954a47.68,47.68,0,0,0-10.728.212,25.249,25.249,0,0,0,.7-4.17c.262-3.949-1.712-6.276-5.258-7.625a1.31,1.31,0,0,0-1.682.554h-.061c-2.538,2.085-4.342,4.926-7.273,6.588-4.463,2.528-9.771,2.277-14.677,2.72a72.052,72.052,0,0,0-15.019,2.619c-9.62,3.022-18.313,8.462-23.914,16.974-6.135,9.338-5.671,19.2-4.029,29.777.856,5.47.463,20.388,6.668,23.672a.907.907,0,0,0,.655,1.148c21.829,4.382,48.785-4.946,62.132-23.038,6.769-9.177,6.779-21.8,4.553-32.557-.635-3.082-2.015-5.792-2.861-8.774a12.371,12.371,0,0,1-.383-5.712c3.233.242,6.417.423,9.6.705-.211,19.975,32.235,17.336,42.61,8.371a1.108,1.108,0,0,0-.484-1.783Zm-51.615,9.278c2.236,11.856,1.35,23.461-7.2,32.587-14.536,15.523-34.592,20.771-55.01,19.139-5.107-3.2-5.611-12.743-6.5-18.132s-.524-11.151-.131-16.641c.826-11.594,6.588-20.771,16.379-27.017,14.586-9.308,35.176-4.3,46.851-17.7a1.712,1.712,0,0,0,.514.3c4.805,1.763.423,10.537,1.007,14.183C1833.156,554.786,1835.675,558.916,1836.541,563.479Zm12.088-15.543a64.481,64.481,0,0,1,6.658,1.1c5.258,1.179,10.376,3.3,15.755,3.677a.745.745,0,0,0,.373-1.38,59.432,59.432,0,0,0-19.351-6.266c6.83-.917,12.9-.614,19.663,3.254,4.553,2.6,8.452,5.581,13.287,7.273-12.269,6.406-31.671,8.512-36.344-7.605Z" transform="translate(0.004 -2.859)" fill="#734b26"/>
        <path id="Path_738" data-name="Path 738" d="M1809.746,555.2a2.74,2.74,0,1,0-2.74,2.74,2.79,2.79,0,0,0,2.74-2.74Z" transform="translate(0.004 -2.645)" fill="#734b26"/>
        <path id="Path_739" data-name="Path 739" d="M1797.628,552.58h-.282a2.045,2.045,0,1,0,0,4.09h.282a2.055,2.055,0,0,0,0-4.11Z" transform="translate(0.004 -2.641)" fill="#734b26"/>
        <path id="Path_740" data-name="Path 740" d="M1790.426,566.451v.121a2.015,2.015,0,0,0,1.441,1.894l.141.05c1.944.735,3.425-1.9,2.256-3.365a2.156,2.156,0,0,0-3.838,1.3Z" transform="translate(0.004 -2.698)" fill="#734b26"/>
        <path id="Path_741" data-name="Path 741" d="M1816.727,600.267c-1.43-.141-2.831,1.511-4.029,2.2s-3.153,1.108-3.888,2.458a.715.715,0,0,0,.423,1.007c1.551.655,3.586-.766,4.865-1.561s3.284-1.864,3.254-3.475a.665.665,0,0,0-.625-.624Z" transform="translate(0.004 -3.546)" fill="#734b26"/>
        <path id="Path_742" data-name="Path 742" d="M1818.6,598.283a.856.856,0,1,0,1.35,1.007c.3-.443.927-1.289.3-1.763S1818.973,597.87,1818.6,598.283Z" transform="translate(0.004 -3.546)" fill="#734b26"/>
        <path id="Path_743" data-name="Path 743" d="M1746.808,360.17c4.09,3.284,10.446,1.531,14.052-1.642,4.352-3.838,7.172-11.03,6.991-16.792-.111-3.707-2.015-7.444-5.56-8.8-2.518-.957-6.447-.635-8.653,1.34a15.412,15.412,0,0,0-9.439,9C1742.124,348.173,1742.336,356.594,1746.808,360.17Zm.695-12.521c.353-3.334,2.972-7.525,6.185-9.932,2.71.1,5.4-2.085,8.059-.534,3.264,1.924,2.327,6.719,1.531,9.67-1.32,4.9-4.251,10.688-9.781,11.655-6.477,1.108-6.5-6.145-5.994-10.859Z" transform="translate(0.004 -1.645)" fill="#734b26"/>
        <path id="Path_744" data-name="Path 744" d="M1726.41,371.916c1.158-1.612,1.481-3.767,2.015-5.661a.866.866,0,0,0-1.662-.463c-.494,1.914-1.32,3.929-1.128,5.913a.423.423,0,0,0,.776.212Z" transform="translate(0.004 -1.752)" fill="#734b26"/>
        <path id="Path_745" data-name="Path 745" d="M1724.426,388.224a6.853,6.853,0,0,0,.745-2.226l.232-2.337c.141-1.36-2.075-1.39-2.146,0l-.121,2.256a6.5,6.5,0,0,0,.382,2.195C1723.64,388.476,1724.244,388.617,1724.426,388.224Z" transform="translate(0.004 -1.833)" fill="#734b26"/>
        <path id="Path_746" data-name="Path 746" d="M1910.278,425.375c-2.972-7.263-9.479-8.935-16.339-9.922-5.671-22.343-14.445-43.194-29.656-60.923-14.959-17.437-34.934-30.341-55.816-39.517-11.494-5.037-23.582-8.059-35.871-10.355a1.763,1.763,0,0,0-1.44.322,16.984,16.984,0,0,0-15.553,1.642,1.873,1.873,0,0,0-.856,1.239c-15,8.129-23.169,25.848-29.545,41.3-9.277,22.453-15.785,50.155-9.459,74.3a15.857,15.857,0,0,0,3.687,6.85.725.725,0,0,0-.342.866c2.77,7.968,5.218,14.223,11.816,20.046a62.352,62.352,0,0,0,20.026,11.574c14.928,5.46,31.993,7.444,48.009,6.588a.9.9,0,0,0,.453,0l.222-.06c1.2-.071,2.408-.121,3.6-.222a129.414,129.414,0,0,0,37.916-9.539,1.108,1.108,0,0,0,1.632-.151.851.851,0,0,0,.242-.091c.755-.473,1.481-1.007,2.226-1.481,3.536-1.541,7.051-3.173,10.527-4.936,7.867-3.979,14.979-9.63,23.39-12.43,8.139-2.71,15.029,1.279,22.937,0C1909.5,439.2,1913.108,432.3,1910.278,425.375ZM1886.7,402.206a29.435,29.435,0,0,0-2.82,5.933c-2.015-7.515-4.664-14.868-6.941-21.587-1.158-3.415-2.438-6.719-3.808-9.952.242-.8.463-1.6.7-2.408q2.826,4.321,5.389,8.814a83.618,83.618,0,0,1,7.515,19.22Zm-43.627,51.374a90.885,90.885,0,0,0-3.022-18.273c1.32-1.591,2.619-3.2,3.858-4.8a207.153,207.153,0,0,0,13.76-19.925q.554,1.853,1.118,3.707c2.337,7.656,3.6,15.674,5.6,23.43-4.472,4.483-9.308,8.472-14.1,12.561q-3.556,1.773-7.212,3.344Zm-81.02-39.548c1.813,3.465,3.294,7.051,4.855,10.6-.816.584-1.642,1.179-2.468,1.753-11.5,7.918-23.229,15.271-37.684,14.234a45.65,45.65,0,0,1-5.46-8.673c4.241,3.2,10.073,3.939,15.926,2.015,9.721-3.294,18.132-13.256,24.176-21.023a119.376,119.376,0,0,0,17.125-31.036c3.959,7.615,7.978,15.221,11.544,23.018a175.965,175.965,0,0,1-20.731,18.031c-1.8-3.3-3.767-6.507-5.52-9.862-.624-1.179-2.357-.161-1.763.977Zm25.526-67.491a67.848,67.848,0,0,0,.786-13.176,179.979,179.979,0,0,1,12.36,15.966c-5.319,6.608-11.312,12.148-17.467,17.82a184.613,184.613,0,0,0,4.321-20.63Zm-7.344,32.98a1.157,1.157,0,0,0-.675-.574q1.511-4.231,2.77-8.542a106.775,106.775,0,0,0,19.965-18.736,203.148,203.148,0,0,1,13.377,23.43c-7.474,9.116-14.919,18.444-22.977,27.017l-.584.6c-3.848-8.049-7.937-15.835-11.876-23.189Zm91.385-6.376q-1.6-3.536-3.385-6.951,2.105,2.821,4.09,5.722a1.006,1.006,0,0,0-.211.262c-.171.332-.332.665-.494.987Zm-1.843,3.808c-3.193,6.971-5.691,14.234-9.368,20.983-.816,1.5-1.652,2.951-2.478,4.412-2.871-8.23-5.983-16.379-8.975-24.478-.171-.453-.363-.876-.534-1.33,4.392-7.353,8.159-15.523,8.059-23.662,4.644,7.978,9.268,15.8,13.3,24.085Zm-15.11-26.442a1.008,1.008,0,0,0-.252.322c-2.669,5.419-3.677,11.615-6.276,17.125-.544,1.168-1.138,2.317-1.743,3.465a173.645,173.645,0,0,0-10.174-20.348,53.461,53.461,0,0,0,4.573-12.763,134.251,134.251,0,0,1,13.871,12.239Zm-10.023,24.176c-1.823,3.2-3.788,6.336-5.782,9.419-3.445,5.319-7.051,10.6-10.708,15.765-1.6-3.929-3.213-7.847-4.745-11.8s-3.022-7.756-4.513-11.615q3.022-3.8,5.873-7.565a123.707,123.707,0,0,0,9.358-13.8q5.651,9.489,10.527,19.562Zm-13.317-21.325a123.267,123.267,0,0,1-13.5,19.139l-.312.383a164.709,164.709,0,0,0-12.178-25.052,105.021,105.021,0,0,0,11.443-19.381c5.409,7.7,10.557,15.392,15.372,23.269C1831.847,352.283,1831.585,352.827,1831.323,353.361Zm-14.012,25.123c1.632,3.5,3.213,7.051,4.674,10.607,1.7,4.17,3.244,8.452,4.724,12.753-3.022,4.18-6.185,8.29-9.489,12.259q-6.658,8.008-13.992,15.241a239.515,239.515,0,0,0-9.62-23.541,341.908,341.908,0,0,0,23.662-27.319Zm3.364,36.919c2.559-3.022,5.037-6.215,7.464-9.4,1.864,5.742,3.536,11.534,5.037,17.326,1.007,3.9,2.015,7.857,2.921,11.826a149.385,149.385,0,0,1-11.171,11.856c-4.674,4.452-9.56,9.137-14.8,13.236a126.922,126.922,0,0,0-5.8-27.52,188.212,188.212,0,0,0,16.308-17.316Zm15.8,7.051c-1.884-6.346-4.221-12.5-6.669-18.615q6.7-8.9,12.854-18.182c1.35-2.015,2.78-4.2,4.191-6.437a210.416,210.416,0,0,1,9.348,26.311c-4.231,7.283-8.673,14.234-13.6,21.315-1.108,1.592-2.287,3.153-3.5,4.7-.917-3.213-1.833-6.276-2.67-9.116Zm28.779,18.3c.111.363.232.725.342,1.088l-3.334,1.944q1.481-1.571,2.952-3.052Zm-5.591-33.4a150.938,150.938,0,0,0,12.088-26.191c1.007,2.317,2.065,4.664,3.022,7.051a138.19,138.19,0,0,1,6.346,23.491c.181.927.342,1.864.473,2.8a26.028,26.028,0,0,1-1.189,2.478,99.059,99.059,0,0,1-11.937,16.561c-.423.483-.866.937-1.289,1.4a216.544,216.544,0,0,0-7.555-27.621Zm-21.516-70.906c-1.561,3.586-2.73,7.283-4.14,10.919a273.2,273.2,0,0,0-15.644-22.635,137.1,137.1,0,0,1,15.865,9.006C1835.554,334.594,1836.854,335.5,1838.143,336.448ZM1812,321.8v.071c1.007,1.39,2.015,2.77,2.952,4.15-3.485,6.648-6.91,13.236-11.282,19.391a79.761,79.761,0,0,0-15.855-17.94.161.161,0,0,1-.131-.071,34.935,34.935,0,0,0-4.674-12.652,24.474,24.474,0,0,0-3.5-4.352,294.05,294.05,0,0,1,32.5,11.383Zm-85.059,34.582c6.145-16.9,15.11-38.812,32.617-46.629,19.6-1.652,24.962,16.621,23.1,34.088-2.246,21.154-8.452,41.643-19.9,59.493-5.681,8.854-36.848,45.652-43.174,18.132-4.986-21.668-.071-44.725,7.363-65.094Zm2.015,86.862c13.911,1.118,27.6-6.558,39.356-15.362,1.773,3.959,3.244,9.066,6.427,12.088a.635.635,0,0,0,1.078-.443c.07-4.442-2.8-9.157-4.7-13.1-.081-.171-.171-.332-.252-.494,3.646-2.841,7.051-5.732,10.255-8.441,3.526-3.022,6.94-6.215,10.285-9.529a140.122,140.122,0,0,1,5.329,13.841c1.148,3.546,2.136,7.172,3.022,10.829a182.976,182.976,0,0,1-20.338,16.571c-.856-2.176-1.692-4.372-2.478-6.618-.292-.846-1.642-.484-1.35.373.846,2.488,1.572,4.916,2.216,7.364a170.52,170.52,0,0,1-17.689,10.587c-.615-.161-1.229-.3-1.854-.473-11-3.113-21.567-8.824-29.3-17.215Zm50.246,12.884a69.521,69.521,0,0,0,1.843,8.371,115.55,115.55,0,0,1-19.23-3.143,169.132,169.132,0,0,0,16.53-8.885c.332,1.179.594,2.4.856,3.637Zm5.7,8.6c-.383-3.022-1.914-6.588-2.841-8.935-.594-1.511-1.189-3.022-1.783-4.483a160.941,160.941,0,0,0,20.348-15.241c2.125,8.784,4.09,17.638,7.122,25.959-.917.675-1.853,1.32-2.8,1.944a122.712,122.712,0,0,1-20.046.735Zm40.988-14.223a150.222,150.222,0,0,0,11.081-11.5c.141.665.312,1.34.453,2.015.937,4.573,1.1,9.479,2.156,14.1a140.673,140.673,0,0,1-27.5,7.867c5.016-3.868,9.6-8.6,13.81-12.5Zm66.2-15.936c-9.066-1.168-16.661,1.864-24.045,5.873-.121-.776-.252-1.541-.383-2.317q1.9-2.07,3.737-4.17a124.978,124.978,0,0,0,10.728-14.012c.463,4.714.907,9.459,2.549,13.81a.917.917,0,0,0,1.793-.242,58.7,58.7,0,0,0-1.118-19.139,45.835,45.835,0,0,0,2.8-6.578c.786,3.213,1.531,6.447,2.3,9.65a1.692,1.692,0,0,0,1.662,1.37c4.8,1.733,12.642,4.483,13.811,9.973,1.874,8.834-8.824,6.376-13.831,5.762Z" transform="translate(0.004 -1.857)" fill="#734b26"/>
        <path id="Path_747" data-name="Path 747" d="M1917.561,142.567a128.725,128.725,0,0,1-2.75-16.6c-1.058-9.993-1.7-20.036-3.888-29.877-1.854-8.341-4.936-20.711-12.451-25.868-4.09-2.8-7.424-2.418-10.365-.625-3.022-3.586-9.3-7.051-14.163-5.591-4.09,1.209-7.7,5.47-9.7,9.177-3.9-6.658-6.326-14.979-12.088-20.217-3.959-3.616-12.5-5.611-18.233-4.271a3.909,3.909,0,0,0-4.271-.191,12.632,12.632,0,0,0-5.037,5.762,11.565,11.565,0,0,0-1.128,7.152,4.915,4.915,0,0,0,1.652,2.79,1.39,1.39,0,0,0,.907.927c3.435,1.2,7.333.262,10.879,1.451,4.493,1.511,7.182,4.714,7.515,9.489a30.574,30.574,0,0,1-.1,4.745c-3.848-2.518-9.61-4.4-13.5-2.528-4.644,2.236-9.479,9.167-9,14.868a11.694,11.694,0,0,0-4.029.473c-8.28,2.589-9.237,13.79-8.462,20.983,1.128,10.567,5.611,21.083,9.156,31.016,3.4,9.529,5.9,21.255,12.3,29.283,4.724,5.933,18.253,10.96,24.992,5.178l.413.564c6.044,8.008,15.674,6.789,23.793,2.69,6.205-1.7,15.4-5.288,18.132-10.456a16.956,16.956,0,0,0,1.32-3.505,1.34,1.34,0,0,0,.947.342c8.623-.332,18.625-4.835,19.542-14.526C1920.311,150.948,1918.548,146.637,1917.561,142.567ZM1874.749,67.41c3.878-.846,8.411,1.652,11.927,3.193-2.871,2.266-5.409,5.7-7.968,8.451-.3,0-.584-.06-.9-.06a17.679,17.679,0,0,0-7.434,1.894c-1.44-2.156-4.029-4.684-5.087-6.044C1867.93,72.427,1871.354,68.156,1874.749,67.41Zm-48.15-5.55-.1-.131a4.865,4.865,0,0,1-.332-3.465,11.645,11.645,0,0,1,3.445-6.749,4.431,4.431,0,0,1,2.125-1.269.886.886,0,0,0,.554.6l.463.111a1.734,1.734,0,0,1,.1.262c.252,1.158-.786,2.891-1.279,3.838a25.732,25.732,0,0,1-2.7,4.241c-.7.887-1.581,1.672-2.266,2.559ZM1846.745,86.9c.886-4.513,1.743-9.952.494-14.465-1.813-6.588-10.073-10.909-17.125-10.637a27.274,27.274,0,0,0,2.841-3.939c1.118-1.813,2.589-4.14,2.428-6.386,6.346.876,12.239-.614,16.973,5.772,5.2,7.051,6.749,16.117,12.269,23.118a30.377,30.377,0,0,0,2.206,2.6c-6.215,4.11-11.816,10.255-18.555,12.6-1.35.282-2.72.534-4.11.786,1.481-2.669,2.206-7.706,2.549-9.449Zm-21.033,3.757a14.684,14.684,0,0,1,1.551-3.848c1.229-2.015,3.2-4.452,5.5-5.359,3.646-1.451,7.565,1.289,11.272,2.015-.242,1.7-.554,3.385-.886,5.037-.393,1.884-2.327,6.044-1.954,8.4a44.858,44.858,0,0,0-5.359,1.35,49.5,49.5,0,0,0-10.466-4.573,21.831,21.831,0,0,1,.342-3.022Zm14.8,86.781c-6.6-2.256-9.7-9.066-12.088-15.009-4.029-10.234-7.172-20.811-11.081-31.086-3.4-8.965-9.67-22.01-3.586-31.227,2.266-3.435,5.712-4.271,9.469-4.029a1.381,1.381,0,0,0,.413,0,54.756,54.756,0,0,1,10.577,2.619,15.7,15.7,0,0,0-5.873,3.939c-6.286,6.951-4.533,18.6-1.924,26.674,3.183,9.892,9.156,18.656,14.677,27.369,4.241,6.679,8.059,13.881,12.612,20.449-3.324,2.166-9.811,1.481-13.2.332Zm54.829-7.636c-1.894,5.037-8.159,6.89-13.528,9.237a1.491,1.491,0,0,0-.282,0c-5.49,0-10.345,4.362-15.906,3.516s-8.27-7.051-11.081-11.252c-5.943-9.066-12.088-18.132-17.679-27.43-5.712-9.539-12.41-22.292-9.157-33.776,3.022-10.658,14.415-9.3,23.169-12.521,8.169-.484,12.924-7.051,20.005-11.191,12.622-7.424,17.276,5.51,20.489,15.513a145.061,145.061,0,0,1,6.91,35.79c.645,9.7.534,22.917-2.931,32.144Zm19.935-11.745c-2.518,6.235-9.439,7.565-15.281,8.532.544-3.1.766-6.356,1.148-9.066a108.945,108.945,0,0,0,1.007-17.568,142.032,142.032,0,0,0-5.3-35.186c-2.438-8.7-5.46-22.907-15.624-25.4a53.1,53.1,0,0,1,6.135-5.732c6.87-4.885,11.393,1.32,14.354,7.122,5.037,9.8,6.417,20.147,7.394,31.006.937,10.406,1.441,20.9,4.029,31.056,1.3,4.825,4.12,10.376,2.146,15.271Z" transform="translate(0.004 -0.001)" fill="#734b26"/>
        <path id="Path_748" data-name="Path 748" d="M1853.313,81.221c-.06,1.4.262,2.72.151,4.16a24.6,24.6,0,0,1-.9,4.321.648.648,0,0,0,1.249.342c.765-2.71,1.853-6.2,1.007-9.066-.383-1.34-.856-2.549-1.179-4.029a4.745,4.745,0,0,0-1.813-3.254.373.373,0,0,0-.554.312c-.141,1.4.735,2.1,1.32,3.223a6.688,6.688,0,0,1,.715,3.989Z" transform="translate(0.004 -0.001)" fill="#734b26"/>
        <path id="Path_749" data-name="Path 749" d="M1836.491,107.371c-1.8.3-5.137,1.36-4.936,3.737a1.471,1.471,0,0,0,1.833,1.4,2.518,2.518,0,0,0,1.058-.614,1.737,1.737,0,0,0,.222-.282l.07-.06a7.2,7.2,0,0,0,.635-.806c.211-.282,0,.091-.111.141a2.125,2.125,0,0,0,.272-.262c.091-.091.191-.171.282-.262l.483-.292.091-.071h.131l.625-.222a1.247,1.247,0,0,0-.655-2.408Z" transform="translate(0.004 -0.001)" fill="#734b26"/>
        <path id="Path_750" data-name="Path 750" d="M1832.965,116.85c-.161,1.2-.725,3.022,0,4.029a.786.786,0,0,0,1.058.282c1.179-.786,1.279-2.69,1.571-4.029a1.35,1.35,0,1,0-2.629-.282Z" transform="translate(0.004 -0.001)" fill="#734b26"/>
        <path id="Path_751" data-name="Path 751" d="M1895.9,78.995a3.022,3.022,0,0,0-2.015.121,2.156,2.156,0,1,0,2.1,3.606,2.76,2.76,0,0,0,1.128-1.571,1.8,1.8,0,0,0-1.209-2.156Z" transform="translate(0.004 -0.001)" fill="#734b26"/>
        <path id="Path_752" data-name="Path 752" d="M1891.562,167.851v-.111a.846.846,0,0,0-.242-.453.726.726,0,0,0-.645-.2,1.116,1.116,0,0,0-.413.181h-.111a1.008,1.008,0,0,0-.453.242,1.519,1.519,0,0,0-.3.332l-.191.171a3.955,3.955,0,0,0-.494.6l-.171.222-.081.081-.383.393c-.161.151-.312.292-.484.433l-.312.252h0a7.148,7.148,0,0,0-.826.443c-1.35.725-.423,3.082,1.068,2.518a7.545,7.545,0,0,0,3.143-1.894,4.453,4.453,0,0,0,1.088-1.833,2.015,2.015,0,0,0,.071-1.007,1.317,1.317,0,0,0-.262-.373Z" transform="translate(0.004 -0.801)" fill="#734b26"/>
        <path id="Path_753" data-name="Path 753" d="M1892.932,158.322a1.753,1.753,0,0,0-3.022,0l-.131.3a5.118,5.118,0,0,0-.564,3.022c0,2.831,4.4,2.841,4.4,0a5.127,5.127,0,0,0-.564-3.022Z" transform="translate(0.004 -0.755)" fill="#734b26"/>
        <path id="Path_754" data-name="Path 754" d="M1838.375,170.168h-1.531a1.007,1.007,0,0,0-.836,1.461c.272.453.524.907.766,1.37a1.854,1.854,0,1,0,1.6-2.79Z" transform="translate(0.004 -0.814)" fill="#734b26"/>
        <path id="Path_755" data-name="Path 755" d="M119.872,95.3c-11.776,0-11.8,18.293,0,18.293S131.658,95.3,119.872,95.3Z" transform="translate(0.004 -0.001)" fill="#9d8167"/>
        <path id="Path_756" data-name="Path 756" d="M768.491,689.073c.292-7.323-.907-13.508-4.956-19.854-3.022-4.674-8.421-11.463-14.1-13.1a14.3,14.3,0,0,0-5.037-3.445c-7.243-2.891-15.946-.423-23.169,1.229-14.777,3.365-32.234,9.479-42.207,21.7a19.965,19.965,0,0,0-5.772,15.543,55.4,55.4,0,0,0,4.281,24.9c2.861,6.628,8.24,16.339,15.372,19.139a.645.645,0,0,0,.635-.1c6.276,3.082,15.815,1.35,22-.191,7.847-2.015,17.93-5.873,23.058-12.481a.856.856,0,0,0,.856-1.269c-3.818-6.235-7.192-12.642-11.081-18.807,6.185-.3,12.551-2.78,18.434-4.452a210.581,210.581,0,0,0,20.751-6.759.857.857,0,0,0,.564-.756A1.007,1.007,0,0,0,768.491,689.073Zm-15.422-27.6a49.9,49.9,0,0,1,6.769,7.213c3.737,4.765,9.56,12.692,7.857,19.21-3.183-4.442-6.356-8.854-9.167-13.549-1.884-3.133-3.435-7.6-6.417-9.922a8.491,8.491,0,0,0-.111-3.8A13.091,13.091,0,0,1,753.069,661.472ZM683.8,673.681c9.066-6.83,18.132-12.209,29.575-15.523,10.345-3.022,33.242-9.741,36.516,5.147-6.739,1.118-13.438,3.6-20.056,5.319-6.82,1.773-13.649,3.435-20.4,5.419h-.06c-.524-.473-1.561,0-1.279.745,1.571,4.221,4.946,8.059,7.454,11.755a104.316,104.316,0,0,0,6.487,9.348c-9.328,7.142-22.232,13.1-34.088,9.519-6.306-1.924-11.6-6.6-12.44-13.387-.967-7.817,3.425-12.995,8.29-18.343Zm48.06,50.779a.318.318,0,0,0,0-.081c-.373-.564-1.179-.625-1.753-.927a5.842,5.842,0,0,1-1.8-1.491c-.5-.615-1.37.262-.876.876a6.768,6.768,0,0,0,2.015,1.682,4.351,4.351,0,0,0,1.5.554c-.927.635-1.874,1.239-2.851,1.793a54.057,54.057,0,0,1-5.2,2.518c-.494-.856-1.531-1.259-2.266-1.874a9.067,9.067,0,0,1-2.105-2.518.765.765,0,1,0-1.32.776,10.376,10.376,0,0,0,2.357,3.022A6.255,6.255,0,0,0,721.378,730a50.811,50.811,0,0,1-4.986,1.672c-.826.232-1.642.423-2.468.614l-.564-.131a6.7,6.7,0,0,1-2.226-1.209,14.1,14.1,0,0,1-3.173-3.848.718.718,0,0,0-1.239.725,13.1,13.1,0,0,0,3.506,4.855l.423.282a51.471,51.471,0,0,1-8.321.766c-.211-.131-.423-.262-.624-.413a11.672,11.672,0,0,1-1.964-1.874c-1.007-1.229-2.015-2.539-3.022-3.788-.322-.383-.876,0-.786.453a8.059,8.059,0,0,0,2.891,4.573c.373.3.8.655,1.249,1.007a46.339,46.339,0,0,1-7.132-.826c-2.015-2.589-4.734-4.654-6.789-7.233a55.24,55.24,0,0,1-6.94-11.161,49.267,49.267,0,0,1-4.513-16.9,17.668,17.668,0,0,0,7.152,8.321c13.015,7.9,31.227,1.31,41.6-8.391,4.08,8.2,9.217,15.614,13.861,23.461a51.513,51.513,0,0,0-5.45,3.5Zm14.213-29.213c-6.044,1.733-12.914,2.831-18.535,5.752q-1.451-2.277-3.022-4.493a.877.877,0,0,0,0-.141.947.947,0,0,0-.675-1.531c-1.864-3.586-4.523-6.92-6.779-10.224-2.135-3.123-4.11-6.89-6.759-9.67,6.779-1.118,13.418-2.659,20.1-4.332s13.73-2.941,20.036-5.54l.151.081c1.37,4.14,4.442,8.391,6.689,12.017a107.18,107.18,0,0,0,8.945,12.521c-6.779,1.652-13.438,3.677-20.147,5.6Z" transform="translate(0.004 -3.546)" fill="#734b26"/>
        <path id="Path_757" data-name="Path 757" d="M690.574,703.8a.383.383,0,0,0,.06-.463,2.5,2.5,0,0,0-1.471-.745,5.673,5.673,0,0,1-1.964-.907c-.534-.413-1.279.262-.766.766C687.27,703.276,689.426,704.928,690.574,703.8Z" transform="translate(0.004 -3.546)" fill="#734b26"/>
        <path id="Path_758" data-name="Path 758" d="M696.437,703.377a.766.766,0,1,0-.766-.766A.766.766,0,0,0,696.437,703.377Z" transform="translate(0.004 -3.546)" fill="#734b26"/>
        <path id="Path_759" data-name="Path 759" d="M764.492,681.156a1.007,1.007,0,0,0,1.148-1.007,1.511,1.511,0,0,0-.725-1.541.725.725,0,0,0-1.007.433c-.091.282-.121.564-.211.846a1.007,1.007,0,0,0,.8,1.269Z" transform="translate(0.004 -3.546)" fill="#734b26"/>
        <path id="Path_760" data-name="Path 760" d="M728.842,676.733a4.685,4.685,0,0,0-3.566-.816c-.886.141-2.337.594-2.579,1.561-1.622,1.582-2.408,4.029-.836,6.044,1.743,2.186,6.044,1.783,7.746-.222a4.614,4.614,0,0,0-.766-6.568Zm0,5.248c-.886,1.8-4.281,2.367-5.732.907s-.433-3.385.675-4.734c.171-.1.332-.232.554-.363a3.173,3.173,0,0,1,4.5,4.2Z" transform="translate(0.004 -3.546)" fill="#734b26"/>
        <path id="Path_761" data-name="Path 761" d="M741.293,678.144a2.448,2.448,0,0,0-2.438.564.756.756,0,0,0-.07.1.444.444,0,0,0-.272.121c-1.219,1.2-2.075,2.861-1.088,4.483s3.223,1.692,4.684.886,1.5-2.8.907-4.281a2.71,2.71,0,0,0-1.723-1.874Zm-.594,4.936c-.866,0-1.8-.121-2.065-1.058a2.75,2.75,0,0,1,.373-2.075.766.766,0,0,0,.635.121,2.71,2.71,0,0,1,1.138-.222c.393.1.856.776,1.007,1.118.614,1.068.191,2.115-1.088,2.115Z" transform="translate(0.004 -3.546)" fill="#734b26"/>
        <path id="Path_762" data-name="Path 762" d="M759.314,683.029a4.352,4.352,0,0,0-4.835-2.69.745.745,0,0,0-.574-.07,4.563,4.563,0,0,0-3.3,5.933,4.825,4.825,0,0,0,6.245,2.679,4.523,4.523,0,0,0,2.468-5.853Zm-3.284,4.362c-3.6,1.007-4.533-4.231-1.481-5.581a.681.681,0,0,0,.111-.081,3.143,3.143,0,0,1,3.1,1.5,2.881,2.881,0,0,1-1.733,4.16Z" transform="translate(0.004 -3.546)" fill="#734b26"/>
        <path id="Path_763" data-name="Path 763" d="M736.266,690.755c-1.068-.171-2.72.1-2.6,1.521,0,.131.212.222.272.071.383-.846,1.451-.484,2.105-.252s.776.625.473,1.239a1.242,1.242,0,0,1-2.277,0,.617.617,0,1,0-1.189.332,2.538,2.538,0,0,0,2.559,2.2,2.871,2.871,0,0,0,2.679-2.478,2.256,2.256,0,0,0-2.025-2.629Z" transform="translate(0.004 -3.546)" fill="#734b26"/>
        <path id="Path_764" data-name="Path 764" d="M749.956,669.38a2.78,2.78,0,0,0-3.939.836.776.776,0,0,0,.05.745,2.065,2.065,0,0,0,.423,2.579,2.488,2.488,0,0,0,3.435-.4C750.832,672.15,751.135,670.276,749.956,669.38Zm-1.007,2.609c-.292.443-.937.876-1.471.554a1.007,1.007,0,0,1-.383-1.35.432.432,0,0,0,0-.111,3.546,3.546,0,0,1,1.451-.433c.755.071.705.846.383,1.34Z" transform="translate(0.004 -3.546)" fill="#734b26"/>
        <path id="Path_765" data-name="Path 765" d="M942.859,734.7c1.551-3.173,3.022-6.538,2.629-10.073,1.561-.343,3.082-.705,4.533-1.078a1.319,1.319,0,0,0,.353,0c1.884-.725,1.9-4.029,2.408-5.691.574-1.944,1.662-3.949,2.085-5.953a1.189,1.189,0,0,0-.272-1.884h0a1.4,1.4,0,0,0-.564-.252c-7.756-3.717-15.694-3.7-24.176-2.609l-1.41.191c-8.059-9.147-18.787-15.221-31.227-15.553a35.211,35.211,0,0,0-4.684.2c-2.851-4.12-7.454-6.205-12.35-7.243l-.433-.081v-.151c-1.44-4.473-4.251-7.555-8.24-10.073-4.362-2.77-8.744-3.254-13.73-4.11a1.279,1.279,0,0,0-1.279.876c-1.39,4.13-3.223,8.059-4.8,12.088a1.329,1.329,0,0,0,0,.272,25.754,25.754,0,0,0-2.317,1.884,18.129,18.129,0,0,0-1.783,2.387,20.945,20.945,0,0,0-2.962,5.339,1.753,1.753,0,0,0,1.864,2.307.635.635,0,0,0,.212.413c7.414,6.608,16.8,7.122,25.908,5.037,2.8,3.153,6.658,5.6,10.073,7.988,2.82,2.015,5.631,4.16,9.066,4.583,6.215,8.875,16.178,12.582,26.875,13.488a57.03,57.03,0,0,0,8.925,6.1c2.941,1.622,7.666,5.631,11.282,5.671C941.137,738.745,941.852,736.68,942.859,734.7Zm-85.17-58.032c.524-1.733.2-3.365,2.347-3.415.836,0,2.891,1.44,3.868,1.934,4.755,2.407,8.723,5.7,12.884,8.895a113.36,113.36,0,0,0-21.567-1.209,37.425,37.425,0,0,0,2.448-6.205Zm-9.922,17.981h0c1.118-1.511,1.884-3.254,2.861-4.855.806-1.33,1.5-2.73,2.266-4.029,12.088,2.015,25.6-.786,35.73,6.81a63.617,63.617,0,0,0-8.522,2.448c-12.017,4.2-20.338,3.224-32.355-.363Zm37.392,11.312c-2.8-2.015-5.49-4.241-8.31-6.256l.947-.292c17.93-5.873,33.343-3.848,47.828,8.24-10.919,1.5-21.275,3.133-32.476,2.387-.786-.312-1.642-.312-2.629-.675a25.536,25.536,0,0,1-5.389-3.4Zm10.325,7.3c6.971,1.118,14.1,0,21.083-1.168,12.169-2.085,23.058-3.747,34.974-.353a27.473,27.473,0,0,0-2.015,5.037,17.423,17.423,0,0,0-1.169,4.352c-19.834,2.448-37.039,4.956-52.895-7.857ZM934.8,734.181c-4.7-1.723-8.834-3.6-12.229-7.051a95.1,95.1,0,0,0,19.955-1.853c-.524,1.672-.836,3.415-1.34,5.1-.312,1.068-1.007,4.281-2.015,4.865S935.687,734.494,934.8,734.181Z" transform="translate(0.004 -3.546)" fill="#734b26"/>
        <path id="Path_766" data-name="Path 766" d="M171.367,492.13c.1.353.242.685.353,1.007a1.148,1.148,0,0,0-1.36.635,18.041,18.041,0,0,0,.06,11.977c1.571,4.795,5.5,7.777,7.454,12.279a1.289,1.289,0,0,0,2.4-.594c-.463-8.26-.7-20.308-7.777-25.949C172.032,491.123,171.155,491.415,171.367,492.13Zm5.651,20.076a26.439,26.439,0,0,1-3.576-5.419c-1.763-3.959-1.612-7.867-1.179-12.028a79.581,79.581,0,0,1,3.375,9.7c.584,2.549,1.007,5.147,1.38,7.746Z" transform="translate(0.004 -2.424)" fill="#734b26"/>
        <path id="Path_767" data-name="Path 767" d="M43.758,638.435a18.827,18.827,0,0,0,5.963-5.641,1.37,1.37,0,0,0,.816,0v.091a.232.232,0,0,0,.463,0v-.393l.091-.06c.917-.917,1.843-1.813,2.77-2.72,0,3.566.191,7.152.212,10.738a39.269,39.269,0,0,0-2.7-3.707.806.806,0,0,0-1.35.342c-.816,3.707,1.793,7.424,4.483,9.711a1.944,1.944,0,0,0,3.294-1.31c.363-6.044.685-12.712-1.007-18.625q3.616-3.465,7.283-6.85c-.4,5.913,2.488,12.5,6.044,16.631,1.118,1.31,2.921.171,3.092-1.229.886-7.142.6-14.888-2.357-21.577q4.966-4.493,9.973-8.965a9.843,9.843,0,0,0,.081,1.289,22.806,22.806,0,0,0,5.037,10.607,1.3,1.3,0,0,0,2.166-.554,36.174,36.174,0,0,0,.1-9.066,31.458,31.458,0,0,0-1.38-7.686q2.418-2.186,4.825-4.392c-1.088,6.729,1.692,14.5,4.483,20.147.776,1.561,2.841.715,3.022-.745.876-7.636,3.767-18.847-.3-26.191q4.231-4.221,8.26-8.623a15.531,15.531,0,0,0,.957,3.767c.755,1.8,1.884,3.294,1.944,5.339a1.864,1.864,0,0,0,3.647.524c1.662-5.117,2.015-11.594-.322-16.631q1.219-1.41,2.418-2.831v.322h0a16.117,16.117,0,0,0,.917,8.764c2.085,5.168,6.044,9.187,9.691,13.246a1.531,1.531,0,0,0,2.609-1.007c-.091-9.58-2.528-19.492-8.159-27.369q4.16-5.1,8.22-10.275c0,4.372,5.5,8.834,7.192,12.189a1.078,1.078,0,0,0,2.015-.494,26.08,26.08,0,0,0-5.319-16.641l3.647-4.7v.181c.645,5.9,6.437,10.688,11.081,13.559a1.491,1.491,0,0,0,2.176-1.622c-2.015-6.044-3.445-13.8-8.512-18.132l-.1-.06q3.576-4.724,7.051-9.539c.3,5.4,6.467,8.935,11.081,11.282a1.541,1.541,0,0,0,1.874-2.387c-3.546-4.543-4.14-10.909-9.419-13.881,2.871-4.09,5.671-8.24,8.351-12.451,1.5,4.029,6.628,7.817,9.3,9.64a1.541,1.541,0,0,0,2.3-1.3c-.06-5.611-2.256-12.41-7.122-15.674a174.017,174.017,0,0,0,17.517-39.286.93.93,0,0,0-1.793-.493,160.165,160.165,0,0,1-16.52,36.264h-.1l-.766.272c-6.9-4.291-18.071-5.943-24.478,0a1.491,1.491,0,0,0,1.007,2.538c2.569-.111,5.037,1.682,7.6,2.246a27.991,27.991,0,0,0,6.447.685,23.6,23.6,0,0,0,7.434-1.2q-4.392,6.9-9.227,13.549a1.406,1.406,0,0,0-.171-.1c-6.1-2.337-14.1-2.387-19.8,1.078-1.189.715-.866,2.841.685,2.77,1.924-.091,4.029,1.007,5.923,1.36a25.892,25.892,0,0,0,2.81.433,22.775,22.775,0,0,0-5.419,5.822l-.755.252a1.655,1.655,0,1,0,.8,3.213,20.639,20.639,0,0,0,6.679-2.569q-2.569,3.294-5.188,6.558c-5.309-2.105-10.99-1.189-16.349,1.078-1.078.453-.353,2.115.725,1.864,3.606-.846,10.315-3.767,13.77-1.43a4.159,4.159,0,0,1,.393.322l-.856,1.007h0a8.482,8.482,0,0,1-4.2,1.189,24.287,24.287,0,0,1-8.059-1.33.443.443,0,0,0-.342.806c2.951,1.582,6.044,3.395,9.529,3.173l-5.389,6.608c-2.236-.332-4.674-1.249-6.669-1.2a8.391,8.391,0,0,0-6.89,3.2,1.33,1.33,0,0,0,.473,1.813c2.518,1.3,4.775,2.569,7.585,2.891q-3.677,4.473-7.434,8.865a22.583,22.583,0,0,0-10.073-2.529c-3.536-.081-8.169.413-10.98,2.73a1.461,1.461,0,0,0,.141,2.407,25.3,25.3,0,0,0,12.682,3.747,19.7,19.7,0,0,0,2.77-.191q-2.015,2.307-4.16,4.583a1.128,1.128,0,0,0-.514-.9,12.461,12.461,0,0,0-9.066-1.682c-2.438.433-6.608,1.793-7.3,4.462a.876.876,0,0,0,.876,1.1h.222c1.32-.171,3.092.705,4.432.876a17.962,17.962,0,0,0,4.261,0,14.021,14.021,0,0,0,4.452-1.068c-3.717,3.929-7.535,7.756-11.494,11.443a1.11,1.11,0,0,0-.181,0,.816.816,0,0,0-.473-.786c-4.392-2.115-8.653-4.332-13.629-4.714-4.16-.322-7.988.856-11.806,2.4a1.471,1.471,0,0,0,0,2.528c4.674,2.881,10.335,4.362,15.724,5.137a25.618,25.618,0,0,0,5.037.3c-1.924,1.672-3.929,3.314-5.973,4.966a1.71,1.71,0,0,0-.383-.2c-5.238-1.662-13.639-1.481-17.588,3.022a1.793,1.793,0,0,0,0,2.458c2.075,2.639,6.044,2.015,9.066,1.843h.121c-2.337,1.9-4.644,3.848-6.86,5.863-3.375-.373-6.669-1.491-10.144-1.118a19.029,19.029,0,0,0-10.436,4.845,1.39,1.39,0,0,0,.262,2.186,19.331,19.331,0,0,0,12.6,1.833,59.691,59.691,0,0,0-3.727,4.795,19.521,19.521,0,0,0-10.073,3.959c-2.085,1.571-5.591,4.684-4.1,7.716C38.52,640.389,41.774,639.654,43.758,638.435Zm26.513-8.522a22.162,22.162,0,0,1-2.085-5.943,61.507,61.507,0,0,1-.544-7.223l.886-.806a46.831,46.831,0,0,1,1.743,13.972Zm14.868-22.292c.091,1.259.141,2.528.181,3.788a24.981,24.981,0,0,1-1.561-4.241,6.477,6.477,0,0,1,.121-4.422c.171-.393.342-.685.5-1.007C84.616,603.722,84.988,605.676,85.139,607.621Zm12.088-6.87c-.121,2.508-.373,5.037-.645,7.5-2.015-5.087-3.586-10.95-2.166-15.775l1.561-1.491a29.212,29.212,0,0,1,1.239,9.751Zm14.1-18.424c-.121-.181-.222-.373-.342-.544-.937-1.37-1.884-2.428-1.843-4.19a2.388,2.388,0,0,1,.05-.292l1.662-1.874a30,30,0,0,1,.433,6.89Zm14.213,4.362c-4.835-5.873-7.807-12.209-7.051-20.147l.423-.514a64.513,64.513,0,0,1,6.578,20.65Zm10.073-24.559c-.755-.886-1.471-1.813-2.216-2.7-1.582-1.894-4.029-4.17-3.868-6.689l1.007-1.229.574-.745a31.328,31.328,0,0,1,4.493,11.322Zm3.838-21.708c2.81,3.223,4.382,7.283,5.772,11.373-3.636-3.234-7.323-7.474-5.782-11.373Zm16.681-6.487a14.8,14.8,0,0,1-6.044-8.462l.353-.5C153.517,527.054,154.756,530.56,156.136,533.934Zm12.2-17.981a15.24,15.24,0,0,1-4.442-4.664,19.281,19.281,0,0,1-1.511-4.251c.393-.645.8-1.289,1.189-1.934,2.256,3.667,4.11,6.81,4.775,10.849Zm-25.979-14.3a20.046,20.046,0,0,1,9.439-2.015,31.3,31.3,0,0,1,7.948,1.783,19.593,19.593,0,0,1-6.759,1.743C150.334,503.322,145.388,503.221,142.356,501.65Zm6.346,18.545c-.373.141-.745.312-1.2.494a12.863,12.863,0,0,1-4.906.826,25.557,25.557,0,0,1-6.044-.786,28.829,28.829,0,0,1,12.148-.5Zm-6.709,5.037a24.721,24.721,0,0,1,3.606-1.642l.554-.081a33.6,33.6,0,0,1-7.908,5.037,15.815,15.815,0,0,1,3.788-3.324Zm-18,27.2h.574l-.06.07h-.131a14.778,14.778,0,0,1-6.044,0,16.483,16.483,0,0,1,5.671-.04ZM97.55,567.8a27.824,27.824,0,0,1,5.822-.917,29.638,29.638,0,0,1,7.736,1.007,8.926,8.926,0,0,1-.786.453,13.246,13.246,0,0,1-6.245,1.068A16.359,16.359,0,0,1,97.55,567.8Zm-7.394,11.03A19.7,19.7,0,0,1,94.487,577a15.564,15.564,0,0,1,6.457.262A36.575,36.575,0,0,1,96.7,578.72C95.172,579.033,92.181,579.446,90.156,578.831ZM77.282,590.979c-3.022-.614-5.853-1.541-8.744-2.428,5.681-1.662,12.833.756,18.343,2.629a17.351,17.351,0,0,1-2.176.433,23.765,23.765,0,0,1-7.424-.635ZM70.513,604.4a26.98,26.98,0,0,1-4.422.312,16.294,16.294,0,0,1,3.082-1.1,22.6,22.6,0,0,1,6.155-.473l-.161.131C73.535,603.45,71.994,604.165,70.513,604.4ZM46,617.815c4.18-2.911,8.482-2.7,13.669-2.015C55.02,617.936,51.021,619.4,46,617.815Zm-4.624,16.611c.7-2.226,3.183-3.636,5.792-4.785-.5.494-1.007,1.058-1.551,1.7a24.812,24.812,0,0,1-2.307,2.266c-.484.4-2.5,2.629-1.934.816Z" transform="translate(0.004 -3.546)" fill="#734b26"/>
        <path id="Path_768" data-name="Path 768" d="M1844.781,264.464a25.868,25.868,0,0,0,6.3-16.651,18.041,18.041,0,0,0-2.73-10.013,11.846,11.846,0,0,0-8.613-5.4,14.677,14.677,0,0,0-6.809,1.35c-7.928,3.334-14.3,10.355-22.786,11.8-3.9.665-7.887.071-11.786-.625s-7.827-1.481-11.766-1.189-7.988,1.813-10.4,4.946-2.659,8.059.121,10.869c.876-.312.776-1.561.7-2.488-.343-3.9,2.931-7.384,6.648-8.6s7.756-.725,11.625-.171a17.679,17.679,0,0,0,34.4-1.128c-1.551.252-2.5,1.793-3.364,3.113-3.344,5.1-8.935,9.066-15.04,9.066s-12.259-4.644-12.672-10.728a31.277,31.277,0,0,0,20.439-2.186,62.087,62.087,0,0,0,10.073-6.517,23.006,23.006,0,0,1-.2,6.789,5.258,5.258,0,0,0,1.239-3.939,6.165,6.165,0,0,1-.121-2.6,3.737,3.737,0,0,1,2.307-1.914c2.639-1.118,5.6-2.015,8.361-1.179,4.432,1.259,6.769,6.457,6.336,11.081-1.531,16.45-20.016,27.349-34.833,29.605a34.763,34.763,0,0,1-34.41-15.654c-.322-.494-1.158,0-.876.564,6.527,12.088,18.414,18.192,32.043,18.827,6.83.312,12.874-1.43,18.978-4.432S1840.389,269.833,1844.781,264.464Z" transform="translate(0.004 -1.183)" fill="#734b26"/>
      </g>
    </g>
  </g>
</svg>
