<?xml version="1.0" encoding="UTF-8"?>
<svg width="30px" height="26px" viewBox="0 0 30 26" version="1.1" xmlns="http://www.w3.org/2000/svg" xmlns:xlink="http://www.w3.org/1999/xlink">
    <!-- Generator: Sketch 57.1 (83088) - https://sketch.com -->
    <title>external-link-symbol</title>
    <desc>Created with Sketch.</desc>
    <g id="Page-1" stroke="none" stroke-width="1" fill="none" fill-rule="evenodd">
        <g id="external-link-symbol" fill="#FFFFFF" fill-rule="nonzero">
            <path d="M23.4543826,15.0907137 L22.3633867,15.0907137 C22.2040418,15.0907137 22.0732943,15.1417597 21.9715619,15.2443295 C21.8689937,15.3463021 21.8179484,15.476992 21.8179484,15.6361601 L21.8179484,21.0906838 C21.8179484,21.8407324 21.5510801,22.4826588 21.0170449,23.0168213 C20.4830098,23.5508644 19.8408541,23.8176771 19.0908168,23.8176771 L4.90894437,23.8176771 C4.15896676,23.8176771 3.51687081,23.5508644 2.98271625,23.0168213 C2.44868108,22.4827185 2.18169335,21.8407921 2.18169335,21.0906838 L2.18169335,6.90877883 C2.18169335,6.15879002 2.44862138,5.51692331 2.98271625,4.98282047 C3.51687081,4.44865793 4.15896676,4.18172591 4.90894437,4.18172591 L16.9087056,4.18172591 C17.0680504,4.18172591 17.198798,4.13044106 17.3009483,4.02828926 C17.4030985,3.92601806 17.4541438,3.79544765 17.4541438,3.63621981 L17.4541438,2.54514789 C17.4541438,2.38621856 17.4030985,2.25540934 17.3009483,2.15331725 C17.198798,2.05104605 17.0680504,2 16.9087056,2 L4.90894437,2 C3.55681151,2 2.4005015,2.48013135 1.44013373,3.44033434 C0.48012418,4.40047762 0,5.5568049 0,6.90895793 L0,21.0909227 C0,22.443016 0.48012418,23.5995224 1.44019343,24.5593671 C2.4005612,25.5196298 3.55687121,26 4.90900407,26 L19.0908168,26 C20.44289,26 21.5993194,25.5196298 22.5595678,24.5593671 C23.5198758,23.5995224 24,22.4430757 24,21.0909227 L24,15.636578 C24,15.4772308 23.948895,15.3464813 23.8463268,15.2443295 C23.7440572,15.1417597 23.6133096,15.0907137 23.4543826,15.0907137 Z" id="Path"></path>
            <path d="M29.6736938,0.326074988 C29.4562566,0.108631546 29.1984819,0 28.9012115,0 L20.1136687,0 C19.8162179,0 19.5586235,0.108631546 19.3413666,0.326074988 C19.1239294,0.543398196 19.0150605,0.800879608 19.0150605,1.09839899 C19.0150605,1.39591837 19.1239294,1.6534599 19.3413666,1.87090334 L22.361983,4.89166588 L11.1716895,16.0825186 C11.0571096,16.1969214 11,16.3285778 11,16.4770669 C11,16.6260971 11.0572899,16.7576934 11.1716895,16.8720962 L13.1283241,18.8285461 C13.2427237,18.9429489 13.3743763,19 13.5231017,19 C13.6718271,19 13.8035398,18.943009 13.9178793,18.8285461 L25.108233,7.63787375 L28.1290898,10.6586363 C28.3463467,10.8760797 28.6038809,10.9848315 28.9013918,10.9848315 C29.1989027,10.9848315 29.4564369,10.8760797 29.6739343,10.6586363 C29.8913715,10.441253 30,10.1838317 30,9.88631229 L30,1.09839899 C30,0.800699256 29.8909507,0.543398196 29.6736938,0.326074988 Z" id="Path"></path>
        </g>
    </g>
</svg>