<svg xmlns="http://www.w3.org/2000/svg" viewBox="0 0 1920 1080"><defs><style>.cls-1{fill:#fff;}</style></defs><title>header-bg-1</title><g id="Layer_2" data-name="Layer 2"><g id="Layer_2-2" data-name="Layer 2"><polygon class="cls-1" points="0 0 0 997 10 1002 22 1007 37 1013 62 1022 129 1042 220 1061 237 1064 257 1067 297 1072 327 1073 354 1074 383 1073 406 1072 427 1070 450 1067 471 1063 483 1060 502 1055 526 1048 551 1040 582 1027 613 1014 644 1000 666 990 687 981 710 972 733 964 754 957 774 952 788 949 805 947 824 946 844 946 869 949 887 952 905 958 921 964 941 974 953 981 966 990 983 1004 999 1021 1005 1028 1011 1036 1021 1049 1028 1058 1035 1067 1042 1075 1046 1080 1920 1080 1909 1064 1893 1044 1867 1019 1844 998 1824 982 1811 974 1789 966 1768 959 1740 952 1709 947 1689 945 1667 943 1637 942 1603 942 1587 942 1562 943 1539 944 1516 946 1484 947 1446 949 1405 950 1390 950 1366 949 1346 947 1317 944 1298 941 1255 931 1230 923 1210 915 1188 905 1164 891 1147 880 1135 870 1125 862 1115 852 1104 840 1095 829 1085 816 1073 798 1064 780 1056 761 1048 739 1043 723 1036 698 1030 672 1024 649 1016 614 1008 587 996 553 990 541 982 527 974 515 965 504 955 493 943 483 931 474 918 465 906 457 891 448 875 439 861 430 841 417 823 407 810 400 786 390 761 379 743 371 729 364 720 358 706 349 690 335 680 324 670 312 662 300 653 281 647 264 642 243 639 223 638 203 637 184 638 165 640 135 644 112 650 80 653 65 665 23 669 10 672 0 0 0"/></g></g></svg>