<svg xmlns="http://www.w3.org/2000/svg" width="98" height="99" viewBox="0 0 98 99">
  <g id="icecream-icon" transform="translate(-417.071 -2303.946)">
    <g id="Ellipse_7" data-name="Ellipse 7" transform="translate(417.071 2303.946)" fill="none" stroke="#ff9faf" stroke-width="4">
      <ellipse cx="49" cy="49.5" rx="49" ry="49.5" stroke="none"/>
      <ellipse cx="49" cy="49.5" rx="47" ry="47.5" fill="none"/>
    </g>
    <ellipse id="Ellipse_8" data-name="Ellipse 8" cx="41" cy="40.5" rx="41" ry="40.5" transform="translate(425.071 2312.946)" fill="#ff9faf"/>
    <g id="Layer0_7_1_STROKES" data-name="Layer0 7 1 STROKES" transform="translate(453.084 2324.231)">
      <path id="Path_109" data-name="Path 109" d="M24.141,33.88c-.092.776-.206,1.542-.375,2.313a4.579,4.579,0,0,1-.267,1.064,2.056,2.056,0,0,1-1.31,1.028.19.19,0,0,0-.18.118c-.946,2.909-1.9,5.812-2.8,8.736q-.843,2.718-1.66,5.447l-.889,2.97c-.329,1.1-.576,2.384-1.8,2.8A15.3,15.3,0,0,1,2.007,56.106c-1.624-1.285-.982-3.6-.93-5.442s.1-3.69.144-5.535c.082-3.366.108-6.732.17-10.093a.288.288,0,0,0-.164-.257C.142,34.3.6,32.626.712,31.747S.877,29.111,2,29.013c.231,0,.226-.262.087-.4-1.28-1.2-1.259-2.785-.776-4.373.365-1.2.951-2.569,2.23-2.934a.2.2,0,0,0,.113-.283A8.123,8.123,0,0,1,3.606,14.8C4.2,12.923,5,11.715,7,11.232a.18.18,0,0,0,.134-.164C6.972,7.342,11.206,4.7,14.639,5.451a.2.2,0,0,0,.252-.17c.123-1.388,1.5-1.48,2.462-2.1.3-.2.776-.514.827-.879.144-1.059-1.5-1.223-2.143-1.413l.216.334c.267-1.1,2.569-.7,3.268-.514a4.949,4.949,0,0,1,1.912,1.079,13.262,13.262,0,0,1,3.124,4.82,13.238,13.238,0,0,1,1.3,5.052c0,1.377-.082,3.335-.992,4.445a.231.231,0,0,0,0,.277c-.18-.257.339.992.391,1.177a10.381,10.381,0,0,1,.36,2.616,8.736,8.736,0,0,1-.339,2.508,9.558,9.558,0,0,0-.714,1.829c0,.308.442.889.56,1.172a5.375,5.375,0,0,1,.38,2.282c-.062,1.48-.673,3.654-2.251,4.111-.247.077-.108.406.092.447a1.223,1.223,0,0,1,.745,1.352c0,.267.462.421.478.113.046-.951-.175-1.716-1.2-1.912l.092.447c2.431-.735,2.939-4.538,2.23-6.609-.113-.324-.334-.642-.421-.966a2.127,2.127,0,0,1,.236-1.4,9.25,9.25,0,0,0,.56-2.441,10.536,10.536,0,0,0-.082-2.271c-.113-.817-.478-1.542-.617-2.348-.092-.514-.1-.036.123-.432a5.535,5.535,0,0,0,.514-1.6,11.465,11.465,0,0,0,.17-4.075A16.43,16.43,0,0,0,22.06,1.828,5.617,5.617,0,0,0,18.853.122c-.93-.139-2.806-.4-3.083.848a.283.283,0,0,0,.216.334,4.959,4.959,0,0,1,1.3.4c.874.6-.432,1.136-.966,1.388a4.039,4.039,0,0,0-1.542.961c-.514.606-.123.776-1.028.766a6.768,6.768,0,0,0-2.467.293A7.991,7.991,0,0,0,7.167,8.19a7.246,7.246,0,0,0-.586,2.128c-.19.766-1.228.833-1.829,1.3C3.41,12.646,2.989,14.624,2.645,16.2a8.084,8.084,0,0,0-.231,2.225,6.588,6.588,0,0,0,.36,1.752c.087.252.293.545.154.771s-.6.329-.771.514a3.165,3.165,0,0,0-.483.606A7.518,7.518,0,0,0,.646,24.727c-.319,1.737-.164,2.975,1.146,4.2l.087-.4A1.4,1.4,0,0,0,.62,29.558a10.165,10.165,0,0,0-.6,4.111c.077.791.709,1.115.833,1.758A19.746,19.746,0,0,1,.8,39.121C.774,41.259.728,43.4.676,45.54Q.625,47.6.569,49.651a42.371,42.371,0,0,0-.134,4.841c.144,1.562,1.855,2.441,3.083,3.032A17.421,17.421,0,0,0,11.8,59.261a9.776,9.776,0,0,0,3.572-.6c1-.493,1.233-1.47,1.542-2.395.874-2.847,1.706-5.709,2.569-8.556.745-2.41,1.542-4.81,2.313-7.195.149-.452.252-1.429.632-1.752.252-.211.709-.1,1.028-.416.9-.935.966-3.119,1.1-4.306C24.65,33.725,24.177,33.571,24.141,33.88Z" transform="translate(0)" fill="#fff" stroke="#fff" stroke-width="1"/>
      <path id="Path_110" data-name="Path 110" d="M.479.905A2.446,2.446,0,0,1,.52.283C.561.016.088-.138.042.17A2.852,2.852,0,0,0,.011.905c.026.272.514.319.473,0Z" transform="translate(14.402 4.952)" fill="#fff" stroke="#fff" stroke-width="1"/>
      <path id="Path_111" data-name="Path 111" d="M.964,1.137A2.2,2.2,0,0,1,.475.222C.434-.05-.039-.1,0,.222A2.734,2.734,0,0,0,.594,1.363c.18.247.56.036.365-.231Z" transform="translate(14.405 5.635)" fill="#fff" stroke="#fff" stroke-width="1"/>
      <path id="Path_112" data-name="Path 112" d="M.038.348A28.017,28.017,0,0,0,4.946,4.973c1.8,1.434,3.967,2.5,4.964,4.671.118.262.57.185.432-.123-.925-2.02-2.569-2.9-4.265-4.2A29.34,29.34,0,0,1,.424.106C.239-.135-.147.075.059.337Z" transform="translate(14.966 6.655)" fill="#fff" stroke="#fff" stroke-width="1"/>
      <path id="Path_113" data-name="Path 113" d="M18.342,13.7a7.621,7.621,0,0,0-1.752-1.028l-2.179-1.249c-1.423-.812-2.826-1.624-4.3-2.354A39.008,39.008,0,0,1,4.164,5.864,9.471,9.471,0,0,1,2.109,3.629C1.533,2.807.438,1.378.48.283.48.016.012-.138,0,.17-.06,1.8,1.631,3.86,2.638,5.006A14.886,14.886,0,0,0,7.479,8.244c1.758.858,3.387,1.629,5.021,2.569l3,1.716a11.845,11.845,0,0,1,2.492,1.4c.211.216.6,0,.365-.231Z" transform="translate(6.693 10.738)" fill="#fff" stroke="#fff" stroke-width="1"/>
      <path id="Path_114" data-name="Path 114" d="M.006.28c1.7,3.253,4.913,5.535,8,7.359a50.784,50.784,0,0,0,5.776,2.9,16.589,16.589,0,0,0,2.785,1.11,21.022,21.022,0,0,0,3.644.046c.324,0,.175-.447-.093-.463-1.028-.057-2.112.1-3.155-.026a11.407,11.407,0,0,1-3.027-1.074,52.034,52.034,0,0,1-5.252-2.6C5.541,5.737,2.164,3.425.463.151.33-.1-.123-.023.032.275Z" transform="translate(3.25 20.824)" fill="#fff" stroke="#fff" stroke-width="1"/>
      <path id="Path_115" data-name="Path 115" d="M.8.037C.563.207.326.366.085.551s.087.55.313.4S.876.628,1.113.438,1.02-.117.8.037Z" transform="translate(18.861 39.485)" fill="#fff" stroke="#fff" stroke-width="1"/>
      <path id="Path_116" data-name="Path 116" d="M.2.468A60.691,60.691,0,0,0,21.347,4.019c.324,0,.18-.468-.093-.463A60.321,60.321,0,0,1,.231.016C-.082-.092-.062.371.2.463Z" transform="translate(0.944 34.696)" fill="#fff" stroke="#fff" stroke-width="1"/>
      <path id="Path_117" data-name="Path 117" d="M1.224.021C.849.221.474.412.088.591-.1.684.057.925.171.992l1.156.673c.288.17.411-.252.149-.4L.32.591.4.992c.38-.18.761-.37,1.136-.57.257-.139-.077-.514-.313-.4Z" transform="translate(13.728 51.624)" fill="#fff" stroke="#fff" stroke-width="1"/>
      <path id="Path_118" data-name="Path 118" d="M.657.033q-.283.2-.57.385C-.16.578.174.964.4.82S.786.568.971.434.878-.121.657.033Z" transform="translate(15.852 50.656)" fill="#fff" stroke="#fff" stroke-width="1"/>
      <path id="Path_119" data-name="Path 119" d="M.095.74,1.873,2.1a.267.267,0,0,0,.293.036Q3.892,1.329,5.573.422C5.83.283,5.5-.092,5.259.021A19.271,19.271,0,0,1,2.582,1.393c-.637.221-.73.154-1.259-.252L.367.412C.11.216-.147.545.1.74Z" transform="translate(12.761 45.262)" fill="#fff" stroke="#fff" stroke-width="1"/>
      <path id="Path_120" data-name="Path 120" d="M7.005,1.966C6.111,1.375,5.263.738,4.436.065A.262.262,0,0,0,4.2.008C2.853.573,1.5,1.1.129,1.611c-.288.108-.041.514.211.447A31.591,31.591,0,0,1,3.67.763c1.146-.278,2.128.9,3.083,1.542.267.175.514-.149.267-.329Z" transform="translate(11.036 41.914)" fill="#fff" stroke="#fff" stroke-width="1"/>
      <path id="Path_121" data-name="Path 121" d="M.1.389,2.669,2.311c.257.2.514-.134.267-.329L.367.06C.11-.135-.147.193.1.389Z" transform="translate(14.534 46.975)" fill="#fff" stroke="#fff" stroke-width="1"/>
      <path id="Path_122" data-name="Path 122" d="M.1.386.665.808C.922,1,1.179.679.932.479L.367.057C.11-.133-.147.2.1.386Z" transform="translate(11.507 56.47)" fill="#fff" stroke="#fff" stroke-width="1"/>
      <path id="Path_123" data-name="Path 123" d="M5.976,1.532c-.478.257-.961.514-1.449.74-.678.329-.9.483-1.542.1A17.032,17.032,0,0,1,.364.073C.123-.148-.149.186.1.4c1.028.961,2.128,1.9,3.238,2.8a.267.267,0,0,0,.293.036c.91-.406,1.8-.833,2.677-1.305.257-.139-.077-.514-.313-.4Z" transform="translate(11.875 39.105)" fill="#fff" stroke="#fff" stroke-width="1"/>
      <path id="Path_124" data-name="Path 124" d="M.488,1.65A2.138,2.138,0,0,0,.8.689C.8.386.529.175.282.031s-.411.252-.149.4.18.123.149.293a1.66,1.66,0,0,1-.206.6c-.139.242.262.56.4.324Z" transform="translate(17.671 0.764)" fill="#fff" stroke="#fff" stroke-width="1"/>
      <path id="Path_125" data-name="Path 125" d="M.214.452a57.776,57.776,0,0,0,7.143.755c.324,0,.175-.447-.092-.462A56.785,56.785,0,0,1,.245,0C-.084-.052-.069.406.214.452Z" transform="translate(12.457 31.254)" fill="#fff" stroke="#fff" stroke-width="1"/>
      <path id="Path_126" data-name="Path 126" d="M10.965,2.758c-1.9-.313-3.777-.709-5.653-1.213A41.543,41.543,0,0,0,.245,0C-.084-.043-.069.409.214.45A47.794,47.794,0,0,1,5.281,1.992,53.375,53.375,0,0,0,10.934,3.2C11.263,3.261,11.247,2.8,10.965,2.758Z" transform="translate(1.737 28.527)" fill="#fff" stroke="#fff" stroke-width="1"/>
      <path id="Path_127" data-name="Path 127" d="M.346.528A2,2,0,0,1,.628.466C.947.425.808-.047.536,0a2.816,2.816,0,0,0-.4.077C-.163.163.089.595.346.528Z" transform="translate(2.926 41.456)" fill="#fff" stroke="#fff" stroke-width="1"/>
      <path id="Path_128" data-name="Path 128" d="M2.033,4.787q.9-.283,1.8-.591c.19-.067.149-.278.026-.385A25.75,25.75,0,0,1,.419.111C.239-.136-.141.069.054.342a26.471,26.471,0,0,0,3.53,3.8l.026-.385q-.894.308-1.8.591c-.293.092-.046.514.211.447Z" transform="translate(2.94 36.724)" fill="#fff" stroke="#fff" stroke-width="1"/>
      <path id="Path_129" data-name="Path 129" d="M4.185.007C2.848.521,1.5.953.135,1.338c-.3.082-.046.514.211.447C1.718,1.4,3.064.948,4.4.454,4.688.347,4.436-.059,4.185.007Z" transform="translate(5.393 49.037)" fill="#fff" stroke="#fff" stroke-width="1"/>
      <path id="Path_130" data-name="Path 130" d="M.1.4.746.911A.216.216,0,1,0,1.013.582L.365.068C.119-.143-.149.186.1.4Z" transform="translate(8.801 48.499)" fill="#fff" stroke="#fff" stroke-width="1"/>
      <path id="Path_131" data-name="Path 131" d="M.1.4C1.232,1.461,2.4,2.458,3.591,3.485a.216.216,0,1,0,.267-.329C2.666,2.165,1.494,1.147.364.073.127-.148-.15.181.1.4Z" transform="translate(5.287 45.426)" fill="#fff" stroke="#fff" stroke-width="1"/>
      <path id="Path_132" data-name="Path 132" d="M3.165.007.133,1c-.293.1-.046.514.211.447L3.375.454C3.668.357,3.422-.06,3.165.007Z" transform="translate(2.265 45.435)" fill="#fff" stroke="#fff" stroke-width="1"/>
      <path id="Path_133" data-name="Path 133" d="M6,.02C4.346.76,2.661,1.428.965,2.076a.216.216,0,0,0-.026.385,49.155,49.155,0,0,0,4.3,3.15V5.246C3.565,6,1.854,6.644.133,7.256a.216.216,0,0,0-.026.385Q1.2,8.52,2.332,9.358c.257.19.514-.134.267-.329Q1.474,8.191.374,7.312L.348,7.7c1.763-.627,3.5-1.285,5.211-2.056.144-.067.077-.3,0-.365a49.159,49.159,0,0,1-4.3-3.15l-.026.385C2.969,1.86,4.686,1.171,6.376.421,6.638.3,6.3-.093,6.063.02Z" transform="translate(8.633 46.979)" fill="#fff" stroke="#fff" stroke-width="1"/>
      <path id="Path_134" data-name="Path 134" d="M.342,2.035C1.679,1.521,2.994,1.008,4.31.463c.283-.118.036-.55-.211-.447C2.789.566,1.468,1.095.132,1.588-.161,1.7.091,2.1.342,2.035Z" transform="translate(6.429 38.89)" fill="#fff" stroke="#fff" stroke-width="1"/>
      <path id="Path_135" data-name="Path 135" d="M.1.4c1.028.94,2.056,1.835,3.15,2.708a.216.216,0,1,0,.267-.329C2.435,1.912,1.381,1.018.364.073.127-.148-.15.186.1.4Z" transform="translate(6.439 40.467)" fill="#fff" stroke="#fff" stroke-width="1"/>
      <path id="Path_136" data-name="Path 136" d="M.074.333c.863.935,1.758,1.835,2.672,2.718a.262.262,0,0,0,.236.057L7.094,1.736c.293-.1.046-.514-.211-.447l-2.826.94c-.786.262-1.084.313-1.752-.2A16.552,16.552,0,0,1,.434.091C.228-.13-.157.091.069.323Z" transform="translate(2.658 42.776)" fill="#fff" stroke="#fff" stroke-width="1"/>
      <path id="Path_137" data-name="Path 137" d="M.462.394c1.1.992,2.246,1.932,3.407,2.852l.026-.385Q2.019,3.514.133,4.135c-.293.1-.046.514.211.447q1.886-.627,3.762-1.274a.216.216,0,0,0,.026-.385C2.969,2,1.829,1.062.724.07.482-.145.21.184.457.4Z" transform="translate(4.814 51.353)" fill="#fff" stroke="#fff" stroke-width="1"/>
      <path id="Path_138" data-name="Path 138" d="M.091.364c.2.139.4.283.591.427S1.2.657.95.462A6.793,6.793,0,0,0,.359.035C.153-.1-.155.179.091.364Z" transform="translate(10.919 44.241)" fill="#fff" stroke="#fff" stroke-width="1"/>
    </g>
  </g>
</svg>
