<svg xmlns="http://www.w3.org/2000/svg" width="112" height="112" viewBox="0 0 112 112">
  <g id="icecream-square-icon" transform="translate(-431 -3043)">
    <g id="Rectangle_25" data-name="Rectangle 25" transform="translate(431 3043)" fill="rgba(0,0,0,0.46)" stroke="#fff" stroke-width="1">
      <rect width="112" height="112" stroke="none"/>
      <rect x="0.5" y="0.5" width="111" height="111" fill="none"/>
    </g>
    <g id="Layer0_7_1_STROKES" data-name="Layer0 7 1 STROKES" transform="translate(471 3064)">
      <path id="Path_109" data-name="Path 109" d="M28.871,40.518c-.111.928-.246,1.844-.449,2.766a5.476,5.476,0,0,1-.32,1.272,2.458,2.458,0,0,1-1.567,1.229.227.227,0,0,0-.215.141c-1.131,3.479-2.268,6.951-3.35,10.448q-1.008,3.251-1.985,6.515l-1.063,3.552c-.393,1.321-.688,2.852-2.157,3.35C13.15,71.359,6.217,70.117,2.4,67.1c-1.942-1.536-1.174-4.3-1.112-6.509s.123-4.413.172-6.619c.1-4.026.129-8.051.2-12.071a.344.344,0,0,0-.2-.307c-1.3-.578-.744-2.575-.615-3.626s.2-3.153,1.543-3.27c.277,0,.27-.313.1-.473-1.53-1.432-1.506-3.331-.928-5.23.436-1.432,1.137-3.073,2.667-3.509a.234.234,0,0,0,.135-.338c-1.162-2.532-.879-4.855-.061-7.449.713-2.243,1.672-3.688,4.056-4.265a.215.215,0,0,0,.16-.2C8.338,8.781,13.4,5.616,17.508,6.519a.234.234,0,0,0,.3-.2c.147-1.659,1.788-1.77,2.944-2.514.356-.234.928-.615.99-1.051.172-1.266-1.788-1.463-2.563-1.69l.258.4C19.757.14,22.51.619,23.346.847a5.919,5.919,0,0,1,2.286,1.291A15.861,15.861,0,0,1,29.369,7.9a15.832,15.832,0,0,1,1.549,6.041c0,1.647-.1,3.989-1.186,5.316a.277.277,0,0,0,0,.332c-.215-.307.406,1.186.467,1.407a12.415,12.415,0,0,1,.43,3.128,10.448,10.448,0,0,1-.406,3,11.431,11.431,0,0,0-.854,2.188c0,.369.529,1.063.67,1.4a6.429,6.429,0,0,1,.455,2.729c-.074,1.77-.805,4.37-2.692,4.917-.3.092-.129.486.111.535a1.463,1.463,0,0,1,.891,1.616c0,.32.553.5.572.135.055-1.137-.209-2.053-1.432-2.286l.111.535c2.907-.879,3.515-5.427,2.667-7.9-.135-.387-.4-.768-.5-1.155a2.544,2.544,0,0,1,.283-1.672,11.062,11.062,0,0,0,.67-2.919,12.6,12.6,0,0,0-.1-2.716c-.135-.977-.572-1.844-.738-2.809-.111-.615-.117-.043.148-.516a6.619,6.619,0,0,0,.615-1.918,13.711,13.711,0,0,0,.2-4.874A19.65,19.65,0,0,0,26.382,2.186,6.717,6.717,0,0,0,22.547.146C21.435-.02,19.191-.334,18.86,1.16a.338.338,0,0,0,.258.4,5.93,5.93,0,0,1,1.549.473c1.045.719-.516,1.358-1.155,1.659a4.831,4.831,0,0,0-1.844,1.149c-.615.725-.147.928-1.229.916a8.094,8.094,0,0,0-2.95.35A9.557,9.557,0,0,0,8.571,9.795a8.666,8.666,0,0,0-.7,2.544c-.227.916-1.469,1-2.188,1.555-1.6,1.229-2.108,3.6-2.52,5.476a9.668,9.668,0,0,0-.277,2.661,7.879,7.879,0,0,0,.43,2.1c.1.3.35.651.184.922s-.713.393-.922.615A3.786,3.786,0,0,0,2,26.389,8.991,8.991,0,0,0,.772,29.573c-.381,2.077-.2,3.559,1.371,5.021l.1-.473A1.672,1.672,0,0,0,.741,35.35a12.157,12.157,0,0,0-.719,4.917c.092.946.848,1.334,1,2.1a23.615,23.615,0,0,1-.061,4.419C.926,49.344.87,51.907.809,54.464Q.748,56.922.68,59.38A50.674,50.674,0,0,0,.52,65.17c.172,1.868,2.219,2.919,3.688,3.626a20.835,20.835,0,0,0,9.907,2.077,11.691,11.691,0,0,0,4.271-.719c1.2-.59,1.475-1.758,1.844-2.864,1.045-3.4,2.04-6.828,3.073-10.233.891-2.882,1.844-5.753,2.766-8.6.178-.541.3-1.709.756-2.1.3-.252.848-.123,1.229-.5,1.082-1.119,1.155-3.731,1.321-5.15C29.48,40.334,28.914,40.15,28.871,40.518Z" transform="translate(0)" fill="#fff" stroke="#fff" stroke-width="1"/>
      <path id="Path_110" data-name="Path 110" d="M.572,1.083A2.925,2.925,0,0,1,.621.339C.671.019.105-.165.05.2a3.411,3.411,0,0,0-.037.879c.031.326.615.381.565,0Z" transform="translate(17.224 5.922)" fill="#fff" stroke="#fff" stroke-width="1"/>
      <path id="Path_111" data-name="Path 111" d="M1.152,1.359A2.637,2.637,0,0,1,.568.265C.519-.06-.046-.116,0,.265A3.27,3.27,0,0,0,.71,1.63c.215.3.67.043.436-.277Z" transform="translate(17.228 6.739)" fill="#fff" stroke="#fff" stroke-width="1"/>
      <path id="Path_112" data-name="Path 112" d="M.046.416A33.507,33.507,0,0,0,5.915,5.947c2.151,1.715,4.745,2.993,5.937,5.587.141.313.682.221.516-.148C11.262,8.971,9.3,7.92,7.267,6.365A35.09,35.09,0,0,1,.507.127C.285-.162-.176.09.07.4Z" transform="translate(17.898 7.959)" fill="#fff" stroke="#fff" stroke-width="1"/>
      <path id="Path_113" data-name="Path 113" d="M21.937,16.386a9.114,9.114,0,0,0-2.1-1.229l-2.606-1.493c-1.7-.971-3.38-1.942-5.138-2.815A46.652,46.652,0,0,1,4.98,7.014,11.327,11.327,0,0,1,2.522,4.34c-.688-.983-2-2.692-1.948-4C.574.019.014-.165,0,.2-.072,2.152,1.95,4.617,3.155,5.987A17.8,17.8,0,0,0,8.944,9.859c2.1,1.026,4.05,1.948,6,3.073l3.583,2.053a14.167,14.167,0,0,1,2.981,1.678c.252.258.713,0,.436-.277Z" transform="translate(8.004 12.842)" fill="#fff" stroke="#fff" stroke-width="1"/>
      <path id="Path_114" data-name="Path 114" d="M.007.335c2.034,3.89,5.876,6.619,9.569,8.8a60.735,60.735,0,0,0,6.908,3.472,19.84,19.84,0,0,0,3.331,1.328,25.141,25.141,0,0,0,4.357.055c.387,0,.209-.535-.111-.553-1.229-.068-2.526.117-3.774-.031a13.643,13.643,0,0,1-3.62-1.284,62.231,62.231,0,0,1-6.281-3.11C6.626,6.862,2.588,4.1.554.181c-.16-.3-.7-.209-.516.148Z" transform="translate(3.887 24.905)" fill="#fff" stroke="#fff" stroke-width="1"/>
      <path id="Path_115" data-name="Path 115" d="M.956.044C.673.247.39.438.1.659s.1.658.375.479.572-.387.854-.615S1.22-.14.956.044Z" transform="translate(22.556 47.222)" fill="#fff" stroke="#fff" stroke-width="1"/>
      <path id="Path_116" data-name="Path 116" d="M.24.56A72.583,72.583,0,0,0,25.53,4.807c.387,0,.215-.559-.111-.553A72.141,72.141,0,0,1,.277.019C-.1-.11-.074.443.24.554Z" transform="translate(1.129 41.495)" fill="#fff" stroke="#fff" stroke-width="1"/>
      <path id="Path_117" data-name="Path 117" d="M1.464.025C1.015.265.567.492.106.707c-.227.111-.037.4.1.479l1.383.805c.344.2.492-.3.178-.479L.382.707l.1.479C.935.972,1.39.744,1.839.5,2.146.338,1.747-.11,1.464.025Z" transform="translate(16.419 61.74)" fill="#fff" stroke="#fff" stroke-width="1"/>
      <path id="Path_118" data-name="Path 118" d="M.786.04Q.448.28.1.5c-.3.191.1.651.375.479s.461-.3.682-.461S1.05-.144.786.04Z" transform="translate(18.959 60.582)" fill="#fff" stroke="#fff" stroke-width="1"/>
      <path id="Path_119" data-name="Path 119" d="M.113.885,2.24,2.514a.32.32,0,0,0,.35.043Q4.655,1.589,6.665.5C6.972.338,6.573-.11,6.29.025a23.047,23.047,0,0,1-3.2,1.641c-.762.264-.873.184-1.506-.3L.439.492C.132.259-.176.652.119.885Z" transform="translate(15.262 54.131)" fill="#fff" stroke="#fff" stroke-width="1"/>
      <path id="Path_120" data-name="Path 120" d="M8.378,2.351C7.309,1.644,6.295.882,5.305.077A.313.313,0,0,0,5.022.01C3.412.686,1.79,1.319.155,1.927c-.344.129-.049.615.252.535A37.782,37.782,0,0,1,4.389.913C5.76.581,6.934,1.995,8.077,2.757c.32.209.615-.178.32-.393Z" transform="translate(13.198 50.127)" fill="#fff" stroke="#fff" stroke-width="1"/>
      <path id="Path_121" data-name="Path 121" d="M.119.465l3.073,2.3c.307.234.615-.16.32-.393L.439.072C.132-.162-.176.231.119.465Z" transform="translate(17.382 56.181)" fill="#fff" stroke="#fff" stroke-width="1"/>
      <path id="Path_122" data-name="Path 122" d="M.119.462.8.966c.307.234.615-.154.32-.393L.439.068C.132-.159-.176.234.119.462Z" transform="translate(13.762 67.535)" fill="#fff" stroke="#fff" stroke-width="1"/>
      <path id="Path_123" data-name="Path 123" d="M7.147,1.832c-.572.307-1.149.615-1.733.885-.811.393-1.082.578-1.844.117A20.369,20.369,0,0,1,.436.087C.147-.177-.179.222.116.48,1.345,1.629,2.661,2.754,3.988,3.824a.32.32,0,0,0,.35.043c1.088-.486,2.157-1,3.2-1.561.307-.166-.092-.615-.375-.479Z" transform="translate(14.202 46.768)" fill="#fff" stroke="#fff" stroke-width="1"/>
      <path id="Path_124" data-name="Path 124" d="M.583,1.973A2.557,2.557,0,0,0,.952.824C.952.461.633.209.338.037s-.492.3-.178.479.215.148.178.35a1.985,1.985,0,0,1-.246.713c-.166.289.313.67.479.387Z" transform="translate(21.134 0.914)" fill="#fff" stroke="#fff" stroke-width="1"/>
      <path id="Path_125" data-name="Path 125" d="M.256.54a69.1,69.1,0,0,0,8.543.9c.387,0,.209-.535-.111-.553A67.912,67.912,0,0,1,.293.006C-.1-.062-.082.485.256.54Z" transform="translate(14.898 37.378)" fill="#fff" stroke="#fff" stroke-width="1"/>
      <path id="Path_126" data-name="Path 126" d="M13.113,3.3C10.845,2.923,8.6,2.45,6.353,1.848,4.374,1.313,2.309.268.293,0-.1-.051-.082.49.256.539c2.022.283,4.075,1.328,6.06,1.844a63.834,63.834,0,0,0,6.761,1.45C13.47,3.9,13.451,3.354,13.113,3.3Z" transform="translate(2.077 34.117)" fill="#fff" stroke="#fff" stroke-width="1"/>
      <path id="Path_127" data-name="Path 127" d="M.414.632A2.391,2.391,0,0,1,.752.558C1.133.509.967-.057.641,0A3.367,3.367,0,0,0,.162.1C-.195.2.106.711.414.632Z" transform="translate(3.499 49.579)" fill="#fff" stroke="#fff" stroke-width="1"/>
      <path id="Path_128" data-name="Path 128" d="M2.431,5.725q1.082-.338,2.151-.707c.227-.08.178-.332.031-.461A30.8,30.8,0,0,1,.5.132C.286-.163-.169.083.065.409A31.658,31.658,0,0,0,4.287,4.951l.031-.461q-1.069.369-2.151.707c-.35.111-.055.615.252.535Z" transform="translate(3.516 43.92)" fill="#fff" stroke="#fff" stroke-width="1"/>
      <path id="Path_129" data-name="Path 129" d="M5,.009C3.407.623,1.8,1.14.162,1.6c-.356.1-.055.615.252.535,1.641-.461,3.251-1,4.843-1.592C5.607.414,5.306-.071,5,.009Z" transform="translate(6.449 58.646)" fill="#fff" stroke="#fff" stroke-width="1"/>
      <path id="Path_130" data-name="Path 130" d="M.117.474l.774.615A.258.258,0,1,0,1.211.7L.437.081C.142-.171-.178.222.117.474Z" transform="translate(10.525 58.002)" fill="#fff" stroke="#fff" stroke-width="1"/>
      <path id="Path_131" data-name="Path 131" d="M.115.481C1.473,1.747,2.869,2.939,4.294,4.168a.258.258,0,1,0,.32-.393C3.188,2.589,1.787,1.372.435.088.152-.177-.18.217.115.481Z" transform="translate(6.323 54.327)" fill="#fff" stroke="#fff" stroke-width="1"/>
      <path id="Path_132" data-name="Path 132" d="M3.785.009.159,1.195c-.35.117-.055.615.252.535L4.037.543C4.387.427,4.092-.071,3.785.009Z" transform="translate(2.709 54.338)" fill="#fff" stroke="#fff" stroke-width="1"/>
      <path id="Path_133" data-name="Path 133" d="M7.177.024C5.2.909,3.182,1.708,1.154,2.482a.258.258,0,0,0-.031.461A58.787,58.787,0,0,0,6.261,6.711V6.274c-2,.9-4.044,1.672-6.1,2.4a.258.258,0,0,0-.031.461q1.309,1.051,2.661,2.053c.307.227.615-.16.32-.393Q1.763,9.8.447,8.745l-.031.461c2.108-.75,4.192-1.536,6.232-2.458.172-.08.092-.356,0-.436A58.792,58.792,0,0,1,1.511,2.544L1.48,3C3.551,2.224,5.6,1.4,7.626.5,7.939.362,7.54-.111,7.251.024Z" transform="translate(10.324 56.185)" fill="#fff" stroke="#fff" stroke-width="1"/>
      <path id="Path_134" data-name="Path 134" d="M.41,2.434C2.007,1.82,3.581,1.2,5.154.553,5.492.412,5.2-.1,4.9.019,3.335.676,1.755,1.309.158,1.9-.193,2.028.108,2.514.41,2.434Z" transform="translate(7.689 46.51)" fill="#fff" stroke="#fff" stroke-width="1"/>
      <path id="Path_135" data-name="Path 135" d="M.115.48C1.344,1.6,2.574,2.674,3.883,3.719a.258.258,0,1,0,.32-.393C2.912,2.287,1.652,1.218.435.087.152-.177-.18.222.115.48Z" transform="translate(7.7 48.397)" fill="#fff" stroke="#fff" stroke-width="1"/>
      <path id="Path_136" data-name="Path 136" d="M.089.4c1.033,1.119,2.1,2.194,3.2,3.251a.313.313,0,0,0,.283.068L8.484,2.076c.35-.117.055-.615-.252-.535L4.852,2.666c-.94.313-1.3.375-2.1-.24A19.8,19.8,0,0,1,.519.109C.273-.155-.188.109.082.386Z" transform="translate(3.179 51.159)" fill="#fff" stroke="#fff" stroke-width="1"/>
      <path id="Path_137" data-name="Path 137" d="M.552.472C1.867,1.658,3.238,2.782,4.627,3.882l.031-.461Q2.414,4.2.159,4.946c-.35.117-.055.615.252.535q2.256-.75,4.5-1.524A.258.258,0,0,0,4.94,3.5C3.551,2.4,2.187,1.27.866.084.577-.174.251.22.546.478Z" transform="translate(5.757 61.416)" fill="#fff" stroke="#fff" stroke-width="1"/>
      <path id="Path_138" data-name="Path 138" d="M.109.435C.349.6.583.773.816.945s.615-.16.32-.393A8.124,8.124,0,0,0,.429.042C.183-.118-.186.214.109.435Z" transform="translate(13.059 52.91)" fill="#fff" stroke="#fff" stroke-width="1"/>
    </g>
  </g>
</svg>
