<svg xmlns="http://www.w3.org/2000/svg" xmlns:xlink="http://www.w3.org/1999/xlink" width="17" height="15" viewBox="0 0 17 15"><defs><clipPath id="a"><rect width="17" height="15" transform="translate(0.244 0.34)" fill="#fff"/></clipPath></defs><g transform="translate(-0.244 -0.34)" opacity="0.89" clip-path="url(#a)"><g transform="translate(0.205 -0.618)"><g transform="translate(0 5.007)"><rect width="3.583" height="11.015" fill="#fff"/></g><g transform="translate(5.007 5.007)"><path d="M18.648,10.442c-.038-.012-.074-.025-.114-.036s-.1-.02-.145-.028a3.211,3.211,0,0,0-.643-.065,4.978,4.978,0,0,0-3.85,2.106V10.313H10.313V21.328H13.9V15.319s2.708-3.771,3.85-1v7.01h3.582V13.894A3.573,3.573,0,0,0,18.648,10.442Z" transform="translate(-10.313 -10.313)" fill="#fff"/></g><ellipse cx="1.752" cy="1.752" rx="1.752" ry="1.752" fill="#fff"/></g></g></svg>