<svg xmlns="http://www.w3.org/2000/svg" xmlns:xlink="http://www.w3.org/1999/xlink" width="44" height="44" viewBox="0 0 44 44"><defs><clipPath id="a"><rect width="44" height="44" transform="translate(1044 640)" fill="#fff"/></clipPath></defs><g transform="translate(-1044 -640)" clip-path="url(#a)"><g transform="translate(1044.286 640)"><g transform="translate(12.268 3.776)"><path d="M15.152,1.717a9.456,9.456,0,0,0-9.446,9.446v4.589A9.445,9.445,0,0,0,23.5,20.174a10.184,10.184,0,0,1-3.711.7H17.04a1.416,1.416,0,0,1,0-2.832h2.745a7.388,7.388,0,0,0,4.8-1.776q.014-.256.014-.515V11.162A9.456,9.456,0,0,0,15.152,1.717Z" transform="translate(-5.706 -1.717)" fill="#bed257"/></g><g transform="translate(4.662)"><path d="M32.6,11.733h-.166a13.222,13.222,0,0,0-26.276,0H6a3.747,3.747,0,1,0,0,7.495h1.5a1.416,1.416,0,0,0,1.416-1.416V13.222a10.39,10.39,0,0,1,20.78,0v4.116a7.349,7.349,0,0,1-.958.989,9.366,9.366,0,0,1-1.088,3.907,10.221,10.221,0,0,0,4.16-3.007h.8a3.747,3.747,0,0,0,0-7.495Z" transform="translate(-2.249)" fill="#bed257"/></g><g transform="translate(23.129 24.591)"><path d="M30.872,28.736,26.627,15.571a1.416,1.416,0,0,0-.664-.805l-6.5-3.587a12.292,12.292,0,0,1-8.815,5.416V30.587H29.524A1.417,1.417,0,0,0,30.872,28.736Z" transform="translate(-10.644 -11.178)" fill="#bed257"/></g><g transform="translate(0 24.591)"><path d="M11.613,11.178l-6.5,3.587a1.417,1.417,0,0,0-.664.805L.2,28.736a1.417,1.417,0,0,0,1.348,1.851h18.88V16.594A12.291,12.291,0,0,1,11.613,11.178Z" transform="translate(-0.13 -11.178)" fill="#bed257"/></g></g></g></svg>