<svg xmlns="http://www.w3.org/2000/svg" xmlns:xlink="http://www.w3.org/1999/xlink" width="22" height="22" viewBox="0 0 22 22"><defs><clipPath id="a"><rect width="22" height="22" transform="translate(559 992)" fill="#fff"/></clipPath></defs><g transform="translate(-559 -992)" clip-path="url(#a)"><g transform="translate(559 992)"><path d="M18.778,14.222A10.958,10.958,0,0,0,14.6,11.6a6.359,6.359,0,1,0-7.2,0A11.017,11.017,0,0,0,0,22H1.719a9.281,9.281,0,0,1,18.563,0H22A10.928,10.928,0,0,0,18.778,14.222ZM11,11a4.641,4.641,0,1,1,4.641-4.641A4.646,4.646,0,0,1,11,11Z" fill="#ff9faf"/></g></g></svg>