<svg xmlns="http://www.w3.org/2000/svg" xmlns:xlink="http://www.w3.org/1999/xlink" width="20" height="19" viewBox="0 0 20 19"><defs><clipPath id="a"><rect width="20" height="19" transform="translate(-0.474)" fill="#fff"/></clipPath></defs><g transform="translate(0.474)" opacity="0.89" clip-path="url(#a)"><g transform="translate(2.232 -0.54)"><g transform="translate(0)"><path d="M11.1,0C5.874,0,3.094,3.349,3.094,7c0,1.694.946,3.806,2.461,4.475.23.1.355.06.406-.154.045-.162.244-.943.341-1.311a.337.337,0,0,0-.081-.331,4.343,4.343,0,0,1-.9-2.635,5.137,5.137,0,0,1,5.471-5.02c2.98,0,5.064,1.936,5.064,4.7,0,3.129-1.656,5.293-3.807,5.293a1.7,1.7,0,0,1-1.8-2.091,22.659,22.659,0,0,0,1.006-3.85,1.479,1.479,0,0,0-1.53-1.627c-1.212,0-2.2,1.2-2.2,2.812a4.008,4.008,0,0,0,.362,1.715s-1.2,4.844-1.422,5.748a12.863,12.863,0,0,0,.088,4.225.126.126,0,0,0,.229.058A15.016,15.016,0,0,0,8.763,15.3c.148-.545.754-2.753.754-2.753A3.3,3.3,0,0,0,12.3,13.869c3.652,0,6.291-3.21,6.291-7.193C18.574,2.857,15.306,0,11.1,0Z" transform="translate(-3.094)" fill="#fff"/></g></g></g></svg>