<svg xmlns="http://www.w3.org/2000/svg" xmlns:xlink="http://www.w3.org/1999/xlink" width="22" height="22" viewBox="0 0 22 22"> <defs> <clipPath id="clip-path"> <rect id="Rectangle_88" data-name="Rectangle 88" width="22" height="22" transform="translate(437 983)" fill="#fff"/> </clipPath> </defs> <g id="Mask_Group_35" data-name="Mask Group 35" transform="translate(-437 -983)" clip-path="url(#clip-path)"> <g id="calendar" transform="translate(437 983)"> <g id="Group_149" data-name="Group 149"> <g id="Group_148" data-name="Group 148"> <path id="Path_941" data-name="Path 941" d="M19.422,1.719H18.391V0H16.672V1.719H5.328V0H3.609V1.719H2.578A2.581,2.581,0,0,0,0,4.3V19.422A2.581,2.581,0,0,0,2.578,22H19.422A2.581,2.581,0,0,0,22,19.422V4.3A2.581,2.581,0,0,0,19.422,1.719Zm.859,17.7a.86.86,0,0,1-.859.859H2.578a.86.86,0,0,1-.859-.859V8.078H20.281Zm0-13.062H1.719V4.3a.86.86,0,0,1,.859-.859H3.609V5.156H5.328V3.438H16.672V5.156h1.719V3.438h1.031a.86.86,0,0,1,.859.859Z" fill="#ff9faf"/> </g> </g> <g id="Group_151" data-name="Group 151" transform="translate(3.266 9.883)"> <g id="Group_150" data-name="Group 150"> <rect id="Rectangle_89" data-name="Rectangle 89" width="1.719" height="1.719" fill="#ff9faf"/> </g> </g> <g id="Group_153" data-name="Group 153" transform="translate(6.703 9.883)"> <g id="Group_152" data-name="Group 152"> <rect id="Rectangle_90" data-name="Rectangle 90" width="1.719" height="1.719" fill="#ff9faf"/> </g> </g> <g id="Group_155" data-name="Group 155" transform="translate(10.141 9.883)"> <g id="Group_154" data-name="Group 154"> <rect id="Rectangle_91" data-name="Rectangle 91" width="1.719" height="1.719" fill="#ff9faf"/> </g> </g> <g id="Group_157" data-name="Group 157" transform="translate(13.578 9.883)"> <g id="Group_156" data-name="Group 156"> <rect id="Rectangle_92" data-name="Rectangle 92" width="1.719" height="1.719" fill="#ff9faf"/> </g> </g> <g id="Group_159" data-name="Group 159" transform="translate(17.016 9.883)"> <g id="Group_158" data-name="Group 158"> <rect id="Rectangle_93" data-name="Rectangle 93" width="1.719" height="1.719" fill="#ff9faf"/> </g> </g> <g id="Group_161" data-name="Group 161" transform="translate(3.266 13.32)"> <g id="Group_160" data-name="Group 160"> <rect id="Rectangle_94" data-name="Rectangle 94" width="1.719" height="1.719" fill="#ff9faf"/> </g> </g> <g id="Group_163" data-name="Group 163" transform="translate(6.703 13.32)"> <g id="Group_162" data-name="Group 162"> <rect id="Rectangle_95" data-name="Rectangle 95" width="1.719" height="1.719" fill="#ff9faf"/> </g> </g> <g id="Group_165" data-name="Group 165" transform="translate(10.141 13.32)"> <g id="Group_164" data-name="Group 164"> <rect id="Rectangle_96" data-name="Rectangle 96" width="1.719" height="1.719" fill="#ff9faf"/> </g> </g> <g id="Group_167" data-name="Group 167" transform="translate(13.578 13.32)"> <g id="Group_166" data-name="Group 166"> <rect id="Rectangle_97" data-name="Rectangle 97" width="1.719" height="1.719" fill="#ff9faf"/> </g> </g> <g id="Group_169" data-name="Group 169" transform="translate(3.266 16.758)"> <g id="Group_168" data-name="Group 168"> <rect id="Rectangle_98" data-name="Rectangle 98" width="1.719" height="1.719" fill="#ff9faf"/> </g> </g> <g id="Group_171" data-name="Group 171" transform="translate(6.703 16.758)"> <g id="Group_170" data-name="Group 170"> <rect id="Rectangle_99" data-name="Rectangle 99" width="1.719" height="1.719" fill="#ff9faf"/> </g> </g> <g id="Group_173" data-name="Group 173" transform="translate(10.141 16.758)"> <g id="Group_172" data-name="Group 172"> <rect id="Rectangle_100" data-name="Rectangle 100" width="1.719" height="1.719" fill="#ff9faf"/> </g> </g> <g id="Group_175" data-name="Group 175" transform="translate(13.578 16.758)"> <g id="Group_174" data-name="Group 174"> <rect id="Rectangle_101" data-name="Rectangle 101" width="1.719" height="1.719" fill="#ff9faf"/> </g> </g> <g id="Group_177" data-name="Group 177" transform="translate(17.016 13.32)"> <g id="Group_176" data-name="Group 176"> <rect id="Rectangle_102" data-name="Rectangle 102" width="1.719" height="1.719" fill="#ff9faf"/> </g> </g> </g> </g> </svg>