<svg xmlns="http://www.w3.org/2000/svg" xmlns:xlink="http://www.w3.org/1999/xlink" width="24" height="24" viewBox="0 0 24 24"><defs><clipPath id="a"><rect width="24" height="24" transform="translate(798 2060)" fill="#fff"/></clipPath></defs><g transform="translate(-798 -2060)" clip-path="url(#a)"><g transform="translate(798 2060)"><path d="M19.5,24H4.5A4.5,4.5,0,0,1,0,19.5V4.5A4.5,4.5,0,0,1,4.5,0h15A4.5,4.5,0,0,1,24,4.5v15A4.5,4.5,0,0,1,19.5,24Z" fill="#ffe7eb"/><path d="M11,9.5V7.375a.375.375,0,0,0-.636-.269l-4.25,4.125a.375.375,0,0,0,0,.538l4.25,4.125A.375.375,0,0,0,11,15.625V13.5h.709a6.378,6.378,0,0,1,5.577,3.286l.011.019a.375.375,0,0,0,.329.195.36.36,0,0,0,.093-.012A.373.373,0,0,0,18,16.625,7.133,7.133,0,0,0,11,9.5Z" fill="#ff9faf"/></g></g></svg>