<svg xmlns="http://www.w3.org/2000/svg" xmlns:xlink="http://www.w3.org/1999/xlink" width="44" height="44" viewBox="0 0 44 44"><defs><clipPath id="a"><rect width="44" height="44" transform="translate(1152 631)" fill="#fff"/></clipPath></defs><g transform="translate(-1152 -631)" clip-path="url(#a)"><g transform="translate(1157.996 631)"><g transform="translate(0)"><path d="M19.2,0A15.772,15.772,0,0,0,3.446,15.754c0,10.781,14.1,26.607,14.7,27.275a1.419,1.419,0,0,0,2.111,0c.6-.668,14.7-16.495,14.7-27.275A15.772,15.772,0,0,0,19.2,0Zm0,23.68a7.926,7.926,0,1,1,7.926-7.926A7.935,7.935,0,0,1,19.2,23.68Z" transform="translate(-3.446)" fill="#bed257"/></g></g></g></svg>