<svg xmlns="http://www.w3.org/2000/svg" xmlns:xlink="http://www.w3.org/1999/xlink" width="22" height="22" viewBox="0 0 22 22"><defs><clipPath id="a"><rect width="22" height="22" transform="translate(672 983)" fill="#fff"/></clipPath></defs><g transform="translate(-672 -983)" clip-path="url(#a)"><g transform="translate(672 984.314)"><g transform="translate(0)"><path d="M3.2,22.3H1.643l1.1-1.1A3.73,3.73,0,0,0,3.811,18.99,8.4,8.4,0,0,1,.519,15.1,7.624,7.624,0,0,1,.3,10.213,9.564,9.564,0,0,1,3.963,5.1a11.974,11.974,0,0,1,7.074-2.169,11.859,11.859,0,0,1,8.177,2.787A8.366,8.366,0,0,1,21.3,15.3a8.606,8.606,0,0,1-2.092,2.911,11.832,11.832,0,0,1-8.172,2.8,14.868,14.868,0,0,1-3.7-.47A5.776,5.776,0,0,1,3.2,22.3Zm7.835-18.08c-5.339,0-8.616,3.184-9.494,6.34-.83,2.982.394,5.8,3.273,7.538l.322.194-.01.376a5.085,5.085,0,0,1-.514,2.107A4.574,4.574,0,0,0,6.636,19.39l.273-.323.4.121a13.357,13.357,0,0,0,3.723.527c6.645,0,9.672-4.024,9.672-7.762a7.1,7.1,0,0,0-2.367-5.286,10.6,10.6,0,0,0-7.305-2.449Z" transform="translate(0 -2.928)" fill="#ff9faf"/></g></g></g></svg>