<svg xmlns="http://www.w3.org/2000/svg" xmlns:xlink="http://www.w3.org/1999/xlink" width="44" height="44" viewBox="0 0 44 44"><defs><clipPath id="a"><rect width="44" height="44" transform="translate(1044 640)" fill="#fff"/></clipPath></defs><g transform="translate(-1044 -640)" clip-path="url(#a)"><g transform="translate(1044 645.242)"><g transform="translate(2.21)"><path d="M38.927,2.383H2.662A3.822,3.822,0,0,0,1,2.77l19.7,19.7,4.416-4.244h0L40.585,2.771A3.822,3.822,0,0,0,38.927,2.383Z" transform="translate(-1.005 -2.383)" fill="#bed257"/></g><g transform="translate(29.065 2.211)"><path d="M27.759,3.388,13.211,17.935,27.759,32.482a3.822,3.822,0,0,0,.388-1.657V5.044A3.822,3.822,0,0,0,27.759,3.388Z" transform="translate(-13.211 -3.388)" fill="#bed257"/></g><g transform="translate(0 2.21)"><path d="M.388,3.388A3.822,3.822,0,0,0,0,5.044V30.826a3.823,3.823,0,0,0,.387,1.656L14.935,17.935Z" transform="translate(0 -3.388)" fill="#bed257"/></g><g transform="translate(2.21 18.581)"><path d="M26.037,10.829,21.62,15.073a1.288,1.288,0,0,1-1.823,0l-4.245-4.245L1,25.376a3.822,3.822,0,0,0,1.657.388H38.927a3.822,3.822,0,0,0,1.657-.388Z" transform="translate(-1.004 -10.829)" fill="#bed257"/></g></g></g></svg>