<svg xmlns="http://www.w3.org/2000/svg" xmlns:xlink="http://www.w3.org/1999/xlink" width="18" height="19" viewBox="0 0 18 19"><defs><clipPath id="a"><rect width="18" height="19" transform="translate(-0.208)" fill="#fff"/></clipPath></defs><g transform="translate(0.208)" opacity="0.89" clip-path="url(#a)"><g transform="translate(-1.761 1.013)"><g transform="translate(0 0)"><path d="M19.647,5.077a8.4,8.4,0,0,1-2.321.636A4.005,4.005,0,0,0,19.1,3.487a8.049,8.049,0,0,1-2.554.975A4.028,4.028,0,0,0,9.577,7.216a4.147,4.147,0,0,0,.093.918,11.4,11.4,0,0,1-8.3-4.213A4.029,4.029,0,0,0,2.606,9.305a3.978,3.978,0,0,1-1.82-.5v.044a4.046,4.046,0,0,0,3.227,3.958,4.02,4.02,0,0,1-1.056.133,3.561,3.561,0,0,1-.763-.069A4.066,4.066,0,0,0,5.958,15.68,8.093,8.093,0,0,1,.964,17.4,7.544,7.544,0,0,1,0,17.343a11.339,11.339,0,0,0,6.179,1.808A11.385,11.385,0,0,0,17.643,7.689c0-.178-.006-.35-.015-.521A8.035,8.035,0,0,0,19.647,5.077Z" transform="translate(0 -3.188)" fill="#fff"/></g></g></g></svg>