<svg xmlns="http://www.w3.org/2000/svg" xmlns:xlink="http://www.w3.org/1999/xlink" width="725" height="746" viewBox="0 0 725 746"><defs><clipPath id="a"><rect width="403" height="414" transform="translate(-0.129 0.084)" fill="#fff"/></clipPath><clipPath id="b"><rect width="725" height="746" transform="translate(0.321 0.071)" fill="#fff"/></clipPath></defs><g transform="translate(-1451.321 -28.071)"><g transform="translate(1661.45 191.987)" opacity="0.19" clip-path="url(#a)"><path d="M381.241,178.622c38.11,8.017,92.871,6.892,122.913,25.387s35.363,56.682,20.428,87.414c-14.849,30.8-49.955,54.15-79.482,80.733s-53.474,56.33-81.456,52.884c-27.9-3.446-59.74-40.156-82.314-63.433-22.574-23.348-35.964-33.334-56.049-43.461s-46.951-20.394-67.121-40.226-33.561-49.228-28.325-77.076c5.236-27.919,29.012-54.221,60.512-64.7s70.641-5.134,100.94,6.118,51.843,28.341,89.953,36.358Z" transform="translate(-129.248 -70.895)" fill="#fff"/></g><g transform="translate(1451 28)" opacity="0.19" clip-path="url(#b)"><path d="M583.674,217.188c68.658,14.443,167.315,12.416,221.437,45.737s63.71,102.117,36.8,157.483c-26.752,55.493-90,97.556-143.192,145.447s-96.338,101.483-146.749,95.275c-50.256-6.208-107.626-72.343-148.295-114.28-40.669-42.063-64.792-60.054-100.977-78.3s-84.585-36.742-120.925-72.47-60.462-88.687-51.03-138.859c9.433-50.3,52.267-97.683,109.018-116.56s127.265-9.249,181.851,11.023,93.4,51.059,162.057,65.5Z" transform="translate(-129.691 -23.109)" fill="#fff"/></g></g></svg>