<svg xmlns="http://www.w3.org/2000/svg" xmlns:xlink="http://www.w3.org/1999/xlink" width="59" height="52" viewBox="0 0 59 52"><defs><style>.a{fill:#fff;}.b{clip-path:url(#a);}.c{fill:#ffb300;}.d{fill:#f57c00;}</style><clipPath id="a"><rect class="a" width="59" height="52" transform="translate(417.276 8908.534)"/></clipPath></defs><g class="b" transform="translate(-417.276 -8908.534)"><g transform="translate(420.019 8908.464)"><g transform="translate(0 0)"><ellipse class="c" cx="26.5" cy="26" rx="26.5" ry="26" transform="translate(0.256 0.07)"/><path class="a" d="M38.664,32.116V44.022a4.181,4.181,0,0,1-1.321,3.054,6.911,6.911,0,0,0-2.152,5.195l.224,8.792H33.5l.224-8.792a6.911,6.911,0,0,0-2.152-5.195,4.193,4.193,0,0,1-1.315-3.054V32.116a.643.643,0,0,1,.655-.637.666.666,0,0,1,.625.672v9.234a.542.542,0,0,0,1.079,0v-9.27a.643.643,0,0,1,.672-.637.666.666,0,0,1,.625.672v9.234a.542.542,0,0,0,1.079,0v-9.27a.649.649,0,0,1,.666-.637.666.666,0,0,1,.625.672v9.234a.542.542,0,1,0,1.085,0v-9.24A.66.66,0,0,1,38,31.48a.649.649,0,0,1,.666.637Z" transform="translate(-8.01 -9.112)"/><path class="a" d="M38.52,11.777a4.439,4.439,0,0,0-.466,0,6.239,6.239,0,0,0-12.082,0,4.393,4.393,0,1,0-.466,8.768V23.2s0,.831,1.5.831,1.958-.831,5.006-.831,3.538.831,5.006.831,1.5-.831,1.5-.831v-2.63a4.4,4.4,0,0,0,0-8.792ZM25.76,13.3a4.647,4.647,0,0,0-3.326,4.458q0,.142,0,.283a3.573,3.573,0,0,1,3.054-5.449h.307a6.3,6.3,0,0,0-.035.708Zm4.423,8.662a.542.542,0,0,1-1.085,0V20.133a.542.542,0,0,1,1.085,0Zm2.359-.879a.542.542,0,0,1-1.085,0V19.254a.542.542,0,1,1,1.085,0ZM27.476,15.15a6.322,6.322,0,0,0,.094,1.05A5.266,5.266,0,0,1,34.84,8.929a6.28,6.28,0,0,0-7.365,6.221Zm7.453,6.811a.542.542,0,0,1-1.085,0V20.133a.542.542,0,0,1,1.085,0Z" transform="translate(-5.567 -2.542)"/><path class="d" d="M35.265,41.756a.542.542,0,0,0,.542.542.537.537,0,0,0,.466-.289V33.524a.666.666,0,0,0-.625-.672.631.631,0,0,0-.383.13Z" transform="translate(-9.359 -9.482)"/><path class="d" d="M38.51,41.756a.537.537,0,0,0,1.008.259V33.524a.666.666,0,0,0-.625-.672.631.631,0,0,0-.383.13Z" transform="translate(-10.233 -9.482)"/><path class="d" d="M41.487,33.493V45.41a4.157,4.157,0,0,1-1.327,3.049,6.917,6.917,0,0,0-2.146,5.207L38.2,61.4q-.489.035-.979.047L37,52.663a6.935,6.935,0,0,1,2.158-5.2,4.128,4.128,0,0,0,1.315-3.06V32.98a.59.59,0,0,1,.348-.136.655.655,0,0,1,.666.649Z" transform="translate(-9.826 -9.48)"/><path class="d" d="M32.013,41.756a.542.542,0,0,0,.542.542.537.537,0,0,0,.466-.289V33.524a.666.666,0,0,0-.625-.672.631.631,0,0,0-.383.13Z" transform="translate(-8.482 -9.482)"/><path class="d" d="M32.684,10.071a6.18,6.18,0,0,1,4.2-.755A5.248,5.248,0,0,0,34.7,8.532,6.245,6.245,0,0,0,29.028,13.2h-.206a5.309,5.309,0,0,0-.029.59v.248h.065a2.29,2.29,0,0,1-.029.448,5.254,5.254,0,0,0,.778,2.135,6.18,6.18,0,0,1,.755-4.2A5.307,5.307,0,0,1,32.684,10.071Z" transform="translate(-7.614 -2.929)"/><path class="d" d="M32.555,24.215a.542.542,0,0,0-.542.542v1.816a.542.542,0,0,0,.542.542.537.537,0,0,0,.466-.283v-1.05a.525.525,0,0,1,.077-.259v-.749a.543.543,0,0,0-.543-.56Z" transform="translate(-8.482 -7.155)"/><path class="d" d="M35.8,23.037a.542.542,0,0,0-.542.542v1.828a.542.542,0,0,0,.542.542.537.537,0,0,0,.472-.283V24.588a.525.525,0,0,1,.077-.259v-.749a.542.542,0,0,0-.548-.542Z" transform="translate(-9.357 -6.837)"/><path class="d" d="M43.845,12.686a4.434,4.434,0,0,1,.466,0h.177a6.274,6.274,0,0,0-1.8-2.306A6.245,6.245,0,0,1,43.845,12.686Z" transform="translate(-11.358 -3.427)"/><path class="d" d="M44.048,16.014a4.393,4.393,0,0,1-3.567,6.958V25.6s0,.831-1.5.831-1.958-.831-5.012-.831h-.879a.537.537,0,0,1-.489.313.531.531,0,0,1-.425-.218c-1.545.23-2.093.714-3.22.714a3.1,3.1,0,0,1-.489-.035v.212s0,.831,1.5.831,1.958-.831,5.006-.831,3.538.831,5.006.831,1.5-.831,1.5-.831V23.981a4.393,4.393,0,0,0,2.559-7.966Z" transform="translate(-7.527 -4.945)"/><path class="d" d="M22.778,19.873a4.647,4.647,0,0,1,3.32-4.452,2.261,2.261,0,0,1,.029-.448,4.393,4.393,0,0,0-3.68,4.334c0,.053,0,.1,0,.147a3.615,3.615,0,0,0,.324.708A2.409,2.409,0,0,0,22.778,19.873Z" transform="translate(-5.905 -4.664)"/><path class="d" d="M26.153,25.235a4.369,4.369,0,0,1-2.559-.826,4.393,4.393,0,0,0,2.559,1.716Z" transform="translate(-6.214 -7.207)"/><path class="d" d="M39.052,27.17a.537.537,0,0,0,.466-.283v-1.1a.531.531,0,0,1,.077-.259v-.749a.542.542,0,0,0-1.085,0v1.8a.543.543,0,0,0,.542.59Z" transform="translate(-10.232 -7.161)"/></g></g></g></svg>