<svg xmlns="http://www.w3.org/2000/svg" xmlns:xlink="http://www.w3.org/1999/xlink" width="30" height="27" viewBox="0 0 30 27"><defs><style>.a{fill:#fff;}.b{clip-path:url(#a);}</style><clipPath id="a"><rect class="a" width="30" height="27" transform="translate(861.513 6335.135)"/></clipPath></defs><g class="b" transform="translate(-861.513 -6335.135)"><g transform="translate(862.001 6338.866)"><g transform="translate(0 0)"><path class="a" d="M31.867,6.537a6.209,6.209,0,0,1,1.985-4.621,6.572,6.572,0,0,1,9.724.482,8.215,8.215,0,0,1,1.857,5.465q0,5.947-10.086,11.468l-.964-1.5q3.423-2.835,3.423-4.564,0-.539-1.418-1.084a9.256,9.256,0,0,1-2.941-1.5A5.089,5.089,0,0,1,31.867,6.537Z" transform="translate(-16.493 0.009)"/><path class="a" d="M0,6.538A6.514,6.514,0,0,1,1.8,1.916,6.3,6.3,0,0,1,6.42,0a6.273,6.273,0,0,1,5.167,2.4,8.052,8.052,0,0,1,1.921,5.465q0,5.947-10.086,11.468l-1.084-1.5q3.544-2.835,3.544-4.564,0-.539-1.559-1.084a9.214,9.214,0,0,1-2.906-1.5A5.431,5.431,0,0,1,0,6.538Z" transform="translate(0.002 0.009)"/></g></g></g></svg>