<svg xmlns="http://www.w3.org/2000/svg" width="98" height="99" viewBox="0 0 98 99">
  <g id="sugar-icon" transform="translate(-417.071 -2303.946)">
    <g id="Ellipse_7" data-name="Ellipse 7" transform="translate(417.071 2303.946)" fill="none" stroke="#ff9faf" stroke-width="4">
      <ellipse cx="49" cy="49.5" rx="49" ry="49.5" stroke="none"/>
      <ellipse cx="49" cy="49.5" rx="47" ry="47.5" fill="none"/>
    </g>
    <ellipse id="Ellipse_8" data-name="Ellipse 8" cx="41" cy="40.5" rx="41" ry="40.5" transform="translate(425.071 2312.946)" fill="#ff9faf"/>
    <g id="Layer0_17_1_STROKES" data-name="Layer0 17 1 STROKES" transform="matrix(0.966, 0.259, -0.259, 0.966, 452.282, 2324.946)">
      <path id="Path_150" data-name="Path 150" d="M5.1,2.015c-1.2,1.079-2.409,2.175-3.6,3.3C.971,5.827-.108,6.663.009,7.553s1.8,1.591,2.571,1.924a45.466,45.466,0,0,0,8.764,2.975,7.6,7.6,0,0,0,6.625-1.915c1.321-1.088,3.973-3.254,3.982-5.223,0-1.285-1.33-1.8-2.328-2.274A37.7,37.7,0,0,0,10.445.083C8.315-.295,6.688.667,5.052,2.006c-.27.225.4.818.7.566C7.928.757,9.726.523,12.423,1.242c1.8.5,3.6,1.025,5.393,1.663s4.153,1.294,2.9,3.416a14.455,14.455,0,0,1-4.189,4.27C12.728,13.153,8.2,10.96,4.342,9.5c-.764-.288-2.463-.638-2.921-1.3C.8,7.3,1.2,7.031,1.888,6.267,3.1,4.946,4.539,3.777,5.87,2.582,6.067,2.321,5.393,1.755,5.1,2.015Z" transform="translate(0.389 0)" fill="#fff" stroke="#fff" stroke-width="1"/>
      <path id="Path_151" data-name="Path 151" d="M2.211,4.1a4.567,4.567,0,0,1-1.42-.98C.7,3.025.17,2.71.143,3.043a39.911,39.911,0,0,0,0,6.751c.108,1.3,0,2.7,1,3.6,1.294,1.276,3.281,1.744,4.89,2.31a34.157,34.157,0,0,0,6.131,1.87c3.6.548,7.065-2.454,8.989-5.2C23.4,9.218,22.7,4.023,22.05.49c-.054-.3-.8-.773-.782-.27,0,1.375-1.241,2.643-2.112,3.6-1.51,1.627-3.5,3.317-5.789,3.6-2,.252-4.351-.782-6.229-1.411A48.326,48.326,0,0,1,2.184,4.113c-.539-.252-.584.369-.153.566A54.839,54.839,0,0,0,8.323,7.016c2.014.647,4.108,1.483,6.238.962a11.552,11.552,0,0,0,5.331-3.6C20.845,3.358,22.139,2.009,22.086.5L21.3.229c.557,3.1.989,6.859,0,9.888a11.461,11.461,0,0,1-7.236,6.616c-2.966.692-6.85-1.2-9.591-2.256-1.537-.593-2.868-.9-3.4-2.841A12.918,12.918,0,0,1,.862,9.281,37.953,37.953,0,0,1,.916,3.456L.269,3.376a5.834,5.834,0,0,0,1.8,1.276C2.588,4.949,2.633,4.319,2.211,4.1Z" transform="translate(18.467 12.825)" fill="#fff" stroke="#fff" stroke-width="1"/>
      <path id="Path_152" data-name="Path 152" d="M21.92,4.894c-.512-1.348-2.3-1.9-3.542-2.391A41.593,41.593,0,0,0,10.342.076C8.257-.284,6.657.678,5.1,2S.427,5.362,0,7.528c-.072.351.692.827.764.431C1.1,6.234,3.4,4.714,4.652,3.582,6.162,2.215,7.843.489,10.046.678a26.8,26.8,0,0,1,5.295,1.4c1.393.431,5.25,1.124,5.843,2.7.126.333.9.593.746.09Z" transform="translate(18.605 8.331)" fill="#fff" stroke="#fff" stroke-width="1"/>
      <path id="Path_153" data-name="Path 153" d="M.011.2A28.387,28.387,0,0,1,.434,7.472c0,.342.746.746.782.27A28.388,28.388,0,0,0,.793.47C.73.137-.106-.241.011.2Z" transform="translate(21.556 4.521)" fill="#fff" stroke="#fff" stroke-width="1"/>
      <path id="Path_154" data-name="Path 154" d="M1.593,5.849A10.077,10.077,0,0,1,5.908,7c1.591.656,3.254,1.151,4.809,1.906,2.517,1.214,2.229,3.856,2.041,6.22-.126,1.537.108,3.847-.9,5.025-.243.279.369.755.638.611A56.244,56.244,0,0,0,17.6,17.643a10.589,10.589,0,0,0,2.76-2.256c.9-1.4.647-3.847.773-5.393a12.737,12.737,0,0,0,0-4.045C20.5,3.467,17.4,2.6,15.32,1.705,12.983.69,10.286-.641,7.742.348c-2.265.9-5.681,2.984-6.958,5.2s-.6,5.951-.638,8.441c0,2.643,1.717,3.65,3.991,4.71a35.55,35.55,0,0,0,5.394,2.148,3.391,3.391,0,0,0,2.921-.054c.351-.234-.288-.9-.584-.656-1.8,1.214-7.083-1.654-8.711-2.544C.272,16.016.946,13.328.928,10.533c0-2.112-.09-3.91,1.438-5.465A17.808,17.808,0,0,1,8.3,1.013c2.328-.9,4.908.423,7.048,1.357a20.585,20.585,0,0,1,3.6,1.726c1.915,1.339,1.582,3.461,1.438,5.393-.072.9-.144,1.843-.234,2.769-.2,1.987-.521,2.85-2.112,4.054a49.142,49.142,0,0,1-6.122,3.793l.638.611c1.339-1.519,1-4.638,1.1-6.562s.27-3.811-1.42-5.061S8.434,7.359,6.591,6.64c-1.178-.467-2.31-1.133-3.524-1.492a5.394,5.394,0,0,0-1.879,0c-.44,0,.081.71.422.71Z" transform="translate(0 26.028)" fill="#fff" stroke="#fff" stroke-width="1"/>
      <path id="Path_155" data-name="Path 155" d="M.7.83,1.048.677C1.417.515.8-.123.464.021L.113.174C-.255.336.365.974.7.83Z" transform="translate(17.337 32.782)" fill="#fff" stroke="#fff" stroke-width="1"/>
      <path id="Path_156" data-name="Path 156" d="M.171.218C.09,1.27.045,2.321,0,3.373c0,.351.755.746.782.27.045-1.052.1-2.1.171-3.155C.953.146.207-.259.171.218Z" transform="translate(31.393 24.756)" fill="#fff" stroke="#fff" stroke-width="1"/>
      <path id="Path_157" data-name="Path 157" d="M0,.232v1.2c0,.4.764.746.782.27s0-.8,0-1.2S0-.244,0,.232Z" transform="translate(31.689 21.982)" fill="#fff" stroke="#fff" stroke-width="1"/>
      <path id="Path_158" data-name="Path 158" d="M.1.22,0,2.377c0,.351.755.746.782.27L.881.489C.881.139.126-.257.1.22Z" transform="translate(13.198 17.437)" fill="#fff" stroke="#fff" stroke-width="1"/>
      <path id="Path_159" data-name="Path 159" d="M.1.22Q.1,1.415,0,2.6c0,.351.755.746.782.27Q.854,1.685.881.489C.881.139.108-.257.1.22Z" transform="translate(13.396 13.67)" fill="#fff" stroke="#fff" stroke-width="1"/>
      <path id="Path_160" data-name="Path 160" d="M.284.143C.032,2.957-.3,6.57.527,9.294c.494,1.627,2.292,2.247,3.757,2.814,2.571,1,5.528,2.3,8.3,2.589,2.535.261,4.674-1.169,6.481-2.778.27-.243-.4-.827-.7-.566-1.8,1.564-3.847,2.966-6.292,2.607a31.372,31.372,0,0,1-5.591-1.7c-.9-.306-1.8-.6-2.607-.953-2-.827-2.643-2.184-2.8-4.207a38.824,38.824,0,0,1,0-6.526C1.066.215.329-.235.3.143Z" transform="translate(0.132 7.401)" fill="#fff" stroke="#fff" stroke-width="1"/>
      <path id="Path_161" data-name="Path 161" d="M.693,1.691C1.322,1.35,1.961,1.008,2.6.685,2.967.5,2.338-.142,2.014.028,1.376.352.738.694.109,1.035-.251,1.233.369,1.871.693,1.691Z" transform="translate(14.087 33.476)" fill="#fff" stroke="#fff" stroke-width="1"/>
    </g>
  </g>
</svg>
