<svg xmlns="http://www.w3.org/2000/svg" width="112" height="112" viewBox="0 0 112 112">
  <g id="sugar-square-icon" transform="translate(-431 -3043)">
    <g id="Rectangle_25" data-name="Rectangle 25" transform="translate(431 3043)" fill="rgba(0,0,0,0.46)" stroke="#fff" stroke-width="1">
      <rect width="112" height="112" stroke="none"/>
      <rect x="0.5" y="0.5" width="111" height="111" fill="none"/>
    </g>
    <g id="Layer0_17_1_STROKES" data-name="Layer0 17 1 STROKES" transform="matrix(0.966, 0.259, -0.259, 0.966, 468.743, 3061.951)">
      <path id="Path_150" data-name="Path 150" d="M6.653,2.631C5.081,4.039,3.508,5.471,1.959,6.938,1.267,7.607-.141,8.7.011,9.86s2.347,2.077,3.356,2.511a59.354,59.354,0,0,0,11.441,3.884,9.928,9.928,0,0,0,8.649-2.5c1.725-1.42,5.187-4.248,5.2-6.818,0-1.678-1.737-2.347-3.039-2.969A49.215,49.215,0,0,0,13.636.108C10.854-.385,8.73.871,6.595,2.619c-.352.293.516,1.068.915.739C10.35.988,12.7.683,16.217,1.622c2.347.657,4.694,1.338,7.041,2.171s5.422,1.69,3.79,4.459a18.87,18.87,0,0,1-5.468,5.574c-4.964,3.344-10.878.481-15.912-1.42-1-.376-3.215-.833-3.814-1.7-.81-1.173-.293-1.526.61-2.523,1.584-1.725,3.462-3.251,5.2-4.811C7.921,3.03,7.041,2.291,6.653,2.631Z" transform="translate(0.508 0)" fill="#fff" stroke="#fff" stroke-width="1"/>
      <path id="Path_151" data-name="Path 151" d="M2.886,5.357A5.962,5.962,0,0,1,1.032,4.078c-.117-.129-.81-.54-.845-.106a52.1,52.1,0,0,0,0,8.813c.141,1.7,0,3.52,1.3,4.694,1.69,1.666,4.283,2.277,6.384,3.016a44.59,44.59,0,0,0,8,2.441c4.694.716,9.224-3.2,11.735-6.794,2.934-4.107,2.018-10.89,1.173-15.5C28.714.252,27.74-.37,27.764.288c0,1.8-1.619,3.45-2.758,4.694-1.971,2.124-4.565,4.33-7.557,4.694-2.617.329-5.68-1.021-8.132-1.842A63.087,63.087,0,0,1,2.85,5.369c-.7-.329-.763.481-.2.739a71.589,71.589,0,0,0,8.214,3.051c2.629.845,5.363,1.936,8.144,1.256a15.08,15.08,0,0,0,6.959-4.694c1.244-1.338,2.934-3.1,2.863-5.069L27.811.3c.728,4.049,1.291,8.954,0,12.908a14.962,14.962,0,0,1-9.447,8.637c-3.873.9-8.942-1.561-12.521-2.945-2.007-.775-3.743-1.173-4.436-3.708a16.864,16.864,0,0,1-.282-3.075,49.545,49.545,0,0,1,.07-7.6L.351,4.407A7.616,7.616,0,0,0,2.7,6.073C3.379,6.46,3.437,5.639,2.886,5.357Z" transform="translate(24.108 16.742)" fill="#fff" stroke="#fff" stroke-width="1"/>
      <path id="Path_152" data-name="Path 152" d="M28.616,6.389c-.669-1.76-3-2.476-4.624-3.121A54.3,54.3,0,0,0,13.5.1C10.779-.37,8.69.885,6.66,2.61S.558,7,.006,9.827c-.094.458.9,1.08,1,.563.434-2.253,3.438-4.236,5.069-5.715C8.045,2.892,10.239.639,13.114.885a34.983,34.983,0,0,1,6.912,1.831c1.819.563,6.853,1.467,7.628,3.52.164.434,1.173.775.974.117Z" transform="translate(24.288 10.875)" fill="#fff" stroke="#fff" stroke-width="1"/>
      <path id="Path_153" data-name="Path 153" d="M.015.261A37.058,37.058,0,0,1,.566,9.754c0,.446.974.974,1.021.352A37.059,37.059,0,0,0,1.036.613C.953.179-.138-.314.015.261Z" transform="translate(28.14 5.902)" fill="#fff" stroke="#fff" stroke-width="1"/>
      <path id="Path_154" data-name="Path 154" d="M2.08,7.636a13.155,13.155,0,0,1,5.633,1.5c2.077.857,4.248,1.5,6.278,2.488,3.286,1.584,2.91,5.034,2.664,8.121-.164,2.007.141,5.023-1.173,6.56-.317.364.481.986.833.8a73.423,73.423,0,0,0,6.665-4.072,13.824,13.824,0,0,0,3.6-2.945c1.173-1.831.845-5.023,1.009-7.041a16.628,16.628,0,0,0,0-5.281C26.759,4.526,22.71,3.4,20,2.226,16.948.9,13.428-.837,10.107.454,7.15,1.628,2.69,4.35,1.024,7.237S.238,15.005.191,18.256c0,3.45,2.241,4.764,5.21,6.149a46.409,46.409,0,0,0,7.041,2.8c1.279.352,2.629.728,3.814-.07.458-.305-.376-1.173-.763-.857-2.347,1.584-9.247-2.159-11.371-3.321C.355,20.908,1.235,17.4,1.212,13.75c0-2.758-.117-5.1,1.878-7.135a23.247,23.247,0,0,1,7.745-5.292c3.039-1.173,6.407.552,9.2,1.772a26.873,26.873,0,0,1,4.694,2.253c2.5,1.748,2.065,4.518,1.878,7.041-.094,1.173-.188,2.406-.305,3.614-.258,2.593-.681,3.72-2.758,5.292a64.152,64.152,0,0,1-7.991,4.952l.833.8c1.749-1.983,1.3-6.055,1.432-8.566s.352-4.976-1.854-6.607S11.01,9.607,8.6,8.669C7.067,8.058,5.589,7.19,4,6.721a7.042,7.042,0,0,0-2.453,0c-.575,0,.106.927.552.927Z" transform="translate(0 33.978)" fill="#fff" stroke="#fff" stroke-width="1"/>
      <path id="Path_155" data-name="Path 155" d="M.911,1.083l.458-.2C1.849.673,1.04-.16.606.027l-.458.2C-.333.438.476,1.271.911,1.083Z" transform="translate(22.633 42.796)" fill="#fff" stroke="#fff" stroke-width="1"/>
      <path id="Path_156" data-name="Path 156" d="M.223.284C.117,1.657.059,3.03,0,4.4c0,.458.986.974,1.021.352.059-1.373.129-2.746.223-4.119C1.244.19.27-.338.223.284Z" transform="translate(40.981 32.318)" fill="#fff" stroke="#fff" stroke-width="1"/>
      <path id="Path_157" data-name="Path 157" d="M0,.3V1.875c0,.528,1,.974,1.021.352s0-1.044,0-1.572S0-.319,0,.3Z" transform="translate(41.368 28.696)" fill="#fff" stroke="#fff" stroke-width="1"/>
      <path id="Path_158" data-name="Path 158" d="M.129.287,0,3.1c0,.458.986.974,1.021.352L1.15.639C1.15.181.164-.335.129.287Z" transform="translate(17.23 22.763)" fill="#fff" stroke="#fff" stroke-width="1"/>
      <path id="Path_159" data-name="Path 159" d="M.129.287Q.129,1.848,0,3.4c0,.458.986.974,1.021.352Q1.115,2.2,1.15.639C1.15.181.141-.335.129.287Z" transform="translate(17.488 17.846)" fill="#fff" stroke="#fff" stroke-width="1"/>
      <path id="Path_160" data-name="Path 160" d="M.371.187C.042,3.86-.392,8.577.687,12.133c.645,2.124,2.992,2.934,4.905,3.673,3.356,1.3,7.217,3,10.831,3.38,3.309.34,6.1-1.526,8.461-3.626.352-.317-.528-1.08-.915-.739-2.347,2.042-5.023,3.873-8.214,3.4a40.955,40.955,0,0,1-7.3-2.218c-1.173-.4-2.347-.786-3.4-1.244C2.448,13.682,1.6,11.91,1.391,9.269a50.683,50.683,0,0,1,0-8.52c0-.469-.962-1.056-1-.563Z" transform="translate(0.172 9.661)" fill="#fff" stroke="#fff" stroke-width="1"/>
      <path id="Path_161" data-name="Path 161" d="M.9,2.208c.821-.446,1.655-.892,2.488-1.314.481-.235-.34-1.08-.763-.857C1.8.46.963.906.142,1.351-.327,1.61.482,2.443.9,2.208Z" transform="translate(18.39 43.701)" fill="#fff" stroke="#fff" stroke-width="1"/>
    </g>
  </g>
</svg>
